<?xml version="1.0" encoding="utf-8"?>
<!-- Generator: Adobe Illustrator 18.1.1, SVG Export Plug-In . SVG Version: 6.00 Build 0)  -->
<!DOCTYPE svg PUBLIC "-//W3C//DTD SVG 1.1//EN" "http://www.w3.org/Graphics/SVG/1.1/DTD/svg11.dtd">
<svg version="1.1" id="Layer_1" xmlns="http://www.w3.org/2000/svg" xmlns:xlink="http://www.w3.org/1999/xlink" x="0px" y="0px"
	 viewBox="0 0 1140 1200" enable-background="new 0 0 1140 1200" xml:space="preserve">
<g>
	<g>
		<path d="M65.2,416.8c0.7-16.7,6.3-32.8,12-48.4c5.4-15,11.5-29.9,18.1-44.5c12.9-28.9,28-56.8,44.9-83.5c-2.8-0.9-5.7-1.9-8.5-2.8
			c-0.1,29.7-0.2,59.4,0.5,89c0.4,14.3,1.1,28.6,2.5,42.9c1.4,13.8,2.7,28.7,7.1,41.9c1.2,3.6,8.7,6,8.1,0.4
			c-1.6-14-4.9-27.8-6.3-41.9c-1.4-13.9-2.1-27.9-2.5-41.9c-0.8-29.9-0.4-59.8-0.7-89.7c0-4.1-6.2-6.5-8.5-2.8
			c-17,27.4-31.9,56.2-44.5,85.8c-6.2,14.7-11.9,29.6-17,44.7c-5.5,16.3-10.6,32.7-10.7,50C59.8,420,65,421.3,65.2,416.8L65.2,416.8
			z"/>
	</g>
</g>
<g>
	<g>
		<path d="M67.2,383c2.1-3.1,2.7-2.3,3.9-4.7c0.3-0.5,0.4-1.1,0.7-1.6c0.5-1,1-2,1.6-3c1.2-2.2,2.7-4.2,4.3-6c4.3-5,9.5-9.2,15-12.9
			c16.9-11.4,36.1-19.1,55.3-25.6c5.8-2,0.7-10.5-4.3-8.7c-20.7,7.4-42.4,16-59.7,30.1c-5.3,4.3-10.2,9-13.9,14.7
			c-3,4.6-6.5,11.6-3.9,17.1C66.2,382.5,67,383.3,67.2,383L67.2,383z"/>
	</g>
</g>
<g>
	<g>
		<path d="M289,279.9c-18.5-13.1-47.1-9.6-65.3,2.2c-9.5,6.1-17.3,14.9-22.6,24.9c-5.3,10-9.8,23.3-4.3,34
			c11.1,21.4,39.5,24.3,60.8,25.1c25.4,0.9,50.9-6.2,66.7-27.4c8.5-11.4,6.2-24.7-4.1-34.3c-5.3-4.9-11.8-8.1-18.1-11.4
			c-7.6-4-15.1-8.7-23.2-11.6c-4.9-1.8-6.7,4.2-3,7c10,7.7,22.8,11.4,33.4,18.2c9,5.8,15,15,8,24.9c-12.2,17.4-32.9,25.5-53.5,25.8
			c-17.8,0.2-41.3-0.2-54.9-13.5c-8.3-8.2-5.6-18.8-1.3-28.4c4-8.9,10.1-16.7,17.7-22.8c8.6-6.9,19-11.2,29.9-12.5
			c5.2-0.6,10.5-0.6,15.6,0.1c5.6,0.7,10.8,2.7,16.3,3.8C288.9,284.1,290.6,281,289,279.9L289,279.9z"/>
	</g>
</g>
<g>
	<g>
		<path d="M380.1,271.7c12.4,10.5,26.7,19.1,41.6,25.7c6.4,2.8,12.3,3.9,18-0.9c5.9-4.8,10.8-11.3,15.8-17.1
			c10.2-11.7,20.3-23.4,32.4-33.1c11.9-9.5,25.2-17,39.3-22.8c-2.6-2-5.1-4-7.7-6c-4.6,26.2-6.1,52.5-6,79.1
			c0,12.9,0.3,25.8,0.4,38.7c0.1,6.8,0.1,13.5,0,20.3c0,3.2-0.1,6.4-0.2,9.6c0,1,0.3,8.1-0.4,8.6c2.1,0.7,4.3,1.5,6.4,2.2
			c-0.3-0.5-0.6-1-0.9-1.5c-1.6-2.7-5.3-3.4-6.3,0.1c0,0.8,0,1.6,0,2.4c0.1,3.1,3.9,5.8,6.8,4.5c5.2-2.5,3.8-10.4,4-15.2
			c0.2-6.8,0.3-13.5,0.3-20.3c0-13.9-0.3-27.7-0.4-41.6c-0.2-27.9,0.1-56.2,6.4-83.5c1-4.1-4.1-7.4-7.7-6
			c-26.2,10.1-48.2,27.2-66.5,48.4c-4.7,5.5-9.3,11-14.1,16.4c-2.3,2.7-4.7,5.3-7.2,7.8c-3.1,3.1-4.8,3.5-9,1.7
			c-14.6-6.2-28-14.7-40.9-24C379.2,261.7,376.1,268.3,380.1,271.7L380.1,271.7z"/>
	</g>
</g>
<g>
	<g>
		<path d="M419.8,233.7c2.8,3.9,7.9,5.8,12.1,7.8c4.5,2.2,9,4.2,13.7,6.1c8.4,3.4,17.3,6.8,26.2,8.7c5.8,1.2,4.4-6.8,0.1-8.2
			c-9.1-3.1-18.4-5.4-27.3-9c-4.4-1.8-8.7-3.7-12.9-5.7c-3-1.4-7.4-5-10.7-3.6C419.5,230.4,418.9,232.5,419.8,233.7L419.8,233.7z"/>
	</g>
</g>
<g>
	<g>
		<path d="M709.6,221.8c0.6,0,1.1-0.1,1.7-0.1c-0.7-0.5-1.5-0.9-2.2-1.4c1,2.4,0.5,5.8,0.5,8.4c0,2.6,0,5.3,0,7.9
			c0,6.3-0.1,12.6-0.1,18.9c0,12.8,0,25.7-0.1,38.5c-0.1,12.1,0.1,24.2-0.4,36.2c-0.2,5.9-0.7,11.7-1.8,17.5
			c-1,5.5-3.1,10.7-4.4,16.1c3,0.7,6.1,1.4,9.1,2c-0.3-1.1-0.7-2.2-1-3.3c-0.8-2.9-7.2-6.5-7.9-1.6c-0.2,1.3-0.3,2.6-0.5,3.9
			c-0.4,3.8,6.3,8.1,8.7,4.2c6.9-11.2,7.6-26.1,7.9-38.9c0.4-14.1,0-28.3-0.1-42.5c-0.1-14.6-0.1-29.1-0.6-43.7
			c-0.2-6.8,0.5-14.5-0.8-21.2c-0.9-4.6-3.5-8.2-8.5-7C706.9,216.4,707.3,221.4,709.6,221.8L709.6,221.8z"/>
	</g>
</g>
<g>
	<g>
		<path d="M676.8,260.8c2.2,3.9,5.8,6.6,9.1,9.5c3.2,2.9,6.5,5.9,9.7,8.8c6.1,5.5,12.3,10.9,18.4,16.4c-0.1-2.2-0.2-4.3-0.4-6.5
			c-18.7,9.9-37.3,20-55.9,30.1c-4.5,2.4-0.1,10.3,4,8c19-10.3,38.1-20.5,57-31c2.4-1.3,1.2-5.1-0.4-6.5
			c-6.8-5.8-13.5-11.6-20.2-17.4c-3.2-2.7-6.4-5.4-9.6-8.1c-2.8-2.4-6.1-6.2-9.8-6.8C677.1,257.2,676.2,259.7,676.8,260.8
			L676.8,260.8z"/>
	</g>
</g>
<g>
	<g>
		<path d="M873.5,390.6c35-10.2,58.2-44.9,71.5-76.7c6.9-16.4,11.8-33.7,15.2-51.1c3.5-18.3,8.1-39.6-5.9-54.7
			c-13.8-14.9-36.4-18.3-55.8-17.6c-20.7,0.7-41.7,6.5-57.6,20.2c-14.3,12.4-23.3,29.6-29.3,47.3c-5.1,14.9-8.6,32-3.8,47.4
			c6.1,19.6,25.3,30,44.7,32.2c21.1,2.4,44.4-4.2,58.2-21c2.4-2.9-2.3-9.3-5.5-6.6c-13.8,11.8-30.3,19.1-48.7,18.3
			c-14.9-0.6-31.5-7.1-37.4-21.9c-5.2-13.1-2.1-28.7,2-41.6c5.1-15.8,12.4-31.3,24.1-43.3c13.2-13.4,31.6-19.6,50-21.1
			c16.7-1.3,38.4-0.1,50.8,12.6c12.4,12.7,6.4,34.1,3.3,49.5c-3,15.3-7.3,30.5-13.1,45c-6.5,16.3-14.9,32.1-26,45.6
			c-10.9,13.3-24.3,22.8-39.5,30.7C867.9,385.4,870.3,391.5,873.5,390.6L873.5,390.6z"/>
	</g>
</g>
<g>
	<g>
		<path d="M110.2,507.1c-1.6,8.2-1.7,16.9-2.4,25.3c-0.7,7.9-1.5,15.9-2.1,23.8c-1.4,15.5-2.8,30.9-4.4,46.4
			c-1.7,15.8-3.5,31.6-5.4,47.3c-2,15.9-5.3,32.1-5.3,48.2c0,2.7,4.6,5.7,5.6,2c4.5-15.5,5.1-32.5,6.9-48.4
			c1.8-16.2,3.4-32.5,5-48.7c1.5-15.6,2.8-31.2,4-46.9c0.6-8.1,1.1-16.1,1.6-24.2c0.5-7.9,1.4-15.9,1-23.8
			C114.3,505.3,110.9,503.6,110.2,507.1L110.2,507.1z"/>
	</g>
</g>
<g>
	<g>
		<path d="M49.7,570.3c41.5,0.7,83.1,1.5,124.7,0.7c4.1-0.1,2.4-7.6-1.1-7.7c-41.3-1.3-82.8,0-124.1,0.7
			C45.9,564,46.4,570.2,49.7,570.3L49.7,570.3z"/>
	</g>
</g>
<g>
	<g>
		<path d="M42.5,637.8c23.1,0.3,46.3,0.6,69.4,0.7c11.5,0,22.9,0.1,34.4,0.2c11.9,0.1,23.9,0.6,35.7-0.4c3.9-0.3,3.2-6.8-0.4-7.1
			c-23-1.5-46.3-0.4-69.4-0.3c-23.3,0.1-46.7,0.4-70,0.7C39,631.7,39.4,637.8,42.5,637.8L42.5,637.8z"/>
	</g>
</g>
<g>
	<g>
		<path d="M389.7,488.8c-3.6,2.4-3.2,5.8-3.5,9.9c-0.4,4.3-0.6,8.6-0.9,12.9c-0.5,8.2-1.2,16.4-2,24.6c-1.6,16.7-3.5,33.4-5.9,50
			c-2.3,16.3-5.1,32.5-8.3,48.7c-1.5,7.8-3.1,15.5-4.8,23.2c-1.4,6.2-5.2,14.6-2.9,20.8c0.9,2.5,5.4,5.5,7.6,2.6
			c4.8-6.3,5.3-16.4,6.9-24.2c1.6-7.8,3.1-15.7,4.5-23.6c2.8-15.9,5.1-31.8,7.1-47.7c2-15.5,3.4-31.1,4.4-46.7c0.5-8,1-16,1.4-24
			c0.4-8.1,2.2-18.3-1.4-25.7C391.5,488.9,390.5,488.3,389.7,488.8L389.7,488.8z"/>
	</g>
</g>
<g>
	<g>
		<path d="M379.1,598.3c-15-0.5-32.1-1.3-46-7.5c-11.6-5.2-16.7-16.1-15.6-28.5c2.2-24.6,28.1-41.1,49.3-48.3
			c12.1-4.1,24.8-6.2,37.6-6.4c12.5-0.2,26.5,0.5,37.5,7.1c10.4,6.1,16.3,17,13.6,29c-2.9,12.9-13.5,22.2-23.8,29.4
			c-11.8,8.2-24.6,15.6-38.5,19.8c-15.8,4.8-31.1,4.1-46.7-1.1c-5.6-1.9-6.1,6.1-1.9,8.2c29,14.9,64,1.1,89-15.3
			c12.5-8.1,25.3-17.9,30.8-32.3c5.3-13.6,2.4-28.2-8-38.6c-11.2-11.2-26.9-15-42.2-15.9c-15.6-0.9-31.3,0.5-46.3,4.8
			c-26.1,7.5-57.5,26.3-60.3,56.2c-1.4,14.7,5.2,29.1,18.1,36.6c15.3,8.9,36,10,53.2,7.4C381.1,602.7,381.7,598.4,379.1,598.3
			L379.1,598.3z"/>
	</g>
</g>
<g>
	<g>
		<path d="M681,519.5c-0.2,0.1-0.4,0.2-0.6,0.4c-1.5-1.7-2.9-3.4-4.4-5c-2.1,7.4-2.5,15.4-3.8,22.9c-1.2,6.8-2.5,13.5-4.1,20.1
			c-3.4,14.7-7.8,29-12.6,43.3c-4.6,13.7-9.8,27.2-15.1,40.5c-2.9,7.2-5.9,14.4-8.9,21.5c-2.6,6.1-7.9,14.2-7.5,21
			c0.2,2.9,4.9,7,7.5,4c4.9-5.7,7.2-14.3,10-21.3c2.9-7.2,5.9-14.4,8.7-21.6c5.3-13.4,10.3-27,14.7-40.7c4.5-13.9,8.3-28,11.3-42.3
			c3-14.5,6.4-30.5,5.4-45.4c-0.1-2.1-3.4-5.6-5.2-2.8c-2.1,3.6-1.1,9,3.6,9.7C681.9,524.1,682.9,520.1,681,519.5L681,519.5z"/>
	</g>
</g>
<g>
	<g>
		<path d="M585,586.2c0.6,2.3,1.4,2.8,2.6,1.7c0.5-0.4,1.1-0.8,1.6-1.1c1.4-0.9,2.7-1.9,4.1-2.8c3-2.1,5.9-4.2,8.8-6.2
			c5.3-3.7,10.7-7.3,16-11c10.8-7.4,21.6-14.7,32.6-21.8c21.9-14.2,44.5-27.2,67.1-40.3c5-2.9-1.7-10.3-6.3-7.8
			c-28.8,15.9-56.7,33.9-83.8,52.5c-13.4,9.2-26.7,18.7-39.4,28.8c-3.4,2.7-9.5,6.4-7.3,11.7c1.8,4.3,6.2,2.2,6.4-1.6
			C587.4,587.5,586.1,584.8,585,586.2L585,586.2z"/>
	</g>
</g>
<g>
	<g>
		<path d="M668,502.8c4,18,15.2,34,24.4,49.7c10.8,18.4,21.1,37.1,33.2,54.7c2.7,3.9,8.6,1.2,6.4-3.3c-9-18.3-20.7-35.5-31.4-52.9
			c-10.1-16.4-21.6-32.5-29.7-49.9C670,499.3,667.7,501.4,668,502.8L668,502.8z"/>
	</g>
</g>
<g>
	<g>
		<path d="M841,473.7c-0.6,16.7-0.3,33.5-0.7,50.2c-0.5,17-1.3,34.1-2.7,51.1c-1.4,17-3.3,34-5.7,51c-1.2,8.7-2.6,17.5-4.1,26.2
			c-1.5,8.6-3.7,17.3-4.7,26c-0.6,5.4,8.4,9.5,9.9,3.4c4.2-16.5,5.9-34,8.1-50.8c2.2-16.9,3.8-33.8,5-50.8
			c2.4-35.1,3.8-71.1,0.1-106.1C845.8,470.3,841.2,469.9,841,473.7L841,473.7z"/>
	</g>
</g>
<g>
	<g>
		<path d="M969.9,461.1c-2.3,3.4-4.9,5.9-6.6,9.6c-1.6,3.6-2.5,7.6-3.3,11.5c-1.5,7.3-2.2,14.8-2.8,22.2c-1.5,17.5-3,35-5.3,52.4
			c-2.2,17.6-4.9,35-8,52.5c-1.6,9-3.2,17.9-5,26.9c-0.9,4.5-1.8,9-2.8,13.4c-0.8,3.9-2.3,8-2.2,12c0,3.9,6.7,8.9,8.8,3.6
			c3.1-7.7,4-16.9,5.5-25c1.5-7.9,2.9-15.9,4.2-23.8c2.6-15.8,4.8-31.6,6.6-47.5c1.9-16.2,3.4-32.5,4.6-48.8
			c0.5-7.1,0.8-14.3,1.3-21.4c0.4-6.6,1.1-13.1,2.6-19.6c1.1-5.1,2.1-11.7,4.5-16.4C972.7,461.2,971.1,459.4,969.9,461.1
			L969.9,461.1z"/>
	</g>
</g>
<g>
	<g>
		<path d="M831.5,584.8c26.7-6.6,53.1-14.2,79.2-23.1c12.8-4.3,25.4-8.9,38-13.7c6.6-2.5,13.1-5.1,19.6-7.8c4.9-2,11.8-3.7,15.3-8
			c1.9-2.3,0-6.4-3-6.1c-6.6,0.6-13.1,4.3-19.2,6.8c-6,2.5-12.1,4.9-18.2,7.3c-11.8,4.7-23.8,9.2-35.7,13.4
			c-25.5,9.1-51.2,17.5-77.2,24.9C827.7,579.4,828.7,585.5,831.5,584.8L831.5,584.8z"/>
	</g>
</g>
<g>
	<g>
		<path d="M839.7,614.2c23.7-5.6,46.9-14.1,70.1-21.4c11-3.4,21.9-6.8,32.9-10.3c11.3-3.5,23.2-6.4,34.1-11c4.7-2,0.7-9.2-3.7-8
			c-11.4,3-22.6,7.2-33.7,11c-11.3,3.8-22.6,7.6-34,11.4c-10.8,3.6-21.5,7.2-32.2,10.8c-11.4,3.8-23.2,7.2-34.2,12
			C836.6,609.7,836.6,614.9,839.7,614.2L839.7,614.2z"/>
	</g>
</g>
<g>
	<g>
		<path d="M90.7,906.4c-2.1-0.8-0.3-9.1-0.1-11c0.4-4.5,1.1-9,1.8-13.5c1.5-8.5,3.5-16.9,6.8-24.9c6.8-16.3,18-28.3,33.9-36.1
			c15.4-7.6,34.2-13.6,51.5-14.2c17.9-0.6,32.1,8.3,39.9,24.3c4.4,9,6.2,19,6.6,29c0.5,11.8-1.5,23.5-0.4,35.3
			c0.3,3.1,5,5.3,6.2,1.5c12.1-37.7-0.1-96.1-47.5-99.2c-20.5-1.3-42.6,5.9-60.8,14.8c-18.8,9.1-32.2,24.4-38.4,44.4
			c-3.2,10.2-4.7,20.9-5.4,31.6c-0.4,6.2-3.7,22.9,5.7,24.1C93.2,912.8,92.9,907.2,90.7,906.4L90.7,906.4z"/>
	</g>
</g>
<g>
	<g>
		<path d="M221.6,832.7c3.1-0.5,5.3-3.2,7.6-5.3c2.7-2.5,5.5-5.1,8.3-7.5c5.2-4.4,10.5-8.6,16.2-12.4c10.8-7.3,22.4-13.4,34.6-18.2
			c4-1.6-0.1-8.9-4.2-7.2c-12.8,5.1-24.8,11.6-36,19.7c-5.4,4-10.6,8.2-15.4,12.9c-4.6,4.5-10.8,9.6-12.4,16
			C219.9,831.7,220.4,832.9,221.6,832.7L221.6,832.7z"/>
	</g>
</g>
<g>
	<g>
		<path d="M75.9,779c10.7,4.5,20.9,10.1,30.4,16.7c10,7,18.4,15.4,27,24c3.3,3.3,6.3-2.1,4-5.1c-15-18.9-37.7-32.9-60-41.4
			C74.1,772.2,73.2,777.9,75.9,779L75.9,779z"/>
	</g>
</g>
<g>
	<g>
		<path d="M448.5,741.1c0.9,31.7,0.1,63.6-2.7,95.2c-1.4,15.8-3.3,31.6-5.5,47.3c-1,7.2-2.2,14.3-3.4,21.5
			c-1.3,7.4-2.6,12.2,3.4,17.7c3.3,3.1,7.3-0.9,5.5-4.6c-1.2-2.4-0.1-5.7,0.3-8.2c0.6-3.9,1.2-7.8,1.8-11.7
			c1.1-7.4,2.1-14.7,2.9-22.1c1.7-14.8,3-29.7,3.9-44.6c1.9-29.7,1.9-59.5,0.3-89.2C454.8,738.4,448.4,735.9,448.5,741.1
			L448.5,741.1z"/>
	</g>
</g>
<g>
	<g>
		<path d="M445,813.7c-13.3-15.4-27.4-30-41.3-44.8c-14.2-15.1-29.7-29.7-42.4-46c-2.6-3.3-8.3-3.2-8.1,1.9
			c2.6,51.6-2.1,102.4-11.3,153.2c-0.7,4,6.3,7.8,8.8,4.1c15.4-23,43.6-31.9,68.1-41.6c30-11.9,58.8-26.7,86-44.2
			c4.9-3.1-2-10.7-6.5-7.7c-27.7,17.9-57,32.8-87.7,44.9c-25.1,9.8-51.5,19.8-67.9,42.4c2.8,1.7,5.7,3.5,8.5,5.2
			c11.3-50.8,13.9-104.1,11.1-156c-2.4,1-4.8,1.9-7.2,2.9c15.6,13.8,29.7,29.5,44.3,44.4c14.4,14.8,28.6,29.8,43.7,43.9
			C444,817.3,445.8,814.7,445,813.7L445,813.7z"/>
	</g>
</g>
<g>
	<g>
		<path d="M496.1,795.8c-1.9-1.1-3.6-2.1-5.8-2.6c-0.1,1.3-0.1,2.6-0.2,3.9c14.9-8.6,29.4-17.9,44.5-26.2
			c15-8.3,30.5-15.7,46.3-22.4c-1.9-0.9-3.8-1.9-5.6-2.8c3.5,12.4,0.6,25.2-2.4,37.4c-3,12-6.4,23.9-10.1,35.7
			c-7.5,23.6-16.5,46.8-26.9,69.3c2.3-0.5,4.7-1,7-1.5c-22-11.7-44.2-23-66.3-34.4c-10.7-5.5-21.3-11-32-16.5
			c-5.6-2.9-11.3-5.8-16.9-8.7c-5.1-2.6-10.6-4.9-14.5-9.2c-3.9-4.3-12.6-0.3-9.2,5.5c3.2,5.4,8,7.9,13.4,10.6
			c5.5,2.8,11.1,5.6,16.6,8.4c11.4,5.7,22.8,11.4,34.2,17.2c23.4,11.8,46.7,23.8,70.4,35.2c2.1,1,5.8,1.2,7-1.5
			c10.4-24.4,19.5-49.4,26.9-74.9c3.5-12.1,6.8-24.4,9.4-36.7c2.7-12.5,4-25,0.2-37.4c-0.7-2.4-3.3-3.9-5.6-2.8
			c-30.7,13.8-62.4,30.3-87.8,52.5c-1.1,0.9-1.1,3.5,0.7,3.7c2.2,0.1,4.2-0.5,6.3-0.9C495.8,796.5,496.5,796.1,496.1,795.8
			L496.1,795.8z"/>
	</g>
</g>
<g>
	<g>
		<path d="M751.1,762.8c-0.4,14.3,1.3,28.8,2.1,43.1c0.9,15.7,1.9,31.5,2.6,47.2c0.8,15.4,1.4,30.9,2,46.3
			c0.3,7.7,0.6,15.4,0.8,23.1c0.3,8.6-0.2,17.4,2.3,25.7c1.1,3.6,6,4.5,7,0.5c1.8-7.2,0.6-14.7,0.1-22c-0.5-8.2-0.9-16.4-1.4-24.5
			c-1-15.7-2.1-31.3-3.2-47c-1-14.4-2.1-28.7-3.3-43c-1.4-16.5-2.1-33.4-5-49.8C754.7,759.4,751.2,759.7,751.1,762.8L751.1,762.8z"
			/>
	</g>
</g>
<g>
	<g>
		<path d="M755.4,761.9c-21-1.9-41.9,6.9-55.3,23.3c-6.4,7.8-11.8,18.4-10.4,28.8c1.5,11.1,10.6,17.7,20.3,21.3
			c22.3,8.4,49.2,10.2,72,2.8c9.8-3.2,19-9,23.8-18.4c4.3-8.6,4.5-19.2-1.1-27.2c-7.6-10.9-22.3-14.5-34.3-17.8
			c-15.5-4.2-29.8-9.6-44-17.3c-4.1-2.3-5.2,4.7-2.2,6.7c7.9,5.5,16.5,9.8,25.6,13.1c9.6,3.5,19.6,5.6,29.3,8.7
			c7.9,2.5,18.4,6,20.6,15.1c2,8.2-2.5,16.7-8.7,21.9c-14,11.6-36.9,12.2-54,10.4c-9.6-1.1-19.4-3.2-28.3-7
			c-3.8-1.6-7.7-3.9-9.8-7.6c-2.6-4.6-1.5-10.4,0.2-15.1c7.9-22.2,32.6-36.7,55.4-36.5C757.1,767,758,762.1,755.4,761.9L755.4,761.9
			z"/>
	</g>
</g>
<g>
	<g>
		<path d="M777.5,939.2c-2.3,0.6-4.7,0.8-6.9,1.4c-2.5,0.7-5.1,2.1-7.5,3c-5.9,2.2-12.1,3.9-18.3,4.8c-9.6,1.4-20.1,1.3-29.3-2.1
			c-8.6-3.2-15.8-10-16.2-19.7c-0.3-9.2,6.7-14.7,14.7-17.5c10-3.5,20.7-5.5,31.1-7.5c10.9-2.1,22-3.7,33.2-3.8
			c9.8-0.1,20.7,0.2,29.5,5.3c3.6,2.1,6.9,5.1,8.3,9.1c2,5.5-1,9.5-4.8,13.2c-8.1,8-17.8,14.4-28.1,19.2c-9.5,4.4-26,11.7-32.8-0.4
			c-1.9-3.4-9.3-3.1-8,1.8c3.7,14.5,19.5,16.4,31.9,13c12.9-3.6,25.2-10.1,35.8-18.2c9.5-7.2,21-16.4,16.5-29.8
			c-3.8-11.5-15.3-18-26.5-20.7c-13.7-3.4-28.7-2.4-42.6-0.6c-14.6,1.9-29.3,4.9-43.5,8.9c-10.6,3-21.5,8.3-24.5,19.8
			c-2.6,10.1,2,21.3,9.5,28.2c10.1,9.2,24.4,12.2,37.7,11.7c7.1-0.2,14.5-1.3,21.3-3.6c4.4-1.5,8.6-3.4,12.5-5.9
			c3.3-2,5-4.9,7.5-7.7C778.5,940.3,778.7,938.9,777.5,939.2L777.5,939.2z"/>
	</g>
</g>
<g>
	<g>
		<path d="M963.8,769.9c0.5-3.5,0.4-6.8-1.2-10c-1.3-2.4-4.6-2.5-5.1,0.5c-2.5,13.8-1.9,28.5-2.5,42.4c-0.5,13.9-1.1,27.8-1.6,41.7
			c-0.4,13.1-0.9,26.3-1.3,39.4c-0.2,7.1-0.5,14.2-0.7,21.4c-0.2,6.8-1.9,15,1.1,21.2c1.8,3.8,7.7,3.9,9.2,0
			c2.3-6,1.2-13.8,1.2-20.1c0.1-6.8,0.1-13.6,0.2-20.5c0.1-14.1,0.3-28.1,0.4-42.2c0.1-13.7,0.1-27.4,0.2-41
			c0.1-13.5,1.1-27.6-0.6-41.1c-1.1,1-2.3,2.1-3.4,3.1c2.3,1,3.4,0.3,3.5,5.1C963.1,770.3,963.8,770.2,963.8,769.9L963.8,769.9z"/>
	</g>
</g>
<g>
	<g>
		<path d="M871,780.9c3.3,9.1,7.8,17.7,12.7,26c4.4,7.4,9.6,17.5,16.7,22.5c2.6,1.9,8.8,1.1,7.2-3.4c-2.3-6.7-9-12.5-13-18.3
			c-6.5-9.3-11.4-19-16.7-28.9C875.6,774.5,869,775.4,871,780.9L871,780.9z"/>
	</g>
</g>
<g>
	<g>
		<path d="M901.4,830.1c0.3,0.2,0.5,0.3,0.8,0.5c0.4,0.3,1,0.3,1.5,0c13-7.7,20.4-23,27.9-35.6c3.3-5.6,6.9-11,11.5-15.6
			c5.9-6,13.1-9.2,19.9-13.9c4.1-2.8-0.3-9.8-4.7-8.3c-15.1,5.2-26.3,18.6-33.7,32.2c-3.7,6.9-7.1,14-11.2,20.7
			c-2.2,3.5-4.6,6.9-7.1,10.2c-2.1,2.9-5,5.7-5.1,9.4C901.2,829.9,901.3,830,901.4,830.1L901.4,830.1z"/>
	</g>
</g>
<g>
	<g>
		<path d="M962.4,763.9c7.6,8.4,16.8,15.5,24.5,23.9c4.4,4.9,9,9.9,12.7,15.3c2.8,4.1,5.4,10.5,11.2,10.8c4.9,0.3,6.5-4.2,7.9-8
			c1.9-4.9,3.9-9.7,6.1-14.4c2.2-4.6,4.6-9,7.2-13.4c2.5-4.1,5.9-8.1,7.2-12.7c0.8-3-3.6-7.6-6.6-5.6c-7.1,4.8-11.7,13-15.7,20.5
			c-2,3.7-3.8,7.5-5.5,11.4c-1.1,2.5-2.1,5.1-3.1,7.7c-0.4,1.1-1.1,4.9-1.8,5.5c1.9-0.3,3.7-0.5,5.6-0.8c2,0.5,0.1-0.5-0.9-1.5
			c-1-1.1-2.1-2-3.2-3c-2.1-2-4.1-4.1-6.2-6.1c-4.3-4.3-8.6-8.7-13.1-13c-7.3-7.1-15.5-15.7-24.6-20.4
			C962.4,759.1,961.3,762.7,962.4,763.9L962.4,763.9z"/>
	</g>
</g>
<g>
	<g>
		<path d="M73,1154.9c6.3-16.2,10.8-33.2,16.5-49.6c5.4-15.8,11-31.5,17-47c12.3-31.4,26.1-62.1,41.3-92.1c-2.9-0.3-5.9-0.7-8.8-1
			c16.2,30.1,30.8,61.1,43.7,92.7c6.3,15.5,12.3,31.1,17.8,46.8c2.9,8.2,5.6,16.4,8.3,24.6c2.5,7.7,4.5,15.5,8.4,22.5
			c1.8,3.3,6.4,2.9,6.4-1.2c0-8.1-3.5-16.2-5.9-23.9c-2.7-8.3-5.4-16.5-8.3-24.7c-5.7-16.1-11.7-32-18.2-47.8
			c-13-31.7-27.6-62.7-43.6-92.9c-1.5-2.8-7.1-4.4-8.8-1c-15.5,30.2-29.3,61.2-41.4,92.9c-5.9,15.6-11.6,31.3-16.5,47.2
			c-5.3,16.9-10.7,34.1-13.7,51.5C66.8,1155.2,71.5,1158.9,73,1154.9L73,1154.9z"/>
	</g>
</g>
<g>
	<g>
		<path d="M69.1,1154.8c2.9-0.4,4.4-2.3,6.4-4.3c2.8-2.8,5.6-5.5,8.4-8.2c6-5.7,12.2-11.2,18.6-16.4c6.1-5,12.4-9.8,18.9-14.3
			c7-4.8,14.4-8.8,21.4-13.6c3.4-2.3,0.4-9.2-3.5-7.2c-14.2,7.3-27.5,17.9-39.5,28.3c-6.2,5.3-12.1,10.9-17.8,16.8
			c-4.9,5-11.7,10.9-13.8,17.8C68.2,1154.1,68.4,1154.9,69.1,1154.8L69.1,1154.8z"/>
	</g>
</g>
<g>
	<g>
		<path d="M138.5,1094.4c9.9-2,20.3,6.2,28.5,10.8c9,5.1,18,10.4,26.8,15.8c8.7,5.4,17.3,11,25.7,16.8c8.8,6,17.2,13.3,26.4,18.6
			c3.8,2.2,6.7-3,4-5.9c-7.3-7.8-17.9-13.7-26.7-19.6c-9.7-6.5-19.6-12.8-29.6-18.8c-9.6-5.8-19.5-11.3-29.4-16.6
			c-7.8-4.1-18.8-12-26.8-4.8C136.2,1091.9,136.5,1094.8,138.5,1094.4L138.5,1094.4z"/>
	</g>
</g>
<g>
	<g>
		<path d="M536.6,980.1c-0.9,17-0.5,34.1-0.6,51c-0.1,16.3-0.2,32.7-0.3,49c-0.2,33-1.4,66.2-0.2,99.2c0.1,3.9,5.2,5.3,5.4,0.8
			c1.1-34.2,0-68.4-0.2-102.6c-0.1-16-0.2-32.1-0.3-48.1c-0.2-16.8,0.4-33.7-0.6-50.4C539.5,976.8,536.7,978.6,536.6,980.1
			L536.6,980.1z"/>
	</g>
</g>
<g>
	<g>
		<path d="M457.2,1028.9c4.2,0.8,2.8,1.2,6.3,1.5c2.1,0.2,4.2,0.2,6.3,0.3c3.8,0.1,7.6,0.3,11.4,0.3c7.2,0.1,14.4,0.1,21.6,0.2
			c15.2,0.2,30.4,0.3,45.6,0.3c30.4,0.1,61.1,1.1,91.4-0.6c3-0.2,2.8-6.2-0.1-6.4c-30.5-1.9-61.4-0.7-91.9-0.6
			c-14.7,0-29.5,0.2-44.2,0.3c-7.4,0.1-14.9,0.2-22.3,0.2c-3.8,0-7.7,0.2-11.5,0.3c-2.1,0.1-4.2,0.1-6.2,0.3c-2.2,0.2-3.4,1-5.7,1.4
			C457.2,1026.6,455.9,1028.6,457.2,1028.9L457.2,1028.9z"/>
	</g>
</g>
<g>
	<g>
		<path d="M459.1,1073.7c29.2,0.4,58.5,1.1,87.7,1.4c15.2,0.1,30.4,0.3,45.7,0.4c14.3,0.1,28.8,0.6,43.1-0.6c4-0.3,3.1-6.9-0.5-7.1
			c-29.6-1.8-59.6-0.4-89.3-0.1c-28.8,0.3-57.6,0.9-86.4,1.4C457.1,1069,456.6,1073.7,459.1,1073.7L459.1,1073.7z"/>
	</g>
</g>
<g>
	<g>
		<path d="M460.1,1119.5c30.4,2.4,60.9,2.2,91.4,2.4c30,0.3,60,0.5,89.9-0.4c4.1-0.1,2.9-7.2-0.8-7.3c-30.4-0.9-60.9-0.7-91.4-0.4
			c-29.5,0.3-58.9,0.3-88.3,2.4C459.5,1116.3,458.4,1119.4,460.1,1119.5L460.1,1119.5z"/>
	</g>
</g>
<g>
	<g>
		<path d="M9.4-207.8c-5.1,9.1-7.9,19.7-11.1,29.6c-3.5,10.9-7.1,21.7-10.6,32.6c-7,21.7-14.9,43.2-20.8,65.3
			c-1.3,4.9,7.9,9.2,9.9,4.1c8.3-21.3,14.2-43.7,21-65.5C1-152,4.2-162.3,7.4-172.6c3.1-9.9,5.2-20.8,9.9-30.1
			C19.5-207.1,12.1-212.6,9.4-207.8L9.4-207.8z"/>
	</g>
</g>
<g>
	<g>
		<path d="M-111.6-169.1c64.7-2.8,129.6-4.8,194.2-9.5c6.3-0.5,3.6-9.2-1.7-9c-64.9,2.2-129.8,6.8-194.6,10.7
			C-118.2-176.6-115.7-168.9-111.6-169.1L-111.6-169.1z"/>
	</g>
</g>
<g>
	<g>
		<path d="M91.6-145.2C55.5-152.3,18.1-124,8.5-90c-0.6,2.1,0.8,4.4,2.5,5.5C24.5-76.1,38.7-85,50-92.8
			c14.3-9.9,28.5-19.8,42.8-29.7c-2.5-2.3-5-4.6-7.4-6.9c-11,11-22.3,23-25.4,38.8c-0.7,3.5,3,8,6.8,6.4
			c30.7-12.5,61-26.2,90.5-41.3c-2.3-1.9-4.5-3.7-6.8-5.6c-1,6.8-2.9,13.2-5.9,19.3c-1.6,3.3,2,8.4,5.8,6.7
			c26.8-11.6,53.7-23.3,80.7-34.3c-1.6-2.5-3.2-5-4.8-7.5c-18.5,17.4-33.9,38.6-46.5,60.5c-1.5,2.6,1.3,5.8,3.6,6.6
			c12.4,4.2,25.2,3.4,37.1-2.2c3.6-1.7-0.1-9-3.6-7.6c-10.5,4.1-21.6,4.9-32.3,1.4c1.2,2.2,2.4,4.4,3.6,6.6
			c12.2-21.5,27.2-40.1,43.8-58.3c2.7-3-0.7-9.4-4.8-7.5c-26.8,11.9-54,23-81,34.3c1.9,2.2,3.8,4.5,5.8,6.7
			c3.5-6.9,5.9-14.1,7.2-21.7c0.6-3.4-3.4-7.2-6.8-5.6c-29.5,14.6-59.5,28.2-90,40.6c2.3,2.1,4.6,4.3,6.8,6.4
			c3-15.1,13.9-26.3,24.5-36.8c3.7-3.7-3.7-9.5-7.4-6.9c-11.9,8.3-23.8,16.5-35.8,24.8C42.2-99.8,26.4-85.1,15.8-92
			c0.8,1.8,1.7,3.6,2.5,5.5c4.6-15.5,14.9-29,28.3-37.9c13.9-9.3,29.2-12.9,45.8-12.8C97.6-137.2,95.5-144.4,91.6-145.2L91.6-145.2z
			"/>
	</g>
</g>
<g>
	<g>
		<path d="M317.7-196.7c-7.6,6.2-13.4,15.7-18.9,23.8c-5.7,8.4-11.1,17-16.3,25.7c-5.3,8.8-10.4,17.7-15.6,26.6
			c-5.3,9.1-12.4,18.6-16.1,28.5c-1.4,3.9,4.6,9.8,7.7,5.8c6.7-8.7,11.4-19.4,16.8-28.9c4.9-8.7,9.8-17.5,14.8-26.2
			c4.8-8.3,9.7-16.5,14.9-24.5c2.7-4.2,5.5-8.4,8.4-12.5c3.1-4.3,6.8-8.5,9.1-13.3C323.6-194.2,320.5-199,317.7-196.7L317.7-196.7z"
			/>
	</g>
</g>
<g>
	<g>
		<path d="M235-150.5c21.6,2.5,43.4,3.3,65.1,4.3c3.8,0.2,3.4-6.5,0-6.8c-21.7-1.7-43.4-3.5-65.2-3.9
			C231.9-156.9,232.2-150.8,235-150.5L235-150.5z"/>
	</g>
</g>
<g>
	<g>
		<path d="M310.6-108.3c10.6-6.9,21.1-14,31.6-21c7.2-4.8,18.9-10.3,15.9-20.7c-0.6-2.1-2.6-3.4-4.7-3.3c-13.2,1-26.4,4.9-36.7,13.5
			c-4.6,3.8-8.5,8.6-11.2,14c-2.1,4-5.3,10.9-4.3,15.5c1.1,4.6,8,6.9,12,7.7c5.8,1.1,11.7,0.2,17.4-0.7c15.7-2.6,31.1-6.7,46.1-12.1
			c3.2-1.2,2.1-7.7-1.3-6.7c-12.6,3.9-25.3,7-38.2,9.6c-9.4,1.9-23.1,6.1-31.3-1c0.5,1.5,1.1,3.1,1.6,4.6
			c3.2-23.8,26.7-34.9,48.3-36.4c-1.6-1.1-3.1-2.2-4.7-3.3c1.1,3.9-7.2,8.2-9.6,9.9c-4.3,3-8.5,6-12.8,9c-7.2,5-14.4,10.1-21.5,15.3
			C304.5-112.5,307.2-106.2,310.6-108.3L310.6-108.3z"/>
	</g>
</g>
<g>
	<g>
		<path d="M476.5-167.8c-4.4-4.7-12.7-5.5-18.7-5.3c-6.8,0.3-13.7,1.8-20.1,3.9c-11.2,3.7-26.7,10.7-31.9,22.2
			c-5.6,12.2,4.9,19.7,13.4,26.1c2.4,1.9,6.2,5.1,5.4,8.6c-0.7,3.4-6,5.4-8.6,6.6c-7.1,3.3-14.8,4.7-22.6,4.9
			c1.8,1.9,3.6,3.8,5.4,5.7c0.7-3.5,2.9-5.7,5.9-7.3c3.8-2,0.4-8.8-3.5-7.2c-5.3,2.1-9,5.9-11.4,11c-1.5,3.2,2.1,6.7,5.1,6.8
			c7,0.1,14-1,20.7-3.2c5.4-1.8,12.1-4.4,15.9-8.9c9-10.5-3.5-21.3-11.4-27.1c-5.5-4-7.7-8.6-2.8-14.4c4.2-5.1,10.6-8.7,16.5-11.6
			c11.8-5.7,27.8-10.8,40.1-4.1c1.8,1,3.9,0.7,4.8-1.3C479.7-164.5,477.9-166.3,476.5-167.8L476.5-167.8z"/>
	</g>
</g>
<g>
	<g>
		<path d="M464.6-133.6c14.7-2.9,29.5-5.7,44.2-8.5c15.5-3,31.1-6.5,46.8-8.3c3.2-0.4,2.3-6.8-0.7-6.8c-14.7,0-29.1,3.9-42.2,10.3
			c-10.6,5.3-25.2,13-27.1,26c-0.3,1.8,1.2,3.8,2.7,4.7c6.4,3.5,13.2,5.9,20.4,6.8c3.7,0.5,8.2-0.1,11.6,1.2
			c5.6,2.2,0.4,6.2-2.5,7.9c-13.9,8.4-29.7,12-45.8,13.3c1.7,1.4,3.4,2.8,5.1,4.2c-0.2-2-0.7-3.8-1.2-5.7c-0.8-3.1-4.9-3.8-5.6-0.3
			c-0.4,1.9-0.5,3.6-0.5,5.5c0,1.9,2.2,4.3,4.1,4.3c10.4-0.1,20.8-2.2,30.5-5.6c7.8-2.7,19.5-6.7,24.5-13.7
			c4.8-6.7-0.3-14.9-7.1-17.5c-4.5-1.7-9.5-1.2-14.2-1.8c-6.1-0.8-11.7-2.8-17-5.8c0.9,1.6,1.8,3.1,2.7,4.7
			c0.8-5.6,6.2-9.4,10.4-12.5c4.7-3.5,9.8-6.5,15-9c11.5-5.6,24-8.7,36.7-10c-0.5-2.2-0.9-4.5-1.4-6.7c-15,5.1-30.8,8-46.2,11.7
			c-14.3,3.4-28.7,6.8-43.1,10.2C464.2-135.2,463.4-133.4,464.6-133.6L464.6-133.6z"/>
	</g>
</g>
<g>
	<g>
		<path d="M549.7-126.9c10.8-4.7,22.2-7.7,34-8.4c-0.7-1.7-1.3-3.5-2-5.2c-7.4,13.3-14.7,26.3-24,38.4c-2.9,3.8-7.2,8.1-3.1,12.8
			c3.3,3.7,6.9,0.9,6.8-3.3c0-1.2-1-2.7-2-3.2c-0.1-0.1-0.3-0.1-0.4-0.2c-4.3-2.2-5.2,4.2-2.2,6.3c0.2,0.1,0.4,0.3,0.5,0.4
			c-0.6-1.7-1.2-3.4-1.9-5c-0.1,0.2-0.1,0.5-0.2,0.7c1.1-0.7,2.1-1.3,3.2-2c-0.7-0.1-1.4-0.3-2.1-0.4c1.3,1.8,2.5,3.6,3.8,5.4
			c0.2-1.4,2.4-3.5,3.2-4.7c1.3-1.9,2.6-3.8,3.8-5.7c2.5-3.9,4.9-7.8,7.2-11.8c4.3-7.7,8.2-15.7,11.3-23.9c0.5-1.4,0-5-2.3-4.5
			c-11.9,2.4-23.3,5.9-34.1,11.3C547.7-129.4,547.5-126,549.7-126.9L549.7-126.9z"/>
	</g>
</g>
<g>
	<g>
		<path d="M624.8-175.9c0.4-0.2,0.3-0.2-0.1,0c0.1,0,0.2-0.1,0.3-0.1c-0.3,0-0.2,0,0.1,0c-0.2,0-0.3,0-0.5,0c0.8,0.1-0.7-0.3-0.1,0
			c1,0.4-0.4-0.3-0.1-0.1c0.8,0.6-0.5-0.6-0.2-0.3c0.1,0.1,0.3,0.3,0.4,0.4c0.2,0.2,0.1,0.1-0.2-0.3c-0.1-0.2-0.2-0.5-0.2-0.7
			c0-0.4,0-0.5,0-0.2c0.2-0.7,0.2-0.8,0.1-0.4c-0.6,1.9,0.2,4.1,1.8,5.3c1.3,1,3.7,1.5,4.8-0.2c2.2-3.5,0.8-7.7-2.3-10.1
			c-2.7-2.1-6.5-2.6-9,0c-1.4,1.4-0.6,4,0.5,5.3C621.1-175.8,623.1-174.8,624.8-175.9L624.8-175.9z"/>
	</g>
</g>
<g>
	<g>
		<path d="M648.6-141.1c2.8-4.8,3-9.9,1.2-15.1c-0.4-1.1-1.4-1.6-2.5-1.4c-27.5,6.3-51,28.2-63.4,53c-1.6,3.2,1.5,8.1,5.3,6.8
			c27.5-8.7,52.8-23.8,73.9-43.4c-2.3-2.2-4.6-4.5-6.9-6.7c-6.4,8.6-10.6,17.9-12.8,28.4c-0.7,3.2,3.6,6.4,6.6,5.5
			c24.2-7.5,47.6-17,70.3-28.1c-2.6-1.7-5.2-3.3-7.8-5c-1,8.2-2,16.5-3,24.7c-0.5,4,3.8,7.7,7.7,6c12.9-5.6,25.7-11.9,38.7-17.2
			c0.8-1.5,1.2-1.6,1.1-0.5c0,0.7,0.1,1.4,0.1,2.1c0.1,1.2,0.2,2.5,0.5,3.6c0.5,1.7,1.2,3.4,2.3,4.9c2.6,3.7,6.5,5.9,10.8,7.2
			c10.4,3.1,21.6,0.7,32-0.6c15-1.9,29.9-3.9,44.9-6c5.2-0.7,2.9-8.8-1.6-8.3c-15.6,1.6-31.2,3.4-46.8,5.3c-6.1,0.7-12.2,1.9-18.3,2
			c-3.7,0.1-9.4,0-12.3-2.8c-3-2.9-1-8.4-3.3-12c-2.9-4.6-8.3-5.5-13.1-4c-6.4,1.9-12.7,5.4-18.8,8.1c-7.2,3.2-14.4,6.3-21.5,9.6
			c2.6,2,5.1,4,7.7,6c0.8-8.7,1.7-17.3,2.5-25.9c0.4-4-4.5-6.6-7.8-5c-21.9,10.8-44.7,19.8-68,27.2c2.2,1.8,4.4,3.7,6.6,5.5
			c1.7-8.7,5.2-16.9,10.4-24.1c3-4.1-3-10.4-6.9-6.7c-20.3,19.1-44.4,33.2-70.8,42.1c1.9,2,3.8,4,5.7,6
			c5.7-12.4,14.1-23.6,24.4-32.6c9.8-8.6,21-14.3,32.9-19.5c-0.7-0.3-1.4-0.5-2.2-0.8c2,3.3,2.2,7.5,0.8,11.2
			C646.5-140.3,648-140.2,648.6-141.1L648.6-141.1z"/>
	</g>
</g>
<g>
	<g>
		<path d="M1569.1-124.2c7-8.4,7-20.1,1.6-29.4c-5.5-9.3-15.4-14.8-25.9-16.5c-23.7-3.8-46.9,11.8-64.9,25.2
			c-18.7,13.9-35.4,31.2-47.1,51.5c-5.4,9.3-10.7,20.8-6.3,31.5c3.9,9.6,13.9,14.1,23.8,14.9c27.9,2.3,55.8-13.2,77.8-28.8
			c3.8-2.7-1-9.7-4.9-7.2c-17.3,11.1-35.8,21.6-56.2,25.5c-8.2,1.6-19.1,3.3-26.8-1.2c-9.6-5.5-4.4-18.6-0.4-26
			c9.1-16.9,22-31.7,36.5-44.1c14.7-12.5,32.4-25.6,51.2-30.8c9.9-2.8,21.5-2.6,30,3.7c7.9,5.9,10.7,17.4,6.1,26.1
			C1561.9-126.7,1566.3-120.9,1569.1-124.2L1569.1-124.2z"/>
	</g>
</g>
<g>
	<g>
		<path d="M1491-95.1c25.1-0.8,50.2-3.4,75.3-5c-1.5-2.8-3-5.6-4.5-8.4c-15.1,11.6-28.8,25.3-40.8,40c-6.2,7.6-12,15.5-17.2,23.7
			c-2.6,4-5,8-7.4,12.2c-2,3.6-5.3,8-5.5,12.1c-0.1,3.6,4.7,8.2,8,4.7c3-3.1,4.7-7.3,6.8-11c2.3-4.1,4.7-8.1,7.2-12
			c4.8-7.7,10.1-15.1,15.8-22.2c11.8-14.8,25.3-27.8,39.9-39.8c3.8-3.1-0.3-8.8-4.5-8.4c-24.8,2.3-49.9,3.1-74.6,6.5
			C1485.1-102.1,1487.1-95,1491-95.1L1491-95.1z"/>
	</g>
</g>
<g>
	<g>
		<path d="M1633.8-96.5c9.8-5.6,2.1-18.6-6.5-20.3c-7.1-1.4-13.9,2.1-20.1,5.1c-5.3,2.6-10.6,5.4-15.7,8.4
			c-19.6,11.4-39.1,27.4-42.1,51.3c-0.4,2.9,2.3,6.6,5.6,5.9c21.3-4.2,40.9-13.3,58.1-26.6c-2.7-1.6-5.3-3.2-8-4.7
			c-1.3,6.5-2.6,13-3.9,19.5c-0.5,2.4,1.8,5,4,5.6c7,2,13.5,0.2,20-2.5c7.1-3,14.1-6.3,21.1-9.7c14.2-6.9,28.1-14.4,41.6-22.4
			c26.9-15.9,52.5-33.9,76.5-53.8c4.1-3.4-0.6-9.4-5.1-8.3c-27.8,7-54.6,27.6-65.2,54.8c-4.9,12.6-2.5,29,13.1,31.7
			c7.1,1.2,14.2-0.9,21-3.1c8.8-2.8,17.6-6,26.2-9.5c18.8-7.6,36.9-16.9,54.3-27.5c-2-2.2-4.1-4.4-6.1-6.6
			c-5.4,10-10.1,20.4-14.2,31c-1.5,4,3.7,9.2,7.4,5.9c3.4-3,6.6-6.2,9.6-9.5c2.2-2.4-0.7-9-4-6.7c-4.3,2.9-8.4,6.1-12.3,9.5
			c2.5,2,4.9,3.9,7.4,5.9c3.9-10.6,8.5-20.9,13.8-30.8c1.7-3.2-2.6-8.8-6.1-6.6c-16.5,10.1-33.8,18.8-51.6,26.2
			c-9.2,3.8-18.5,7.2-28,10.1c-6.4,2-19.5,7.1-22.9-1.8c-2.6-6.8,1.9-15.6,5.2-21.3c4-7,8.9-13.4,14.6-19.1
			c11.5-11.6,26.2-19.8,42-23.8c-1.7-2.8-3.4-5.5-5.1-8.3c-22.6,18.8-46.6,35.9-71.7,51.1c-12.4,7.5-25.2,14.6-38.1,21.1
			c-6.3,3.2-12.8,6.3-19.2,9.3c-6.8,3.1-15.2,8.5-23,6.3c1.3,1.9,2.7,3.7,4,5.6c1.3-6.5,2.5-12.9,3.8-19.4c0.8-4.3-4.8-7.2-8-4.7
			c-15.7,12.3-34.2,20.7-53.8,24.6c1.9,2,3.7,3.9,5.6,5.9c2-16.8,13.2-29.4,26.5-39.1c7.3-5.3,15.1-9.8,23-13.9
			c3.9-2,7.7-4.2,11.8-5.8c3.3-1.3,7.7-2.4,10.9-0.3c2.2,1.4,2.8,5.3,1.4,7.3C1630.3-99,1631.4-95.2,1633.8-96.5L1633.8-96.5z"/>
	</g>
</g>
<g>
	<g>
		<path d="M1844.2-154.5c-0.5,0.4-1.1,0.8-1.5,1.2c-0.7,0.6-1.1,1.5-1.7,2.2c-0.5,0.7-0.6,1.9-0.5,2.6c0.2,0.8,0.5,1.6,1.1,2.3
			c1,1.2,2.8,1.9,4.1,0.8c0.5-0.4,1-0.8,1.5-1.2c0.8-0.6,1.3-1.5,1.8-2.3c0.5-0.7,0.6-1.9,0.4-2.7c-0.2-0.9-0.5-1.6-1.1-2.3
			C1847.4-155,1845.6-155.6,1844.2-154.5L1844.2-154.5z"/>
	</g>
</g>
<g>
	<g>
		<path d="M1918.7-128.7c-14.6-3.3-29,2.9-41,10.8c-11.9,7.8-22,18.3-29.4,30.5c-3.2,5.3-6.9,11.4-4.6,17.8
			c2.1,5.8,7.7,9.7,13.6,10.8c7.2,1.4,14.9-0.7,21.9-2.6c8.3-2.2,16.4-5,24.3-8.4c4.7-2.1,0.3-9.9-4.1-8
			c-11.6,4.9-24.5,9.5-37.2,10.5c-5.1,0.4-11.9-1-10-7.5c1.4-4.8,5.2-9.9,8.1-13.9c12.4-17.4,35.5-36.1,58.2-32.6
			C1923.1-120.6,1922.5-127.9,1918.7-128.7L1918.7-128.7z"/>
	</g>
</g>
<g>
	<g>
		<path d="M1959.1-103.5c1,0.7,1.9,1.3,2.9,2c-0.4-1.5-2.2-2.5-3.6-1.8c-0.4,0.2-0.7,0.4-1.1,0.5c-1.8,0.9-1.5,4.3-0.3,5.5
			c6.4,6.8,18-4.5,21.9-9.5c2.6-3.3-3.2-9.3-6.5-6.3c-7.1,6.6-12.8,15.5-18.1,23.6c-5.3,8.1-10.3,16.5-14.5,25.2
			c-2.5,5.2,4.9,10.2,8.7,5.8c1.4-1.6,2.7-3.2,4-4.8c3.1-3.8-2.6-10.4-6.5-6.9c-1.8,1.7-3.7,3.3-5.5,5c2.7,2.2,5.3,4.4,8,6.7
			c4.5-8.7,9-17.3,14.3-25.5c5-7.8,11.4-14.8,16.1-22.8c-2.4-1.8-4.7-3.7-7.1-5.5c-2.2,4.6-7.5,9-12.7,9.5c1,0.6,1.9,1.2,2.9,1.7
			c-0.3-0.4-0.7-0.8-1-1.3c-0.4,1.9-0.8,3.7-1.2,5.6c0.4-0.1,0.7-0.3,1.1-0.4C1963.9-98.2,1962-103.6,1959.1-103.5L1959.1-103.5z"/>
	</g>
</g>
<g>
	<g>
		<path d="M2005.2-161.1c-0.7,6.3-0.6,12.8-0.8,19.1c-0.1,4.9,8.5,7.2,8.4,1.4c-0.2-6.1-0.1-12.4-0.7-18.5c-0.2-1.8-1.3-3.8-3.2-4.3
			C2007.2-163.8,2005.4-163,2005.2-161.1L2005.2-161.1z"/>
	</g>
</g>
<g>
	<g>
		<path d="M2046.4-97.5c1.2-4,2.3-7.9,3.5-11.9c0.6-1.9-0.5-5.8-3.2-5.5c-28.2,3.8-53.4,24.9-64.9,50.4c-1.6,3.5,1.6,7.9,5.5,6.8
			c21.6-6.1,41.3-17.3,57.8-32.4c-2.5-1.7-5-3.3-7.5-5c-1.6,6.5-3.3,13-4.9,19.5c-0.9,3.3,2.5,8,6.4,6.6c21.7-8,43.3-16.3,65-24.5
			c-2.4-1.7-4.8-3.5-7.3-5.2c-0.7,6.5-1.5,12.9-2.3,19.4c-0.5,4.3,4,7.3,7.9,5.9c18.8-6.6,37.6-13.3,56.4-20c4.3-1.5,8.6-3.1,13-4.6
			c1.1-0.4,2.2-0.8,3.3-1.1c1.6,0,1.9-0.3,0.7-1c0.7,1,0.3,3.9,0.4,5c0.6,6.2,3.9,11.1,9.6,13.7c5.8,2.7,12.5,2.7,18.7,1.9
			c8.8-1.2,17.7-3.6,26.4-5.6c20.2-4.6,40.2-10.1,60.1-16.1c5-1.5,0.3-9.3-4.3-8c-18.6,5.1-37.3,9.6-56,13.9
			c-9.1,2.1-18.3,4.4-27.6,6.1c-4,0.7-12.9,2-15.5-2.2c-1.4-2.3-0.7-5.9-1.2-8.4c-0.7-3.9-3-7-6.8-8.4c-3.3-1.3-6.5-0.8-9.8,0.3
			c-6,1.9-11.9,4.2-17.8,6.3c-18.4,6.5-36.9,13-55.3,19.6c2.6,2,5.3,3.9,7.9,5.9c0.6-7,1.3-14,2-21c0.4-3.4-4.2-6.3-7.3-5.2
			c-21.4,8.1-42.9,16.1-64.2,24.5c2.2,1.8,4.4,3.7,6.6,5.5c1.5-6.6,2.9-13.2,4.4-19.7c0.9-3.7-4.5-7.8-7.5-5
			c-15.8,14.6-34.6,25.1-55.3,31.2c2,2,4,3.9,5.9,5.9c10.7-25.1,33-41.5,59-47.9c-1.4-1.5-2.8-3-4.2-4.5c-0.8,4.2-1.5,8.4-2.3,12.6
			C2041.3-96.8,2045.4-94,2046.4-97.5L2046.4-97.5z"/>
	</g>
</g>
<g>
	<g>
		<path d="M1463.9,73.7c-16.8,6.7-43.2,27.6-33.2,48.5c4.6,9.6,14.8,15.1,24.3,18.8c11.2,4.3,23.1,6.4,34.9,7.5
			c12.3,1.1,24.7,0.8,36.9,2.3c7.7,1,10.6,4.8,12.4,12.1c1.9,7.8,3.5,15.7,7.2,23c4.8,9.6,11.9,18.3,19.7,25.7
			c7.3,7,15.5,12.8,23.4,19.1c6.3,5,12.5,10.8,14,19.1c0.9,5.3,10.9,7.5,10.2,0.9c-1.6-16.9-15.4-25.7-27.7-35.2
			c-15-11.5-29-25.7-34-44.4c-1.7-6.5-2.6-13.5-6.2-19.3c-3.9-6.2-10.4-9.2-17.5-10.3c-23.9-3.6-48.3-0.3-71.5-9
			c-6.1-2.3-13-5.3-17-10.7c-4-5.4-2.7-11.7,0.4-17.2c6.1-10.7,16.2-18.9,27.5-23.7C1471.8,79.2,1467.9,72.1,1463.9,73.7
			L1463.9,73.7z"/>
	</g>
</g>
<g>
	<g>
		<path d="M1391.8,279.1c0-17.3,14.8-29.1,28.1-37.9c14.9-9.9,31.3-17.7,45.6-28.6c17-13,32.4-27.9,49.2-41
			c8-6.3,16.5-11.9,25.4-16.8c10.2-5.6,21.4-9,31.5-14.6c10.4-5.8,16.5-14.9,18.4-26.6c1-5.9,1.2-11.8,1.8-17.7
			c0.6-5.8,2-11.4,3.4-17c1.2-4.8-6.4-9.1-9.3-4.6c-6,9.1-5.7,20.3-6.6,30.8c-1.1,12-4.8,21.5-16,27.4c-10.2,5.3-21.1,9-31.1,14.8
			c-8.8,5-17.2,10.9-25.2,17.2c-16.5,13.1-31.4,28.1-48.1,41.1c-13.9,10.9-29.8,18.7-44,29.2c-14.8,11-28.5,25.8-25.9,45.7
			C1389.3,282.6,1391.8,280.6,1391.8,279.1L1391.8,279.1z"/>
	</g>
</g>
<g>
	<g>
		<path d="M1537.2,63.1c-2.4,9.1-3.4,18.7-5.1,28c-1.4,7.9-2.8,15.8-4.4,23.6c-3.3,16.6-7.2,33.2-11.3,49.6
			c-4.2,16.7-9,33.3-14.1,49.8c-2.4,7.6-4.8,15.1-7.4,22.6c-3,8.7-7.2,17.4-7.9,26.7c-0.3,3.5,5.4,7.2,7.7,3.6
			c5.1-8.4,7.7-17.9,10.7-27.3c2.6-7.9,5.1-15.9,7.4-23.9c4.8-16.4,9.1-33,12.9-49.6c3.7-16,6.8-32.1,9.5-48.2
			c1.4-7.9,2.6-15.9,3.7-23.8c1.3-9.7,3-20,3-29.8C1542,61.5,1538,60,1537.2,63.1L1537.2,63.1z"/>
	</g>
</g>
<g>
	<g>
		<path d="M1693.8,250.3c-0.4,4.3-3.6,5.9-7.5,6.1c0.5,1.7,1,3.4,1.6,5.1c23.5-26.9,44.1-56.4,63.9-86.1
			c19.8-29.8,38.3-60.5,55.5-91.8c-3.1-0.8-6.1-1.6-9.2-2.4c5.9,29,10.7,58.2,13.9,87.6c1.5,14.3,2.7,28.5,3.5,42.9
			c0.8,14.8,0.5,29.8,1.6,44.6c0.4,5.1,9.3,8.3,9.6,1.9c0.8-15-0.3-30.3-1.1-45.3c-0.8-15-2.1-29.9-3.7-44.8
			c-3.2-29.5-7.7-59-14.1-87.9c-0.7-3.4-7.2-6.2-9.2-2.4c-16.5,31.4-34.3,62-53.4,91.9c-19.1,29.9-40.2,58.4-60.4,87.6
			c-1,1.5-0.6,6.1,2.2,5c4.4-1.9,7.3-7.4,7.4-12C1694.3,250,1693.8,250.1,1693.8,250.3L1693.8,250.3z"/>
	</g>
</g>
<g>
	<g>
		<path d="M1745.7,195c2,4.9,7.1,3,8.7-1c1.1-2.5,1.3-4.8,4.2-5.8c1.6-0.6,4.8-0.2,4.3,2.2c-0.3,1.5-2.4,1.9-3.6,1.2
			c-1.6-1-1.3-4.4-4.1-3.9c-2.3,0.4-2.2,3.6-1.8,5.3c0.5,2.3,2.3,4.3,4.4,5.3c3.2,1.6,7.2,1.2,9.5-1.6c3-3.7,2.1-9.2-0.7-12.7
			c-2.7-3.3-7.1-4.6-11-2.9c-1.9,0.8-3.6,2.2-4.7,3.9c-0.7,1-1.2,2.1-1.5,3.3c-0.2,0.8-0.1,3.5-1.5,3.2c0.5,0.3,1,0.6,1.5,0.9
			c-0.1-0.1-0.2-0.3-0.3-0.4C1747.5,189.2,1744.9,192.8,1745.7,195L1745.7,195z"/>
	</g>
</g>
<g>
	<g>
		<path d="M1939.4,87c-1.6,32.2-4.5,64.4-9.1,96.3c-2.3,16-4.9,31.9-7.9,47.7c-1.5,7.8-3,15.5-4.7,23.2c-1.7,7.8-4,15.5-4.6,23.5
			c-0.2,2.5,3.7,5.7,5.1,2.4c3.2-7.8,4.1-16.6,5.7-24.9c1.5-7.9,2.9-15.8,4.2-23.7c2.7-15.9,5-31.8,7-47.8c4-32.2,6.6-64.6,7.9-97.1
			C1943.1,83.5,1939.5,84.3,1939.4,87L1939.4,87z"/>
	</g>
</g>
<g>
	<g>
		<path d="M1925.4,84.6c21.3,22.8,43.2,45,64.9,67.4c1.3,1.4,3.5,2,5,0.5c25.8-27.3,54-52,84.8-73.4c-2.3-1.5-4.5-3-6.8-4.5
			c-0.8,33.1-6.8,65.9-12.7,98.4c-6,32.9-11.9,65.8-17.9,98.7c-1.1,5.9,8.2,9.7,9.4,3c5.9-33,11.7-66,17.5-99
			c5.8-32.9,11.3-65.7,11.7-99.2c0-3.2-3.8-6.6-6.8-4.5c-30.9,21.6-59.6,46.4-84.9,74.4c1.7,0.2,3.3,0.3,5,0.5
			c-22.2-22.1-44.1-44.5-66.7-66.1C1926,78.7,1923.8,82.9,1925.4,84.6L1925.4,84.6z"/>
	</g>
</g>
<g>
	<g>
		<path d="M2798.4-42.1c15.4-18.4,29-38.3,44.2-56.8c15.3-18.7,31.6-36.7,48.6-54c-2.3-1-4.6-2-6.9-3c1.2,19.5,2.4,39.1,3.5,58.6
			c0.8,12.9,0.2,30.2,13.4,37.3c1.1,0.6,2.6,1,3.7,0.1c7.6-6,12.6-13.9,17.1-22.3c5.5-10.5,10.5-21.3,15.5-32
			c10.3-21.8,21.8-43.8,29-66.8c0.8-2.5-2.8-8.2-4.9-4.5c-11.4,20.3-19.8,42.5-29.7,63.5c-4.8,10.2-9.6,20.3-14.5,30.4
			c-4.4,9-9.4,18.1-17.4,24.5c1.2,0,2.5,0.1,3.7,0.1c-5.5-3-6.8-9.2-7.5-14.9c-0.9-7.6-1.1-15.3-1.5-22.9c-1-16.9-2-33.9-3-50.8
			c-0.2-3.3-4.5-5.5-6.9-3c-16.9,17.1-32.8,35-47.8,53.8c-15.2,18.9-30.3,38.8-41.5,60.3C2794.5-42.6,2796.5-39.9,2798.4-42.1
			L2798.4-42.1z"/>
	</g>
</g>
<g>
	<g>
		<path d="M3031.3-119.7c-18.9-7.6-41.1-3.3-55.2,11.7c-9.3,10-23.1,37.4-6.4,47.1c15.1,8.8,34.9-6.1,44.3-16.9
			c6.3-7.2,11-15.7,13.8-24.9c1.6-5.5,1.7-10.9,8.1-12.9c5.7-1.8,12-2.6,17.9-3.8c3.8-0.8,7.6-1.6,11.4-2.4c3-0.6,6.4-1.9,9.5-2
			c6.2-0.1,4.5,5.6,4.3,9.8c-0.2,3.3-0.3,6.5-0.5,9.8c-0.9,14.8-1.8,29.7-2.7,44.5c-0.2,3.9,5,6.8,5.9,2c8.9-45,49.7-78.9,94.7-83.6
			c3.2-0.3,2.3-6.9-0.8-6.8c-48.8,1.2-91.2,41.3-99.8,88.5c2,0.7,4,1.3,5.9,2c0.6-12.6,1.2-25.3,1.8-37.9c0.3-5.9,0.6-11.7,0.9-17.6
			c0.2-4.3,1.2-9.4-0.8-13.4c-1.5-2.9-4-4.3-7.2-4.3c-6,0.1-12.4,2.3-18.2,3.5c-5.7,1.2-11.4,2.3-17.1,3.5
			c-4.2,0.9-9.1,1.4-12.4,4.3c-2.7,2.4-3.8,6-4.7,9.4c-1.2,4.8-2.6,9.4-4.8,13.9c-4.4,9-11,16.9-19.1,22.8c-6.7,4.9-15,9.3-23.5,8.2
			c-12.7-1.6-9.5-16-6-24.5c9.5-23.2,36.4-33.6,59.4-24.5C3032.7-113.1,3033.9-118.6,3031.3-119.7L3031.3-119.7z"/>
	</g>
</g>
<g>
	<g>
		<path d="M3220.1-126c-8.9,16.7-18.8,33.3-26.5,50.7c1.9,1,3.7,1.9,5.6,2.9c0.3-1.4,0.7-2.8,1-4.2c0.6-2.4-2.6-7.1-4.3-3.5
			c-0.8,1.6-1.5,3.2-2.3,4.7c-1.3,2.8,3,7.9,5,4.5c9.5-16.6,17-34.8,25.2-52.1C3225-125.6,3221.8-129.3,3220.1-126L3220.1-126z"/>
	</g>
</g>
<g>
	<g>
		<path d="M3242.5-178.9c0.5,4.7,2.4,8.9,5.9,12.2c1.4,1.3,3.7,2,5.1,0.3c1.3-1.6,0.7-4.4-0.7-5.7c-1.7-1.5-3-3.4-3.4-5.7
			c-0.3-2-1.4-4.1-3.6-4.4C3243.8-182.5,3242.3-180.8,3242.5-178.9L3242.5-178.9z"/>
	</g>
</g>
<g>
	<g>
		<path d="M3333.1-118.1c2.6-5.8,1.3-12-3.2-16.6c-5.1-5.1-12.3-5.9-19-4.1c-14.5,4-27.3,17.8-33.3,31.2
			c-6.8,15.1,5.3,26.6,20.3,26.3c18-0.3,36.6-6.5,52.7-14.1c3.3-1.6,1.5-8.4-2-7c-8.7,3.7-66.6,25.3-66.3,4.6
			c0.1-5.5,4.6-11.8,7.9-16c3.1-4,6.8-7.7,10.8-10.8c4.4-3.4,9.8-6.7,15.4-7.5c5.9-0.8,14.9,2.9,12.4,10.5
			C3327.9-119,3331.5-114.7,3333.1-118.1L3333.1-118.1z"/>
	</g>
</g>
<g>
	<g>
		<path d="M2864.2,143.7c-3.7,13.5-4.2,28.3-5.9,42.2c-1.8,14.9-3.5,29.9-5.2,44.8c-3.3,29.2-6.3,58.4-9.2,87.6
			c-0.5,5.2,8.7,8.4,9.2,2.4c2.5-29.5,5.2-59,8.2-88.4c1.4-14,2.8-28.1,4.3-42.1c1.5-14.6,4.2-29.7,4.1-44.5
			C2869.7,143.2,2865.2,140.1,2864.2,143.7L2864.2,143.7z"/>
	</g>
</g>
<g>
	<g>
		<path d="M3100.4,159.3c-26.1-22.8-65.4-27.5-95.6-10c-28.6,16.6-47,51.1-40.5,84.1c3.4,17.4,14.5,31.7,29.8,40.4
			c16,9.1,34.4,11.5,52.5,10.3c32.8-2.3,80.9-15.4,83.6-55.5c1.3-19.4-11.8-35-25.3-47.2c-15.1-13.6-31.5-28.5-51.2-35
			c-2.2-0.7-4.2-0.3-5,2.1c-15.6,45.7-26.7,92.6-29,141c-0.2,4.8,8.2,8.8,8.5,3.2c3-47.7,11.4-95.7,28.5-140.6
			c-1.7,0.7-3.3,1.4-5,2.1c15.7,6.2,28.5,16.7,41.2,27.5c11.2,9.6,24.6,20.7,27.8,35.9c3.4,15.8-6,31.3-18.4,40.4
			c-13.4,9.9-30.6,13.9-46.8,16.3c-30.3,4.5-70.7-1.3-81.6-35.1c-9.3-29,6.1-61.3,29.8-78.4c27.9-20.2,67.4-17.7,93.8,4
			C3100.9,167.4,3103,161.6,3100.4,159.3L3100.4,159.3z"/>
	</g>
</g>
<g>
	<g>
		<path d="M3163.9,138.6c2.7,6.1,9.1,11.3,13.6,16.2c4.9,5.4,9.8,10.7,14.7,16.1c4.5,4.9,8.7,10.6,13.8,14.9
			c4.1,3.5,8.1,3.1,12.8,0.9c12.3-5.9,24.3-12.7,36-19.8c6-3.6,12-7.4,17.8-11.3c5.4-3.6,12.2-7.3,15.8-12.9
			c1.1-1.7-0.4-6.2-2.9-5.4c-6.1,2.1-11.3,6.3-16.7,9.8c-4.9,3.2-9.8,6.3-14.8,9.4c-10,6.1-20.1,11.8-30.5,17.2
			c-2.5,1.3-4.9,2.5-7.4,3.8c-1,0.5-2.2,1.4-3.3,1.6c-3,0.7-3.4-0.5-5.1-2.2c-4.9-5.1-9.8-10.2-14.7-15.3
			c-3.9-4.1-7.8-8.2-11.8-12.2c-4.4-4.6-9-11.3-14.7-14.3C3164.6,133.7,3163.2,137.1,3163.9,138.6L3163.9,138.6z"/>
	</g>
</g>
<g>
	<g>
		<path d="M3218.3,101.1c1.6,38.8-6.5,76.8-16.8,113.9c-5,18-10.4,35.9-15.4,54c-2.5,9-4.9,18-7.1,27.1c-2.1,8.9-5.4,18.8-2.4,27.8
			c1.1,3.2,6.2,5,7,0.6c0.9-5.1,0.9-10.2,1.8-15.3c0.9-4.9,2.1-9.7,3.2-14.5c2.1-8.9,4.4-17.8,6.8-26.7c4.8-17.8,9.9-35.5,14.5-53.3
			c9.6-37.2,17.1-76,12.4-114.5C3221.9,96.8,3218.2,98.1,3218.3,101.1L3218.3,101.1z"/>
	</g>
</g>
<g>
	<g>
		<path d="M3485.2,100.5c-12.4-4.6-14.2,19.3-15.6,26.3c-3,15.1-6.2,30.1-9.3,45.2c-7,33.5-14.2,67-20.7,100.6
			c-1.7,8.6-3.3,17.3-4.8,25.9c-1.3,7.6-3.5,15.7-3.5,23.5c0,3.3,5.9,8.3,7.3,3.3c1.9-7,2.4-14.8,3.5-22c1-6.5,2.1-13.1,3.2-19.6
			c2.5-14.5,5.1-28.9,7.8-43.3c5.5-29.4,11.4-58.8,16.8-88.3c1.5-8,2.9-15.9,4.3-23.9c1-5.9,1.6-25.8,9.8-24.6
			C3485.5,103.8,3486.9,101.1,3485.2,100.5L3485.2,100.5z"/>
	</g>
</g>
<g>
	<g>
		<path d="M3466.8,99.9c-12.4-1.9-24.8,6.4-34.1,13.6c-11,8.5-21.4,19.1-28.2,31.4c-2.1,3.8-4.8,8.9-4.3,13.4
			c0.4,3.7,2.7,7.2,4.7,10.1c6.8,9.5,15.9,17.9,25.2,25c5,3.8,10.2,7.5,15.8,10.3c4.2,2.1,10.4,4.9,15.1,3c4.4-1.7,1.5-9-2.8-7.9
			c-3,0.7-6.5-1.3-9.1-2.7c-4.2-2.3-8.2-4.9-12.1-7.8c-8.4-6.4-16.7-13.5-23.3-21.8c-1.6-2.1-4.2-4.8-4.6-7.5c0,0.2,0-0.1,0.2-0.9
			c0.2-1,0.6-2,1-3c0.9-2.3,2-4.5,3.2-6.6c6-10.4,14.6-19.7,23.8-27.4c8-6.7,18.8-14.7,29.7-14.7
			C3470,106.4,3469.5,100.4,3466.8,99.9L3466.8,99.9z"/>
	</g>
</g>
<g>
	<g>
		<path d="M3438.2,314.1c-1.8,0-3.6-1.6-5.4-2.1c-2.4-0.7-4.7-1.4-7.1-2.3c-6.2-2.3-12.1-5.3-17.8-8.6
			c-11.1-6.5-22.6-14.1-31.3-23.7c-1.4-1.5-2.8-3.2-3.8-5c-0.9-1.6-1.2-2.4-1-3.6c0.7-3.5,4.7-7.8,7.1-10.7
			c9-10.5,19.9-19.7,30.9-28c5.4-4.1,10.8-8.3,16.7-11.8c1.3-0.8,3-1.3,4.1-2.2c2.5-1.8,2.2-6.1-1-7.3c-2.5-1-5.9,1.2-8.2,2.3
			c-3.2,1.5-6.2,3.4-9.2,5.3c-5.9,3.8-11.5,8.2-17,12.6c-10.1,8.3-21,17.3-28.4,28.2c-2.3,3.4-4.7,7.3-4.3,11.5
			c0.4,4.2,2.9,7.9,5.5,11.1c9.5,11.6,23,20.3,36,27.4c6.4,3.5,13,6.9,20,9.2c2.6,0.9,5.9,2.1,8.7,2c2-0.1,3.3-1.4,5.1-2.1
			C3438.6,316,3439.5,314.1,3438.2,314.1L3438.2,314.1z"/>
	</g>
</g>
<g>
	<g>
		<path d="M3615.2,124.8c-9.5,23.1-17.4,46.9-24.2,70.9c-3.4,12-6.5,24-9.3,36.2c-1.4,6.2-2.8,12.5-4,18.7
			c-1.3,6.1-3.3,12.5-3.5,18.8c-0.1,3,4.5,7.1,5.9,2.7c2.1-6.8,2.5-14.3,3.8-21.3c1.1-5.9,2.3-11.7,3.6-17.6
			c2.6-12,5.5-23.9,8.7-35.8c6.4-23.9,14.2-47.4,22.7-70.7C3620,123.9,3616.6,121.6,3615.2,124.8L3615.2,124.8z"/>
	</g>
</g>
<g>
	<g>
		<path d="M3524.2,146.2c4.8,1.7,10.1,0.8,15.1,0.6c5.2-0.2,10.3-0.6,15.5-1c10.7-0.8,21.3-1.8,31.9-3c20.9-2.4,42.3-4.7,62.8-9.7
			c3.6-0.9,1.2-7.8-2.1-7.3c-20.9,2.6-41.6,6.7-62.6,9.3c-10.2,1.3-20.5,2.4-30.7,3.5c-5.3,0.6-10.6,1-15.9,1.6
			c-4.4,0.5-9.8,0.2-13.6,2.5C3523.7,143.2,3522.6,145.6,3524.2,146.2L3524.2,146.2z"/>
	</g>
</g>
<g>
	<g>
		<path d="M3518.7,216c12,1.3,24.9,0,36.9-0.9c12-0.9,24-2.2,35.9-4.4c4.1-0.7,2.7-7.9-1.1-7.4c-11.6,1.6-23.2,3.1-34.9,4.3
			c-6.2,0.6-12.4,1.2-18.7,1.6c-6,0.4-12.2,0.3-18.1,1.3C3516.4,211,3516.2,215.7,3518.7,216L3518.7,216z"/>
	</g>
</g>
<g>
	<g>
		<path d="M3498.7,270.9c7.6,2.1,16.7,1,24.4,0.4c7.6-0.5,15.1-1.5,22.6-2.7c7.4-1.2,14.8-2.6,22.2-4.2c6.8-1.5,13.8-2.9,20.1-5.9
			c3.3-1.6,1.2-8-2.4-7.4c-14.3,2.4-28.3,7.2-42.6,9.6c-6.7,1.2-13.5,2.1-20.3,2.9c-7.3,0.9-16.4,0.6-23.3,3.3
			C3498.2,267.4,3496.8,270.4,3498.7,270.9L3498.7,270.9z"/>
	</g>
</g>
<g>
	<g>
		<path d="M3729.9,119.4c-2.3,3.4-2.4,7.7-3,11.7c-0.9,6.1-1.7,12.2-2.6,18.3c-1.8,12.5-3.6,25.1-5.4,37.6
			c-1.8,12.5-3.7,25-5.6,37.4c-1,6.2-1.9,12.5-2.9,18.7c-1,6.4-2.6,13-2.9,19.5c-0.2,4.8,7.5,8.7,8.9,2.8c2.5-11,3.3-22.7,4.8-34
			c1.7-12.9,3.4-25.8,5-38.7c1.5-11.6,2.9-23.1,4.2-34.7c0.7-6.3,1.4-12.5,2.1-18.8c0.7-6,2-12.5,0.9-18.5
			C3733.2,119.2,3731.1,117.6,3729.9,119.4L3729.9,119.4z"/>
	</g>
</g>
<g>
	<g>
		<path d="M3723,171.5c0.3,5.4,6.6,4.8,9.8,2.1c3.2-2.8,5.9-6.3,8.8-9.4c12.5-13.1,26.5-24.1,40.3-35.8c2.2-1.9-0.2-7.4-3.2-5.7
			c-13.7,7.6-25.3,18.8-35.9,30.1c-3.6,3.8-7.3,7.7-10.6,11.7c-0.8,1-1.5,2.2-2.4,3.1c-1.7,1.6-3,1-5.1,1.7
			C3723.8,169.6,3723,170.6,3723,171.5L3723,171.5z"/>
	</g>
</g>
<g>
	<g>
		<path d="M3647.5,267.3c5.6,7.1,13-2.8,16.5-7.1c4.4-5.4,8.6-10.9,13.5-15.8c4.2-4.2,8.9-8,14.2-10.8c6.8-3.5,14.5-4.5,21.2-7.9
			c1.9-0.9,1.6-5.3-0.8-5.4c-12.4-0.2-25.8,6-34.8,14.4c-4.2,3.9-7.9,8.3-11.4,12.7c-2.2,2.8-4.4,5.7-6.6,8.6
			c-1.8,2.4-5.8,9.4-9.7,7.5C3647.9,262.7,3646.6,266.1,3647.5,267.3L3647.5,267.3z"/>
	</g>
</g>
<g>
	<g>
		<path d="M4140.9-192.7c-13.4,19-26.3,38.3-40.3,56.8c-14.4,19-29.5,37.4-45.3,55.3c-3,3.4,2.2,7.7,5.4,7.6
			c51.2-2,103.3-5,152.9-18.6c24.6-6.8,48.9-16.2,70.7-29.6c7-4.3,16.4-12.9,12.1-22.1c-5.6-12-19.7-5.9-28.3-1.8
			c-24.2,11.5-44.1,31.2-56.2,55c-1.5,3,1.3,6.4,4.2,6.9c24.1,4.4,49.2,2.6,72-6.5c3.7-1.5,1-8.4-2.8-7.1c-22.6,7.3-46.5,9.4-69.9,5
			c1.4,2.3,2.8,4.6,4.2,6.9c9.2-17.8,22.9-33.1,39.6-44.1c3.9-2.6,7.9-4.9,12.1-7c3.1-1.6,10.6-6.2,14.3-5.2c3.7,1-1.8,6.9-3.4,8.4
			c-3.7,3.4-8.6,5.7-13,8.1c-37.6,20.6-79.9,30.4-122.2,35.7c-29.5,3.7-59.2,5.2-88.9,6.8c1.8,2.5,3.6,5.1,5.4,7.6
			c15-17.8,29.5-36.1,43.2-54.9c13.7-18.7,27.3-37.8,38.7-58C4147.4-190.5,4143.5-196.4,4140.9-192.7L4140.9-192.7z"/>
	</g>
</g>
<g>
	<g>
		<path d="M4368-134.1c-29.1,36.6-52.2,77.7-69.4,121.2c-1.5,3.8,5.4,8.8,7.5,4.6c12-24.3,27.6-46.8,46.4-66.3
			c9.4-9.7,19.6-18.8,30.4-26.8c5.1-3.8,10.4-7.5,15.9-10.9c2.2-1.4,12.3-7.4,14.4-3.7c0.1-1.4,0.3-2.9,0.4-4.3
			c-13.1,15.1-27.6,28.8-43.5,40.9c2.3,2.4,4.6,4.7,6.8,7.1c5.2-7.3,12.6-11.1,20.7-14.5c10.6-4.4,21.2-8.5,31.9-12.7
			c21.7-8.6,43.4-17.5,65.2-25.9c4.7-1.8,0.7-9.6-3.6-8c-23.3,8.6-40.9,28.8-46.3,53.1c-0.6,2.6,1.7,5.7,4.4,5.9
			c24.6,2.6,40.8-18,56.1-33.7c7.8-8,17.7-17.1,29.4-18.4c6.4-0.7,9.6,3.9,9.5,9.9c-0.2,6.9-4.9,13-8.9,18.3
			c-2.5,3.4,1.9,10.1,5.9,7.4c24.5-16.5,50.4-30.7,77.5-42.5c-2.4-1.4-4.8-2.8-7.2-4.2c1.8,10.7,2.3,21.4,1.5,32.3
			c-0.2,3.4,3,6.2,6.3,5.6c19.7-3.5,38.6-10.3,56.1-20c3.7-2,0.3-9.1-3.5-7.2c-17.8,8.8-36.7,15-56.3,18.5c2.1,1.9,4.2,3.8,6.3,5.6
			c0.8-11.5,0.3-23-1.7-34.4c-0.6-3.3-4.1-5.6-7.2-4.2c-27,11.7-52.8,25.9-77.1,42.4c2,2.5,4,4.9,5.9,7.4
			c7.6-10.3,15.3-23.2,7.4-35.7c-7.7-12-23-8.3-33.3-2.1c-11.5,6.9-20,17.4-29.2,26.9c-10,10.4-23,21.1-38.3,19.5
			c1.5,2,2.9,4,4.4,5.9c4.8-21.9,20.7-40.4,41.6-48.4c-1.2-2.7-2.4-5.3-3.6-8c-22.8,9.2-45.8,18-68.6,27
			c-10.5,4.1-21.2,8.1-31.6,12.5c-8.1,3.4-16.4,7.9-21.6,15.3c-2.7,3.8,2.9,10.1,6.8,7.1c16.5-12.5,31.6-26.6,45.1-42.3
			c0.9-1.1,1.1-3,0.4-4.3c-7.9-13.2-22.9-5.9-32.7,0.6c-12.7,8.4-24.7,18-35.8,28.5c-22.6,21.5-41,47-54.2,75.2
			c2.5,1.5,5,3.1,7.5,4.6c16.1-42.9,38.2-83.2,65.1-120.2C4373.1-131.6,4370.1-136.8,4368-134.1L4368-134.1z"/>
	</g>
</g>
<g>
	<g>
		<path d="M4795.4-203.6c-24.2,22.1-45.1,47.2-63.1,74.6c-3.3,5.1-7.8,11.6-3.2,17.5c4.2,5.3,12.2,3.7,17.9,2.4
			c14.2-3.4,26.1-12.1,33.2-24.9c2-3.6-3.3-8.7-6-4.8c-6.5,9.2-15.9,16.5-26.6,20.2c-2.5,0.8-5,1.5-7.6,1.8
			c-0.6,0.1-4.3,0.8-4.7,0.4c-0.6-0.6,1.2-3.1,1.5-3.7c3.9-7.3,8.5-14.2,13.1-21c14.1-20.7,30.3-39.8,48.3-57.2
			C4800.4-200.5,4798.1-206.1,4795.4-203.6L4795.4-203.6z"/>
	</g>
</g>
<g>
	<g>
		<path d="M4719.5-159.3c-2.3,2-3.3,4-3.9,7c-0.2,0.9,0.3,2.4,1.2,2.8c30.7,12.7,64.4-0.4,95.9-1.3c-1.2-2.1-2.4-4.2-3.6-6.3
			c-2.4,6-4.9,12-7.6,17.9c-2.3,5.1-5.9,10.3-6.1,15.9c-0.1,1.7,2,5.2,4.1,3.5c4.5-3.7,6.3-10.3,8.5-15.6c2.5-5.8,4.8-11.7,7-17.6
			c0.9-2.4-1.5-5.5-4-5.4c-30.9,1.2-62.1,13.8-92.7,3.8c0.4,0.9,0.8,1.9,1.2,2.8c0.5-1.1,1.1-2.3,1.6-3.4
			C4723-156.9,4722-161.3,4719.5-159.3L4719.5-159.3z"/>
	</g>
</g>
<g>
	<g>
		<path d="M4829.8-186.3c2.1,1.7,3.9,3.7,5.1,6.2c0.9,1.7,2.1,9.1,5.6,6.1c2.7-2.3-0.2-8.5-1.4-10.9c-1.4-2.7-3.5-5.1-5.9-6.9
			C4829.4-194.9,4826.5-188.9,4829.8-186.3L4829.8-186.3z"/>
	</g>
</g>
<g>
	<g>
		<path d="M4879.7-152c0.1-2.2,0.2-4.4,0.2-6.6c-0.1-2.9-2.6-5.8-5.7-5c-11.5,2.9-22.1,9.2-30,18.2c-7.1,8.2-13.7,20.5-5,30.1
			c7.3,7.9,19.7,8,29.6,8.7c15.7,1.1,31.3,0.4,46.9-1.5c5.8-0.7,1.3-9.3-3.7-8.7c-11.2,1.3-22.6,1.7-33.9,1.5
			c-6.1-0.1-12.1-0.4-18.1-1c-4.2-0.4-9.6-0.7-13.2-3.2c-8.4-5.8,3.4-18.9,8.2-23.4c6.4-6.1,14.3-10.3,22.8-12.6
			c-1.9-1.3-3.7-2.6-5.6-4c0.4,2.6,1.1,5.1,1.7,7.6C4874.6-148.7,4879.5-148.2,4879.7-152L4879.7-152z"/>
	</g>
</g>
<g>
	<g>
		<path d="M4074.1,250.6c-2,0.3-4.7-0.9-6.8-1c0.5,1.9,1,3.8,1.5,5.7c23.9-20.1,46.5-41.9,69.2-63.3c22.2-20.9,45.4-41.2,66.2-63.4
			c2.8-3-2.8-9.2-6.1-6.4c-23.3,20.1-45,42.3-67.2,63.6c-21.9,21.1-44.4,41.9-65,64.3c-1.4,1.6-0.7,7.4,2.2,5.6
			c1.1-0.7,6.1-4.3,5.8-4.2C4074.6,251.3,4074.8,250.5,4074.1,250.6L4074.1,250.6z"/>
	</g>
</g>
<g>
	<g>
		<path d="M4120.3,268.2c7.8-5.5,14.9-12.4,22.2-18.6c6.4-5.5,12.8-11,19.2-16.4c13.6-11.5,27.2-23,41-34.2c13.5-11,27-22,40.6-32.8
			c12.8-10.2,26.9-19.7,38.7-31.1c3.7-3.6-1.9-9.5-6-7c-14.6,8.9-27.8,21-41.1,31.7c-13.7,11-27.2,22.2-40.7,33.5
			c-13.1,11.1-26.2,22.2-39.1,33.5c-6.4,5.6-12.8,11.2-19.1,16.9c-6.7,6-14.1,11.9-20,18.8C4113.9,264.9,4117.2,270.3,4120.3,268.2
			L4120.3,268.2z"/>
	</g>
</g>
<g>
	<g>
		<path d="M4095.3,116.9c27.1,21.4,48.8,48.4,75.1,70.8c12.9,11,26.7,21.1,41.1,30c14.3,8.9,29.5,17.9,45.3,23.7
			c6.1,2.2,8.4-5.2,2.9-7.9c-15.6-7.6-31.2-14.9-46-24c-14.3-8.8-28-18.7-40.9-29.5c-13-10.9-24.8-23-36.7-35
			c-11.9-12-24.1-24.8-38.4-34C4094,108.5,4092.5,114.7,4095.3,116.9L4095.3,116.9z"/>
	</g>
</g>
<g>
	<g>
		<path d="M4521.8,121.7c-3.9-35.5-41.9-57.2-74.7-43.3c-16,6.8-26.8,21.2-34.9,36.1c-9.3,16.9-16,35.4-19.9,54.3
			c-3.6,17.9-6.1,38.3-1.8,56.2c3.7,15.3,15.2,29.9,31.8,31.7c17.6,1.9,35.7-11,49.1-21.1c13.7-10.4,25.6-23.1,35.2-37.3
			c11.4-16.7,19.9-36.2,19.6-56.7c-0.2-19.3-9.6-38.4-26.7-47.9c-4.7-2.6-6.5,4.3-3,6.9c25.9,20,21.8,54.8,7.7,80.6
			c-13.8,25.3-35.4,46.4-60.8,59.9c-7.1,3.7-15.4,7.7-23.6,5.8c-6.3-1.5-11.4-6.3-14.7-11.7c-8.3-13.4-6.8-31.8-5.1-46.8
			c1.8-16,5.6-31.9,11.4-46.9c5.4-13.8,12.2-27.9,21.7-39.4c11.4-13.7,28.2-21.5,46.1-18.1c18.6,3.6,33,19.1,36.5,37.6
			C4516.6,125.8,4522.3,126.7,4521.8,121.7L4521.8,121.7z"/>
	</g>
</g>
<g>
	<g>
		<path d="M4459.1,166.2c-2-1.3-7.2-2.4-8.2-4.8c-0.9-2.1,2.2-3.7,3.6-2c1.2,1.5-0.6,4.3-1.6,5.4c-1.7,2-4.2,3.2-6.6,4.1
			c-0.5,0.2-1.1,0.4-1.6,0.6c-1.2,0-1.3,0.5-0.2,1.2c1.1,2.1,0.9-0.4,1.3-1.4c0.7-1.5,1.9-2.8,3.2-3.8c3.1-2.5,6.8-4,10.4-5.7
			c3.8-1.8,0.9-8.1-2.9-7.2c-8.1,1.9-18.4,6.8-19.2,16.3c-0.5,5.4,3.7,10.1,9.3,9c5.1-1,10.9-4.3,13.5-8.9
			c4.4-7.6-0.7-20.8-10.9-17.7c-4.9,1.5-5.9,6.9-4.2,11.2c1.9,5,7.8,8.9,13.1,7.4C4459.4,169.7,4460.4,167.1,4459.1,166.2
			L4459.1,166.2z"/>
	</g>
</g>
<g>
	<g>
		<path d="M4721.5,67.3c0.6-0.2,1.1-0.3,1.7-0.5c1.1-0.6,1.6-1.9,1.4-3.1c-0.3-2.1-1.4-3-3.4-3.3c-1.1-0.2-2.4,0.3-2.9,1.4
			c-2.1,4.8-1.3,11.3-1.5,16.4c-0.3,7.1-0.4,14.2-0.5,21.4c-0.3,14.5-0.6,28.9-0.9,43.4c-0.2,13.8-0.4,27.6-0.6,41.3
			c-0.1,6.6-0.2,13.3-0.3,19.9c-0.1,7.2-2,16.6,1.7,22.9c1.6,2.6,6.1,3.7,7.7,0.5c2.9-5.9,1.5-13.8,1.4-20.2c0-7.3,0-14.5-0.1-21.8
			c0-13.4,0-26.7-0.1-40.1c0-14.4-0.1-28.7-0.3-43.1c0-6.5,0-13-0.2-19.4c-0.1-3.8-0.3-7.6-0.4-11.5c-0.1-2.7,0.4-5.5,0.1-8.1
			c-0.9,1.1-1.9,2.2-2.8,3.3c0.2,0.1,0.4,0.1,0.6,0.2c-0.4-0.9-0.8-1.9-1.2-2.8c-0.1,0.4-0.1,0.8-0.2,1.2c0.6-0.8,1.3-1.7,1.9-2.5
			c-0.1,0-0.3,0-0.4,0C4720.5,62.9,4719.3,66.9,4721.5,67.3L4721.5,67.3z"/>
	</g>
</g>
<g>
	<g>
		<path d="M4668.8,121.4c4.1-0.8,7.1-3.9,10.2-6.6c3-2.6,5.9-5.1,8.9-7.6c6.9-5.8,13.9-11.6,20.9-17.4c6.7-5.5,13.4-10.9,20.3-16.1
			c3.3-2.5,6.7-5.1,10-7.6c3.6-2.7,7.7-5.2,10.3-8.8c2-2.8-1.6-8.4-5.1-6.9c-8.1,3.6-15.2,10.5-22,16.1
			c-6.6,5.4-13.2,10.8-19.7,16.4c-6.4,5.5-12.7,11.2-18.9,17c-5.8,5.5-14,11.3-16.7,19C4666.6,120.2,4667.2,121.8,4668.8,121.4
			L4668.8,121.4z"/>
	</g>
</g>
<g>
	<g>
		<path d="M4672,183.5c6.8-2.5,12.6-9.3,17.8-14.3c6.2-5.9,12.3-12,18.4-18.1c5.5-5.6,11.1-11.1,16.6-16.6c2.9-2.9,5.8-5.8,8.7-8.7
			c2.9-3,6.4-5.8,8.1-9.6c1.3-2.9-2.3-7.9-5.5-5.9c-6.3,3.9-11.2,10.5-16.3,15.9c-6.2,6.6-12.4,13.2-18.6,19.8
			c-5.3,5.6-10.4,11.2-15.5,16.9c-5.4,6-11.1,12-14.7,19.2C4670.5,183.1,4671,183.9,4672,183.5L4672,183.5z"/>
	</g>
</g>
<g>
	<g>
		<path d="M4669,242.5c-2.1-2.3,28-30.3,31.3-33.6c12.1-12,25.6-23.2,36.6-36.2c2.1-2.4-1.3-8-4.3-5.7
			c-15.8,11.9-29.6,27.4-43.2,41.8c-6.6,7-13.2,13.9-19.6,21.1c-3.3,3.7-9.9,12.4-3.3,16.2C4668.4,247.2,4670.3,244,4669,242.5
			L4669,242.5z"/>
	</g>
</g>
<g>
	<g>
		<path d="M4824.4,250.9c-0.2,0-0.3,0-0.5,0c0.4,0.5,0.8,1,1.1,1.5c-0.1-1,7.6-4.8,8.5-5.3c3.5-2.2,6.9-4.4,10.4-6.7
			c6-3.9,11.9-7.9,17.8-11.9c12.5-8.6,24.7-17.6,36.8-26.8c23.9-18.4,46.9-37.9,69-58.5c4.6-4.3-3.9-11.1-8.2-7.1
			c-23,21.5-47,42-71.9,61.3c-12.4,9.6-25,18.8-37.7,27.9c-7.1,5-14.3,9.8-21.4,14.7c-5,3.4-11.5,6.1-9.1,13.2
			c0.6,1.6,2.6,3.1,4.4,2.4c1.2-0.5,1.6-0.8,2.4-1.9C4826.8,252.5,4826.3,249.9,4824.4,250.9L4824.4,250.9z"/>
	</g>
</g>
<g>
	<g>
		<path d="M4960.9,141.8c3.5-4.4,1.2-7.8-2.4-11.4c-2.9-2.9-5.6-5.9-8.4-8.9c-7.8-8.5-15.4-17.1-23-25.7
			c-10.2-11.6-20.1-23.4-30.4-34.9c-2.3-2.5-6.4-3-8.8-0.5c-19.4,20-39.1,39.7-57.8,60.3c-4,4.4-8,8.7-11.9,13.1
			c-2,2.3-0.5,5.6,1.8,7c22.1,13.8,42.7,29.8,63.8,45.1c9.7,7.1,19.6,14,29.9,20.2c12.6,7.7,25.7,13.6,39.5,18.9
			c4,1.6,4.2-5.3,1.1-6.7c-47.4-22.5-86.3-57.9-130.9-84.9c0.6,2.3,1.2,4.7,1.8,7c9.2-10.7,19.7-20.3,29.6-30.4
			c11.6-11.9,23.2-23.7,34.8-35.5c2.5-2.6,5-5.1,7.6-7.7c-2.9-0.2-5.9-0.3-8.8-0.5c9.4,10.8,19.2,21.3,28.9,31.8
			c7.5,8.1,15.1,16.1,22.8,24c3.3,3.4,6.6,6.6,10,9.9c1.1,1.1,2.2,2.1,3.4,3.2c1,0.9,3.8,3.3,3.9,3.3
			C4957,140,4959.1,144.1,4960.9,141.8L4960.9,141.8z"/>
	</g>
</g>
<g>
	<g>
		<path d="M4216.4,346.9c-1.2,35.2-0.8,70.6-0.9,105.9c-0.1,17.8-0.2,35.6-0.3,53.4c0,8.7-0.1,17.4-0.1,26.2c0,8-1.2,17,0.7,24.9
			c0.5,1.9,3,3.3,4,0.8c2.6-6.9,1.1-16,1-23.3c0-8.6-0.1-17.2-0.1-25.8c-0.1-17.9-0.2-35.7-0.3-53.6c-0.2-36.3,0.4-72.8-0.9-109.1
			C4219.4,343.8,4216.5,345,4216.4,346.9L4216.4,346.9z"/>
	</g>
</g>
<g>
	<g>
		<path d="M4131.4,430.6c6.3-3.3,11.6-8.3,16.8-13c8.1-7.2,15.6-15.2,23.3-22.9c15.6-15.6,31.5-30.7,47.7-45.6
			c2.1-1.9,0.5-7.3-2.6-5.2c-7.5,5.2-14,11.9-20.4,18.3c-8.4,8.3-16.5,16.9-24.6,25.5c-7.2,7.5-14.3,15.1-21.6,22.5
			c-6,6.1-12,13.3-19.1,18.1C4129.8,429.1,4129.7,431.5,4131.4,430.6L4131.4,430.6z"/>
	</g>
</g>
<g>
	<g>
		<path d="M4142.3,500.9c13.1-11.4,25.7-22.9,39.8-33.1c6.8-4.9,13.8-9.6,21-14.1c3.8-2.3,7.6-4.6,11.5-6.8
			c4.2-2.3,8.9-4.2,12.3-7.6c1.2-1.2,1.2-5.2-1.3-4.6c-8.3,1.9-16.4,8.3-23.5,12.9c-7.4,4.8-14.6,9.9-21.6,15.3
			c-14,10.8-28,22.9-39.4,36.5C4140.5,500.4,4141.2,501.9,4142.3,500.9L4142.3,500.9z"/>
	</g>
</g>
<g>
	<g>
		<path d="M4495.4,321.3c-0.7,9.2-0.3,18.6-0.3,27.9c0,9.1-0.2,18.1-0.5,27.2c-0.5,18.6-1.2,37.1-2.3,55.7
			c-1.1,17.8-2.4,35.6-4.1,53.4c-1.8,18.7-5.2,37.5-5.8,56.3c-0.1,3,3.5,4.1,4.3,0.9c4.5-17.8,5.1-37.1,6.7-55.4
			c1.6-18.3,2.9-36.6,3.8-54.9c0.9-18.6,1.6-37.2,1.8-55.8c0.1-18.4,1.2-37.6-0.9-55.9C4498,318.5,4495.5,319.9,4495.4,321.3
			L4495.4,321.3z"/>
	</g>
</g>
<g>
	<g>
		<path d="M4494.3,315.6c-25.3-2.6-51.6,10.5-72,24.2c-19.5,13.1-37,30.3-46.9,51.9c-9.8,21.4-12,46.8-2.9,68.7
			c9.4,22.8,30.4,38.3,51.4,49.7c12.2,6.7,25,12.1,38.3,16.2c14.1,4.3,29.6,8,44.5,7.6c3.3-0.1,2.2-6.3-0.6-6.7
			c-11.9-1.8-23.7-3.3-35.4-6.4c-11.2-2.9-22.1-6.8-32.6-11.7c-21-9.6-43.8-23.4-55.8-43.8c-11.7-19.8-11.1-44.8-2.8-65.8
			c8.3-21.1,24.6-38.6,42.8-51.8c10.4-7.5,21.6-14.1,33.4-19.1c12.4-5.2,24.9-7.4,38.2-9.2C4495.6,319.3,4496.3,315.8,4494.3,315.6
			L4494.3,315.6z"/>
	</g>
</g>
<g>
	<g>
		<path d="M4640.1,375c-3.3-1.8-6.7-1.1-9.1,1.8c-1.5,1.8,0.4,6.9,2.9,4.7c29.9-26.8,58.7-54.9,92.8-76.5c-1.8-1.7-3.7-3.4-5.5-5
			c-2.9,35.1-5.3,70.2-7.9,105.3c-1.3,17.2-2.6,34.4-3.9,51.6c-0.6,8.6-1.3,17.2-1.9,25.8c-0.7,8.7-1.9,17.7-1.6,26.4
			c0.1,3.1,5.4,7.2,6.3,2.4c1.6-8.5,1.7-17.5,2.4-26.1c0.6-8.6,1.3-17.2,1.9-25.8c1.3-17.5,2.6-35.1,3.9-52.6
			c2.6-34.7,5.4-69.5,7.8-104.2c0.2-2.5-2.5-7-5.5-5c-33.6,22-63.4,49.7-91.1,78.6c1,1.6,1.9,3.1,2.9,4.7c1.5-0.7,3-1.5,4.5-2.2
			C4640.6,379.2,4641.6,375.8,4640.1,375L4640.1,375z"/>
	</g>
</g>
<g>
	<g>
		<path d="M4905.5,296.4c-4.5-1-6.3,3.2-7,6.9c-1.3,7.6-0.6,16-0.9,23.7c-0.6,18-1.1,36-1.5,54c-0.9,36.2-1.8,72.5-2.7,108.7
			c-0.5,20.6-1,41.2-1.5,61.8c-0.1,4.5,6.8,6.4,6.9,1.1c1.2-66.9,2.8-133.9,3.5-200.8c0.1-9.6,0.2-19.3,0.3-28.9
			c0.1-4.7,0.1-9.5,0.2-14.2c0-3.2-0.3-7.2,2.7-9.2C4906.4,298.9,4906.9,296.8,4905.5,296.4L4905.5,296.4z"/>
	</g>
</g>
<g>
	<g>
		<path d="M4801.9,486.7c-1.2-2-3.8-0.6-4.2,1.3c-0.9,3.9,7,9.1,9.4,11.2c9.5,8.1,20.4,14.4,31.4,20.3c11.5,6.3,23.3,12.2,34.2,19.6
			c6,4.1,11.7,8.6,17,13.5c2.7,2.5,5.4,5.2,7.9,7.9c2.1,2.3,4.1,5.1,6.8,6.8c2.1,1.3,3.9-1.3,3.3-3.3c-1.5-5.4-7.1-9.7-11-13.5
			c-3.9-3.8-7.9-7.3-12.2-10.6c-8.4-6.6-17.6-12.1-27-17.2c-9.3-5-18.8-9.7-28-14.9c-5.7-3.2-11.3-6.4-16.6-10.2
			c-2.1-1.5-4.2-2.9-6.2-4.5c-1.9-1.5-5.8-3.8-6.4-6.3c-0.2,0.6-0.3,1.3-0.5,1.9c-0.1,0-0.1,0.1-0.2,0.1
			C4800.6,490.4,4802.6,488,4801.9,486.7L4801.9,486.7z"/>
	</g>
</g>
<g>
	<g>
		<path d="M4230.3,671.8c-2.1,9.2-1,20-1.1,29.5c-0.1,9-0.3,18.1-0.3,27.1c-0.1,18.8-0.2,37.6-0.4,56.4
			c-0.5,35.9-1.6,71.9-4.3,107.7c-0.8,10.2-1.7,20.4-2.7,30.5c-1.1,10.5-3.2,21.2-3.1,31.8c0,2.9,4.7,7.3,6,2.7
			c2.5-8.9,2.9-18.6,3.8-27.8c0.9-9.4,1.7-18.9,2.4-28.3c1.3-18.9,2.3-37.8,2.9-56.7c1.2-37.2,1.2-74.5,1.1-111.8
			c0-10.5-0.2-21-0.3-31.4c-0.1-9.9,0.9-20.5-1-30.3C4232.8,669.1,4230.6,670.5,4230.3,671.8L4230.3,671.8z"/>
	</g>
</g>
<g>
	<g>
		<path d="M4155.9,741.5c1.7,18.6,9.1,35.6,16.9,52.4c8,17.3,15.5,34.8,21.8,52.8c6.1,17.5,11.3,35.2,15.5,53.2
			c2.2,9.3,4.1,18.6,5.7,28c1.7,9.9,2.5,20.1,4.5,29.9c0.7,3.7,5.7,3.5,5.6-0.5c-0.4-9.7-2.5-19.6-4.2-29.1
			c-1.6-8.7-3.3-17.4-5.3-26c-4.4-19-9.9-37.7-16.4-56c-6.2-17.3-13.3-34.3-21.3-50.8c-8.4-17.7-17.3-35.5-20.2-55
			C4158.2,738.8,4155.8,740.4,4155.9,741.5L4155.9,741.5z"/>
	</g>
</g>
<g>
	<g>
		<path d="M4229.7,948.4c4.8-2.1,6.6-8.3,8.7-12.7c3.3-6.7,6.6-13.4,9.8-20.1c6.2-13,12.4-25.9,18.7-38.9
			c6.1-12.7,12.2-25.3,18.2-38c6.3-13.1,13.5-26.1,18-40c0.7-2.3-2.2-8.1-4.5-4.6c-7.7,12-13.2,25.4-19.2,38.3
			c-5.9,12.6-11.8,25.2-17.7,37.8c-5.8,12.3-11.5,24.6-17.3,36.9c-3.1,6.5-6.1,13.1-9.1,19.6c-3,6.4-7.1,13.1-7.3,20.3
			C4228,947.7,4228.7,948.8,4229.7,948.4L4229.7,948.4z"/>
	</g>
</g>
<g>
	<g>
		<path d="M4543.9,796.7c7.2-6.1,13-13.9,19.2-21c5.8-6.6,11.7-13.1,17.7-19.6c11.9-12.8,24.8-24.2,37.2-36.3
			c5.2-5.1-3.2-11.8-8.3-7.8c-14.1,11.1-26.6,24.8-38.6,38c-5.6,6.2-11,12.5-16.4,18.8c-5.7,6.7-13.1,13.7-17.2,21.6
			C4535.8,793.8,4540.3,799.8,4543.9,796.7L4543.9,796.7z"/>
	</g>
</g>
<g>
	<g>
		<path d="M4553.1,713.3c11.1,12.2,18,27.2,26.8,41c4.8,7.5,10.1,14.7,15.8,21.6c5.3,6.4,11,13.8,18,18.4c4.1,2.7,10-0.7,6.2-5.5
			c-5-6.3-11.7-11.3-17.1-17.3c-7-7.6-13.3-15.8-18.9-24.4c-8.6-13.2-15.8-27.6-27.2-38.8C4553.3,704.9,4550.4,710.4,4553.1,713.3
			L4553.1,713.3z"/>
	</g>
</g>
<g>
	<g>
		<path d="M4540.8,762.4c-3.7-1-4.4-1-2.2-0.2C4539.3,762.5,4540.1,762.6,4540.8,762.4c2.3-0.1,4.9-0.8,7.1-1.1
			c4.7-0.7,9.3-1.4,14-2c8.5-1.2,17.1-2.2,25.7-3c8.9-0.9,17.8-1.6,26.8-2.2c9.8-0.6,19.7-0.5,29.5-1.4c7-0.6,4-10.1-2-10.2
			c-17.4-0.5-35.3,1.7-52.6,3.5c-17.4,1.9-34.7,4.4-51.8,7.7C4531.7,754.9,4535.9,763.2,4540.8,762.4L4540.8,762.4z"/>
	</g>
</g>
<g>
	<g>
		<path d="M4726.2,697.1c-6.8,8.9-12.6,18.7-19,27.9c-6.8,9.7-13.6,19.5-20.8,29c-1.4,1.8-1.3,4.6,0.6,6.1
			c19.1,15.7,40,29.4,61.3,41.9c2.5,1.5,6.6,1.1,7.3-2.3c4-18.4,18.1-31.9,31.2-44.3c2.6-2.4,0.1-6.8-2.6-7.7
			c-27.4-9.8-52.7-24.2-74.8-43.2c-5.2-4.5-14.1,2-8.1,6.9c23.5,19.5,50.3,34.9,79.1,45c-0.9-2.6-1.7-5.1-2.6-7.7
			c-14.1,13.4-28.5,28-32.3,47.8c2.4-0.8,4.9-1.5,7.3-2.3c-21.3-12.1-41.7-25.8-61.3-40.5c0.7,2,1.5,4.1,2.2,6.1
			c12.8-18.8,26.6-37.9,36.9-58.2C4732.1,699.2,4728.6,694,4726.2,697.1L4726.2,697.1z"/>
	</g>
</g>
<g>
	<g>
		<path d="M4731.2,755.9c-1.3-0.2-2.9-0.2-3.8-1.2c0.4,0.6,0.7,1.1,1.1,1.7c0.2,0.4-0.8,0.6,0.6-0.1c0.5-0.2,1-0.5,1.5-0.6
			c0.3-0.1,0.9-0.1,1.1-0.2c-0.2,0,0,0,0.5,0.1c-1.2-0.2-1.8-0.8-1.8-1.7c-0.1-0.6-0.1-0.5-0.1,0.1c0,0,0-0.1,0-0.1
			c0.3-0.2-0.6,0.4-0.3,0.2c-0.1,0-0.9,0.4-0.9,0.3c0-0.1,1,0.4,1.1,0.5c0.5,0.7,0.9,1.4,1.4,2.1c-0.3,0.9-0.5,1.9-0.8,2.8
			c0.1-0.1,0.3-0.1,0.4-0.2c-0.6-0.4,1.4-0.5,2.2-0.8c1.3-0.4,2-0.8,3-1.8c2-2.1,0-7.1-3-7c-3.6,0.1-10.1,1.1-10.6,5.7
			c-0.4,3.6,2.7,6.5,6,7.3c3,0.7,6.4-0.1,8.5-2.3c2.2-2.3,2.5-5.8,1.3-8.6c-1.4-3.3-5-5.2-8.5-5.1c-2.7,0.1-6.2,1.4-7.8,3.7
			c-2.2,2.9-0.7,7.1,1.6,9.4c2,2.1,4.6,2.7,7.5,2.7C4735,762.7,4734.7,756.3,4731.2,755.9L4731.2,755.9z"/>
	</g>
</g>
<g>
	<g>
		<path d="M4825.1,696.6c14.8,14.1,30.6,26.9,45.2,41.2c7.2,7.1,14.4,14.4,21.3,21.9c7.1,7.7,13.5,16.5,21.1,23.5
			c2,1.8,4.8,2.8,7.3,1.5c2.1-1.1,3.4-3.9,1.9-6.1c-5.7-8.3-13.6-15.5-20.5-22.6c-7.5-7.7-15-15.2-22.8-22.6
			c-7.5-7.1-15.2-14.1-23.1-20.8c-9-7.7-18-15.8-27.8-22.4C4823.6,687.6,4822.7,694.3,4825.1,696.6L4825.1,696.6z"/>
	</g>
</g>
<g>
	<g>
		<path d="M4831.2,792.7c18.5-14.7,35.3-31.7,51.8-48.6c7.9-8.1,15.6-16.4,23.2-24.8c3.6-4,7.1-7.9,10.6-11.9
			c3.1-3.6,9.4-8.6,9.6-13.6c0.1-4-4.7-6.8-8-4.8c-4.7,2.7-7.9,8-11.4,12c-3.7,4.4-7.5,8.7-11.4,13c-7.1,8-14.3,15.9-21.5,23.7
			c-15.3,16.5-31.8,32-46.9,48.7C4824.7,789,4827.8,795.4,4831.2,792.7L4831.2,792.7z"/>
	</g>
</g>
<g>
	<g>
		<path d="M4843.3,699.2c17.4-0.7,34.9-3.4,52.3-4.5c8.4-0.5,16.9-1,25.4-1.4c8.4-0.4,18.3,0.8,26.3-1.7c3.8-1.2,1.4-7.2-1.4-8
			c-4.1-1.2-8.2-0.7-12.4-0.5c-5.2,0.3-10.4,0.6-15.6,0.9c-8,0.5-15.9,1.1-23.8,1.8c-17.3,1.5-35.4,2.4-52.4,6.2
			C4838,692.8,4840,699.3,4843.3,699.2L4843.3,699.2z"/>
	</g>
</g>
<g>
	<g>
		<path d="M4822.1,795.7c4.7,2.1,10.1,0.3,15-0.4c4.8-0.7,9.6-1.4,14.3-2.1c8.9-1.3,17.8-2.4,26.7-3.4c8.1-0.9,16.2-1.6,24.4-2.2
			c4.8-0.4,9.6-0.6,14.4-0.9c4.5-0.2,9.3,0.2,13.5-1.4c3.6-1.4,3-5.9,0.2-7.8c-3.8-2.6-8.2-1.6-12.5-1.3c-4.9,0.3-9.7,0.7-14.6,1.1
			c-9.8,0.8-19.5,1.9-29.3,3.1c-10.2,1.3-20.3,2.8-30.4,4.7c-4.4,0.8-8.8,1.7-13.1,2.7c-4.2,1-7.5,1.2-9.3,5.3
			C4820.9,794,4821.2,795.3,4822.1,795.7L4822.1,795.7z"/>
	</g>
</g>
<g>
	<g>
		<path d="M4539.6,943.5c16.6-25.6,33.6-51,52.4-75c-3.2-0.6-6.4-1.2-9.6-1.8c3.4,11.4,8.9,22.5,14.3,33.1
			c5.4,10.7,11.4,21,17.8,31.1c2.6,4,9.2,3.4,10.9-1c5.3-14.4,10.6-28.8,15.9-43.2c2.5-6.7,5-13.5,7.5-20.2
			c2.5-6.6,5.8-13.6,6.7-20.7c0.6-4.9-7.1-9-9.9-4.1c-7.3,12.7-11.4,27.8-16.3,41.5c-5.3,14.6-10.5,29.2-15.6,43.8
			c3.6-0.3,7.2-0.7,10.9-1c-6.5-9.6-12.4-19.5-17.8-29.8c-5.4-10.2-9.2-21.1-14.5-31.2c-1.8-3.4-7-5.7-9.6-1.8
			c-16.6,24.9-33.2,49.8-47.4,76.2C4533.7,942.3,4537.3,947.1,4539.6,943.5L4539.6,943.5z"/>
	</g>
</g>
<g>
	<g>
		<path d="M4600.1,895.1c5.3-1.9,8.8-9.3,12-13.7c3.2-4.4,8-8.7,8.5-14.3c0.2-2.3-2.8-5.6-5.2-4.2c-5.3,3.1-8.4,9.2-11.3,14.5
			c-2.9,5.1-5.8,10.4-5.8,16.3C4598.2,894.6,4599.1,895.4,4600.1,895.1L4600.1,895.1z"/>
	</g>
</g>
<g>
	<g>
		<path d="M4718.5,912.4c16.6-25.3,28.8-53.4,44-79.6c-3.1,0.3-6.3,0.7-9.4,1c5.7,5.2,8,13.2,10.6,20.3c2.6,7.2,5,14.5,7.4,21.7
			c4.8,14.3,9.7,30,18.6,42.3c3.9,5.5,15.4,2.4,11.5-4.7c-8.4-15-14.5-30.3-20.1-46.5c-2.7-7.8-5.3-15.5-8.4-23.1
			c-2.6-6.5-5.7-13.3-11.6-17.4c-2.5-1.8-7.7-2.6-9.4,1c-12.3,26.9-27.7,52.5-37.7,80.4C4713.1,910.2,4716.3,915.9,4718.5,912.4
			L4718.5,912.4z"/>
	</g>
</g>
<g>
	<g>
		<path d="M4750.4,922.1c7.9-4.8,14.7-12,21.4-18.4c3.5-3.3,6.9-6.7,10.3-10.1c3.4-3.4,9-6.9,9.4-11.9c0.2-2.5-2.7-6.3-5.5-5.1
			c-4.5,2-7.1,5.8-10.4,9.3c-3.1,3.4-6.2,6.7-9.2,10.1c-6.2,7-13.3,14-18.2,22.1C4747.4,919.5,4748,923.5,4750.4,922.1L4750.4,922.1
			z"/>
	</g>
</g>
<g>
	<g>
		<path d="M4904.8,821.2c-7.6,14.9-12.3,31.6-17.9,47.3c-2.6,7.3-5.1,14.6-7.7,21.9c-2.7,7.6-7.3,16.2-7.6,24.3
			c-0.2,4.5,7.5,7.2,9.8,3.1c3.5-6.4,5.2-14,7.4-20.9c2.7-8.5,5.4-17.1,8.1-25.6c4.8-15.3,10.9-30.8,13.6-46.7
			C4911,821.8,4906.6,817.7,4904.8,821.2L4904.8,821.2z"/>
	</g>
</g>
<g>
	<g>
		<path d="M4896.9,850.9c5.4-0.3,10.4,4.7,14.7,7.5c5,3.3,10,6.5,15,9.8c9.4,6.2,18.7,12.6,28.3,18.4c4.4,2.7,6.8-4.3,3.1-6.8
			c-11.1-7.7-23-14.3-34.6-21.1c-5-3-10-5.9-15-8.8c-3.5-2-7-4.8-11.2-3C4895.8,847.4,4894.6,851,4896.9,850.9L4896.9,850.9z"/>
	</g>
</g>
<g>
	<g>
		<path d="M4881.6,889.2c9.4,6.1,19.1,11.5,29,16.6c4.9,2.5,9.8,4.9,14.9,7.1c5.4,2.4,11.1,5.5,16.9,6.5c5.2,0.9,4.7-5.4,1.5-7.6
			c-4.5-2.9-10.2-4.3-15.1-6.3c-5.5-2.2-11-4.5-16.3-7.1c-9.7-4.5-19.2-9.6-28.7-14.7C4880.5,882,4879.1,887.6,4881.6,889.2
			L4881.6,889.2z"/>
	</g>
</g>
<g>
	<g>
		<path d="M4579.5,1009.7c-1-1.7-4.5-5.1-4-7.2c0.5-2.1,3.8-2.9,5.4-3.9c0.4-0.2,0.8-0.3,1.2-0.5c-0.8-2.3-1.7-2.7-2.6-1.4
			c-1.1,0.3-2.2,1.1-3.3,1.5c-2.5,0.8-5.1,1.1-7.7,1c1.7,2.3,3.4,4.5,5.1,6.8c1.1-2.7,2.9-4.3,5.7-5.1c3.7-1.1,2.8-7.3-1-7.7
			c-5.9-0.6-11.3,2.6-13.4,8.2c-1.2,3.2,1.9,6.7,5.1,6.8c5.8,0.2,14.5-1,18-6.4c3.4-5.2-0.9-12.7-7.1-12.4
			c-4.9,0.2-10.8,4.8-11.8,9.6c-1.1,5.3,3.6,12.3,8.3,14.5C4579.3,1014.3,4580.2,1010.9,4579.5,1009.7L4579.5,1009.7z"/>
	</g>
</g>
<g>
	<g>
		<path d="M4576.6,1044.6c-3.3,0.8,2.2-4.6,3.1-5.2c1-0.7,4.7-3.5,6-2c1,1.2-4.3,3.8-5.3,4.2c-2.6,1-6.1,2.4-8.8,1.1
			c0.4,2.6,0.9,5.2,1.3,7.8c4.9-2.6,10-3.9,15.5-4.4c4.4-0.4,1.9-7.7-1.6-7.9c-7-0.5-13.5,1.1-19.6,4.5c-3.2,1.8-1.3,6.5,1.3,7.8
			c7,3.3,17.5,1.4,23-4.3c5.7-5.8,2.1-14.9-5.4-16.9c-6.5-1.7-12.3,3-15.5,8.4c-1.9,3.2-2.4,7.4,0.2,10.4c1.5,1.8,4.1,2.7,6.2,1.4
			C4578.3,1048.4,4579.2,1044,4576.6,1044.6L4576.6,1044.6z"/>
	</g>
</g>
<g>
	<g>
		<path d="M4579,1085c-0.6,0-5.5-1-5.4-1.1c0.3,0.4,0.5,0.8,0.8,1.2c0.2-0.5,0.5-0.9,1-1.2c0.5-0.4,1.2-0.7,1.9-0.9
			c0.7-0.2,2-0.3,2.5-0.6c0.9,0,0.7-0.3-0.9-1.1c0,0,0,0.1,0,0.1c-0.1,0.1-0.3,2-0.4,2.3c-0.3,0.7-0.9,1.5-1.5,2
			c-1.1,1.1-2.6,1.8-4,2.3c-0.6,0.2-1.5,0.2-2.1,0.6c-2,0.1-1.3,1.4,2.2,3.9c0.1-0.1,0.1-0.2,0.2-0.4c1.4-0.8,2.6-1.9,4.2-2.5
			c1.4-0.5,2.9-0.9,4.3-1.2c4.3-0.7,2.6-7.3-1.2-7.5c-4.7-0.3-10.3,1-13.5,4.8c-2.8,3.2-2.3,8.3,1.7,10.4c3.5,1.9,8.5,0,11.6-1.9
			c3.8-2.2,6.5-6.2,6.5-10.7c0.1-4.7-2.9-9.3-7.9-9.6c-3.6-0.2-8.1,1.6-10.3,4.5c-2.5,3.3-1.7,8.1,1.2,10.9c2.6,2.5,6.1,2.4,9.3,1.4
			C4581.6,1089.9,4581.7,1085.2,4579,1085L4579,1085z"/>
	</g>
</g>
<g>
	<g>
		<path d="M4645,1035.5c0-0.6,2.7-2.3,3.5-2.6c0.8-0.4,1.7-0.8,2.5-1.1c0.3-0.1,2.9-0.6,3-0.8c-1-1.1-2.1-2.3-3.1-3.4
			c-0.1,0.4-0.3,0.8-0.5,1.2c-0.3,0.6-0.6,1.1-0.9,1.6c-0.8,1.2-1.7,2.3-2.9,3.1c-1,0.8-2.1,1.5-3.3,1.9c-0.4,0.1-0.8,0.3-1.1,0.4
			c0.6,0.5,1.1,1.1,1.7,1.6c0.1,0.5,0.3,0.6,0.5,0.1c0.3-0.4,0.6-0.6,1-0.9c2.6-1.9,5.9-2.6,9.1-2.3c-0.7-2.5-1.4-5-2.1-7.5
			c-3.3,2.4-6.9,3.3-11,3.3c-3.9-0.1-3.3,6.1,0,6.8c5.2,1.2,10.3,0.1,14.8-2.8c3-2,1.2-7-2.1-7.5c-6.2-1-17.4,1.3-17.8,9.4
			c-0.1,3.4,2.2,7.1,5.6,7.9c3.2,0.8,7-1.2,9.4-3c4.5-3.3,10.5-11.8,4.8-16.7c-3.4-2.9-8.5-0.5-11.8,1.4c-4.1,2.3-6,6-5,10.6
			C4640.2,1040.2,4645.1,1039.5,4645,1035.5L4645,1035.5z"/>
	</g>
</g>
<g>
	<g>
		<path d="M4644.8,1081.7c1.4-2.6,2.8-4.7,5.2-6.4c1.7-1.2,4.5-3.2,6.6-3.5c1-0.6,1.3-0.4,0.9,0.4c-0.1,0.7-0.3,1.3-0.8,1.9
			c-0.6,1-1.5,1.9-2.4,2.5c-0.8,0.6-1.9,1.3-3,1.2c-0.5,0-1-0.1-1.4-0.4c1.3-1.1,1.1-2.6-0.5-4.4c1.8,1,3.5,2,5.3,3
			c-0.3-0.9-0.6-1.7-1.1-2.5c-0.9-1.6-3-2.9-4.5-1c-0.2,1.2-0.4,2.4-0.6,3.6c0.1,3,4,5.8,6.5,3.3c6.4-6.6-6.2-16.1-11.3-7.5
			c-4.8,8.1,5.1,16.4,12.9,13.3c7.8-3.2,12.4-15.8,3.5-20.6c-4.1-2.2-8.3-0.3-11.7,2.2c-4.7,3.3-7.8,7.2-7.9,13.1
			c0,1.5,1.1,2.9,2.6,3c0,0,0.1,0,0.1,0C4643.9,1082.8,4644.5,1082.2,4644.8,1081.7L4644.8,1081.7z"/>
	</g>
</g>
<g>
	<g>
		<path d="M4771.2,994.5c-0.6,12.4-0.6,24.9-0.6,37.4c0,6.5,0,13.1,0,19.6c0,5.8-1,12.1,1.5,17.4c0.9,2,4.4,3.9,5.7,1.1
			c2.6-5.5,0.5-13.2,0.1-19.1c-0.4-6.4-0.9-12.8-1.2-19.2c-0.7-12.7-1.3-25.5-2.2-38.2C4774.3,990.7,4771.3,992.5,4771.2,994.5
			L4771.2,994.5z"/>
	</g>
</g>
<g>
	<g>
		<path d="M4768,995.4c1.3,3,6.4,5.4,8.9,7.3c5,3.8,9.9,7.6,14.8,11.6c4,3.2,8,6.6,11.8,10c4.6,4.1,8.9,9.6,14.6,12
			c2,0.9,4.7-0.9,4.1-3.3c-1.5-6.2-9.5-11-14.1-14.7c-4.6-3.7-9.3-7.3-14.1-10.9c-4-3-8-5.9-12.1-8.6c-3.4-2.2-7.5-6.1-11.7-6
			c-0.7,0-1.3,0.6-1.6,1.2C4768.9,993.5,4767.9,995.1,4768,995.4L4768,995.4z"/>
	</g>
</g>
<g>
	<g>
		<path d="M4770.2,1070c0.2-1.1,5.6-3.2,6.8-3.9c2.5-1.4,4.9-2.9,7.4-4.3c5.3-3.1,10.6-6.2,15.9-9.5c9.4-5.8,20-10.9,28.7-17.8
			c3.8-3-1.2-9.3-5.2-7.1c-5,2.6-9.6,6.4-14.3,9.6c-5.4,3.7-10.8,7.4-16.2,11.2c-5.6,3.9-11.1,7.9-16.5,11.9
			c-3.4,2.5-9.6,5.2-9.8,10C4766.8,1072.9,4769.8,1072.4,4770.2,1070L4770.2,1070z"/>
	</g>
</g>
<path d="M1754.2,717l-106.1-166.9c-0.3-0.5-0.2-1.4,0.4-1.5c37.8-10.6,60.7-35.8,60.7-62c0-28.6-26.3-36.2-41.2-37.6
	c-11.5-1-20.4,3.3-23,6l0.9,29.5c3.2-1.9,6-2.4,8.2-2.1c3.6,0.5,5.9,3.2,6.4,6.1c0.3,1.6,0,3.2-0.8,4.5c-2.9,4.7-10.5,8-26.1,13.3
	c-0.8,0.3-2.3,1.2-3.5,1.8c-0.5,0.2-1-0.2-0.9-0.7v0c0.5-2.1,0.8-4.3,0.8-6.4V451h-52v49.1c0,1.8,0.2,3.7,0.6,5.5l0.4,1.7
	c0.1,0.6-0.5,1.1-1.1,0.8c-1.3-0.7-2.9-1.6-3.8-2c-15.2-5.2-22.6-8.4-25.5-13.1c-0.8-1.3-1.1-3-0.8-4.5c0.5-2.9,2.8-5.6,6.4-6.1
	c2.3-0.3,5,0.2,8.2,2.1l0.9-29.5c-2.6-2.6-11.5-7-23-6c-14.9,1.4-41.2,10-41.2,37.6c0,32.4,25.5,53.4,60.7,62c0.6,0.1,0.7,1,0.4,1.5
	L1453,717h63.9l54.2-91.6c1.4-2.1,2.6-4.4,3.5-6.8l2.4-6.2c0.2-0.5,1-0.4,1,0.2v9.6V719h52v-98v-8.4c0-0.6,0.8-0.7,1-0.2l1.6,4.1
	c1.1,2.9,2.5,5.7,4.3,8.3l52.5,92.1H1754.2z"/>
<path d="M1984.6,719l-54.4-172.8l-2.7-12.4c-0.1-0.6-1-0.6-1.2,0l-2.6,12.4L1870.1,719h-70l94.5-264.1l64.5-0.1l94.7,264.2H1984.6z"
	/>
<circle cx="1911" cy="658" r="15.8"/>
<polygon points="2346,717 2291,717 2291,520.6 2231.1,579.5 2173,521.4 2173,717 2118,717 2118,455 2171.9,455 2231.4,518.3 
	2291.2,454.8 2346,455 "/>
<path d="M1641.9,968.1c-0.3-0.5-0.2-1.4,0.4-1.5c35.2-8.6,60.7-29.6,60.7-62c0-27.6-26.3-36.2-41.2-37.6c-11.5-1-20.4,3.4-23,6
	l0.9,29.5c3.2-1.9,6-2.4,8.2-2.1c3.6,0.5,5.9,3.2,6.4,6.1c0.3,1.6,0,3.2-0.8,4.5c-2.9,4.6-10.3,7.9-25.5,13.1
	c-0.9,0.3-2.5,1.3-3.8,2c-0.5,0.3-1.2-0.2-1.1-0.8l0.3-1.7c0.4-1.8,0.6-3.6,0.6-5.5V869h-26h-26v49.1c0,1.8,0.2,3.7,0.6,5.5l0.4,1.7
	c0.1,0.6-0.5,1.1-1.1,0.8c-1.3-0.7-2.9-1.6-3.8-2c-15.2-5.2-22.6-8.4-25.5-13.1c-0.8-1.3-1.1-3-0.8-4.5c0.5-2.9,2.8-5.6,6.4-6.1
	c2.3-0.3,5,0.2,8.2,2.1l0.9-29.5c-2.6-2.6-11.5-7-23-6c-14.9,1.4-41.2,10-41.2,37.6c0,32.4,25.5,53.4,60.7,62c0.6,0.1,0.7,1,0.4,1.5
	L1447,1135h63.9l54.2-91.6c1.4-2.1,2.6-4.4,3.5-6.8l2.4-6.2c0.2-0.5,1-0.4,1,0.2v9.6v96.8h26h26v-96.8v-9.6c0-0.6,0.8-0.7,1-0.2
	l2.4,6.2c0.9,2.4,2.1,4.6,3.5,6.8l54.2,91.6h63.9L1641.9,968.1z"/>
<path d="M3329.6,562.4l22,71.6l28.3-47.6c3.2-7.6,8-12.7,15.7-11.1c7.7,1.7,11.3,9.3,11.3,15.6l-0.1,23l-67.3,83.4l5.4,74.5
	l43.4-64.9l9.4-12.6c3-4,9.2-1.9,9.2,3.1V797h55l-2.2-248.3c0-26-15-44.4-41.2-48.6C3363.9,491.2,3347.4,533.1,3329.6,562.4z"/>
<text transform="matrix(1 0 0 1 3090.0049 1031.8623)" font-family="'FuturaStd-ExtraBold'" font-size="144">F</text>
<text transform="matrix(1 0 0 1 3366.0322 998.8594)" font-family="'FuturaStd-ExtraBold'" font-size="144">f</text>
</svg>
