<?xml version="1.0" encoding="utf-8"?>
<!-- Generator: Adobe Illustrator 18.1.1, SVG Export Plug-In . SVG Version: 6.00 Build 0)  -->
<!DOCTYPE svg PUBLIC "-//W3C//DTD SVG 1.1//EN" "http://www.w3.org/Graphics/SVG/1.1/DTD/svg11.dtd">
<svg version="1.1" id="Layer_1" xmlns="http://www.w3.org/2000/svg" xmlns:xlink="http://www.w3.org/1999/xlink" x="0px" y="0px"
	 viewBox="0 0 1140 1200" enable-background="new 0 0 1140 1200" xml:space="preserve">
<g>
	<g>
		<path d="M-1254.8,416.8c0.7-16.7,6.3-32.8,12-48.4c5.4-15,11.5-29.9,18.1-44.5c12.9-28.9,28-56.8,44.9-83.5
			c-2.8-0.9-5.7-1.9-8.5-2.8c-0.1,29.7-0.2,59.4,0.5,89c0.4,14.3,1.1,28.6,2.5,42.9c1.4,13.8,2.7,28.7,7.1,41.9
			c1.2,3.6,8.7,6,8.1,0.4c-1.6-14-4.9-27.8-6.3-41.9c-1.4-13.9-2.1-27.9-2.5-41.9c-0.8-29.9-0.4-59.8-0.7-89.7
			c0-4.1-6.2-6.5-8.5-2.8c-17,27.4-31.9,56.2-44.5,85.8c-6.2,14.7-11.9,29.6-17,44.7c-5.5,16.3-10.6,32.7-10.7,50
			C-1260.2,420-1255,421.3-1254.8,416.8L-1254.8,416.8z"/>
	</g>
</g>
<g>
	<g>
		<path d="M-1252.8,383c2.1-3.1,2.7-2.3,3.9-4.7c0.3-0.5,0.4-1.1,0.7-1.6c0.5-1,1-2,1.6-3c1.2-2.2,2.7-4.2,4.3-6
			c4.3-5,9.5-9.2,15-12.9c16.9-11.4,36.1-19.1,55.3-25.6c5.8-2,0.7-10.5-4.3-8.7c-20.7,7.4-42.4,16-59.7,30.1
			c-5.3,4.3-10.2,9-13.9,14.7c-3,4.6-6.5,11.6-3.9,17.1C-1253.8,382.5-1253,383.3-1252.8,383L-1252.8,383z"/>
	</g>
</g>
<g>
	<g>
		<path d="M-1031,279.9c-18.5-13.1-47.1-9.6-65.3,2.2c-9.5,6.1-17.3,14.9-22.6,24.9c-5.3,10-9.8,23.3-4.3,34
			c11.1,21.4,39.5,24.3,60.8,25.1c25.4,0.9,50.9-6.2,66.7-27.4c8.5-11.4,6.2-24.7-4.1-34.3c-5.3-4.9-11.8-8.1-18.1-11.4
			c-7.6-4-15.1-8.7-23.2-11.6c-4.9-1.8-6.7,4.2-3,7c10,7.7,22.8,11.4,33.4,18.2c9,5.8,15,15,8,24.9c-12.2,17.4-32.9,25.5-53.5,25.8
			c-17.8,0.2-41.3-0.2-54.9-13.5c-8.3-8.2-5.6-18.8-1.3-28.4c4-8.9,10.1-16.7,17.7-22.8c8.6-6.9,19-11.2,29.9-12.5
			c5.2-0.6,10.5-0.6,15.6,0.1c5.6,0.7,10.8,2.7,16.3,3.8C-1031.1,284.1-1029.4,281-1031,279.9L-1031,279.9z"/>
	</g>
</g>
<g>
	<g>
		<path d="M-939.9,271.7c12.4,10.5,26.7,19.1,41.6,25.7c6.4,2.8,12.3,3.9,18-0.9c5.9-4.8,10.8-11.3,15.8-17.1
			c10.2-11.7,20.3-23.4,32.4-33.1c11.9-9.5,25.2-17,39.3-22.8c-2.6-2-5.1-4-7.7-6c-4.6,26.2-6.1,52.5-6,79.1
			c0,12.9,0.3,25.8,0.4,38.7c0.1,6.8,0.1,13.5,0,20.3c0,3.2-0.1,6.4-0.2,9.6c0,1,0.3,8.1-0.4,8.6c2.1,0.7,4.3,1.5,6.4,2.2
			c-0.3-0.5-0.6-1-0.9-1.5c-1.6-2.7-5.3-3.4-6.3,0.1c0,0.8,0,1.6,0,2.4c0.1,3.1,3.9,5.8,6.8,4.5c5.2-2.5,3.8-10.4,4-15.2
			c0.2-6.8,0.3-13.5,0.3-20.3c0-13.9-0.3-27.7-0.4-41.6c-0.2-27.9,0.1-56.2,6.4-83.5c1-4.1-4.1-7.4-7.7-6
			c-26.2,10.1-48.2,27.2-66.5,48.4c-4.7,5.5-9.3,11-14.1,16.4c-2.3,2.7-4.7,5.3-7.2,7.8c-3.1,3.1-4.8,3.5-9,1.7
			c-14.6-6.2-28-14.7-40.9-24C-940.8,261.7-943.9,268.3-939.9,271.7L-939.9,271.7z"/>
	</g>
</g>
<g>
	<g>
		<path d="M-900.2,233.7c2.8,3.9,7.9,5.8,12.1,7.8c4.5,2.2,9,4.2,13.7,6.1c8.4,3.4,17.3,6.8,26.2,8.7c5.8,1.2,4.4-6.8,0.1-8.2
			c-9.1-3.1-18.4-5.4-27.3-9c-4.4-1.8-8.7-3.7-12.9-5.7c-3-1.4-7.4-5-10.7-3.6C-900.5,230.4-901.1,232.5-900.2,233.7L-900.2,233.7z"
			/>
	</g>
</g>
<g>
	<g>
		<path d="M-610.4,221.8c0.6,0,1.1-0.1,1.7-0.1c-0.7-0.5-1.5-0.9-2.2-1.4c1,2.4,0.5,5.8,0.5,8.4c0,2.6,0,5.3,0,7.9
			c0,6.3-0.1,12.6-0.1,18.9c0,12.8,0,25.7-0.1,38.5c-0.1,12.1,0.1,24.2-0.4,36.2c-0.2,5.9-0.7,11.7-1.8,17.5
			c-1,5.5-3.1,10.7-4.4,16.1c3,0.7,6.1,1.4,9.1,2c-0.3-1.1-0.7-2.2-1-3.3c-0.8-2.9-7.2-6.5-7.9-1.6c-0.2,1.3-0.3,2.6-0.5,3.9
			c-0.4,3.8,6.3,8.1,8.7,4.2c6.9-11.2,7.6-26.1,7.9-38.9c0.4-14.1,0-28.3-0.1-42.5c-0.1-14.6-0.1-29.1-0.6-43.7
			c-0.2-6.8,0.5-14.5-0.8-21.2c-0.9-4.6-3.5-8.2-8.5-7C-613.1,216.4-612.7,221.4-610.4,221.8L-610.4,221.8z"/>
	</g>
</g>
<g>
	<g>
		<path d="M-643.2,260.8c2.2,3.9,5.8,6.6,9.1,9.5c3.2,2.9,6.5,5.9,9.7,8.8c6.1,5.5,12.3,10.9,18.4,16.4c-0.1-2.2-0.2-4.3-0.4-6.5
			c-18.7,9.9-37.3,20-55.9,30.1c-4.5,2.4-0.1,10.3,4,8c19-10.3,38.1-20.5,57-31c2.4-1.3,1.2-5.1-0.4-6.5
			c-6.8-5.8-13.5-11.6-20.2-17.4c-3.2-2.7-6.4-5.4-9.6-8.1c-2.8-2.4-6.1-6.2-9.8-6.8C-642.9,257.2-643.8,259.7-643.2,260.8
			L-643.2,260.8z"/>
	</g>
</g>
<g>
	<g>
		<path d="M-446.5,390.6c35-10.2,58.2-44.9,71.5-76.7c6.9-16.4,11.8-33.7,15.2-51.1c3.5-18.3,8.1-39.6-5.9-54.7
			c-13.8-14.9-36.4-18.3-55.8-17.6c-20.7,0.7-41.7,6.5-57.6,20.2c-14.3,12.4-23.3,29.6-29.3,47.3c-5.1,14.9-8.6,32-3.8,47.4
			c6.1,19.6,25.3,30,44.7,32.2c21.1,2.4,44.4-4.2,58.2-21c2.4-2.9-2.3-9.3-5.5-6.6c-13.8,11.8-30.3,19.1-48.7,18.3
			c-14.9-0.6-31.5-7.1-37.4-21.9c-5.2-13.1-2.1-28.7,2-41.6c5.1-15.8,12.4-31.3,24.1-43.3c13.2-13.4,31.6-19.6,50-21.1
			c16.7-1.3,38.4-0.1,50.8,12.6c12.4,12.7,6.4,34.1,3.3,49.5c-3,15.3-7.3,30.5-13.1,45c-6.5,16.3-14.9,32.1-26,45.6
			c-10.9,13.3-24.3,22.8-39.5,30.7C-452.1,385.4-449.7,391.5-446.5,390.6L-446.5,390.6z"/>
	</g>
</g>
<g>
	<g>
		<path d="M-1209.8,507.1c-1.6,8.2-1.7,16.9-2.4,25.3c-0.7,7.9-1.5,15.9-2.1,23.8c-1.4,15.5-2.8,30.9-4.4,46.4
			c-1.7,15.8-3.5,31.6-5.4,47.3c-2,15.9-5.3,32.1-5.3,48.2c0,2.7,4.6,5.7,5.6,2c4.5-15.5,5.1-32.5,6.9-48.4
			c1.8-16.2,3.4-32.5,5-48.7c1.5-15.6,2.8-31.2,4-46.9c0.6-8.1,1.1-16.1,1.6-24.2c0.5-7.9,1.4-15.9,1-23.8
			C-1205.7,505.3-1209.1,503.6-1209.8,507.1L-1209.8,507.1z"/>
	</g>
</g>
<g>
	<g>
		<path d="M-1270.3,570.3c41.5,0.7,83.1,1.5,124.7,0.7c4.1-0.1,2.4-7.6-1.1-7.7c-41.3-1.3-82.8,0-124.1,0.7
			C-1274.1,564-1273.6,570.2-1270.3,570.3L-1270.3,570.3z"/>
	</g>
</g>
<g>
	<g>
		<path d="M-1277.5,637.8c23.1,0.3,46.3,0.6,69.4,0.7c11.5,0,22.9,0.1,34.4,0.2c11.9,0.1,23.9,0.6,35.7-0.4c3.9-0.3,3.2-6.8-0.4-7.1
			c-23-1.5-46.3-0.4-69.4-0.3c-23.3,0.1-46.7,0.4-70,0.7C-1281,631.7-1280.6,637.8-1277.5,637.8L-1277.5,637.8z"/>
	</g>
</g>
<g>
	<g>
		<path d="M-930.3,488.8c-3.6,2.4-3.2,5.8-3.5,9.9c-0.4,4.3-0.6,8.6-0.9,12.9c-0.5,8.2-1.2,16.4-2,24.6c-1.6,16.7-3.5,33.4-5.9,50
			c-2.3,16.3-5.1,32.5-8.3,48.7c-1.5,7.8-3.1,15.5-4.8,23.2c-1.4,6.2-5.2,14.6-2.9,20.8c0.9,2.5,5.4,5.5,7.6,2.6
			c4.8-6.3,5.3-16.4,6.9-24.2c1.6-7.8,3.1-15.7,4.5-23.6c2.8-15.9,5.1-31.8,7.1-47.7c2-15.5,3.4-31.1,4.4-46.7c0.5-8,1-16,1.4-24
			c0.4-8.1,2.2-18.3-1.4-25.7C-928.5,488.9-929.5,488.3-930.3,488.8L-930.3,488.8z"/>
	</g>
</g>
<g>
	<g>
		<path d="M-940.9,598.3c-15-0.5-32.1-1.3-46-7.5c-11.6-5.2-16.7-16.1-15.6-28.5c2.2-24.6,28.1-41.1,49.3-48.3
			c12.1-4.1,24.8-6.2,37.6-6.4c12.5-0.2,26.5,0.5,37.5,7.1c10.4,6.1,16.3,17,13.6,29c-2.9,12.9-13.5,22.2-23.8,29.4
			c-11.8,8.2-24.6,15.6-38.5,19.8c-15.8,4.8-31.1,4.1-46.7-1.1c-5.6-1.9-6.1,6.1-1.9,8.2c29,14.9,64,1.1,89-15.3
			c12.5-8.1,25.3-17.9,30.8-32.3c5.3-13.6,2.4-28.2-8-38.6c-11.2-11.2-26.9-15-42.2-15.9c-15.6-0.9-31.3,0.5-46.3,4.8
			c-26.1,7.5-57.5,26.3-60.3,56.2c-1.4,14.7,5.2,29.1,18.1,36.6c15.3,8.9,36,10,53.2,7.4C-938.9,602.7-938.3,598.4-940.9,598.3
			L-940.9,598.3z"/>
	</g>
</g>
<g>
	<g>
		<path d="M-639,519.5c-0.2,0.1-0.4,0.2-0.6,0.4c-1.5-1.7-2.9-3.4-4.4-5c-2.1,7.4-2.5,15.4-3.8,22.9c-1.2,6.8-2.5,13.5-4.1,20.1
			c-3.4,14.7-7.8,29-12.6,43.3c-4.6,13.7-9.8,27.2-15.1,40.5c-2.9,7.2-5.9,14.4-8.9,21.5c-2.6,6.1-7.9,14.2-7.5,21
			c0.2,2.9,4.9,7,7.5,4c4.9-5.7,7.2-14.3,10-21.3c2.9-7.2,5.9-14.4,8.7-21.6c5.3-13.4,10.3-27,14.7-40.7c4.5-13.9,8.3-28,11.3-42.3
			c3-14.5,6.4-30.5,5.4-45.4c-0.1-2.1-3.4-5.6-5.2-2.8c-2.1,3.6-1.1,9,3.6,9.7C-638.1,524.1-637.1,520.1-639,519.5L-639,519.5z"/>
	</g>
</g>
<g>
	<g>
		<path d="M-735,586.2c0.6,2.3,1.4,2.8,2.6,1.7c0.5-0.4,1.1-0.8,1.6-1.1c1.4-0.9,2.7-1.9,4.1-2.8c3-2.1,5.9-4.2,8.8-6.2
			c5.3-3.7,10.7-7.3,16-11c10.8-7.4,21.6-14.7,32.6-21.8c21.9-14.2,44.5-27.2,67.1-40.3c5-2.9-1.7-10.3-6.3-7.8
			c-28.8,15.9-56.7,33.9-83.8,52.5c-13.4,9.2-26.7,18.7-39.4,28.8c-3.4,2.7-9.5,6.4-7.3,11.7c1.8,4.3,6.2,2.2,6.4-1.6
			C-732.6,587.5-733.9,584.8-735,586.2L-735,586.2z"/>
	</g>
</g>
<g>
	<g>
		<path d="M-652,502.8c4,18,15.2,34,24.4,49.7c10.8,18.4,21.1,37.1,33.2,54.7c2.7,3.9,8.6,1.2,6.4-3.3c-9-18.3-20.7-35.5-31.4-52.9
			c-10.1-16.4-21.6-32.5-29.7-49.9C-650,499.3-652.3,501.4-652,502.8L-652,502.8z"/>
	</g>
</g>
<g>
	<g>
		<path d="M-479,473.7c-0.6,16.7-0.3,33.5-0.7,50.2c-0.5,17-1.3,34.1-2.7,51.1c-1.4,17-3.3,34-5.7,51c-1.2,8.7-2.6,17.5-4.1,26.2
			c-1.5,8.6-3.7,17.3-4.7,26c-0.6,5.4,8.4,9.5,9.9,3.4c4.2-16.5,5.9-34,8.1-50.8c2.2-16.9,3.8-33.8,5-50.8
			c2.4-35.1,3.8-71.1,0.1-106.1C-474.2,470.3-478.8,469.9-479,473.7L-479,473.7z"/>
	</g>
</g>
<g>
	<g>
		<path d="M-350.1,461.1c-2.3,3.4-4.9,5.9-6.6,9.6c-1.6,3.6-2.5,7.6-3.3,11.5c-1.5,7.3-2.2,14.8-2.8,22.2c-1.5,17.5-3,35-5.3,52.4
			c-2.2,17.6-4.9,35-8,52.5c-1.6,9-3.2,17.9-5,26.9c-0.9,4.5-1.8,9-2.8,13.4c-0.8,3.9-2.3,8-2.2,12c0,3.9,6.7,8.9,8.8,3.6
			c3.1-7.7,4-16.9,5.5-25c1.5-7.9,2.9-15.9,4.2-23.8c2.6-15.8,4.8-31.6,6.6-47.5c1.9-16.2,3.4-32.5,4.6-48.8
			c0.5-7.1,0.8-14.3,1.3-21.4c0.4-6.6,1.1-13.1,2.6-19.6c1.1-5.1,2.1-11.7,4.5-16.4C-347.3,461.2-348.9,459.4-350.1,461.1
			L-350.1,461.1z"/>
	</g>
</g>
<g>
	<g>
		<path d="M-488.5,584.8c26.7-6.6,53.1-14.2,79.2-23.1c12.8-4.3,25.4-8.9,38-13.7c6.6-2.5,13.1-5.1,19.6-7.8c4.9-2,11.8-3.7,15.3-8
			c1.9-2.3,0-6.4-3-6.1c-6.6,0.6-13.1,4.3-19.2,6.8c-6,2.5-12.1,4.9-18.2,7.3c-11.8,4.7-23.8,9.2-35.7,13.4
			c-25.5,9.1-51.2,17.5-77.2,24.9C-492.3,579.4-491.3,585.5-488.5,584.8L-488.5,584.8z"/>
	</g>
</g>
<g>
	<g>
		<path d="M-480.3,614.2c23.7-5.6,46.9-14.1,70.1-21.4c11-3.4,21.9-6.8,32.9-10.3c11.3-3.5,23.2-6.4,34.1-11c4.7-2,0.7-9.2-3.7-8
			c-11.4,3-22.6,7.2-33.7,11c-11.3,3.8-22.6,7.6-34,11.4c-10.8,3.6-21.5,7.2-32.2,10.8c-11.4,3.8-23.2,7.2-34.2,12
			C-483.4,609.7-483.4,614.9-480.3,614.2L-480.3,614.2z"/>
	</g>
</g>
<g>
	<g>
		<path d="M-1229.3,906.4c-2.1-0.8-0.3-9.1-0.1-11c0.4-4.5,1.1-9,1.8-13.5c1.5-8.5,3.5-16.9,6.8-24.9c6.8-16.3,18-28.3,33.9-36.1
			c15.4-7.6,34.2-13.6,51.5-14.2c17.9-0.6,32.1,8.3,39.9,24.3c4.4,9,6.2,19,6.6,29c0.5,11.8-1.5,23.5-0.4,35.3
			c0.3,3.1,5,5.3,6.2,1.5c12.1-37.7-0.1-96.1-47.5-99.2c-20.5-1.3-42.6,5.9-60.8,14.8c-18.8,9.1-32.2,24.4-38.4,44.4
			c-3.2,10.2-4.7,20.9-5.4,31.6c-0.4,6.2-3.7,22.9,5.7,24.1C-1226.8,912.8-1227.1,907.2-1229.3,906.4L-1229.3,906.4z"/>
	</g>
</g>
<g>
	<g>
		<path d="M-1098.4,832.7c3.1-0.5,5.3-3.2,7.6-5.3c2.7-2.5,5.5-5.1,8.3-7.5c5.2-4.4,10.5-8.6,16.2-12.4
			c10.8-7.3,22.4-13.4,34.6-18.2c4-1.6-0.1-8.9-4.2-7.2c-12.8,5.1-24.8,11.6-36,19.7c-5.4,4-10.6,8.2-15.4,12.9
			c-4.6,4.5-10.8,9.6-12.4,16C-1100.1,831.7-1099.6,832.9-1098.4,832.7L-1098.4,832.7z"/>
	</g>
</g>
<g>
	<g>
		<path d="M-1244.1,779c10.7,4.5,20.9,10.1,30.4,16.7c10,7,18.4,15.4,27,24c3.3,3.3,6.3-2.1,4-5.1c-15-18.9-37.7-32.9-60-41.4
			C-1245.9,772.2-1246.8,777.9-1244.1,779L-1244.1,779z"/>
	</g>
</g>
<g>
	<g>
		<path d="M-871.5,741.1c0.9,31.7,0.1,63.6-2.7,95.2c-1.4,15.8-3.2,31.6-5.5,47.3c-1,7.2-2.2,14.3-3.4,21.5
			c-1.3,7.4-2.6,12.2,3.4,17.7c3.3,3.1,7.3-0.9,5.5-4.6c-1.2-2.4-0.1-5.7,0.3-8.2c0.6-3.9,1.2-7.8,1.8-11.7
			c1.1-7.4,2.1-14.7,2.9-22.1c1.7-14.8,3-29.7,3.9-44.6c1.9-29.7,1.9-59.5,0.3-89.2C-865.2,738.4-871.6,735.9-871.5,741.1
			L-871.5,741.1z"/>
	</g>
</g>
<g>
	<g>
		<path d="M-875,813.7c-13.3-15.4-27.4-30-41.3-44.8c-14.2-15.1-29.7-29.7-42.4-46c-2.6-3.3-8.3-3.2-8.1,1.9
			c2.6,51.6-2.1,102.4-11.3,153.2c-0.7,4,6.3,7.8,8.8,4.1c15.4-23,43.6-31.9,68.1-41.6c30-11.9,58.8-26.7,86-44.2
			c4.9-3.1-2-10.7-6.5-7.7c-27.7,17.9-57,32.8-87.7,44.9c-25.1,9.8-51.5,19.8-67.9,42.4c2.8,1.7,5.7,3.5,8.5,5.2
			c11.3-50.8,13.9-104.1,11.1-156c-2.4,1-4.8,1.9-7.2,2.9c15.6,13.8,29.7,29.5,44.3,44.4c14.4,14.8,28.6,29.8,43.7,43.9
			C-876,817.3-874.2,814.7-875,813.7L-875,813.7z"/>
	</g>
</g>
<g>
	<g>
		<path d="M-823.9,795.8c-1.9-1.1-3.6-2.1-5.8-2.6c-0.1,1.3-0.1,2.6-0.2,3.9c14.9-8.6,29.4-17.9,44.5-26.2
			c15-8.3,30.5-15.7,46.3-22.4c-1.9-0.9-3.8-1.9-5.6-2.8c3.5,12.4,0.6,25.2-2.4,37.4c-3,12-6.4,23.9-10.1,35.7
			c-7.5,23.6-16.5,46.8-26.9,69.3c2.3-0.5,4.7-1,7-1.5c-22-11.7-44.2-23-66.3-34.4c-10.7-5.5-21.3-11-32-16.5
			c-5.6-2.9-11.3-5.8-16.9-8.7c-5.1-2.6-10.6-4.9-14.5-9.2c-3.9-4.3-12.6-0.3-9.2,5.5c3.2,5.4,8,7.9,13.4,10.6
			c5.5,2.8,11.1,5.6,16.6,8.4c11.4,5.7,22.8,11.4,34.2,17.2c23.4,11.8,46.7,23.8,70.4,35.2c2.1,1,5.8,1.2,7-1.5
			c10.4-24.4,19.5-49.4,26.9-74.9c3.5-12.1,6.8-24.4,9.4-36.7c2.7-12.5,4-25,0.2-37.4c-0.7-2.4-3.3-3.9-5.6-2.8
			c-30.7,13.8-62.4,30.3-87.8,52.5c-1.1,0.9-1.1,3.5,0.7,3.7c2.2,0.1,4.2-0.5,6.3-0.9C-824.2,796.5-823.5,796.1-823.9,795.8
			L-823.9,795.8z"/>
	</g>
</g>
<g>
	<g>
		<path d="M-568.9,762.8c-0.4,14.3,1.3,28.8,2.1,43.1c0.9,15.7,1.9,31.5,2.6,47.2c0.8,15.4,1.4,30.9,2,46.3
			c0.3,7.7,0.6,15.4,0.8,23.1c0.3,8.6-0.2,17.4,2.3,25.7c1.1,3.6,6,4.5,7,0.5c1.8-7.2,0.6-14.7,0.1-22c-0.5-8.2-0.9-16.4-1.4-24.5
			c-1-15.7-2.1-31.3-3.2-47c-1-14.4-2.1-28.7-3.3-43c-1.4-16.5-2.1-33.4-5-49.8C-565.3,759.4-568.8,759.7-568.9,762.8L-568.9,762.8z
			"/>
	</g>
</g>
<g>
	<g>
		<path d="M-564.6,761.9c-21-1.9-41.9,6.9-55.3,23.3c-6.4,7.8-11.8,18.4-10.4,28.8c1.5,11.1,10.6,17.7,20.3,21.3
			c22.3,8.4,49.2,10.2,72,2.8c9.8-3.2,19-9,23.8-18.4c4.3-8.6,4.5-19.2-1.1-27.2c-7.6-10.9-22.3-14.5-34.3-17.8
			c-15.5-4.2-29.8-9.6-44-17.3c-4.1-2.3-5.2,4.7-2.2,6.7c7.9,5.5,16.5,9.8,25.6,13.1c9.6,3.5,19.6,5.6,29.3,8.7
			c7.9,2.5,18.4,6,20.6,15.1c2,8.2-2.5,16.7-8.7,21.9c-14,11.6-36.9,12.2-54,10.4c-9.6-1.1-19.4-3.2-28.3-7
			c-3.8-1.6-7.7-3.9-9.8-7.6c-2.6-4.6-1.5-10.4,0.2-15.1c7.9-22.2,32.6-36.7,55.4-36.5C-562.9,767-562,762.1-564.6,761.9
			L-564.6,761.9z"/>
	</g>
</g>
<g>
	<g>
		<path d="M-542.5,939.2c-2.3,0.6-4.7,0.8-6.9,1.4c-2.5,0.7-5.1,2.1-7.5,3c-5.9,2.2-12.1,3.9-18.3,4.8c-9.6,1.4-20.1,1.3-29.3-2.1
			c-8.6-3.2-15.8-10-16.2-19.7c-0.3-9.2,6.7-14.7,14.7-17.5c10-3.5,20.7-5.5,31.1-7.5c10.9-2.1,22-3.7,33.2-3.8
			c9.8-0.1,20.7,0.2,29.5,5.3c3.6,2.1,6.9,5.1,8.3,9.1c2,5.5-1,9.5-4.8,13.2c-8.1,8-17.8,14.4-28.1,19.2c-9.5,4.4-26,11.7-32.8-0.4
			c-1.9-3.4-9.3-3.1-8,1.8c3.7,14.5,19.5,16.4,31.9,13c12.9-3.6,25.2-10.1,35.8-18.2c9.5-7.2,21-16.4,16.5-29.8
			c-3.8-11.5-15.3-18-26.5-20.7c-13.7-3.4-28.7-2.4-42.6-0.6c-14.6,1.9-29.3,4.9-43.5,8.9c-10.6,3-21.5,8.3-24.5,19.8
			c-2.6,10.1,2,21.3,9.5,28.2c10.1,9.2,24.4,12.2,37.7,11.7c7.1-0.2,14.5-1.3,21.3-3.6c4.4-1.5,8.6-3.4,12.5-5.9
			c3.3-2,5-4.9,7.5-7.7C-541.5,940.3-541.3,938.9-542.5,939.2L-542.5,939.2z"/>
	</g>
</g>
<g>
	<g>
		<path d="M-356.2,769.9c0.5-3.5,0.4-6.8-1.2-10c-1.3-2.4-4.6-2.5-5.1,0.5c-2.5,13.8-1.9,28.5-2.5,42.4c-0.5,13.9-1.1,27.8-1.6,41.7
			c-0.4,13.1-0.9,26.3-1.3,39.4c-0.2,7.1-0.5,14.2-0.7,21.4c-0.2,6.8-1.9,15,1.1,21.2c1.8,3.8,7.7,3.9,9.2,0
			c2.3-6,1.2-13.8,1.2-20.1c0.1-6.8,0.1-13.6,0.2-20.5c0.1-14.1,0.3-28.1,0.4-42.2c0.1-13.7,0.1-27.4,0.2-41
			c0.1-13.5,1.1-27.6-0.6-41.1c-1.1,1-2.3,2.1-3.4,3.1c2.3,1,3.4,0.3,3.5,5.1C-356.9,770.3-356.2,770.2-356.2,769.9L-356.2,769.9z"
			/>
	</g>
</g>
<g>
	<g>
		<path d="M-449,780.9c3.3,9.1,7.8,17.7,12.7,26c4.4,7.4,9.6,17.5,16.7,22.5c2.6,1.9,8.8,1.1,7.2-3.4c-2.3-6.7-9-12.5-13-18.3
			c-6.5-9.3-11.4-19-16.7-28.9C-444.4,774.5-451,775.4-449,780.9L-449,780.9z"/>
	</g>
</g>
<g>
	<g>
		<path d="M-418.6,830.1c0.3,0.2,0.5,0.3,0.8,0.5c0.4,0.3,1,0.3,1.5,0c13-7.7,20.4-23,27.9-35.6c3.3-5.6,6.9-11,11.5-15.6
			c5.9-6,13.1-9.2,19.9-13.9c4.1-2.8-0.3-9.8-4.7-8.3c-15.1,5.2-26.3,18.6-33.7,32.2c-3.7,6.9-7.1,14-11.2,20.7
			c-2.2,3.5-4.6,6.9-7.1,10.2c-2.1,2.9-5,5.7-5.1,9.4C-418.8,829.9-418.7,830-418.6,830.1L-418.6,830.1z"/>
	</g>
</g>
<g>
	<g>
		<path d="M-357.6,763.9c7.6,8.4,16.8,15.5,24.5,23.9c4.4,4.9,9,9.9,12.7,15.3c2.8,4.1,5.4,10.5,11.2,10.8c4.9,0.3,6.5-4.2,7.9-8
			c1.9-4.9,3.9-9.7,6.1-14.4c2.2-4.6,4.6-9,7.2-13.4c2.5-4.1,5.9-8.1,7.2-12.7c0.8-3-3.6-7.6-6.6-5.6c-7.1,4.8-11.7,13-15.7,20.5
			c-2,3.7-3.8,7.5-5.5,11.4c-1.1,2.5-2.1,5.1-3.1,7.7c-0.4,1.1-1.1,4.9-1.8,5.5c1.9-0.3,3.7-0.5,5.6-0.8c2,0.5,0.1-0.5-0.9-1.5
			c-1-1.1-2.1-2-3.2-3c-2.1-2-4.1-4.1-6.2-6.1c-4.3-4.3-8.6-8.7-13.1-13c-7.3-7.1-15.5-15.7-24.6-20.4
			C-357.6,759.1-358.7,762.7-357.6,763.9L-357.6,763.9z"/>
	</g>
</g>
<g>
	<g>
		<path d="M-1247,1154.9c6.3-16.2,10.8-33.2,16.5-49.6c5.4-15.8,11-31.5,17-47c12.3-31.4,26.1-62.1,41.3-92.1
			c-2.9-0.3-5.9-0.7-8.8-1c16.2,30.1,30.8,61.1,43.7,92.7c6.3,15.5,12.3,31.1,17.8,46.8c2.9,8.2,5.6,16.4,8.3,24.6
			c2.5,7.7,4.5,15.5,8.4,22.5c1.8,3.3,6.4,2.9,6.4-1.2c0-8.1-3.5-16.2-5.9-23.9c-2.7-8.3-5.4-16.5-8.3-24.7
			c-5.7-16.1-11.7-32-18.2-47.8c-13-31.7-27.6-62.7-43.6-92.9c-1.5-2.8-7.1-4.4-8.8-1c-15.5,30.2-29.3,61.2-41.4,92.9
			c-5.9,15.6-11.6,31.3-16.5,47.2c-5.3,16.9-10.7,34.1-13.7,51.5C-1253.2,1155.2-1248.5,1158.9-1247,1154.9L-1247,1154.9z"/>
	</g>
</g>
<g>
	<g>
		<path d="M-1250.9,1154.8c2.9-0.4,4.4-2.3,6.4-4.3c2.8-2.8,5.6-5.5,8.4-8.2c6-5.7,12.2-11.2,18.6-16.4c6.1-5,12.4-9.8,18.9-14.3
			c7-4.8,14.4-8.8,21.4-13.6c3.4-2.3,0.4-9.2-3.5-7.2c-14.2,7.3-27.5,17.9-39.5,28.3c-6.2,5.3-12.1,10.9-17.8,16.8
			c-4.9,5-11.7,10.9-13.8,17.8C-1251.8,1154.1-1251.6,1154.9-1250.9,1154.8L-1250.9,1154.8z"/>
	</g>
</g>
<g>
	<g>
		<path d="M-1181.5,1094.4c9.9-2,20.3,6.2,28.5,10.8c9,5.1,18,10.4,26.8,15.8c8.7,5.4,17.3,11,25.7,16.8c8.8,6,17.2,13.3,26.4,18.6
			c3.8,2.2,6.7-3,4-5.9c-7.3-7.8-17.9-13.7-26.7-19.6c-9.7-6.5-19.6-12.8-29.6-18.8c-9.6-5.8-19.5-11.3-29.4-16.6
			c-7.8-4.1-18.8-12-26.8-4.8C-1183.8,1091.9-1183.5,1094.8-1181.5,1094.4L-1181.5,1094.4z"/>
	</g>
</g>
<g>
	<g>
		<path d="M-783.4,980.1c-0.9,17-0.5,34.1-0.6,51c-0.1,16.3-0.2,32.7-0.3,49c-0.2,33-1.4,66.2-0.2,99.2c0.1,3.9,5.2,5.3,5.4,0.8
			c1.1-34.2,0-68.4-0.2-102.6c-0.1-16-0.2-32.1-0.3-48.1c-0.2-16.8,0.4-33.7-0.6-50.4C-780.5,976.8-783.3,978.6-783.4,980.1
			L-783.4,980.1z"/>
	</g>
</g>
<g>
	<g>
		<path d="M-862.8,1028.9c4.2,0.8,2.8,1.2,6.3,1.5c2.1,0.2,4.2,0.2,6.3,0.3c3.8,0.1,7.6,0.3,11.4,0.3c7.2,0.1,14.4,0.1,21.6,0.2
			c15.2,0.2,30.4,0.3,45.6,0.3c30.4,0.1,61.1,1.1,91.4-0.6c3-0.2,2.8-6.2-0.1-6.4c-30.5-1.9-61.4-0.7-91.9-0.6
			c-14.7,0-29.5,0.2-44.2,0.3c-7.4,0.1-14.9,0.2-22.3,0.2c-3.8,0-7.7,0.2-11.5,0.3c-2.1,0.1-4.2,0.1-6.2,0.3c-2.2,0.2-3.4,1-5.7,1.4
			C-862.8,1026.6-864.1,1028.6-862.8,1028.9L-862.8,1028.9z"/>
	</g>
</g>
<g>
	<g>
		<path d="M-860.9,1073.7c29.2,0.4,58.5,1.1,87.7,1.4c15.2,0.1,30.4,0.3,45.7,0.4c14.3,0.1,28.8,0.6,43.1-0.6c4-0.3,3.1-6.9-0.5-7.1
			c-29.6-1.8-59.6-0.4-89.3-0.1c-28.8,0.3-57.6,0.9-86.4,1.4C-862.9,1069-863.4,1073.7-860.9,1073.7L-860.9,1073.7z"/>
	</g>
</g>
<g>
	<g>
		<path d="M-859.9,1119.5c30.4,2.4,60.9,2.2,91.4,2.4c30,0.3,60,0.5,89.9-0.4c4.1-0.1,2.9-7.2-0.8-7.3c-30.4-0.9-60.9-0.7-91.4-0.4
			c-29.5,0.3-58.9,0.3-88.3,2.4C-860.5,1116.3-861.6,1119.4-859.9,1119.5L-859.9,1119.5z"/>
	</g>
</g>
<g>
	<g>
		<path d="M-1310.6-207.8c-5.1,9.1-7.9,19.7-11.1,29.6c-3.5,10.9-7.1,21.7-10.6,32.6c-7,21.7-14.9,43.2-20.8,65.3
			c-1.3,4.9,7.9,9.2,9.9,4.1c8.3-21.3,14.2-43.7,21-65.5c3.2-10.3,6.4-20.6,9.6-30.8c3.1-9.9,5.2-20.8,9.9-30.1
			C-1300.5-207.1-1307.9-212.6-1310.6-207.8L-1310.6-207.8z"/>
	</g>
</g>
<g>
	<g>
		<path d="M-1431.6-169.1c64.7-2.8,129.6-4.8,194.2-9.5c6.3-0.5,3.6-9.2-1.7-9c-64.9,2.2-129.8,6.8-194.6,10.7
			C-1438.2-176.6-1435.7-168.9-1431.6-169.1L-1431.6-169.1z"/>
	</g>
</g>
<g>
	<g>
		<path d="M-1228.4-145.2c-36.1-7-73.5,21.2-83.1,55.2c-0.6,2.1,0.8,4.4,2.5,5.5c13.5,8.5,27.6-0.4,38.9-8.3
			c14.3-9.9,28.5-19.8,42.8-29.7c-2.5-2.3-5-4.6-7.4-6.9c-11,11-22.3,23-25.4,38.8c-0.7,3.5,3,8,6.8,6.4
			c30.7-12.5,61-26.2,90.5-41.3c-2.3-1.9-4.5-3.7-6.8-5.6c-1,6.8-2.9,13.2-5.9,19.3c-1.6,3.3,2,8.4,5.8,6.7
			c26.8-11.6,53.7-23.3,80.7-34.3c-1.6-2.5-3.2-5-4.8-7.5c-18.5,17.4-33.9,38.6-46.5,60.5c-1.5,2.6,1.3,5.8,3.6,6.6
			c12.4,4.2,25.2,3.4,37.1-2.2c3.6-1.7-0.1-9-3.6-7.6c-10.5,4.1-21.6,4.9-32.3,1.4c1.2,2.2,2.4,4.4,3.6,6.6
			c12.2-21.5,27.2-40.1,43.8-58.3c2.7-3-0.7-9.4-4.8-7.5c-26.8,11.9-54,23-81,34.3c1.9,2.2,3.8,4.5,5.8,6.7
			c3.5-6.9,5.9-14.1,7.2-21.7c0.6-3.4-3.4-7.2-6.8-5.6c-29.5,14.6-59.5,28.2-90,40.6c2.3,2.1,4.6,4.3,6.8,6.4
			c3-15.1,13.9-26.3,24.5-36.8c3.7-3.7-3.7-9.5-7.4-6.9c-11.9,8.3-23.8,16.5-35.8,24.8c-8.2,5.7-23.9,20.3-34.6,13.5
			c0.8,1.8,1.7,3.6,2.5,5.5c4.6-15.5,14.9-29,28.3-37.9c13.9-9.3,29.2-12.9,45.8-12.8C-1222.4-137.2-1224.5-144.4-1228.4-145.2
			L-1228.4-145.2z"/>
	</g>
</g>
<g>
	<g>
		<path d="M-1002.3-196.7c-7.6,6.2-13.4,15.7-18.9,23.8c-5.7,8.4-11.1,17-16.3,25.7c-5.3,8.8-10.4,17.7-15.6,26.6
			c-5.3,9.1-12.4,18.6-16.1,28.5c-1.4,3.9,4.6,9.8,7.7,5.8c6.7-8.7,11.4-19.4,16.8-28.9c4.9-8.7,9.8-17.5,14.8-26.2
			c4.8-8.3,9.7-16.5,14.9-24.5c2.7-4.2,5.5-8.4,8.4-12.5c3.1-4.3,6.8-8.5,9.1-13.3C-996.4-194.2-999.5-199-1002.3-196.7
			L-1002.3-196.7z"/>
	</g>
</g>
<g>
	<g>
		<path d="M-1085-150.5c21.6,2.5,43.4,3.3,65.1,4.3c3.8,0.2,3.4-6.5,0-6.8c-21.7-1.7-43.4-3.5-65.2-3.9
			C-1088.1-156.9-1087.8-150.8-1085-150.5L-1085-150.5z"/>
	</g>
</g>
<g>
	<g>
		<path d="M-1009.4-108.3c10.6-6.9,21.1-14,31.6-21c7.2-4.8,18.9-10.3,15.9-20.7c-0.6-2.1-2.6-3.4-4.7-3.3
			c-13.2,1-26.4,4.9-36.7,13.5c-4.6,3.8-8.5,8.6-11.2,14c-2.1,4-5.3,10.9-4.3,15.5c1.1,4.6,8,6.9,12,7.7c5.8,1.1,11.7,0.2,17.4-0.7
			c15.7-2.6,31.1-6.7,46.1-12.1c3.2-1.2,2.1-7.7-1.3-6.7c-12.6,3.9-25.3,7-38.2,9.6c-9.4,1.9-23.1,6.1-31.3-1
			c0.5,1.5,1.1,3.1,1.6,4.6c3.2-23.8,26.7-34.9,48.3-36.4c-1.6-1.1-3.1-2.2-4.7-3.3c1.1,3.9-7.2,8.2-9.6,9.9c-4.3,3-8.5,6-12.8,9
			c-7.2,5-14.4,10.1-21.5,15.3C-1015.5-112.5-1012.8-106.2-1009.4-108.3L-1009.4-108.3z"/>
	</g>
</g>
<g>
	<g>
		<path d="M-843.5-167.8c-4.4-4.7-12.7-5.5-18.7-5.3c-6.8,0.3-13.7,1.8-20.1,3.9c-11.2,3.7-26.7,10.7-31.9,22.2
			c-5.6,12.2,4.9,19.7,13.4,26.1c2.4,1.9,6.2,5.1,5.4,8.6c-0.7,3.4-6,5.4-8.6,6.6c-7.1,3.3-14.8,4.7-22.6,4.9
			c1.8,1.9,3.6,3.8,5.4,5.7c0.7-3.5,2.9-5.7,5.9-7.3c3.8-2,0.4-8.8-3.5-7.2c-5.3,2.1-9,5.9-11.4,11c-1.5,3.2,2.1,6.7,5.1,6.8
			c7,0.1,14-1,20.7-3.2c5.4-1.8,12.1-4.4,15.9-8.9c9-10.5-3.5-21.3-11.4-27.1c-5.5-4-7.7-8.6-2.8-14.4c4.2-5.1,10.6-8.7,16.5-11.6
			c11.8-5.7,27.8-10.8,40.1-4.1c1.8,1,3.9,0.7,4.8-1.3C-840.3-164.5-842.1-166.3-843.5-167.8L-843.5-167.8z"/>
	</g>
</g>
<g>
	<g>
		<path d="M-855.4-133.6c14.7-2.9,29.5-5.7,44.2-8.5c15.5-3,31.1-6.5,46.8-8.3c3.2-0.4,2.3-6.8-0.7-6.8c-14.7,0-29.1,3.9-42.2,10.3
			c-10.6,5.3-25.2,13-27.1,26c-0.3,1.8,1.2,3.8,2.7,4.7c6.4,3.5,13.2,5.9,20.4,6.8c3.7,0.5,8.2-0.1,11.6,1.2
			c5.6,2.2,0.4,6.2-2.5,7.9c-13.9,8.4-29.7,12-45.8,13.3c1.7,1.4,3.4,2.8,5.1,4.2c-0.2-2-0.7-3.8-1.2-5.7c-0.8-3.1-4.9-3.8-5.6-0.3
			c-0.4,1.9-0.5,3.6-0.5,5.5c0,1.9,2.2,4.3,4.1,4.3c10.4-0.1,20.8-2.2,30.5-5.6c7.8-2.7,19.5-6.7,24.5-13.7
			c4.8-6.7-0.3-14.9-7.1-17.5c-4.5-1.7-9.5-1.2-14.2-1.8c-6.1-0.8-11.7-2.8-17-5.8c0.9,1.6,1.8,3.1,2.7,4.7
			c0.8-5.6,6.2-9.4,10.4-12.5c4.7-3.5,9.8-6.5,15-9c11.5-5.6,24-8.7,36.7-10c-0.5-2.2-0.9-4.5-1.4-6.7c-15,5.1-30.8,8-46.2,11.7
			c-14.3,3.4-28.7,6.8-43.1,10.2C-855.8-135.2-856.6-133.4-855.4-133.6L-855.4-133.6z"/>
	</g>
</g>
<g>
	<g>
		<path d="M-770.3-126.9c10.8-4.7,22.2-7.7,34-8.4c-0.7-1.7-1.3-3.5-2-5.2c-7.4,13.3-14.7,26.3-24,38.4c-2.9,3.8-7.2,8.1-3.1,12.8
			c3.3,3.7,6.9,0.9,6.8-3.3c0-1.2-1-2.7-2-3.2c-0.1-0.1-0.3-0.1-0.4-0.2c-4.3-2.2-5.2,4.2-2.2,6.3c0.2,0.1,0.4,0.3,0.5,0.4
			c-0.6-1.7-1.2-3.4-1.9-5c-0.1,0.2-0.1,0.5-0.2,0.7c1.1-0.7,2.1-1.3,3.2-2c-0.7-0.1-1.4-0.3-2.1-0.4c1.3,1.8,2.5,3.6,3.8,5.4
			c0.2-1.4,2.4-3.5,3.2-4.7c1.3-1.9,2.6-3.8,3.8-5.7c2.5-3.9,4.9-7.8,7.2-11.8c4.3-7.7,8.2-15.7,11.3-23.9c0.5-1.4,0-5-2.3-4.5
			c-11.9,2.4-23.3,5.9-34.1,11.3C-772.3-129.4-772.5-126-770.3-126.9L-770.3-126.9z"/>
	</g>
</g>
<g>
	<g>
		<path d="M-695.2-175.9c0.4-0.2,0.3-0.2-0.1,0c0.1,0,0.2-0.1,0.3-0.1c-0.3,0-0.2,0,0.1,0c-0.2,0-0.3,0-0.5,0c0.8,0.1-0.7-0.3-0.1,0
			c1,0.4-0.4-0.3-0.1-0.1c0.8,0.6-0.5-0.6-0.2-0.3c0.1,0.1,0.3,0.3,0.4,0.4c0.2,0.2,0.1,0.1-0.2-0.3c-0.1-0.2-0.2-0.5-0.2-0.7
			c0-0.4,0-0.5,0-0.2c0.2-0.7,0.2-0.8,0.1-0.4c-0.6,1.9,0.2,4.1,1.8,5.3c1.3,1,3.7,1.5,4.8-0.2c2.2-3.5,0.8-7.7-2.3-10.1
			c-2.7-2.1-6.5-2.6-9,0c-1.4,1.4-0.6,4,0.5,5.3C-698.9-175.8-696.9-174.8-695.2-175.9L-695.2-175.9z"/>
	</g>
</g>
<g>
	<g>
		<path d="M-671.4-141.1c2.8-4.8,3-9.9,1.2-15.1c-0.4-1.1-1.4-1.6-2.5-1.4c-27.5,6.3-51,28.2-63.4,53c-1.6,3.2,1.5,8.1,5.3,6.8
			c27.5-8.7,52.8-23.8,73.9-43.4c-2.3-2.2-4.6-4.5-6.9-6.7c-6.4,8.6-10.6,17.9-12.8,28.4c-0.7,3.2,3.6,6.4,6.6,5.5
			c24.2-7.5,47.6-17,70.3-28.1c-2.6-1.7-5.2-3.3-7.8-5c-1,8.2-2,16.5-3,24.7c-0.5,4,3.8,7.7,7.7,6c12.9-5.6,25.7-11.9,38.7-17.2
			c0.8-1.5,1.2-1.6,1.1-0.5c0,0.7,0.1,1.4,0.1,2.1c0.1,1.2,0.2,2.5,0.5,3.6c0.5,1.7,1.2,3.4,2.3,4.9c2.6,3.7,6.5,5.9,10.8,7.2
			c10.4,3.1,21.6,0.7,32-0.6c15-1.9,29.9-3.9,44.9-6c5.2-0.7,2.9-8.8-1.6-8.3c-15.6,1.6-31.2,3.4-46.8,5.3c-6.1,0.7-12.2,1.9-18.3,2
			c-3.7,0.1-9.4,0-12.3-2.8c-3-2.9-1-8.4-3.3-12c-2.9-4.6-8.3-5.5-13.1-4c-6.4,1.9-12.7,5.4-18.8,8.1c-7.2,3.2-14.4,6.3-21.5,9.6
			c2.6,2,5.1,4,7.7,6c0.8-8.7,1.7-17.3,2.5-25.9c0.4-4-4.5-6.6-7.8-5c-21.9,10.8-44.7,19.8-68,27.2c2.2,1.8,4.4,3.7,6.6,5.5
			c1.7-8.7,5.2-16.9,10.4-24.1c3-4.1-3-10.4-6.9-6.7c-20.3,19.1-44.4,33.2-70.8,42.1c1.9,2,3.8,4,5.7,6
			c5.7-12.4,14.1-23.6,24.4-32.6c9.8-8.6,21-14.3,32.9-19.5c-0.7-0.3-1.4-0.5-2.2-0.8c2,3.3,2.2,7.5,0.8,11.2
			C-673.5-140.3-672-140.2-671.4-141.1L-671.4-141.1z"/>
	</g>
</g>
<g>
	<g>
		<path d="M249.1-124.2c7-8.4,7-20.1,1.6-29.4c-5.5-9.3-15.4-14.8-25.9-16.5c-23.7-3.8-46.9,11.8-64.9,25.2
			c-18.7,13.9-35.4,31.2-47.1,51.5c-5.4,9.3-10.7,20.8-6.3,31.5c3.9,9.6,13.9,14.1,23.8,14.9c27.9,2.3,55.8-13.2,77.8-28.8
			c3.8-2.7-1-9.7-4.9-7.2c-17.3,11.1-35.8,21.6-56.2,25.5c-8.2,1.6-19.1,3.3-26.8-1.2c-9.6-5.5-4.4-18.6-0.4-26
			c9.1-16.9,22-31.7,36.5-44.1c14.7-12.5,32.4-25.6,51.2-30.8c9.9-2.8,21.5-2.6,30,3.7c7.9,5.9,10.7,17.4,6.1,26.1
			C241.9-126.7,246.3-120.9,249.1-124.2L249.1-124.2z"/>
	</g>
</g>
<g>
	<g>
		<path d="M171-95.1c25.1-0.8,50.2-3.4,75.3-5c-1.5-2.8-3-5.6-4.5-8.4c-15.1,11.6-28.8,25.3-40.8,40c-6.2,7.6-12,15.5-17.2,23.7
			c-2.6,4-5,8-7.4,12.2c-2,3.6-5.3,8-5.5,12.1c-0.1,3.6,4.7,8.2,8,4.7c3-3.1,4.7-7.3,6.8-11c2.3-4.1,4.7-8.1,7.2-12
			c4.8-7.7,10.1-15.1,15.8-22.2c11.8-14.8,25.3-27.8,39.9-39.8c3.8-3.1-0.3-8.8-4.5-8.4c-24.8,2.3-49.9,3.1-74.6,6.5
			C165.1-102.1,167.1-95,171-95.1L171-95.1z"/>
	</g>
</g>
<g>
	<g>
		<path d="M313.8-96.5c9.8-5.6,2.1-18.6-6.5-20.3c-7.1-1.4-13.9,2.1-20.1,5.1c-5.3,2.6-10.6,5.4-15.7,8.4
			c-19.6,11.4-39.1,27.4-42.1,51.3c-0.4,2.9,2.3,6.6,5.6,5.9c21.3-4.2,40.9-13.3,58.1-26.6c-2.7-1.6-5.3-3.2-8-4.7
			c-1.3,6.5-2.6,13-3.9,19.5c-0.5,2.4,1.8,5,4,5.6c7,2,13.5,0.2,20-2.5c7.1-3,14.1-6.3,21.1-9.7c14.2-6.9,28.1-14.4,41.6-22.4
			c26.9-15.9,52.5-33.9,76.5-53.8c4.1-3.4-0.6-9.4-5.1-8.3c-27.8,7-54.6,27.6-65.2,54.8c-4.9,12.6-2.5,29,13.1,31.7
			c7.1,1.2,14.2-0.9,21-3.1c8.8-2.8,17.6-6,26.2-9.5c18.8-7.6,36.9-16.9,54.3-27.5c-2-2.2-4.1-4.4-6.1-6.6
			c-5.4,10-10.1,20.4-14.2,31c-1.5,4,3.7,9.2,7.4,5.9c3.4-3,6.6-6.2,9.6-9.5c2.2-2.4-0.7-9-4-6.7c-4.3,2.9-8.4,6.1-12.3,9.5
			c2.5,2,4.9,3.9,7.4,5.9c3.9-10.6,8.5-20.9,13.8-30.8c1.7-3.2-2.6-8.8-6.1-6.6c-16.5,10.1-33.8,18.8-51.6,26.2
			c-9.2,3.8-18.5,7.2-28,10.1c-6.4,2-19.5,7.1-22.9-1.8c-2.6-6.8,1.9-15.6,5.2-21.3c4-7,8.9-13.4,14.6-19.1
			c11.5-11.6,26.2-19.8,42-23.8c-1.7-2.8-3.4-5.5-5.1-8.3c-22.6,18.8-46.6,35.9-71.7,51.1C354.1-90,341.3-83,328.4-76.4
			c-6.3,3.2-12.8,6.3-19.2,9.3c-6.8,3.1-15.2,8.5-23,6.3c1.3,1.9,2.7,3.7,4,5.6c1.3-6.5,2.5-12.9,3.8-19.4c0.8-4.3-4.8-7.2-8-4.7
			c-15.7,12.3-34.2,20.7-53.8,24.6c1.9,2,3.7,3.9,5.6,5.9c2-16.8,13.2-29.4,26.5-39.1c7.3-5.3,15.1-9.8,23-13.9
			c3.9-2,7.7-4.2,11.8-5.8c3.3-1.3,7.7-2.4,10.9-0.3c2.2,1.4,2.8,5.3,1.4,7.3C310.3-99,311.4-95.2,313.8-96.5L313.8-96.5z"/>
	</g>
</g>
<g>
	<g>
		<path d="M524.2-154.5c-0.5,0.4-1.1,0.8-1.5,1.2c-0.7,0.6-1.1,1.5-1.7,2.2c-0.5,0.7-0.6,1.9-0.5,2.6c0.2,0.8,0.5,1.6,1.1,2.3
			c1,1.2,2.8,1.9,4.1,0.8c0.5-0.4,1-0.8,1.5-1.2c0.8-0.6,1.3-1.5,1.8-2.3c0.5-0.7,0.6-1.9,0.4-2.7c-0.2-0.9-0.5-1.6-1.1-2.3
			C527.4-155,525.6-155.6,524.2-154.5L524.2-154.5z"/>
	</g>
</g>
<g>
	<g>
		<path d="M598.7-128.7c-14.6-3.3-29,2.9-41,10.8c-11.9,7.8-22,18.3-29.4,30.5c-3.2,5.3-6.9,11.4-4.6,17.8
			c2.1,5.8,7.7,9.7,13.6,10.8c7.2,1.4,14.9-0.7,21.9-2.6c8.3-2.2,16.4-5,24.3-8.4c4.7-2.1,0.3-9.9-4.1-8
			c-11.6,4.9-24.5,9.5-37.2,10.5c-5.1,0.4-11.9-1-10-7.5c1.4-4.8,5.2-9.9,8.1-13.9c12.4-17.4,35.5-36.1,58.2-32.6
			C603.1-120.6,602.5-127.9,598.7-128.7L598.7-128.7z"/>
	</g>
</g>
<g>
	<g>
		<path d="M639.1-103.5c1,0.7,1.9,1.3,2.9,2c-0.4-1.5-2.2-2.5-3.6-1.8c-0.4,0.2-0.7,0.4-1.1,0.5c-1.8,0.9-1.5,4.3-0.3,5.5
			c6.4,6.8,18-4.5,21.9-9.5c2.6-3.3-3.2-9.3-6.5-6.3c-7.1,6.6-12.8,15.5-18.1,23.6C629-81.4,624-73,619.9-64.3
			c-2.5,5.2,4.9,10.2,8.7,5.8c1.4-1.6,2.7-3.2,4-4.8c3.1-3.8-2.6-10.4-6.5-6.9c-1.8,1.7-3.7,3.3-5.5,5c2.7,2.2,5.3,4.4,8,6.7
			c4.5-8.7,9-17.3,14.3-25.5c5-7.8,11.4-14.8,16.1-22.8c-2.4-1.8-4.7-3.7-7.1-5.5c-2.2,4.6-7.5,9-12.7,9.5c1,0.6,1.9,1.2,2.9,1.7
			c-0.3-0.4-0.7-0.8-1-1.3c-0.4,1.9-0.8,3.7-1.2,5.6c0.4-0.1,0.7-0.3,1.1-0.4C643.9-98.2,642-103.6,639.1-103.5L639.1-103.5z"/>
	</g>
</g>
<g>
	<g>
		<path d="M685.2-161.1c-0.7,6.3-0.6,12.8-0.8,19.1c-0.1,4.9,8.5,7.2,8.4,1.4c-0.2-6.1-0.1-12.4-0.7-18.5c-0.2-1.8-1.3-3.8-3.2-4.3
			C687.2-163.8,685.4-163,685.2-161.1L685.2-161.1z"/>
	</g>
</g>
<g>
	<g>
		<path d="M726.4-97.5c1.2-4,2.3-7.9,3.5-11.9c0.6-1.9-0.5-5.8-3.2-5.5c-28.2,3.8-53.4,24.9-64.9,50.4c-1.6,3.5,1.6,7.9,5.5,6.8
			c21.6-6.1,41.3-17.3,57.8-32.4c-2.5-1.7-5-3.3-7.5-5c-1.6,6.5-3.3,13-4.9,19.5c-0.9,3.3,2.5,8,6.4,6.6c21.7-8,43.3-16.3,65-24.5
			c-2.4-1.7-4.8-3.5-7.3-5.2c-0.7,6.5-1.5,12.9-2.3,19.4c-0.5,4.3,4,7.3,7.9,5.9c18.8-6.6,37.6-13.3,56.4-20c4.3-1.5,8.6-3.1,13-4.6
			c1.1-0.4,2.2-0.8,3.3-1.1c1.6,0,1.9-0.3,0.7-1c0.7,1,0.3,3.9,0.4,5c0.6,6.2,3.9,11.1,9.6,13.7c5.8,2.7,12.5,2.7,18.7,1.9
			c8.8-1.2,17.7-3.6,26.4-5.6C931.1-89.5,951-95,970.9-101c5-1.5,0.3-9.3-4.3-8c-18.6,5.1-37.3,9.6-56,13.9
			c-9.1,2.1-18.3,4.4-27.6,6.1c-4,0.7-12.9,2-15.5-2.2c-1.4-2.3-0.7-5.9-1.2-8.4c-0.7-3.9-3-7-6.8-8.4c-3.3-1.3-6.5-0.8-9.8,0.3
			c-6,1.9-11.9,4.2-17.8,6.3c-18.4,6.5-36.9,13-55.3,19.6c2.6,2,5.3,3.9,7.9,5.9c0.6-7,1.3-14,2-21c0.4-3.4-4.2-6.3-7.3-5.2
			c-21.4,8.1-42.9,16.1-64.2,24.5c2.2,1.8,4.4,3.7,6.6,5.5c1.5-6.6,2.9-13.2,4.4-19.7c0.9-3.7-4.5-7.8-7.5-5
			c-15.8,14.6-34.6,25.1-55.3,31.2c2,2,4,3.9,5.9,5.9c10.7-25.1,33-41.5,59-47.9c-1.4-1.5-2.8-3-4.2-4.5c-0.8,4.2-1.5,8.4-2.3,12.6
			C721.3-96.8,725.4-94,726.4-97.5L726.4-97.5z"/>
	</g>
</g>
<g>
	<g>
		<path d="M143.9,73.7c-16.8,6.7-43.2,27.6-33.2,48.5c4.6,9.6,14.8,15.1,24.3,18.8c11.2,4.3,23.1,6.4,34.9,7.5
			c12.3,1.1,24.7,0.8,36.9,2.3c7.7,1,10.6,4.8,12.4,12.1c1.9,7.8,3.5,15.7,7.2,23c4.8,9.6,11.9,18.3,19.7,25.7
			c7.3,7,15.5,12.8,23.4,19.1c6.3,5,12.5,10.8,14,19.1c0.9,5.3,10.9,7.5,10.2,0.9c-1.6-16.9-15.4-25.7-27.7-35.2
			c-15-11.5-29-25.7-34-44.4c-1.7-6.5-2.6-13.5-6.2-19.3c-3.9-6.2-10.4-9.2-17.5-10.3c-23.9-3.6-48.3-0.3-71.5-9
			c-6.1-2.3-13-5.3-17-10.7c-4-5.4-2.7-11.7,0.4-17.2c6.1-10.7,16.2-18.9,27.5-23.7C151.8,79.2,147.9,72.1,143.9,73.7L143.9,73.7z"
			/>
	</g>
</g>
<g>
	<g>
		<path d="M71.8,279.1c0-17.3,14.8-29.1,28.1-37.9c14.9-9.9,31.3-17.7,45.6-28.6c17-13,32.4-27.9,49.2-41c8-6.3,16.5-11.9,25.4-16.8
			c10.2-5.6,21.4-9,31.5-14.6c10.4-5.8,16.5-14.9,18.4-26.6c1-5.9,1.2-11.8,1.8-17.7c0.6-5.8,2-11.4,3.4-17c1.2-4.8-6.4-9.1-9.3-4.6
			c-6,9.1-5.7,20.3-6.6,30.8c-1.1,12-4.8,21.5-16,27.4c-10.2,5.3-21.1,9-31.1,14.8c-8.8,5-17.2,10.9-25.2,17.2
			c-16.5,13.1-31.4,28.1-48.1,41.1c-13.9,10.9-29.8,18.7-44,29.2c-14.8,11-28.5,25.8-25.9,45.7C69.3,282.6,71.8,280.6,71.8,279.1
			L71.8,279.1z"/>
	</g>
</g>
<g>
	<g>
		<path d="M217.2,63.1c-2.4,9.1-3.4,18.7-5.1,28c-1.4,7.9-2.8,15.8-4.4,23.6c-3.3,16.6-7.2,33.2-11.3,49.6
			c-4.2,16.7-9,33.3-14.1,49.8c-2.4,7.6-4.8,15.1-7.4,22.6c-3,8.7-7.2,17.4-7.9,26.7c-0.3,3.5,5.4,7.2,7.7,3.6
			c5.1-8.4,7.7-17.9,10.7-27.3c2.6-7.9,5.1-15.9,7.4-23.9c4.8-16.4,9.1-33,12.9-49.6c3.7-16,6.8-32.1,9.5-48.2
			c1.4-7.9,2.6-15.9,3.7-23.8c1.3-9.7,3-20,3-29.8C222,61.5,218,60,217.2,63.1L217.2,63.1z"/>
	</g>
</g>
<g>
	<g>
		<path d="M373.8,250.3c-0.4,4.3-3.6,5.9-7.5,6.1c0.5,1.7,1,3.4,1.6,5.1c23.5-26.9,44.1-56.4,63.9-86.1
			c19.8-29.8,38.3-60.5,55.5-91.8c-3.1-0.8-6.1-1.6-9.2-2.4c5.9,29,10.7,58.2,13.9,87.6c1.5,14.3,2.7,28.5,3.5,42.9
			c0.8,14.8,0.5,29.8,1.6,44.6c0.4,5.1,9.3,8.3,9.6,1.9c0.8-15-0.3-30.3-1.1-45.3c-0.8-15-2.1-29.9-3.7-44.8
			c-3.2-29.5-7.7-59-14.1-87.9c-0.7-3.4-7.2-6.2-9.2-2.4c-16.5,31.4-34.3,62-53.4,91.9c-19.1,29.9-40.2,58.4-60.4,87.6
			c-1,1.5-0.6,6.1,2.2,5c4.4-1.9,7.3-7.4,7.4-12C374.3,250,373.8,250.1,373.8,250.3L373.8,250.3z"/>
	</g>
</g>
<g>
	<g>
		<path d="M425.7,195c2,4.9,7.1,3,8.7-1c1.1-2.5,1.3-4.8,4.2-5.8c1.6-0.6,4.8-0.2,4.3,2.2c-0.3,1.5-2.4,1.9-3.6,1.2
			c-1.6-1-1.3-4.4-4.1-3.9c-2.3,0.4-2.2,3.6-1.8,5.3c0.5,2.3,2.3,4.3,4.4,5.3c3.2,1.6,7.2,1.2,9.5-1.6c3-3.7,2.1-9.2-0.7-12.7
			c-2.7-3.3-7.1-4.6-11-2.9c-1.9,0.8-3.6,2.2-4.7,3.9c-0.7,1-1.2,2.1-1.5,3.3c-0.2,0.8-0.1,3.5-1.5,3.2c0.5,0.3,1,0.6,1.5,0.9
			c-0.1-0.1-0.2-0.3-0.3-0.4C427.5,189.2,424.9,192.8,425.7,195L425.7,195z"/>
	</g>
</g>
<g>
	<g>
		<path d="M619.4,87c-1.6,32.2-4.5,64.4-9.1,96.3c-2.3,16-4.9,31.9-7.9,47.7c-1.5,7.8-3,15.5-4.7,23.2c-1.7,7.8-4,15.5-4.6,23.5
			c-0.2,2.5,3.7,5.7,5.1,2.4c3.2-7.8,4.1-16.6,5.7-24.9c1.5-7.9,2.9-15.8,4.2-23.7c2.7-15.9,5-31.8,7-47.8c4-32.2,6.6-64.6,7.9-97.1
			C623.1,83.5,619.5,84.3,619.4,87L619.4,87z"/>
	</g>
</g>
<g>
	<g>
		<path d="M605.4,84.6c21.3,22.8,43.2,45,64.9,67.4c1.3,1.4,3.5,2,5,0.5c25.8-27.3,54-52,84.8-73.4c-2.3-1.5-4.5-3-6.8-4.5
			c-0.8,33.1-6.8,65.9-12.7,98.4c-6,32.9-11.9,65.8-17.9,98.7c-1.1,5.9,8.2,9.7,9.4,3c5.9-33,11.7-66,17.5-99
			c5.8-32.9,11.3-65.7,11.7-99.2c0-3.2-3.8-6.6-6.8-4.5c-30.9,21.6-59.6,46.4-84.9,74.4c1.7,0.2,3.3,0.3,5,0.5
			c-22.2-22.1-44.1-44.5-66.7-66.1C606,78.7,603.8,82.9,605.4,84.6L605.4,84.6z"/>
	</g>
</g>
<g>
	<g>
		<path d="M1478.4-42.1c15.4-18.4,29-38.3,44.2-56.8c15.3-18.7,31.6-36.7,48.6-54c-2.3-1-4.6-2-6.9-3c1.2,19.5,2.4,39.1,3.5,58.6
			c0.8,12.9,0.2,30.2,13.4,37.3c1.1,0.6,2.6,1,3.7,0.1c7.6-6,12.6-13.9,17.1-22.3c5.5-10.5,10.5-21.3,15.5-32
			c10.3-21.8,21.8-43.8,29-66.8c0.8-2.5-2.8-8.2-4.9-4.5c-11.4,20.3-19.8,42.5-29.7,63.5c-4.8,10.2-9.6,20.3-14.5,30.4
			c-4.4,9-9.4,18.1-17.4,24.5c1.2,0,2.5,0.1,3.7,0.1c-5.5-3-6.8-9.2-7.5-14.9c-0.9-7.6-1.1-15.3-1.5-22.9c-1-16.9-2-33.9-3-50.8
			c-0.2-3.3-4.5-5.5-6.9-3c-16.9,17.1-32.8,35-47.8,53.8c-15.2,18.9-30.3,38.8-41.5,60.3C1474.5-42.6,1476.5-39.9,1478.4-42.1
			L1478.4-42.1z"/>
	</g>
</g>
<g>
	<g>
		<path d="M1711.3-119.7c-18.9-7.6-41.1-3.3-55.2,11.7c-9.3,10-23.1,37.4-6.4,47.1c15.1,8.8,34.9-6.1,44.3-16.9
			c6.3-7.2,11-15.7,13.8-24.9c1.6-5.5,1.7-10.9,8.1-12.9c5.7-1.8,12-2.6,17.9-3.8c3.8-0.8,7.6-1.6,11.4-2.4c3-0.6,6.4-1.9,9.5-2
			c6.2-0.1,4.5,5.6,4.3,9.8c-0.2,3.3-0.3,6.5-0.5,9.8c-0.9,14.8-1.8,29.7-2.7,44.5c-0.2,3.9,5,6.8,5.9,2c8.9-45,49.7-78.9,94.7-83.6
			c3.2-0.3,2.3-6.9-0.8-6.8c-48.8,1.2-91.2,41.3-99.8,88.5c2,0.7,4,1.3,5.9,2c0.6-12.6,1.2-25.3,1.8-37.9c0.3-5.9,0.6-11.7,0.9-17.6
			c0.2-4.3,1.2-9.4-0.8-13.4c-1.5-2.9-4-4.3-7.2-4.3c-6,0.1-12.4,2.3-18.2,3.5c-5.7,1.2-11.4,2.3-17.1,3.5
			c-4.2,0.9-9.1,1.4-12.4,4.3c-2.7,2.4-3.8,6-4.7,9.4c-1.2,4.8-2.6,9.4-4.8,13.9c-4.4,9-11,16.9-19.1,22.8c-6.7,4.9-15,9.3-23.5,8.2
			c-12.7-1.6-9.5-16-6-24.5c9.5-23.2,36.4-33.6,59.4-24.5C1712.7-113.1,1713.9-118.6,1711.3-119.7L1711.3-119.7z"/>
	</g>
</g>
<g>
	<g>
		<path d="M1900.1-126c-8.9,16.7-18.8,33.3-26.5,50.7c1.9,1,3.7,1.9,5.6,2.9c0.3-1.4,0.7-2.8,1-4.2c0.6-2.4-2.6-7.1-4.3-3.5
			c-0.8,1.6-1.5,3.2-2.3,4.7c-1.3,2.8,3,7.9,5,4.5c9.5-16.6,17-34.8,25.2-52.1C1905-125.6,1901.8-129.3,1900.1-126L1900.1-126z"/>
	</g>
</g>
<g>
	<g>
		<path d="M1922.5-178.9c0.5,4.7,2.4,8.9,5.9,12.2c1.4,1.3,3.7,2,5.1,0.3c1.3-1.6,0.7-4.4-0.7-5.7c-1.7-1.5-3-3.4-3.4-5.7
			c-0.3-2-1.4-4.1-3.6-4.4C1923.8-182.5,1922.3-180.8,1922.5-178.9L1922.5-178.9z"/>
	</g>
</g>
<g>
	<g>
		<path d="M2013.1-118.1c2.6-5.8,1.3-12-3.2-16.6c-5.1-5.1-12.3-5.9-19-4.1c-14.5,4-27.3,17.8-33.3,31.2
			c-6.8,15.1,5.3,26.6,20.3,26.3c18-0.3,36.6-6.5,52.7-14.1c3.3-1.6,1.5-8.4-2-7c-8.7,3.7-66.6,25.3-66.3,4.6
			c0.1-5.5,4.6-11.8,7.9-16c3.1-4,6.8-7.7,10.8-10.8c4.4-3.4,9.8-6.7,15.4-7.5c5.9-0.8,14.9,2.9,12.4,10.5
			C2007.9-119,2011.5-114.7,2013.1-118.1L2013.1-118.1z"/>
	</g>
</g>
<g>
	<g>
		<path d="M1544.2,143.7c-3.7,13.5-4.2,28.3-5.9,42.2c-1.8,14.9-3.5,29.9-5.2,44.8c-3.3,29.2-6.3,58.4-9.2,87.6
			c-0.5,5.2,8.7,8.4,9.2,2.4c2.5-29.5,5.2-59,8.2-88.4c1.4-14,2.8-28.1,4.3-42.1c1.5-14.6,4.2-29.7,4.1-44.5
			C1549.7,143.2,1545.2,140.1,1544.2,143.7L1544.2,143.7z"/>
	</g>
</g>
<g>
	<g>
		<path d="M1780.4,159.3c-26.1-22.8-65.4-27.5-95.6-10c-28.6,16.6-47,51.1-40.5,84.1c3.4,17.4,14.5,31.7,29.8,40.4
			c16,9.1,34.4,11.5,52.5,10.3c32.8-2.3,80.9-15.4,83.6-55.5c1.3-19.4-11.8-35-25.3-47.2c-15.1-13.6-31.5-28.5-51.2-35
			c-2.2-0.7-4.2-0.3-5,2.1c-15.6,45.7-26.7,92.6-29,141c-0.2,4.8,8.2,8.8,8.5,3.2c3-47.7,11.4-95.7,28.5-140.6
			c-1.7,0.7-3.3,1.4-5,2.1c15.7,6.2,28.5,16.7,41.2,27.5c11.2,9.6,24.6,20.7,27.8,35.9c3.4,15.8-6,31.3-18.4,40.4
			c-13.4,9.9-30.6,13.9-46.8,16.3c-30.3,4.5-70.7-1.3-81.6-35.1c-9.3-29,6.1-61.3,29.8-78.4c27.9-20.2,67.4-17.7,93.8,4
			C1780.9,167.4,1783,161.6,1780.4,159.3L1780.4,159.3z"/>
	</g>
</g>
<g>
	<g>
		<path d="M1843.9,138.6c2.7,6.1,9.1,11.3,13.6,16.2c4.9,5.4,9.8,10.7,14.7,16.1c4.5,4.9,8.7,10.6,13.8,14.9
			c4.1,3.5,8.1,3.1,12.8,0.9c12.3-5.9,24.3-12.7,36-19.8c6-3.6,12-7.4,17.8-11.3c5.4-3.6,12.2-7.3,15.8-12.9
			c1.1-1.7-0.4-6.2-2.9-5.4c-6.1,2.1-11.3,6.3-16.7,9.8c-4.9,3.2-9.8,6.3-14.8,9.4c-10,6.1-20.1,11.8-30.5,17.2
			c-2.5,1.3-4.9,2.5-7.4,3.8c-1,0.5-2.2,1.4-3.3,1.6c-3,0.7-3.4-0.5-5.1-2.2c-4.9-5.1-9.8-10.2-14.7-15.3
			c-3.9-4.1-7.8-8.2-11.8-12.2c-4.4-4.6-9-11.3-14.7-14.3C1844.6,133.7,1843.2,137.1,1843.9,138.6L1843.9,138.6z"/>
	</g>
</g>
<g>
	<g>
		<path d="M1898.3,101.1c1.6,38.8-6.5,76.8-16.8,113.9c-5,18-10.4,35.9-15.4,54c-2.5,9-4.9,18-7.1,27.1c-2.1,8.9-5.4,18.8-2.4,27.8
			c1.1,3.2,6.2,5,7,0.6c0.9-5.1,0.9-10.2,1.8-15.3c0.9-4.9,2.1-9.7,3.2-14.5c2.1-8.9,4.4-17.8,6.8-26.7c4.8-17.8,9.9-35.5,14.5-53.3
			c9.6-37.2,17.1-76,12.4-114.5C1901.9,96.8,1898.2,98.1,1898.3,101.1L1898.3,101.1z"/>
	</g>
</g>
<g>
	<g>
		<path d="M2165.2,100.5c-12.4-4.6-14.2,19.3-15.6,26.3c-3,15.1-6.2,30.1-9.3,45.2c-7,33.5-14.2,67-20.7,100.6
			c-1.7,8.6-3.3,17.3-4.8,25.9c-1.3,7.6-3.5,15.7-3.5,23.5c0,3.3,5.9,8.3,7.3,3.3c1.9-7,2.4-14.8,3.5-22c1-6.5,2.1-13.1,3.2-19.6
			c2.5-14.5,5.1-28.9,7.8-43.3c5.5-29.4,11.4-58.8,16.8-88.3c1.5-8,2.9-15.9,4.3-23.9c1-5.9,1.6-25.8,9.8-24.6
			C2165.5,103.8,2166.9,101.1,2165.2,100.5L2165.2,100.5z"/>
	</g>
</g>
<g>
	<g>
		<path d="M2146.8,99.9c-12.4-1.9-24.8,6.4-34.1,13.6c-11,8.5-21.4,19.1-28.2,31.4c-2.1,3.8-4.8,8.9-4.3,13.4
			c0.4,3.7,2.7,7.2,4.7,10.1c6.8,9.5,15.9,17.9,25.2,25c5,3.8,10.2,7.5,15.8,10.3c4.2,2.1,10.4,4.9,15.1,3c4.4-1.7,1.5-9-2.8-7.9
			c-3,0.7-6.5-1.3-9.1-2.7c-4.2-2.3-8.2-4.9-12.1-7.8c-8.4-6.4-16.7-13.5-23.3-21.8c-1.6-2.1-4.2-4.8-4.6-7.5c0,0.2,0-0.1,0.2-0.9
			c0.2-1,0.6-2,1-3c0.9-2.3,2-4.5,3.2-6.6c6-10.4,14.6-19.7,23.8-27.4c8-6.7,18.8-14.7,29.7-14.7
			C2150,106.4,2149.5,100.4,2146.8,99.9L2146.8,99.9z"/>
	</g>
</g>
<g>
	<g>
		<path d="M2118.2,314.1c-1.8,0-3.6-1.6-5.4-2.1c-2.4-0.7-4.7-1.4-7.1-2.3c-6.2-2.3-12.1-5.3-17.8-8.6
			c-11.1-6.5-22.6-14.1-31.3-23.7c-1.4-1.5-2.8-3.2-3.8-5c-0.9-1.6-1.2-2.4-1-3.6c0.7-3.5,4.7-7.8,7.1-10.7
			c9-10.5,19.9-19.7,30.9-28c5.4-4.1,10.8-8.3,16.7-11.8c1.3-0.8,3-1.3,4.1-2.2c2.5-1.8,2.2-6.1-1-7.3c-2.5-1-5.9,1.2-8.2,2.3
			c-3.2,1.5-6.2,3.4-9.2,5.3c-5.9,3.8-11.5,8.2-17,12.6c-10.1,8.3-21,17.3-28.4,28.2c-2.3,3.4-4.7,7.3-4.3,11.5
			c0.4,4.2,2.9,7.9,5.5,11.1c9.5,11.6,23,20.3,36,27.4c6.4,3.5,13,6.9,20,9.2c2.6,0.9,5.9,2.1,8.7,2c2-0.1,3.3-1.4,5.1-2.1
			C2118.6,316,2119.5,314.1,2118.2,314.1L2118.2,314.1z"/>
	</g>
</g>
<g>
	<g>
		<path d="M2295.2,124.8c-9.5,23.1-17.4,46.9-24.2,70.9c-3.4,12-6.5,24-9.3,36.2c-1.4,6.2-2.8,12.5-4,18.7
			c-1.3,6.1-3.3,12.5-3.5,18.8c-0.1,3,4.5,7.1,5.9,2.7c2.1-6.8,2.5-14.3,3.8-21.3c1.1-5.9,2.3-11.7,3.6-17.6
			c2.6-12,5.5-23.9,8.7-35.8c6.4-23.9,14.2-47.4,22.7-70.7C2300,123.9,2296.6,121.6,2295.2,124.8L2295.2,124.8z"/>
	</g>
</g>
<g>
	<g>
		<path d="M2204.2,146.2c4.8,1.7,10.1,0.8,15.1,0.6c5.2-0.2,10.3-0.6,15.5-1c10.7-0.8,21.3-1.8,31.9-3c20.9-2.4,42.3-4.7,62.8-9.7
			c3.6-0.9,1.2-7.8-2.1-7.3c-20.9,2.6-41.6,6.7-62.6,9.3c-10.2,1.3-20.5,2.4-30.7,3.5c-5.3,0.6-10.6,1-15.9,1.6
			c-4.4,0.5-9.8,0.2-13.6,2.5C2203.7,143.2,2202.6,145.6,2204.2,146.2L2204.2,146.2z"/>
	</g>
</g>
<g>
	<g>
		<path d="M2198.7,216c12,1.3,24.9,0,36.9-0.9c12-0.9,24-2.2,35.9-4.4c4.1-0.7,2.7-7.9-1.1-7.4c-11.6,1.6-23.2,3.1-34.9,4.3
			c-6.2,0.6-12.4,1.2-18.7,1.6c-6,0.4-12.2,0.3-18.1,1.3C2196.4,211,2196.2,215.7,2198.7,216L2198.7,216z"/>
	</g>
</g>
<g>
	<g>
		<path d="M2178.7,270.9c7.6,2.1,16.7,1,24.4,0.4c7.6-0.5,15.1-1.5,22.6-2.7c7.4-1.2,14.8-2.6,22.2-4.2c6.8-1.5,13.8-2.9,20.1-5.9
			c3.3-1.6,1.2-8-2.4-7.4c-14.3,2.4-28.3,7.2-42.6,9.6c-6.7,1.2-13.5,2.1-20.3,2.9c-7.3,0.9-16.4,0.6-23.3,3.3
			C2178.2,267.4,2176.8,270.4,2178.7,270.9L2178.7,270.9z"/>
	</g>
</g>
<g>
	<g>
		<path d="M2409.9,119.4c-2.3,3.4-2.4,7.7-3,11.7c-0.9,6.1-1.7,12.2-2.6,18.3c-1.8,12.5-3.6,25.1-5.4,37.6
			c-1.8,12.5-3.7,25-5.6,37.4c-1,6.2-1.9,12.5-2.9,18.7c-1,6.4-2.6,13-2.9,19.5c-0.2,4.8,7.5,8.7,8.9,2.8c2.5-11,3.3-22.7,4.8-34
			c1.7-12.9,3.4-25.8,5-38.7c1.5-11.6,2.9-23.1,4.2-34.7c0.7-6.3,1.4-12.5,2.1-18.8c0.7-6,2-12.5,0.9-18.5
			C2413.2,119.2,2411.1,117.6,2409.9,119.4L2409.9,119.4z"/>
	</g>
</g>
<g>
	<g>
		<path d="M2403,171.5c0.3,5.4,6.6,4.8,9.8,2.1c3.2-2.8,5.9-6.3,8.8-9.4c12.5-13.1,26.5-24.1,40.3-35.8c2.2-1.9-0.2-7.4-3.2-5.7
			c-13.7,7.6-25.3,18.8-35.9,30.1c-3.6,3.8-7.3,7.7-10.6,11.7c-0.8,1-1.5,2.2-2.4,3.1c-1.7,1.6-3,1-5.1,1.7
			C2403.8,169.6,2403,170.6,2403,171.5L2403,171.5z"/>
	</g>
</g>
<g>
	<g>
		<path d="M2327.5,267.3c5.6,7.1,13-2.8,16.5-7.1c4.4-5.4,8.6-10.9,13.5-15.8c4.2-4.2,8.9-8,14.2-10.8c6.8-3.5,14.5-4.5,21.2-7.9
			c1.9-0.9,1.6-5.3-0.8-5.4c-12.4-0.2-25.8,6-34.8,14.4c-4.2,3.9-7.9,8.3-11.4,12.7c-2.2,2.8-4.4,5.7-6.6,8.6
			c-1.8,2.4-5.8,9.4-9.7,7.5C2327.9,262.7,2326.6,266.1,2327.5,267.3L2327.5,267.3z"/>
	</g>
</g>
<g>
	<g>
		<path d="M2820.9-192.7c-13.4,19-26.3,38.3-40.3,56.8c-14.4,19-29.5,37.4-45.3,55.3c-3,3.4,2.2,7.7,5.4,7.6
			c51.2-2,103.3-5,152.9-18.6c24.6-6.8,48.9-16.2,70.7-29.6c7-4.3,16.4-12.9,12.1-22.1c-5.6-12-19.7-5.9-28.3-1.8
			c-24.2,11.5-44.1,31.2-56.2,55c-1.5,3,1.3,6.4,4.2,6.9c24.1,4.4,49.2,2.6,72-6.5c3.7-1.5,1-8.4-2.8-7.1c-22.6,7.3-46.5,9.4-69.9,5
			c1.4,2.3,2.8,4.6,4.2,6.9c9.2-17.8,22.9-33.1,39.6-44.1c3.9-2.6,7.9-4.9,12.1-7c3.1-1.6,10.6-6.2,14.3-5.2c3.7,1-1.8,6.9-3.4,8.4
			c-3.7,3.4-8.6,5.7-13,8.1c-37.6,20.6-79.9,30.4-122.2,35.7c-29.5,3.7-59.2,5.2-88.9,6.8c1.8,2.5,3.6,5.1,5.4,7.6
			c15-17.8,29.5-36.1,43.2-54.9c13.7-18.7,27.3-37.8,38.7-58C2827.4-190.5,2823.5-196.4,2820.9-192.7L2820.9-192.7z"/>
	</g>
</g>
<g>
	<g>
		<path d="M3047.9-134.1c-29.1,36.6-52.2,77.7-69.4,121.2c-1.5,3.8,5.4,8.8,7.5,4.6c12-24.3,27.6-46.8,46.4-66.3
			c9.4-9.7,19.6-18.8,30.4-26.8c5.1-3.8,10.4-7.5,15.9-10.9c2.2-1.4,12.3-7.4,14.4-3.7c0.1-1.4,0.3-2.9,0.4-4.3
			c-13.1,15.1-27.6,28.8-43.5,40.9c2.3,2.4,4.6,4.7,6.8,7.1c5.2-7.3,12.6-11.1,20.7-14.5c10.6-4.4,21.2-8.5,31.9-12.7
			c21.7-8.6,43.4-17.5,65.2-25.9c4.7-1.8,0.7-9.6-3.6-8c-23.3,8.6-40.9,28.8-46.3,53.1c-0.6,2.6,1.7,5.7,4.4,5.9
			c24.6,2.6,40.8-18,56.1-33.7c7.8-8,17.7-17.1,29.4-18.4c6.4-0.7,9.6,3.9,9.5,9.9c-0.2,6.9-4.9,13-8.9,18.3
			c-2.5,3.4,1.9,10.1,5.9,7.4c24.5-16.5,50.4-30.7,77.5-42.5c-2.4-1.4-4.8-2.8-7.2-4.2c1.8,10.7,2.3,21.4,1.5,32.3
			c-0.2,3.4,3,6.2,6.3,5.6c19.7-3.5,38.6-10.3,56.1-20c3.7-2,0.3-9.1-3.5-7.2c-17.8,8.8-36.7,15-56.3,18.5c2.1,1.9,4.2,3.8,6.3,5.6
			c0.8-11.5,0.3-23-1.7-34.4c-0.6-3.3-4.1-5.6-7.2-4.2c-27,11.7-52.8,25.9-77.1,42.4c2,2.5,4,4.9,5.9,7.4
			c7.6-10.3,15.3-23.2,7.4-35.7c-7.7-12-23-8.3-33.3-2.1c-11.5,6.9-20,17.4-29.2,26.9c-10,10.4-23,21.1-38.3,19.5
			c1.5,2,2.9,4,4.4,5.9c4.8-21.9,20.7-40.4,41.6-48.4c-1.2-2.7-2.4-5.3-3.6-8c-22.8,9.2-45.8,18-68.6,27
			c-10.5,4.1-21.2,8.1-31.6,12.5c-8.1,3.4-16.4,7.9-21.6,15.3c-2.7,3.8,2.9,10.1,6.8,7.1c16.5-12.5,31.6-26.6,45.1-42.3
			c0.9-1.1,1.1-3,0.4-4.3c-7.9-13.2-22.9-5.9-32.7,0.6c-12.7,8.4-24.7,18-35.8,28.5c-22.6,21.5-41,47-54.2,75.2
			c2.5,1.5,5,3.1,7.5,4.6c16.1-42.9,38.2-83.2,65.1-120.2C3053.1-131.6,3050.1-136.8,3047.9-134.1L3047.9-134.1z"/>
	</g>
</g>
<g>
	<g>
		<path d="M3475.4-203.6c-24.2,22.1-45.1,47.2-63.1,74.6c-3.3,5.1-7.8,11.6-3.2,17.5c4.2,5.3,12.2,3.7,17.9,2.4
			c14.2-3.4,26.1-12.1,33.2-24.9c2-3.6-3.3-8.7-6-4.8c-6.5,9.2-15.9,16.5-26.6,20.2c-2.5,0.8-5,1.5-7.6,1.8
			c-0.6,0.1-4.3,0.8-4.7,0.4c-0.6-0.6,1.2-3.1,1.5-3.7c3.9-7.3,8.5-14.2,13.1-21c14.1-20.7,30.3-39.8,48.3-57.2
			C3480.4-200.5,3478.1-206.1,3475.4-203.6L3475.4-203.6z"/>
	</g>
</g>
<g>
	<g>
		<path d="M3399.5-159.3c-2.3,2-3.3,4-3.9,7c-0.2,0.9,0.3,2.4,1.2,2.8c30.7,12.7,64.4-0.4,95.9-1.3c-1.2-2.1-2.4-4.2-3.6-6.3
			c-2.4,6-4.9,12-7.6,17.9c-2.3,5.1-5.9,10.3-6.1,15.9c-0.1,1.7,2,5.2,4.1,3.5c4.5-3.7,6.3-10.3,8.5-15.6c2.5-5.8,4.8-11.7,7-17.6
			c0.9-2.4-1.5-5.5-4-5.4c-30.9,1.2-62.1,13.8-92.7,3.8c0.4,0.9,0.8,1.9,1.2,2.8c0.5-1.1,1.1-2.3,1.6-3.4
			C3403-156.9,3402-161.3,3399.5-159.3L3399.5-159.3z"/>
	</g>
</g>
<g>
	<g>
		<path d="M3509.8-186.3c2.1,1.7,3.9,3.7,5.1,6.2c0.9,1.7,2.1,9.1,5.6,6.1c2.7-2.3-0.2-8.5-1.4-10.9c-1.4-2.7-3.5-5.1-5.9-6.9
			C3509.4-194.9,3506.5-188.9,3509.8-186.3L3509.8-186.3z"/>
	</g>
</g>
<g>
	<g>
		<path d="M3559.7-152c0.1-2.2,0.2-4.4,0.2-6.6c-0.1-2.9-2.6-5.8-5.7-5c-11.5,2.9-22.1,9.2-30,18.2c-7.1,8.2-13.7,20.5-5,30.1
			c7.3,7.9,19.7,8,29.6,8.7c15.7,1.1,31.3,0.4,46.9-1.5c5.8-0.7,1.3-9.3-3.7-8.7c-11.2,1.3-22.6,1.7-33.9,1.5
			c-6.1-0.1-12.1-0.4-18.1-1c-4.2-0.4-9.6-0.7-13.2-3.2c-8.4-5.8,3.4-18.9,8.2-23.4c6.4-6.1,14.3-10.3,22.8-12.6
			c-1.9-1.3-3.7-2.6-5.6-4c0.4,2.6,1.1,5.1,1.7,7.6C3554.6-148.7,3559.5-148.2,3559.7-152L3559.7-152z"/>
	</g>
</g>
<g>
	<g>
		<path d="M2754.1,250.6c-2,0.3-4.7-0.9-6.8-1c0.5,1.9,1,3.8,1.5,5.7c23.9-20.1,46.5-41.9,69.2-63.3c22.2-20.9,45.4-41.2,66.2-63.4
			c2.8-3-2.8-9.2-6.1-6.4c-23.3,20.1-45,42.3-67.2,63.6c-21.9,21.1-44.4,41.9-65,64.3c-1.4,1.6-0.7,7.4,2.2,5.6
			c1.1-0.7,6.1-4.3,5.8-4.2C2754.6,251.3,2754.8,250.5,2754.1,250.6L2754.1,250.6z"/>
	</g>
</g>
<g>
	<g>
		<path d="M2800.3,268.2c7.8-5.5,14.9-12.4,22.2-18.6c6.4-5.5,12.8-11,19.2-16.4c13.6-11.5,27.2-23,41-34.2c13.5-11,27-22,40.6-32.8
			c12.8-10.2,26.9-19.7,38.7-31.1c3.7-3.6-1.9-9.5-6-7c-14.6,8.9-27.8,21-41.1,31.7c-13.7,11-27.2,22.2-40.7,33.5
			c-13.1,11.1-26.2,22.2-39.1,33.5c-6.4,5.6-12.8,11.2-19.1,16.9c-6.7,6-14.1,11.9-20,18.8C2793.9,264.9,2797.2,270.3,2800.3,268.2
			L2800.3,268.2z"/>
	</g>
</g>
<g>
	<g>
		<path d="M2775.3,116.9c27.1,21.4,48.8,48.4,75.1,70.8c12.9,11,26.7,21.1,41.1,30c14.3,8.9,29.5,17.9,45.3,23.7
			c6.1,2.2,8.4-5.2,2.9-7.9c-15.6-7.6-31.2-14.9-46-24c-14.3-8.8-28-18.7-40.9-29.5c-13-10.9-24.8-23-36.7-35
			c-11.9-12-24.1-24.8-38.4-34C2774,108.5,2772.5,114.7,2775.3,116.9L2775.3,116.9z"/>
	</g>
</g>
<g>
	<g>
		<path d="M3201.8,121.7c-3.9-35.5-41.9-57.2-74.7-43.3c-16,6.8-26.8,21.2-34.9,36.1c-9.3,16.9-16,35.4-19.9,54.3
			c-3.6,17.9-6.1,38.3-1.8,56.2c3.7,15.3,15.2,29.9,31.8,31.7c17.6,1.9,35.7-11,49.1-21.1c13.7-10.4,25.6-23.1,35.2-37.3
			c11.4-16.7,19.9-36.2,19.6-56.7c-0.2-19.3-9.6-38.4-26.7-47.9c-4.7-2.6-6.5,4.3-3,6.9c25.9,20,21.8,54.8,7.7,80.6
			c-13.8,25.3-35.4,46.4-60.8,59.9c-7.1,3.7-15.4,7.7-23.6,5.8c-6.3-1.5-11.4-6.3-14.7-11.7c-8.3-13.4-6.8-31.8-5.1-46.8
			c1.8-16,5.6-31.9,11.4-46.9c5.4-13.8,12.2-27.9,21.7-39.4c11.4-13.7,28.2-21.5,46.1-18.1c18.6,3.6,33,19.1,36.5,37.6
			C3196.6,125.8,3202.3,126.7,3201.8,121.7L3201.8,121.7z"/>
	</g>
</g>
<g>
	<g>
		<path d="M3139.1,166.2c-2-1.3-7.2-2.4-8.2-4.8c-0.9-2.1,2.2-3.7,3.6-2c1.2,1.5-0.6,4.3-1.6,5.4c-1.7,2-4.2,3.2-6.6,4.1
			c-0.5,0.2-1.1,0.4-1.6,0.6c-1.2,0-1.3,0.5-0.2,1.2c1.1,2.1,0.9-0.4,1.3-1.4c0.7-1.5,1.9-2.8,3.2-3.8c3.1-2.5,6.8-4,10.4-5.7
			c3.8-1.8,0.9-8.1-2.9-7.2c-8.1,1.9-18.4,6.8-19.2,16.3c-0.5,5.4,3.7,10.1,9.3,9c5.1-1,10.9-4.3,13.5-8.9
			c4.4-7.6-0.7-20.8-10.9-17.7c-4.9,1.5-5.9,6.9-4.2,11.2c1.9,5,7.8,8.9,13.1,7.4C3139.4,169.7,3140.4,167.1,3139.1,166.2
			L3139.1,166.2z"/>
	</g>
</g>
<g>
	<g>
		<path d="M3401.5,67.3c0.6-0.2,1.1-0.3,1.7-0.5c1.1-0.6,1.6-1.9,1.4-3.1c-0.3-2.1-1.4-3-3.4-3.3c-1.1-0.2-2.4,0.3-2.9,1.4
			c-2.1,4.8-1.3,11.3-1.5,16.4c-0.3,7.1-0.4,14.2-0.5,21.4c-0.3,14.5-0.6,28.9-0.9,43.4c-0.2,13.8-0.4,27.6-0.6,41.3
			c-0.1,6.6-0.2,13.3-0.3,19.9c-0.1,7.2-2,16.6,1.7,22.9c1.6,2.6,6.1,3.7,7.7,0.5c2.9-5.9,1.5-13.8,1.4-20.2c0-7.3,0-14.5-0.1-21.8
			c0-13.4,0-26.7-0.1-40.1c0-14.4-0.2-28.7-0.3-43.1c0-6.5,0-13-0.2-19.4c-0.1-3.8-0.3-7.6-0.4-11.5c-0.1-2.7,0.4-5.5,0.1-8.1
			c-0.9,1.1-1.9,2.2-2.8,3.3c0.2,0.1,0.4,0.1,0.6,0.2c-0.4-0.9-0.8-1.9-1.2-2.8c-0.1,0.4-0.1,0.8-0.2,1.2c0.6-0.8,1.3-1.7,1.9-2.5
			c-0.1,0-0.3,0-0.4,0C3400.5,62.9,3399.3,66.9,3401.5,67.3L3401.5,67.3z"/>
	</g>
</g>
<g>
	<g>
		<path d="M3348.8,121.4c4.1-0.8,7.1-3.9,10.2-6.6c3-2.6,5.9-5.1,8.9-7.6c6.9-5.8,13.9-11.6,20.9-17.4c6.7-5.5,13.4-10.9,20.3-16.1
			c3.3-2.5,6.7-5.1,10-7.6c3.6-2.7,7.7-5.2,10.3-8.8c2-2.8-1.6-8.4-5.1-6.9c-8.1,3.6-15.2,10.5-22,16.1
			c-6.6,5.4-13.2,10.8-19.7,16.4c-6.4,5.5-12.7,11.2-18.9,17c-5.8,5.5-14,11.3-16.7,19C3346.6,120.2,3347.2,121.8,3348.8,121.4
			L3348.8,121.4z"/>
	</g>
</g>
<g>
	<g>
		<path d="M3352,183.5c6.8-2.5,12.6-9.3,17.8-14.3c6.2-5.9,12.3-12,18.4-18.1c5.5-5.6,11.1-11.1,16.6-16.6c2.9-2.9,5.8-5.8,8.7-8.7
			c2.9-3,6.4-5.8,8.1-9.6c1.3-2.9-2.3-7.9-5.5-5.9c-6.3,3.9-11.2,10.5-16.3,15.9c-6.2,6.6-12.4,13.2-18.6,19.8
			c-5.3,5.6-10.4,11.2-15.5,16.9c-5.4,6-11.1,12-14.7,19.2C3350.5,183.1,3351,183.9,3352,183.5L3352,183.5z"/>
	</g>
</g>
<g>
	<g>
		<path d="M3349,242.5c-2.1-2.3,28-30.3,31.3-33.6c12.1-12,25.6-23.2,36.6-36.2c2.1-2.4-1.3-8-4.3-5.7
			c-15.8,11.9-29.6,27.4-43.2,41.8c-6.6,7-13.2,13.9-19.6,21.1c-3.3,3.7-9.9,12.4-3.3,16.2C3348.4,247.2,3350.3,244,3349,242.5
			L3349,242.5z"/>
	</g>
</g>
<g>
	<g>
		<path d="M3504.4,250.9c-0.2,0-0.3,0-0.5,0c0.4,0.5,0.8,1,1.1,1.5c-0.1-1,7.6-4.8,8.5-5.3c3.5-2.2,6.9-4.4,10.4-6.7
			c6-3.9,11.9-7.9,17.8-11.9c12.5-8.6,24.7-17.6,36.8-26.8c23.9-18.4,46.9-37.9,69-58.5c4.6-4.3-3.9-11.1-8.2-7.1
			c-23,21.5-47,42-71.9,61.3c-12.4,9.6-25,18.8-37.7,27.9c-7.1,5-14.3,9.8-21.4,14.7c-5,3.4-11.5,6.1-9.1,13.2
			c0.6,1.6,2.6,3.1,4.4,2.4c1.2-0.5,1.6-0.8,2.4-1.9C3506.8,252.5,3506.3,249.9,3504.4,250.9L3504.4,250.9z"/>
	</g>
</g>
<g>
	<g>
		<path d="M3640.9,141.8c3.5-4.4,1.2-7.8-2.4-11.4c-2.9-2.9-5.6-5.9-8.4-8.9c-7.8-8.5-15.4-17.1-23-25.7
			c-10.2-11.6-20.1-23.4-30.4-34.9c-2.3-2.5-6.4-3-8.8-0.5c-19.4,20-39.1,39.7-57.8,60.3c-4,4.4-8,8.7-11.9,13.1
			c-2,2.3-0.5,5.6,1.8,7c22.1,13.8,42.7,29.8,63.8,45.1c9.7,7.1,19.6,14,29.9,20.2c12.6,7.7,25.7,13.6,39.5,18.9
			c4,1.6,4.2-5.3,1.1-6.7c-47.4-22.5-86.3-57.9-130.9-84.9c0.6,2.3,1.2,4.7,1.8,7c9.2-10.7,19.7-20.3,29.6-30.4
			c11.6-11.9,23.2-23.7,34.8-35.5c2.5-2.6,5-5.1,7.6-7.7c-2.9-0.2-5.9-0.3-8.8-0.5c9.4,10.8,19.2,21.3,28.9,31.8
			c7.5,8.1,15.1,16.1,22.8,24c3.3,3.4,6.6,6.6,10,9.9c1.1,1.1,2.2,2.1,3.4,3.2c1,0.9,3.8,3.3,3.9,3.3
			C3637.1,140,3639.1,144.1,3640.9,141.8L3640.9,141.8z"/>
	</g>
</g>
<g>
	<g>
		<path d="M2896.4,346.9c-1.2,35.2-0.8,70.6-0.9,105.9c-0.1,17.8-0.2,35.6-0.3,53.4c0,8.7-0.1,17.4-0.1,26.2c0,8-1.2,17,0.7,24.9
			c0.5,1.9,3,3.3,4,0.8c2.6-6.9,1.1-16,1-23.3c0-8.6-0.1-17.2-0.1-25.8c-0.1-17.9-0.2-35.7-0.3-53.6c-0.2-36.3,0.4-72.8-0.9-109.1
			C2899.4,343.8,2896.5,345,2896.4,346.9L2896.4,346.9z"/>
	</g>
</g>
<g>
	<g>
		<path d="M2811.4,430.6c6.3-3.3,11.6-8.3,16.8-13c8.1-7.2,15.6-15.2,23.3-22.9c15.6-15.6,31.5-30.7,47.7-45.6
			c2.1-1.9,0.5-7.3-2.6-5.2c-7.5,5.2-14,11.9-20.4,18.3c-8.4,8.3-16.5,16.9-24.6,25.5c-7.2,7.5-14.3,15.1-21.6,22.5
			c-6,6.1-12,13.3-19.1,18.1C2809.8,429.1,2809.7,431.5,2811.4,430.6L2811.4,430.6z"/>
	</g>
</g>
<g>
	<g>
		<path d="M2822.3,500.9c13.1-11.4,25.7-22.9,39.8-33.1c6.8-4.9,13.8-9.6,21-14.1c3.8-2.3,7.6-4.6,11.5-6.8
			c4.2-2.3,8.9-4.2,12.3-7.6c1.2-1.2,1.2-5.2-1.3-4.6c-8.3,1.9-16.4,8.3-23.5,12.9c-7.4,4.8-14.6,9.9-21.6,15.3
			c-14,10.8-28,22.9-39.4,36.5C2820.5,500.4,2821.2,501.9,2822.3,500.9L2822.3,500.9z"/>
	</g>
</g>
<g>
	<g>
		<path d="M3175.4,321.3c-0.7,9.2-0.3,18.6-0.3,27.9c0,9.1-0.2,18.1-0.5,27.2c-0.5,18.6-1.2,37.1-2.3,55.7
			c-1.1,17.8-2.4,35.6-4.1,53.4c-1.8,18.7-5.2,37.5-5.8,56.3c-0.1,3,3.5,4.1,4.3,0.9c4.5-17.8,5.1-37.1,6.7-55.4
			c1.6-18.3,2.9-36.6,3.8-54.9c0.9-18.6,1.6-37.2,1.8-55.8c0.1-18.4,1.2-37.6-0.9-55.9C3178,318.5,3175.5,319.9,3175.4,321.3
			L3175.4,321.3z"/>
	</g>
</g>
<g>
	<g>
		<path d="M3174.3,315.6c-25.3-2.6-51.6,10.5-72,24.2c-19.5,13.1-37,30.3-46.9,51.9c-9.8,21.4-12,46.8-2.9,68.7
			c9.4,22.8,30.4,38.3,51.4,49.7c12.2,6.7,25,12.1,38.3,16.2c14.1,4.3,29.6,8,44.5,7.6c3.3-0.1,2.2-6.3-0.6-6.7
			c-11.9-1.8-23.7-3.3-35.4-6.4c-11.2-2.9-22.1-6.8-32.6-11.7c-21-9.6-43.8-23.4-55.8-43.8c-11.7-19.8-11.1-44.8-2.8-65.8
			c8.3-21.1,24.6-38.6,42.8-51.8c10.4-7.5,21.6-14.1,33.4-19.1c12.4-5.2,24.9-7.4,38.2-9.2C3175.6,319.3,3176.3,315.8,3174.3,315.6
			L3174.3,315.6z"/>
	</g>
</g>
<g>
	<g>
		<path d="M3320.1,375c-3.3-1.8-6.7-1.1-9.1,1.8c-1.5,1.8,0.4,6.9,2.9,4.7c29.9-26.8,58.7-54.9,92.8-76.5c-1.8-1.7-3.7-3.4-5.5-5
			c-2.9,35.1-5.3,70.2-7.9,105.3c-1.3,17.2-2.6,34.4-3.9,51.6c-0.6,8.6-1.3,17.2-1.9,25.8c-0.7,8.7-1.9,17.7-1.6,26.4
			c0.1,3.1,5.4,7.2,6.3,2.4c1.6-8.5,1.7-17.5,2.4-26.1c0.6-8.6,1.3-17.2,1.9-25.8c1.3-17.5,2.6-35.1,3.9-52.6
			c2.6-34.7,5.4-69.5,7.8-104.2c0.2-2.5-2.5-7-5.5-5c-33.6,22-63.4,49.7-91.1,78.6c1,1.6,1.9,3.1,2.9,4.7c1.5-0.7,3-1.5,4.5-2.2
			C3320.6,379.2,3321.6,375.8,3320.1,375L3320.1,375z"/>
	</g>
</g>
<g>
	<g>
		<path d="M3585.5,296.4c-4.5-1-6.3,3.2-7,6.9c-1.3,7.6-0.6,16-0.9,23.7c-0.6,18-1.1,36-1.5,54c-0.9,36.2-1.8,72.5-2.7,108.7
			c-0.5,20.6-1,41.2-1.5,61.8c-0.1,4.5,6.8,6.4,6.9,1.1c1.2-66.9,2.8-133.9,3.5-200.8c0.1-9.6,0.2-19.3,0.3-28.9
			c0.1-4.7,0.1-9.5,0.2-14.2c0-3.2-0.3-7.2,2.7-9.2C3586.4,298.9,3586.9,296.8,3585.5,296.4L3585.5,296.4z"/>
	</g>
</g>
<g>
	<g>
		<path d="M3481.9,486.7c-1.2-2-3.8-0.6-4.2,1.3c-0.9,3.9,7,9.1,9.4,11.2c9.5,8.1,20.4,14.4,31.4,20.3c11.5,6.3,23.3,12.2,34.2,19.6
			c6,4.1,11.7,8.6,17,13.5c2.7,2.5,5.4,5.2,7.9,7.9c2.1,2.3,4.1,5.1,6.8,6.8c2.1,1.3,3.9-1.3,3.3-3.3c-1.5-5.4-7.1-9.7-11-13.5
			c-3.9-3.8-7.9-7.3-12.2-10.6c-8.4-6.6-17.6-12.1-27-17.2c-9.3-5-18.8-9.7-28-14.9c-5.7-3.2-11.3-6.4-16.6-10.2
			c-2.1-1.5-4.2-2.9-6.2-4.5c-1.9-1.5-5.8-3.8-6.4-6.3c-0.2,0.6-0.3,1.3-0.5,1.9c-0.1,0-0.1,0.1-0.2,0.1
			C3480.6,490.4,3482.6,488,3481.9,486.7L3481.9,486.7z"/>
	</g>
</g>
<g>
	<g>
		<path d="M2910.3,671.8c-2.1,9.2-1,20-1.1,29.5c-0.1,9-0.3,18.1-0.3,27.1c-0.1,18.8-0.2,37.6-0.4,56.4
			c-0.5,35.9-1.6,71.9-4.3,107.7c-0.8,10.2-1.7,20.4-2.7,30.5c-1.1,10.5-3.2,21.2-3.1,31.8c0,2.9,4.7,7.3,6,2.7
			c2.5-8.9,2.9-18.6,3.8-27.8c0.9-9.4,1.7-18.9,2.4-28.3c1.3-18.9,2.3-37.8,2.9-56.7c1.2-37.2,1.2-74.5,1.1-111.8
			c0-10.5-0.2-21-0.3-31.4c-0.1-9.9,0.9-20.5-1-30.3C2912.8,669.1,2910.6,670.5,2910.3,671.8L2910.3,671.8z"/>
	</g>
</g>
<g>
	<g>
		<path d="M2835.9,741.5c1.7,18.6,9.1,35.6,16.9,52.4c8,17.3,15.5,34.8,21.8,52.8c6.1,17.5,11.3,35.2,15.5,53.2
			c2.2,9.3,4.1,18.6,5.7,28c1.7,9.9,2.5,20.1,4.5,29.9c0.7,3.7,5.7,3.5,5.6-0.5c-0.4-9.7-2.5-19.6-4.2-29.1
			c-1.6-8.7-3.3-17.4-5.3-26c-4.4-19-9.9-37.7-16.4-56c-6.2-17.3-13.3-34.3-21.3-50.8c-8.4-17.7-17.3-35.5-20.2-55
			C2838.2,738.8,2835.8,740.4,2835.9,741.5L2835.9,741.5z"/>
	</g>
</g>
<g>
	<g>
		<path d="M2909.7,948.4c4.8-2.1,6.6-8.3,8.7-12.7c3.3-6.7,6.6-13.4,9.8-20.1c6.2-13,12.4-25.9,18.7-38.9
			c6.1-12.7,12.2-25.3,18.2-38c6.3-13.1,13.5-26.1,18-40c0.7-2.3-2.2-8.1-4.5-4.6c-7.7,12-13.2,25.4-19.2,38.3
			c-5.9,12.6-11.8,25.2-17.7,37.8c-5.8,12.3-11.5,24.6-17.3,36.9c-3.1,6.5-6.1,13.1-9.1,19.6c-3,6.4-7.1,13.1-7.3,20.3
			C2908,947.7,2908.7,948.8,2909.7,948.4L2909.7,948.4z"/>
	</g>
</g>
<g>
	<g>
		<path d="M4138.4,864.6c13.2-12.7,24.5-27.6,36.5-41.4c11.6-13.4,23.3-26.7,35.1-39.9c23.5-26.2,47.5-51.8,72.7-76.3
			c14.3-13.9,29.5-26.8,44.1-40.4c5.3-5-3.3-11.9-8.3-7.8c-27.7,22.4-52.9,48.5-77.4,74.2c-24.2,25.4-47.4,51.7-70.1,78.4
			c-13.1,15.4-27.4,30.5-38.9,47.1C4129.7,861.6,4135.2,867.7,4138.4,864.6L4138.4,864.6z"/>
	</g>
</g>
<g>
	<g>
		<path d="M4169.3,651.8c24.3,25.4,40.6,56.5,58.6,86.3c17.7,29.5,38,57.5,61,83.1c6.7,7.5,13.6,14.8,20.8,21.9
			c3.3,3.3,6.7,6.7,10.2,9.8c3.4,3.1,7.4,7.6,12.2,8c1.6,0.1,2.6-1.8,2.4-3.2c-1.1-7.2-9.7-12.5-14.7-17.2
			c-6.1-5.8-12-11.7-17.8-17.7c-11.8-12.3-23-25.3-33.6-38.7c-22.6-28.8-40.1-60.6-59.8-91.4c-10.5-16.4-21.8-32.2-35.6-46
			C4169.6,643.5,4166.6,649,4169.3,651.8L4169.3,651.8z"/>
	</g>
</g>
<g>
	<g>
		<path d="M4125.1,774.6c3.9,1.3,7.2,0.7,11.1,0c4.9-0.8,9.9-1.6,14.8-2.4c8.9-1.4,17.7-2.7,26.6-4c17.3-2.5,34.6-4.9,51.9-6.9
			c34.9-4,70-7.2,105.1-9.3c20.8-1.2,41.8-1.1,62.5-2.8c6.9-0.6,4-10.1-2-10.2c-17.9-0.3-36.1,1.2-54,2.3c-18.4,1.1-36.7,2.4-55,4
			c-36,3.2-71.9,7.5-107.6,12.9c-9.6,1.4-19.2,3-28.7,4.6c-5.4,0.9-10.8,1.9-16.2,2.8c-4.2,0.8-8.4,0.7-10,5.2
			C4123.2,772.2,4123.8,774.2,4125.1,774.6L4125.1,774.6z"/>
	</g>
</g>
<g>
	<g>
		<path d="M4614.6,618.3c-16.7,24.6-32.3,49.9-49,74.5c-16.7,24.6-33.6,49-51.1,72.9c-1.9,2.6-0.7,5.1,1.6,6.9
			c49.3,38.7,101.5,73.7,155.7,105.1c2.5,1.4,6.7,1.1,7.3-2.3c9.6-48.2,46.9-84.1,81.1-116.7c2.6-2.4,0.1-6.8-2.6-7.7
			c-55.4-19.5-107.9-46.7-155.5-81c-13.8-9.9-27.1-20.4-40-31.4c-5.2-4.5-14.1,1.9-8.1,6.9c46,38.8,97.4,71,152.3,95.5
			c15.6,6.9,31.4,13.2,47.5,18.8c-0.9-2.6-1.7-5.1-2.6-7.7c-35.2,33.5-72.7,70.4-82.2,120.1c2.4-0.8,4.9-1.5,7.3-2.3
			c-54.6-31.2-106.8-66.2-156.7-104.5c0.7,2,1.5,4.1,2.2,6.1c33.9-48.4,67.7-97.5,97.2-148.7
			C4620.6,620.4,4616.7,615.2,4614.6,618.3L4614.6,618.3z"/>
	</g>
</g>
<g>
	<g>
		<path d="M4624.1,770.7c-3.7-0.3-18.5-2.8-11.3-9c2.8-2.4,10.6-5.9,14.2-3.7c5.5,3.4-2.2,9.8-5.9,10.2c-0.7,0.1-5.2,0-3.1,0.2
			c0.4,0.8,0.9,0.8,1.5,0c0.4-0.2,0.7-0.3,1.1-0.5c3.8-1.6,7.9-2.4,11.6-4.3c3.7-1.8,0.4-8.2-3.2-7.5c-5.4,1-15.8,2.4-18.9,7.8
			c-2.9,5.1,1.3,10.6,6.1,12.3c11.6,4.1,25.5-6.3,20.3-18.9c-5-11.9-22.3-9.7-30-1.9c-4.1,4.2-3.1,10.6,0.2,15.1
			c4.1,5.6,10.8,6.6,17.3,6.9C4627.9,777.6,4627.5,771,4624.1,770.7L4624.1,770.7z"/>
	</g>
</g>
<g>
	<g>
		<path d="M4867.8,608.2c16.2,14.1,32.9,27.5,49,41.7c15.7,13.8,31.2,27.8,46.5,42.1c29.8,28,58.8,56.9,86.6,86.9
			c8,8.6,15.9,17.3,23.7,26c7.7,8.6,15,17.8,23.1,26.1c4.5,4.6,13.1,0.2,8.4-5.7c-12.8-16.3-27.6-31.3-41.8-46.3
			c-14.5-15.4-29.2-30.6-44.2-45.5c-29.9-29.7-60.8-58.3-92.7-85.7c-18.1-15.5-36.1-31.4-55.4-45.4
			C4866.9,599.4,4864.6,605.4,4867.8,608.2L4867.8,608.2z"/>
	</g>
</g>
<g>
	<g>
		<path d="M4877.8,854.8c34.2-29.7,66.7-61.5,98.6-93.7c31.3-31.5,61.7-63.8,91.3-96.9c8.1-9.1,16.2-18.2,24.2-27.4
			c4.2-4.8,8.3-9.5,12.4-14.3c4.7-5.5,10.3-10.9,13.4-17.4c1.9-3.9-4.6-8.6-7.8-5.9c-8.8,7.2-15.7,17.2-23.1,25.8
			c-7.6,8.8-15.2,17.6-22.9,26.3c-14.4,16.3-28.9,32.4-43.6,48.4c-30,32.5-60.8,64.2-92.1,95.5c-17.9,18-36.3,35.4-54.4,53.3
			C4871.1,851.1,4874.6,857.6,4877.8,854.8L4877.8,854.8z"/>
	</g>
</g>
<g>
	<g>
		<path d="M4911.3,613.8c34.2-3.1,68.2-7.3,102.4-10.3c33.3-2.9,66.6-5,99.9-6.7c20.3-1,40.9-0.6,61-2.9c5.1-0.6,2.6-8.3-1.5-8.5
			c-17.1-1.2-34.6,0.6-51.7,1.6c-17.4,0.9-34.8,1.9-52.1,3.2c-33.9,2.4-67.7,5.4-101.4,9.1c-19.2,2.1-38.5,4-57.6,7.2
			C4906.3,607.1,4907.4,614.1,4911.3,613.8L4911.3,613.8z"/>
	</g>
</g>
<g>
	<g>
		<path d="M4858.7,864.4c7.6,2,16.9-1.1,24.4-2.4c9.3-1.7,18.6-3.2,27.9-4.7c17.4-2.8,34.8-5.5,52.3-7.9
			c35.3-4.8,70.8-8.5,106.3-11.1c10.1-0.7,20.1-1.4,30.2-1.9c10.5-0.6,22.2,0.4,32.3-2.4c4.3-1.2,2.4-7.4-1-8.5
			c-7.9-2.5-18-0.4-26.2,0c-10.2,0.6-20.4,1.3-30.5,2.1c-17.4,1.3-34.8,2.9-52.1,4.7c-36.3,3.9-72.6,8.8-108.6,15.2
			c-9.7,1.7-19.3,3.6-29,5.5c-4.9,1-9.7,2-14.6,3.1c-4.2,1-8.4,1.5-11.6,4.6C4857.8,861.6,4857.3,864,4858.7,864.4L4858.7,864.4z"/>
	</g>
</g>
<g>
	<g>
		<path d="M4128.4,1244c40.8-66.4,83.7-131.5,130.7-193.7c-3.2-0.6-6.4-1.2-9.6-1.8c9.9,28.7,23,56.6,36.8,83.6
			c13.8,27.1,29.2,53.3,45.8,78.8c2.6,4,9.2,3.5,10.9-1c13-35.9,26.1-71.7,39.2-107.5c6.4-17.4,12.9-34.9,19.3-52.3
			c6.9-18.7,14.4-37.3,20-56.4c1.4-4.9-7.6-9-9.9-4.1c-8.6,18.2-15,37.5-22,56.4c-6.4,17.3-12.8,34.7-19.1,52.1
			c-13.3,36.3-26.3,72.6-39.3,109c3.6-0.3,7.2-0.7,10.9-1c-16.7-25-32-50.8-45.8-77.5c-13.8-26.7-25.2-54.2-37.1-81.7
			c-1.6-3.7-7-5.4-9.6-1.8c-44.6,63.2-87.4,127.7-125.7,194.9C4122.4,1242.8,4126.2,1247.6,4128.4,1244L4128.4,1244z"/>
	</g>
</g>
<g>
	<g>
		<path d="M4287.3,1119.3c5.1-3,8.3-10.6,11.4-15.5c3.8-6,7.8-11.8,11.8-17.7c7.7-11.3,17.5-22,23.6-34.2c1.5-3.1-2.4-8.4-5.5-5.5
			c-10.3,9.5-17.8,22.4-25.1,34.2c-3.6,5.8-7,11.7-10.2,17.6c-3.3,6-7.4,12.5-8.3,19.4C4284.8,1119,4285.9,1120.2,4287.3,1119.3
			L4287.3,1119.3z"/>
	</g>
</g>
<g>
	<g>
		<path d="M4588.7,1162.6c36.8-67.4,70.5-136.5,107.4-204c-3.1,0.3-6.3,0.7-9.4,1c11.6,9.4,17.5,23,22.9,36.5
			c6,15,11.4,30.2,16.6,45.4c10.2,29.9,19.7,60.1,32.3,89.2c7.1,16.4,15,32.8,25,47.7c3.8,5.8,15.6,2.1,11.5-4.7
			c-17.1-28.3-30.1-58.2-41.2-89.4c-10.9-30.7-20.5-61.8-32.7-92c-6-14.9-13-30.5-26.4-40.2c-2.6-1.9-7.6-2.5-9.4,1
			c-34.2,68.3-70.5,135.6-101.5,205.4C4582.3,1161.9,4586.5,1166.6,4588.7,1162.6L4588.7,1162.6z"/>
	</g>
</g>
<g>
	<g>
		<path d="M4672.5,1188.4c9.4-6.7,17.6-15.9,25.9-23.9c9.1-8.7,18-17.6,26.9-26.5c8.3-8.3,16.6-16.7,24.8-25.2
			c3.7-3.8,7.5-7.7,11.2-11.5c4.1-4.2,10.9-8.9,11.9-14.8c0.6-3.4-3.5-6.1-6.4-4.7c-4.8,2.4-8.3,7.4-11.9,11.2
			c-4.2,4.5-8.4,9-12.7,13.4c-7.9,8.4-15.9,16.8-23.8,25.2c-7.8,8.4-15.7,16.7-23.5,25.1c-8.2,8.9-17.6,17.7-24.7,27.5
			C4669.3,1185.8,4670.2,1190,4672.5,1188.4L4672.5,1188.4z"/>
	</g>
</g>
<g>
	<g>
		<path d="M5073.9,937.7c-15.1,38.6-27.8,78.1-41.2,117.3c-6.6,19.4-13.3,38.8-19.9,58.2c-3.3,9.6-6.6,19.2-9.8,28.7
			c-3.4,10.1-7.8,20.3-9.8,30.7c-0.9,4.8,7.4,9.3,9.7,4.3c4.7-9.8,7.5-20.7,10.9-31c3.1-9.4,6.1-18.7,9.2-28.1
			c6.6-20.1,13.2-40.1,19.7-60.1c12.7-38.7,26.4-77.3,37.2-116.5C5080.9,937.5,5075.7,933.1,5073.9,937.7L5073.9,937.7z"/>
	</g>
</g>
<g>
	<g>
		<path d="M5050.8,1006c7.5-2,14.6,3.3,20.6,7c6.7,4.2,13.3,8.4,20,12.6c12,7.6,24.1,15.2,36.1,22.9c24.3,15.5,48.5,31.3,72.9,46.6
			c4.3,2.7,6.9-4.4,3.1-6.8c-26.3-17.4-53.4-33.7-80.4-50.2c-12.6-7.7-25.3-15.4-38-23c-6.1-3.6-12.1-7.6-18.3-10.9
			c-5.2-2.8-10.5-4.5-16.2-2.2C5048.9,1002.7,5048.3,1006.7,5050.8,1006L5050.8,1006z"/>
	</g>
</g>
<g>
	<g>
		<path d="M5012,1103.4c23.8,14.8,48.3,28.2,73.3,40.6c26.3,13,53.5,26.2,81.6,35c4.8,1.5,5.1-5.9,1.5-7.6
			c-14.2-6.6-29.2-11.6-43.6-17.7c-12.9-5.5-25.8-11.2-38.5-17.3c-24.6-11.8-48.6-24.7-72.2-38.4
			C5011,1096.1,5009.5,1101.8,5012,1103.4L5012,1103.4z"/>
	</g>
</g>
<g>
	<g>
		<path d="M4232,1419.9c-4.6-5.6-14.8-15.6-13.1-23.6c1.5-6.9,9.8-11,15.6-13.7c3.4-1.6,10.7-4.3,8.6,2.4c-1.1,3.5-4.9,5.7-8,7.2
			c-8.6,4.2-18.4,5.7-27.9,5.2c1.7,2.3,3.4,4.5,5.1,6.8c3.1-8.7,10.7-14.7,20-15.5c4-0.4,2.5-7.5-1-7.7
			c-12.3-0.5-23.5,6.9-27.7,18.6c-1.2,3.3,1.8,6.6,5.1,6.8c12.6,0.6,29.5-1.7,39-11c7.9-7.8,4.7-23.4-7.8-23.6
			c-6.1-0.1-12.5,3.9-17.3,7.3c-3.9,2.8-7.5,6.3-9.3,10.8c-4.8,12.2,7.2,26.6,16.2,33.5C4231.3,1424.8,4233.2,1421.3,4232,1419.9
			L4232,1419.9z"/>
	</g>
</g>
<g>
	<g>
		<path d="M4226.3,1510.9c-2.6,1.2-5.2,0.4-6.8-2c-2.1-3.1-0.8-6.5,1-9.5c2.6-4.3,6.6-8.1,10.4-11.3c5.9-5,18.8-11.4,24.8-2.8
			c6.5,9.2-8.4,17.4-14.9,20.1c-9,3.7-20.1,7.4-29.3,2.5c0.4,2.6,0.9,5.2,1.3,7.8c13.1-7.3,27.3-10.8,42.3-11.4
			c4.2-0.2,2-7.8-1.6-7.9c-16.3-0.6-32.2,3.5-46.5,11.4c-3.3,1.9-1.3,6.4,1.3,7.8c11.8,6.3,24.8,3.1,36.5-1.6
			c10.7-4.3,23-12.5,20.5-25.8c-2-10.6-13.8-16.7-23.9-15.1c-11.2,1.8-22.1,12.4-27.2,22.2c-2.7,5.2-3.2,11.5,0.2,16.5
			c2.8,4,8.1,6.5,12.6,3.8C4228.8,1514.3,4228.9,1509.7,4226.3,1510.9L4226.3,1510.9z"/>
	</g>
</g>
<g>
	<g>
		<path d="M4232.8,1615.4c-4.3,0.2-8.9,0.2-13-1.2c-7-2.5-3.9-9.3,1-12.5c3.4-2.2,10.7-5.4,14.9-4.3c5.9,1.6,3.1,11.2,1.1,14.9
			c-2.6,4.7-6.8,8.2-11.6,10.5c-2.2,1-4.5,1.8-6.8,2.5c-1.3,0.4-2.7,0.5-3.9,0.9c-0.6,0.1-1.3,0.2-1.9,0.3c-0.7,1.1-0.9,1.2-0.5,0.2
			c0-4.4,9.1-8.3,12.2-9.6c4.8-2,10-3.2,15.2-3.5c4.3-0.3,2.6-7.4-1.2-7.5c-8.2-0.1-15.8,1.6-22.9,5.5c-5.2,2.9-11,7.2-11.3,13.7
			c-0.8,16.3,23.2,7,30,2.7c10.4-6.7,18.5-23.3,9.5-34.4c-8.2-10-28.7-2.6-33.7,7.6c-2.7,5.7-1.4,12.7,3.4,16.9
			c5.5,4.8,13.2,4.1,19.9,2.9C4235.5,1620.5,4235.5,1615.3,4232.8,1615.4L4232.8,1615.4z"/>
	</g>
</g>
<g>
	<g>
		<path d="M4398.5,1484.8c-3.3-10.8,16.8-17.1,24.1-18.8c1.4-0.3,0.9-1.4,1-0.2c0,1-0.9,2.7-1.2,3.6c-0.8,1.9-1.9,3.8-3,5.6
			c-2.5,3.8-5.6,7.1-9.3,9.9c-3.5,2.6-7.3,4.6-11.4,5.8c-7.7,2.2-3.2-6,0-8.6c7.8-6.3,18.3-8.5,28.1-7.1c-0.7-2.5-1.4-5-2.1-7.5
			c-9.1,6.6-20,9.3-31.2,8.1c-3.8-0.4-3.3,6.2,0,6.8c12.3,2.3,24.7-0.5,35-7.7c2.9-2,1.3-7-2.1-7.5c-12.5-2-27.3,1.1-36,10.8
			c-7.6,8.5-2.4,23.8,10.2,21c11.6-2.6,22-11.5,27.4-21.9c2.4-4.5,4.8-10.3,2.2-15.3c-3-5.6-8.9-4.3-13.9-2.7
			c-10.8,3.3-30.7,13.2-22.8,27.8C4395.3,1490,4399.6,1488.5,4398.5,1484.8L4398.5,1484.8z"/>
	</g>
</g>
<g>
	<g>
		<path d="M4399.5,1597.5c0.9-0.2,2.3-5,2.9-6.1c1.1-1.9,2.4-3.7,3.9-5.3c3.3-3.7,7.4-6.7,11.6-9.3c4-2.5,8.5-5.4,13.3-6.4
			c6.4-1.3,10.5,3,9.6,9.3c-1.3,9.2-11.6,19.2-21.1,19.2c-6.2-0.1-12.1-5.3-9-11.8c0.9-1.9,2.6-3.6,4.7-4.2c1.1-0.3,2.9-0.7,3.7,0.2
			c0.7,0.8,0,2.2-1.1,2.5c1.6,1.5,3.1,2.9,4.7,4.4c-0.2-1.7-0.6-3.4-1.2-5.1c-0.9-2.8-4.8-4.2-5.4-0.5c-0.3,1.8-0.4,2.8-0.4,4.6
			c0,2.3,2.3,4.8,4.7,4.4c5.5-0.9,7.5-7.1,5.8-11.9c-2.1-6.2-9.1-8.4-14.9-6.1c-6.2,2.4-9.6,9.5-8.8,15.9
			c0.8,6.7,5.6,12.1,11.8,14.5c14.8,5.7,31.3-8.3,33.8-22.7c1.1-6.5-1.1-13.9-6.5-17.9c-6.4-4.8-14.2-3-20.7,0.5
			c-7.5,4-14.9,9.4-20,16.2c-3.5,4.5-8.5,13.7-4.5,19.1c0.5,0.7,1.1,1,2,0.9c0.1,0,0.3,0,0.4-0.1c1-0.1,1.8-1,2-2
			c0-0.2,0.1-0.5,0.1-0.7C4400.7,1598.2,4400.3,1597.2,4399.5,1597.5L4399.5,1597.5z"/>
	</g>
</g>
<g>
	<g>
		<path d="M4729.5,1377.6c-0.2,32.4,0.2,64.7,0.7,97.1c0.3,15.8,0.6,31.6,1,47.4c0.2,7.7,0.3,15.5,0.5,23.2c0.2,7.2-0.8,15.4,2,22.1
			c0.8,2,4.5,4,5.7,1.1c2.7-6.3,0.7-14.7,0.3-21.5c-0.5-8.8-1-17.6-1.4-26.4c-0.8-16.3-1.6-32.7-2.2-49c-1.2-31.7-2.2-63.3-3.5-95
			C4732.6,1373.8,4729.5,1375.5,4729.5,1377.6L4729.5,1377.6z"/>
	</g>
</g>
<g>
	<g>
		<path d="M4719.9,1380.4c11.9,4.9,22,13.4,32.2,21c11.3,8.4,22.4,16.9,33.4,25.6c10.2,8.1,20.2,16.4,30,24.9
			c5.2,4.5,10.4,9.1,15.5,13.7c5.5,5,10.8,11,17.4,14.5c2.7,1.4,4.9-1.9,3.9-4.3c-2.3-5.8-8.6-9.7-13.2-13.7
			c-5.9-5.1-11.8-10.1-17.8-15c-11.8-9.8-23.8-19.4-35.9-28.7c-11.8-9.1-23.9-17.9-36.1-26.4c-5.8-4-11.4-8.3-17.5-11.8
			c-4.6-2.7-7.4-3.3-11.9-0.6C4719.6,1379.7,4719.4,1380.2,4719.9,1380.4L4719.9,1380.4z"/>
	</g>
</g>
<g>
	<g>
		<path d="M4721.8,1571.7c-0.2-3.2,7.2-6.3,9.4-7.7c3.1-2,6.3-3.9,9.4-5.9c6.1-3.8,12.3-7.7,18.4-11.5c12.6-7.8,25.2-15.8,37.8-23.8
			c12.3-7.8,24.7-15.6,37-23.5c12.4-7.9,25.4-15.3,37.3-24c3.9-2.8-1.2-9.5-5.2-7.1c-13,7.7-25.4,16.6-37.9,25
			c-14.1,9.4-28.2,18.8-42.3,28.2c-13.2,8.8-26.4,17.8-39.5,26.7c-6.5,4.4-13,8.8-19.5,13.3c-4.1,2.8-8.8,5.9-8.2,11.4
			C4718.7,1575.7,4721.9,1573.9,4721.8,1571.7L4721.8,1571.7z"/>
	</g>
</g>
<path d="M434.2,717L328.1,550.1c-0.3-0.5-0.2-1.4,0.4-1.5c37.8-10.6,60.7-35.8,60.7-62c0-28.6-26.3-36.2-41.2-37.6
	c-11.5-1-20.4,3.3-23,6l0.9,29.5c3.2-1.9,6-2.4,8.2-2.1c3.6,0.5,5.9,3.2,6.4,6.1c0.3,1.6,0,3.2-0.8,4.5c-2.9,4.7-10.5,8-26.1,13.3
	c-0.8,0.3-2.3,1.2-3.5,1.8c-0.5,0.2-1-0.2-0.9-0.7v0c0.5-2.1,0.8-4.3,0.8-6.4V451h-52v49.1c0,1.8,0.2,3.7,0.6,5.5l0.4,1.7
	c0.1,0.6-0.5,1.1-1.1,0.8c-1.3-0.7-2.9-1.6-3.8-2c-15.2-5.2-22.6-8.4-25.5-13.1c-0.8-1.3-1.1-3-0.8-4.5c0.5-2.9,2.8-5.6,6.4-6.1
	c2.3-0.3,5,0.2,8.2,2.1l0.9-29.5c-2.6-2.6-11.5-7-23-6c-14.9,1.4-41.2,10-41.2,37.6c0,32.4,25.5,53.4,60.7,62c0.6,0.1,0.7,1,0.4,1.5
	L133,717h63.9l54.2-91.6c1.4-2.1,2.6-4.4,3.5-6.8l2.4-6.2c0.2-0.5,1-0.4,1,0.2v9.6V719h52v-98v-8.4c0-0.6,0.8-0.7,1-0.2l1.6,4.1
	c1.1,2.9,2.5,5.7,4.3,8.3l52.5,92.1H434.2z"/>
<path d="M664.6,719l-54.4-172.8l-2.7-12.4c-0.1-0.6-1-0.6-1.2,0l-2.6,12.4L550.1,719h-70l94.5-264.1l64.5-0.1L733.7,719H664.6z"/>
<circle cx="591" cy="658" r="15.8"/>
<polygon points="1026,717 971,717 971,520.6 911.1,579.5 853,521.4 853,717 798,717 798,455 851.9,455 911.4,518.3 971.2,454.8 
	1026,455 "/>
<path d="M321.9,968.1c-0.3-0.5-0.2-1.4,0.4-1.5c35.2-8.6,60.7-29.6,60.7-62c0-27.6-26.3-36.2-41.2-37.6c-11.5-1-20.4,3.4-23,6
	l0.9,29.5c3.2-1.9,6-2.4,8.2-2.1c3.6,0.5,5.9,3.2,6.4,6.1c0.3,1.6,0,3.2-0.8,4.5c-2.9,4.6-10.3,7.9-25.5,13.1
	c-0.9,0.3-2.5,1.3-3.8,2c-0.5,0.3-1.2-0.2-1.1-0.8l0.3-1.7c0.4-1.8,0.6-3.6,0.6-5.5V869h-26h-26v49.1c0,1.8,0.2,3.7,0.6,5.5l0.4,1.7
	c0.1,0.6-0.5,1.1-1.1,0.8c-1.3-0.7-2.9-1.6-3.8-2c-15.2-5.2-22.6-8.4-25.5-13.1c-0.8-1.3-1.1-3-0.8-4.5c0.5-2.9,2.8-5.6,6.4-6.1
	c2.3-0.3,5,0.2,8.2,2.1l0.9-29.5c-2.6-2.6-11.5-7-23-6c-14.9,1.4-41.2,10-41.2,37.6c0,32.4,25.5,53.4,60.7,62c0.6,0.1,0.7,1,0.4,1.5
	L127,1135h63.9l54.2-91.6c1.4-2.1,2.6-4.4,3.5-6.8l2.4-6.2c0.2-0.5,1-0.4,1,0.2v9.6v96.8h26h26v-96.8v-9.6c0-0.6,0.8-0.7,1-0.2
	l2.4,6.2c0.9,2.4,2.1,4.6,3.5,6.8l54.2,91.6H429L321.9,968.1z"/>
<path d="M2009.6,562.4l22,71.6l28.3-47.6c3.2-7.6,8-12.7,15.7-11.1c7.7,1.7,11.3,9.3,11.3,15.6l-0.1,23l-67.3,83.4l5.4,74.5
	l43.4-64.9l9.4-12.6c3-4,9.2-1.9,9.2,3.1V797h55l-2.2-248.3c0-26-15-44.4-41.2-48.6C2043.9,491.2,2027.4,533.1,2009.6,562.4z"/>
<text transform="matrix(1 0 0 1 1770.0049 1031.8623)" font-family="'FuturaStd-ExtraBold'" font-size="144">F</text>
<text transform="matrix(1 0 0 1 2046.0322 998.8594)" font-family="'FuturaStd-ExtraBold'" font-size="144">f</text>
</svg>
