<?xml version="1.0" encoding="utf-8"?>
<!-- Generator: Adobe Illustrator 18.1.1, SVG Export Plug-In . SVG Version: 6.00 Build 0)  -->
<!DOCTYPE svg PUBLIC "-//W3C//DTD SVG 1.1//EN" "http://www.w3.org/Graphics/SVG/1.1/DTD/svg11.dtd">
<svg version="1.1" id="Layer_1" xmlns="http://www.w3.org/2000/svg" xmlns:xlink="http://www.w3.org/1999/xlink" x="0px" y="0px"
	 viewBox="0 0 1140 1200" enable-background="new 0 0 1140 1200" xml:space="preserve">
<g>
	<g>
		<path d="M-3945.6,389.3c0.7-16.7,6.3-32.8,12-48.4c5.4-15,11.5-29.9,18.1-44.5c12.9-28.9,28-56.8,44.9-83.5
			c-2.8-0.9-5.7-1.9-8.5-2.8c-0.1,29.7-0.2,59.4,0.5,89c0.4,14.3,1.1,28.6,2.5,42.9c1.4,13.8,2.7,28.7,7.1,41.9
			c1.2,3.6,8.7,6,8.1,0.4c-1.6-14-4.9-27.8-6.3-41.9c-1.4-13.9-2.1-27.9-2.5-41.9c-0.8-29.9-0.4-59.8-0.7-89.7
			c0-4.1-6.2-6.5-8.5-2.8c-17,27.4-31.9,56.2-44.5,85.8c-6.2,14.7-11.9,29.6-17,44.7c-5.5,16.3-10.6,32.7-10.7,50
			C-3951,392.6-3945.8,393.9-3945.6,389.3L-3945.6,389.3z"/>
	</g>
</g>
<g>
	<g>
		<path d="M-3943.6,355.5c2.1-3.1,2.7-2.3,3.9-4.7c0.3-0.5,0.4-1.1,0.7-1.6c0.5-1,1-2,1.6-3c1.2-2.2,2.7-4.2,4.3-6
			c4.3-5,9.5-9.2,15-12.9c16.9-11.4,36.1-19.1,55.3-25.6c5.8-2,0.7-10.5-4.3-8.7c-20.7,7.4-42.4,16-59.7,30.1
			c-5.3,4.3-10.2,9-13.9,14.7c-3,4.6-6.5,11.6-3.9,17.1C-3944.6,355-3943.8,355.8-3943.6,355.5L-3943.6,355.5z"/>
	</g>
</g>
<g>
	<g>
		<path d="M-3721.8,252.4c-18.5-13.1-47.1-9.6-65.3,2.2c-9.5,6.1-17.3,14.9-22.6,24.9c-5.3,10-9.8,23.3-4.3,34
			c11.1,21.4,39.5,24.3,60.8,25.1c25.4,0.9,50.9-6.2,66.7-27.4c8.5-11.4,6.2-24.7-4.1-34.3c-5.3-4.9-11.8-8.1-18.1-11.4
			c-7.6-4-15.1-8.7-23.2-11.6c-4.9-1.8-6.7,4.2-3,7c10,7.7,22.8,11.4,33.4,18.2c9,5.8,15,15,8,24.9c-12.2,17.4-32.9,25.5-53.5,25.8
			c-17.8,0.2-41.3-0.2-54.9-13.5c-8.3-8.2-5.6-18.8-1.3-28.4c4-8.9,10.1-16.7,17.7-22.8c8.6-6.9,19-11.2,29.9-12.5
			c5.2-0.6,10.5-0.6,15.6,0.1c5.6,0.7,10.8,2.7,16.3,3.8C-3721.9,256.6-3720.2,253.5-3721.8,252.4L-3721.8,252.4z"/>
	</g>
</g>
<g>
	<g>
		<path d="M-3630.7,244.3c12.4,10.5,26.7,19.1,41.6,25.7c6.4,2.8,12.3,3.9,18-0.9c5.9-4.8,10.8-11.3,15.8-17.1
			c10.2-11.7,20.3-23.4,32.4-33.1c11.9-9.5,25.2-17,39.3-22.8c-2.6-2-5.1-4-7.7-6c-4.6,26.2-6.1,52.5-6,79.1
			c0,12.9,0.3,25.8,0.4,38.7c0.1,6.8,0.1,13.5,0,20.3c0,3.2-0.1,6.4-0.2,9.6c0,1,0.3,8.1-0.4,8.6c2.1,0.7,4.3,1.5,6.4,2.2
			c-0.3-0.5-0.6-1-0.9-1.5c-1.6-2.7-5.3-3.4-6.3,0.1c0,0.8,0,1.6,0,2.4c0.1,3.1,3.9,5.8,6.8,4.5c5.2-2.5,3.8-10.4,4-15.2
			c0.2-6.8,0.3-13.5,0.3-20.3c0-13.9-0.3-27.7-0.4-41.6c-0.2-27.9,0.1-56.2,6.4-83.5c1-4.1-4.1-7.4-7.7-6
			c-26.2,10.1-48.2,27.2-66.5,48.4c-4.7,5.5-9.3,11-14.1,16.4c-2.3,2.7-4.7,5.3-7.2,7.8c-3.1,3.1-4.8,3.5-9,1.7
			c-14.6-6.2-28-14.7-40.9-24C-3631.6,234.3-3634.8,240.8-3630.7,244.3L-3630.7,244.3z"/>
	</g>
</g>
<g>
	<g>
		<path d="M-3591,206.2c2.8,3.9,7.9,5.8,12.1,7.8c4.5,2.2,9,4.2,13.7,6.1c8.4,3.4,17.3,6.8,26.2,8.7c5.8,1.2,4.4-6.8,0.1-8.2
			c-9.1-3.1-18.4-5.4-27.3-9c-4.4-1.8-8.7-3.7-12.9-5.7c-3-1.4-7.4-5-10.7-3.6C-3591.3,202.9-3591.9,205-3591,206.2L-3591,206.2z"/>
	</g>
</g>
<g>
	<g>
		<path d="M-3301.2,194.4c0.6,0,1.1-0.1,1.7-0.1c-0.7-0.5-1.5-0.9-2.2-1.4c1,2.4,0.5,5.8,0.5,8.4c0,2.6,0,5.3,0,7.9
			c0,6.3-0.1,12.6-0.1,18.9c0,12.8,0,25.7-0.1,38.5c-0.1,12.1,0.1,24.2-0.4,36.2c-0.2,5.9-0.7,11.7-1.8,17.5
			c-1,5.5-3.1,10.7-4.4,16.1c3,0.7,6.1,1.4,9.1,2c-0.3-1.1-0.7-2.2-1-3.3c-0.8-2.9-7.2-6.5-7.9-1.6c-0.2,1.3-0.3,2.6-0.5,3.9
			c-0.4,3.8,6.3,8.1,8.7,4.2c6.9-11.2,7.6-26.1,7.9-38.9c0.4-14.1,0-28.3-0.1-42.5c-0.1-14.6-0.1-29.1-0.6-43.7
			c-0.2-6.8,0.5-14.5-0.8-21.2c-0.9-4.6-3.5-8.2-8.5-7C-3304,189-3303.5,193.9-3301.2,194.4L-3301.2,194.4z"/>
	</g>
</g>
<g>
	<g>
		<path d="M-3334,233.3c2.2,3.9,5.8,6.6,9.1,9.5c3.2,2.9,6.5,5.9,9.7,8.8c6.1,5.5,12.3,10.9,18.4,16.4c-0.1-2.2-0.2-4.3-0.4-6.5
			c-18.7,9.9-37.3,20-55.9,30.1c-4.5,2.4-0.1,10.3,4,8c19-10.3,38.1-20.5,57-31c2.4-1.3,1.2-5.1-0.4-6.5
			c-6.8-5.8-13.5-11.6-20.2-17.4c-3.2-2.7-6.4-5.4-9.6-8.1c-2.8-2.4-6.1-6.2-9.8-6.8C-3333.7,229.7-3334.6,232.2-3334,233.3
			L-3334,233.3z"/>
	</g>
</g>
<g>
	<g>
		<path d="M-3137.3,363.1c35-10.2,58.2-44.9,71.5-76.7c6.9-16.4,11.8-33.7,15.2-51.1c3.5-18.3,8.1-39.6-5.9-54.7
			c-13.8-14.9-36.4-18.3-55.8-17.6c-20.7,0.7-41.7,6.5-57.6,20.2c-14.3,12.4-23.3,29.6-29.3,47.3c-5.1,14.9-8.6,32-3.8,47.4
			c6.1,19.6,25.3,30,44.7,32.2c21.1,2.4,44.4-4.2,58.2-21c2.4-2.9-2.3-9.3-5.5-6.6c-13.8,11.8-30.3,19.1-48.7,18.3
			c-14.9-0.6-31.5-7.1-37.4-21.9c-5.2-13.1-2.1-28.7,2-41.6c5.1-15.8,12.4-31.3,24.1-43.3c13.2-13.4,31.6-19.6,50-21.1
			c16.7-1.3,38.4-0.1,50.8,12.6c12.4,12.7,6.4,34.1,3.3,49.5c-3,15.3-7.3,30.5-13.1,45c-6.5,16.3-14.9,32.1-26,45.6
			c-10.9,13.3-24.3,22.8-39.5,30.7C-3142.9,358-3140.5,364-3137.3,363.1L-3137.3,363.1z"/>
	</g>
</g>
<g>
	<g>
		<path d="M-3900.6,479.6c-1.6,8.2-1.7,16.9-2.4,25.3c-0.7,7.9-1.5,15.9-2.1,23.8c-1.4,15.5-2.8,30.9-4.4,46.4
			c-1.7,15.8-3.5,31.6-5.4,47.3c-2,15.9-5.3,32.1-5.3,48.2c0,2.7,4.6,5.7,5.6,2c4.5-15.5,5.1-32.5,6.9-48.4
			c1.8-16.2,3.4-32.5,5-48.7c1.5-15.6,2.8-31.2,4-46.9c0.6-8.1,1.1-16.1,1.6-24.2c0.5-7.9,1.4-15.9,1-23.8
			C-3896.5,477.8-3899.9,476.2-3900.6,479.6L-3900.6,479.6z"/>
	</g>
</g>
<g>
	<g>
		<path d="M-3961.1,542.8c41.5,0.7,83.1,1.5,124.7,0.7c4.1-0.1,2.4-7.6-1.1-7.7c-41.3-1.3-82.8,0-124.1,0.7
			C-3964.9,536.6-3964.4,542.8-3961.1,542.8L-3961.1,542.8z"/>
	</g>
</g>
<g>
	<g>
		<path d="M-3968.3,610.3c23.1,0.3,46.3,0.6,69.4,0.7c11.5,0,22.9,0.1,34.4,0.2c11.9,0.1,23.9,0.6,35.7-0.4c3.9-0.3,3.2-6.8-0.4-7.1
			c-23-1.5-46.3-0.4-69.4-0.3c-23.3,0.1-46.7,0.4-70,0.7C-3971.8,604.2-3971.4,610.3-3968.3,610.3L-3968.3,610.3z"/>
	</g>
</g>
<g>
	<g>
		<path d="M-3621.1,461.3c-3.6,2.4-3.2,5.8-3.5,9.9c-0.4,4.3-0.6,8.6-0.9,12.9c-0.5,8.2-1.2,16.4-2,24.6c-1.6,16.7-3.5,33.4-5.9,50
			c-2.3,16.3-5.1,32.5-8.3,48.7c-1.5,7.8-3.1,15.5-4.8,23.2c-1.4,6.2-5.2,14.6-2.9,20.8c0.9,2.5,5.4,5.5,7.6,2.6
			c4.8-6.3,5.3-16.4,6.9-24.2c1.6-7.8,3.1-15.7,4.5-23.6c2.8-15.9,5.1-31.8,7.1-47.7c2-15.5,3.4-31.1,4.4-46.7c0.5-8,1-16,1.4-24
			c0.4-8.1,2.2-18.3-1.4-25.7C-3619.3,461.4-3620.3,460.8-3621.1,461.3L-3621.1,461.3z"/>
	</g>
</g>
<g>
	<g>
		<path d="M-3631.7,570.8c-15-0.5-32.1-1.3-46-7.5c-11.6-5.2-16.7-16.1-15.6-28.5c2.2-24.6,28.1-41.1,49.3-48.3
			c12.1-4.1,24.8-6.2,37.6-6.4c12.5-0.2,26.5,0.5,37.5,7.1c10.4,6.1,16.3,17,13.6,29c-2.9,12.9-13.5,22.2-23.8,29.4
			c-11.8,8.2-24.6,15.6-38.5,19.8c-15.8,4.8-31.1,4.1-46.7-1.1c-5.6-1.9-6.1,6.1-1.9,8.2c29,14.9,64,1.1,89-15.3
			c12.5-8.1,25.3-17.9,30.8-32.3c5.3-13.6,2.4-28.2-8-38.6c-11.2-11.2-26.9-15-42.2-15.9c-15.6-0.9-31.3,0.5-46.3,4.8
			c-26.1,7.5-57.5,26.3-60.3,56.2c-1.4,14.7,5.2,29.1,18.1,36.6c15.3,8.9,36,10,53.2,7.4C-3629.7,575.2-3629.1,570.9-3631.7,570.8
			L-3631.7,570.8z"/>
	</g>
</g>
<g>
	<g>
		<path d="M-3329.8,492.1c-0.2,0.1-0.4,0.2-0.6,0.4c-1.5-1.7-2.9-3.4-4.4-5c-2.1,7.4-2.5,15.4-3.8,22.9c-1.2,6.8-2.5,13.5-4.1,20.1
			c-3.4,14.7-7.8,29-12.6,43.3c-4.6,13.7-9.8,27.2-15.1,40.5c-2.9,7.2-5.9,14.4-8.9,21.5c-2.6,6.1-7.9,14.2-7.5,21
			c0.2,2.9,4.9,7,7.5,4c4.9-5.7,7.2-14.3,10-21.3c2.9-7.2,5.9-14.4,8.7-21.6c5.3-13.4,10.3-27,14.7-40.7c4.5-13.9,8.3-28,11.3-42.3
			c3-14.5,6.4-30.5,5.4-45.4c-0.1-2.1-3.4-5.6-5.2-2.8c-2.1,3.6-1.1,9,3.6,9.7C-3328.9,496.6-3327.9,492.6-3329.8,492.1
			L-3329.8,492.1z"/>
	</g>
</g>
<g>
	<g>
		<path d="M-3425.8,558.7c0.6,2.3,1.4,2.8,2.6,1.7c0.5-0.4,1.1-0.8,1.6-1.1c1.4-0.9,2.7-1.9,4.1-2.8c3-2.1,5.9-4.2,8.8-6.2
			c5.3-3.7,10.7-7.3,16-11c10.8-7.4,21.6-14.7,32.6-21.8c21.9-14.2,44.5-27.2,67.1-40.3c5-2.9-1.7-10.3-6.3-7.8
			c-28.8,15.9-56.7,33.9-83.8,52.5c-13.4,9.2-26.7,18.7-39.4,28.8c-3.4,2.7-9.5,6.4-7.3,11.7c1.8,4.3,6.2,2.2,6.4-1.6
			C-3423.4,560-3424.7,557.3-3425.8,558.7L-3425.8,558.7z"/>
	</g>
</g>
<g>
	<g>
		<path d="M-3342.8,475.3c4,18,15.2,34,24.4,49.7c10.8,18.4,21.1,37.1,33.2,54.7c2.7,3.9,8.6,1.2,6.4-3.3
			c-9-18.3-20.7-35.5-31.4-52.9c-10.1-16.4-21.6-32.5-29.7-49.9C-3340.8,471.8-3343.1,473.9-3342.8,475.3L-3342.8,475.3z"/>
	</g>
</g>
<g>
	<g>
		<path d="M-3169.8,446.2c-0.6,16.7-0.3,33.5-0.7,50.2c-0.5,17-1.3,34.1-2.7,51.1c-1.4,17-3.3,34-5.7,51c-1.2,8.7-2.6,17.5-4.1,26.2
			c-1.5,8.6-3.7,17.3-4.7,26c-0.6,5.4,8.4,9.5,9.9,3.4c4.2-16.5,5.9-34,8.1-50.8c2.2-16.9,3.8-33.8,5-50.8
			c2.4-35.1,3.8-71.1,0.1-106.1C-3165,442.8-3169.6,442.4-3169.8,446.2L-3169.8,446.2z"/>
	</g>
</g>
<g>
	<g>
		<path d="M-3040.9,433.7c-2.3,3.4-4.9,5.9-6.6,9.6c-1.6,3.6-2.5,7.6-3.3,11.5c-1.5,7.3-2.2,14.8-2.8,22.2c-1.5,17.5-3,35-5.3,52.4
			c-2.2,17.6-4.9,35-8,52.5c-1.6,9-3.2,17.9-5,26.9c-0.9,4.5-1.8,9-2.8,13.4c-0.8,3.9-2.3,8-2.2,12c0,3.9,6.7,8.9,8.8,3.6
			c3.1-7.7,4-16.9,5.5-25c1.5-7.9,2.9-15.9,4.2-23.8c2.6-15.8,4.8-31.6,6.6-47.5c1.9-16.2,3.4-32.5,4.6-48.8
			c0.5-7.1,0.8-14.3,1.3-21.4c0.4-6.6,1.1-13.1,2.6-19.6c1.1-5.1,2.1-11.7,4.5-16.4C-3038.1,433.8-3039.7,431.9-3040.9,433.7
			L-3040.9,433.7z"/>
	</g>
</g>
<g>
	<g>
		<path d="M-3179.3,557.3c26.7-6.6,53.1-14.2,79.2-23.1c12.8-4.3,25.4-8.9,38-13.7c6.6-2.5,13.1-5.1,19.6-7.8c4.9-2,11.8-3.7,15.3-8
			c1.9-2.3,0-6.4-3-6.1c-6.6,0.6-13.1,4.3-19.2,6.8c-6,2.5-12.1,4.9-18.2,7.3c-11.8,4.7-23.8,9.2-35.7,13.4
			c-25.5,9.1-51.2,17.5-77.2,24.9C-3183.1,551.9-3182.1,558-3179.3,557.3L-3179.3,557.3z"/>
	</g>
</g>
<g>
	<g>
		<path d="M-3171.1,586.7c23.7-5.6,46.9-14.1,70.1-21.4c11-3.4,21.9-6.8,32.9-10.3c11.3-3.5,23.2-6.4,34.1-11c4.7-2,0.7-9.2-3.7-8
			c-11.4,3-22.6,7.2-33.7,11c-11.3,3.8-22.6,7.6-34,11.4c-10.8,3.6-21.5,7.2-32.2,10.8c-11.4,3.8-23.2,7.2-34.2,12
			C-3174.2,582.3-3174.2,587.5-3171.1,586.7L-3171.1,586.7z"/>
	</g>
</g>
<g>
	<g>
		<path d="M-3920.1,878.9c-2.1-0.8-0.3-9.1-0.1-11c0.4-4.5,1.1-9,1.8-13.5c1.5-8.5,3.5-16.9,6.8-24.9c6.8-16.3,18-28.3,33.9-36.1
			c15.4-7.6,34.2-13.6,51.5-14.2c17.9-0.6,32.1,8.3,39.9,24.3c4.4,9,6.2,19,6.6,29c0.5,11.8-1.5,23.5-0.4,35.3
			c0.3,3.1,5,5.3,6.2,1.5c12.1-37.7-0.1-96.1-47.5-99.2c-20.5-1.3-42.6,5.9-60.8,14.8c-18.8,9.1-32.2,24.4-38.4,44.4
			c-3.2,10.2-4.7,20.9-5.4,31.6c-0.4,6.2-3.7,22.9,5.7,24.1C-3917.6,885.3-3917.9,879.8-3920.1,878.9L-3920.1,878.9z"/>
	</g>
</g>
<g>
	<g>
		<path d="M-3789.2,805.2c3.1-0.5,5.3-3.2,7.6-5.3c2.7-2.5,5.5-5.1,8.3-7.5c5.2-4.4,10.5-8.6,16.2-12.4
			c10.8-7.3,22.4-13.4,34.6-18.2c4-1.6-0.1-8.9-4.2-7.2c-12.8,5.1-24.8,11.6-36,19.7c-5.4,4-10.6,8.2-15.4,12.9
			c-4.6,4.5-10.8,9.6-12.4,16C-3790.9,804.3-3790.4,805.4-3789.2,805.2L-3789.2,805.2z"/>
	</g>
</g>
<g>
	<g>
		<path d="M-3934.9,751.5c10.7,4.5,20.9,10.1,30.4,16.7c10,7,18.4,15.4,27,24c3.3,3.3,6.3-2.1,4-5.1c-15-18.9-37.7-32.9-60-41.4
			C-3936.7,744.7-3937.6,750.4-3934.9,751.5L-3934.9,751.5z"/>
	</g>
</g>
<g>
	<g>
		<path d="M-3562.3,713.6c0.9,31.7,0.1,63.6-2.7,95.2c-1.4,15.8-3.2,31.6-5.5,47.3c-1,7.2-2.2,14.3-3.4,21.5
			c-1.3,7.4-2.6,12.2,3.4,17.7c3.3,3.1,7.3-0.9,5.5-4.6c-1.2-2.4-0.1-5.7,0.3-8.2c0.6-3.9,1.2-7.8,1.8-11.7
			c1.1-7.4,2.1-14.7,2.9-22.1c1.7-14.8,3-29.7,3.9-44.6c1.9-29.7,1.9-59.5,0.3-89.2C-3556,710.9-3562.4,708.4-3562.3,713.6
			L-3562.3,713.6z"/>
	</g>
</g>
<g>
	<g>
		<path d="M-3565.8,786.2c-13.3-15.4-27.4-30-41.3-44.8c-14.2-15.1-29.7-29.7-42.4-46c-2.6-3.3-8.3-3.2-8.1,1.9
			c2.6,51.6-2.1,102.4-11.3,153.2c-0.7,4,6.3,7.8,8.8,4.1c15.4-23,43.6-31.9,68.1-41.6c30-11.9,58.8-26.7,86-44.2
			c4.9-3.1-2-10.7-6.5-7.7c-27.7,17.9-57,32.8-87.7,44.9c-25.1,9.8-51.5,19.8-67.9,42.4c2.8,1.7,5.7,3.5,8.5,5.2
			c11.3-50.8,13.9-104.1,11.1-156c-2.4,1-4.8,1.9-7.2,2.9c15.6,13.8,29.7,29.5,44.3,44.4c14.4,14.8,28.6,29.8,43.7,43.9
			C-3566.8,789.8-3565,787.3-3565.8,786.2L-3565.8,786.2z"/>
	</g>
</g>
<g>
	<g>
		<path d="M-3514.7,768.4c-1.9-1.1-3.6-2.1-5.8-2.6c-0.1,1.3-0.1,2.6-0.2,3.9c14.9-8.6,29.4-17.9,44.5-26.2
			c15-8.3,30.5-15.7,46.3-22.4c-1.9-0.9-3.8-1.9-5.6-2.8c3.5,12.4,0.6,25.2-2.4,37.4c-3,12-6.4,23.9-10.1,35.7
			c-7.5,23.6-16.5,46.8-26.9,69.3c2.3-0.5,4.7-1,7-1.5c-22-11.7-44.2-23-66.3-34.4c-10.7-5.5-21.3-11-32-16.5
			c-5.6-2.9-11.3-5.8-16.9-8.7c-5.1-2.6-10.6-4.9-14.5-9.2c-3.9-4.3-12.6-0.4-9.2,5.5c3.2,5.4,8,7.9,13.4,10.6
			c5.5,2.8,11.1,5.6,16.6,8.4c11.4,5.7,22.8,11.4,34.2,17.2c23.4,11.8,46.7,23.8,70.4,35.2c2.1,1,5.8,1.2,7-1.5
			c10.4-24.4,19.5-49.4,26.9-74.9c3.5-12.1,6.8-24.4,9.4-36.7c2.7-12.5,4-25,0.2-37.4c-0.7-2.4-3.3-3.9-5.6-2.8
			c-30.7,13.8-62.4,30.3-87.8,52.5c-1.1,0.9-1.1,3.5,0.7,3.7c2.2,0.1,4.2-0.5,6.3-0.9C-3515,769-3514.3,768.6-3514.7,768.4
			L-3514.7,768.4z"/>
	</g>
</g>
<g>
	<g>
		<path d="M-3259.7,735.3c-0.4,14.3,1.3,28.8,2.1,43.1c0.9,15.7,1.9,31.5,2.6,47.2c0.8,15.4,1.4,30.9,2,46.3
			c0.3,7.7,0.6,15.4,0.8,23.1c0.3,8.6-0.2,17.4,2.3,25.7c1.1,3.6,6,4.5,7,0.5c1.8-7.2,0.6-14.7,0.1-22c-0.5-8.2-0.9-16.4-1.4-24.5
			c-1-15.7-2.1-31.3-3.2-47c-1-14.4-2.1-28.7-3.3-43c-1.4-16.5-2.1-33.4-5-49.8C-3256.1,731.9-3259.6,732.3-3259.7,735.3
			L-3259.7,735.3z"/>
	</g>
</g>
<g>
	<g>
		<path d="M-3255.4,734.4c-21-1.9-41.9,6.9-55.3,23.3c-6.4,7.8-11.8,18.4-10.4,28.8c1.5,11.1,10.6,17.7,20.3,21.3
			c22.3,8.4,49.2,10.2,72,2.8c9.8-3.2,19-9,23.8-18.4c4.3-8.6,4.5-19.2-1.1-27.2c-7.6-10.9-22.3-14.5-34.3-17.8
			c-15.5-4.2-29.8-9.6-44-17.3c-4.1-2.3-5.2,4.7-2.2,6.7c7.9,5.5,16.5,9.8,25.6,13.1c9.6,3.5,19.6,5.6,29.3,8.7
			c7.9,2.5,18.4,6,20.6,15.1c2,8.2-2.5,16.7-8.7,21.9c-14,11.6-36.9,12.2-54,10.4c-9.6-1.1-19.4-3.2-28.3-7
			c-3.8-1.6-7.7-3.9-9.8-7.6c-2.6-4.6-1.5-10.4,0.2-15.1c7.9-22.2,32.6-36.7,55.4-36.5C-3253.7,739.6-3252.8,734.6-3255.4,734.4
			L-3255.4,734.4z"/>
	</g>
</g>
<g>
	<g>
		<path d="M-3233.3,911.7c-2.3,0.6-4.7,0.8-6.9,1.4c-2.5,0.7-5.1,2.1-7.5,3c-5.9,2.2-12.1,3.9-18.3,4.8c-9.6,1.4-20.1,1.3-29.3-2.1
			c-8.6-3.2-15.8-10-16.2-19.7c-0.3-9.2,6.7-14.7,14.7-17.5c10-3.5,20.7-5.5,31.1-7.5c10.9-2.1,22-3.7,33.2-3.8
			c9.8-0.1,20.7,0.2,29.5,5.3c3.6,2.1,6.9,5.1,8.3,9.1c2,5.5-1,9.5-4.8,13.2c-8.1,8-17.8,14.4-28.1,19.2c-9.5,4.4-26,11.7-32.8-0.4
			c-1.9-3.4-9.3-3.1-8,1.8c3.7,14.5,19.5,16.4,31.9,13c12.9-3.6,25.2-10.1,35.8-18.2c9.5-7.2,21-16.4,16.5-29.8
			c-3.8-11.5-15.3-18-26.5-20.7c-13.7-3.4-28.7-2.4-42.6-0.6c-14.6,1.9-29.3,4.9-43.5,8.9c-10.6,3-21.5,8.3-24.5,19.8
			c-2.6,10.1,2,21.3,9.5,28.2c10.1,9.2,24.4,12.2,37.7,11.7c7.1-0.2,14.5-1.3,21.3-3.6c4.4-1.5,8.6-3.4,12.5-5.9
			c3.3-2,5-4.9,7.5-7.7C-3232.3,912.8-3232.1,911.4-3233.3,911.7L-3233.3,911.7z"/>
	</g>
</g>
<g>
	<g>
		<path d="M-3047,742.4c0.5-3.5,0.4-6.8-1.2-10c-1.3-2.4-4.6-2.5-5.1,0.5c-2.5,13.8-1.9,28.5-2.5,42.4c-0.5,13.9-1.1,27.8-1.6,41.7
			c-0.4,13.1-0.9,26.3-1.3,39.4c-0.2,7.1-0.5,14.2-0.7,21.4c-0.2,6.8-1.9,15,1.1,21.2c1.8,3.8,7.7,3.9,9.2,0
			c2.3-6,1.2-13.8,1.2-20.1c0.1-6.8,0.1-13.6,0.2-20.5c0.1-14.1,0.3-28.1,0.4-42.2c0.1-13.7,0.1-27.4,0.2-41
			c0.1-13.5,1.1-27.6-0.6-41.1c-1.1,1-2.3,2.1-3.4,3.1c2.3,1,3.4,0.3,3.5,5.1C-3047.7,742.9-3047,742.7-3047,742.4L-3047,742.4z"/>
	</g>
</g>
<g>
	<g>
		<path d="M-3139.8,753.5c3.3,9.1,7.8,17.7,12.7,26c4.4,7.4,9.6,17.5,16.7,22.5c2.6,1.9,8.8,1.1,7.2-3.4c-2.3-6.7-9-12.5-13-18.3
			c-6.5-9.3-11.4-19-16.7-28.9C-3135.2,747-3141.8,747.9-3139.8,753.5L-3139.8,753.5z"/>
	</g>
</g>
<g>
	<g>
		<path d="M-3109.4,802.6c0.3,0.2,0.5,0.3,0.8,0.5c0.4,0.3,1,0.3,1.5,0c13-7.7,20.4-23,27.9-35.6c3.3-5.6,6.9-11,11.5-15.6
			c5.9-6,13.1-9.2,19.9-13.9c4.1-2.8-0.3-9.8-4.7-8.3c-15.1,5.2-26.3,18.6-33.7,32.2c-3.7,6.9-7.1,14-11.2,20.7
			c-2.2,3.5-4.6,6.9-7.1,10.2c-2.1,2.9-5,5.7-5.1,9.4C-3109.6,802.4-3109.5,802.5-3109.4,802.6L-3109.4,802.6z"/>
	</g>
</g>
<g>
	<g>
		<path d="M-3048.4,736.4c7.6,8.4,16.8,15.5,24.5,23.9c4.4,4.9,9,9.9,12.7,15.3c2.8,4.1,5.4,10.5,11.2,10.8c4.9,0.3,6.5-4.2,7.9-8
			c1.9-4.9,3.9-9.7,6.1-14.4c2.2-4.6,4.6-9,7.2-13.4c2.5-4.1,5.9-8.1,7.2-12.7c0.8-3-3.6-7.6-6.6-5.6c-7.1,4.8-11.7,13-15.7,20.5
			c-2,3.7-3.8,7.5-5.5,11.4c-1.1,2.5-2.1,5.1-3.1,7.7c-0.4,1.1-1.1,4.9-1.8,5.5c1.9-0.3,3.7-0.5,5.6-0.8c2,0.5,0.1-0.5-0.9-1.5
			c-1-1.1-2.1-2-3.2-3c-2.1-2-4.1-4.1-6.2-6.1c-4.3-4.3-8.6-8.7-13.1-13c-7.3-7.1-15.5-15.7-24.6-20.4
			C-3048.5,731.6-3049.5,735.3-3048.4,736.4L-3048.4,736.4z"/>
	</g>
</g>
<g>
	<g>
		<path d="M-3937.8,1127.4c6.3-16.2,10.8-33.2,16.5-49.6c5.4-15.8,11-31.5,17-47c12.3-31.4,26.1-62.1,41.3-92.1
			c-2.9-0.3-5.9-0.7-8.8-1c16.2,30.1,30.8,61.1,43.7,92.7c6.3,15.5,12.3,31.1,17.8,46.8c2.9,8.2,5.6,16.4,8.3,24.6
			c2.5,7.7,4.5,15.5,8.4,22.5c1.8,3.3,6.4,2.9,6.4-1.2c0-8.1-3.5-16.2-5.9-23.9c-2.7-8.3-5.4-16.5-8.3-24.7
			c-5.7-16.1-11.7-32-18.2-47.8c-13-31.7-27.6-62.7-43.6-92.9c-1.5-2.8-7.1-4.4-8.8-1c-15.5,30.2-29.3,61.2-41.4,92.9
			c-5.9,15.6-11.6,31.3-16.5,47.2c-5.3,16.9-10.7,34.1-13.7,51.5C-3944,1127.7-3939.3,1131.4-3937.8,1127.4L-3937.8,1127.4z"/>
	</g>
</g>
<g>
	<g>
		<path d="M-3941.7,1127.3c2.9-0.4,4.4-2.3,6.4-4.3c2.8-2.8,5.6-5.5,8.4-8.2c6-5.7,12.2-11.2,18.6-16.4c6.1-5,12.4-9.8,18.9-14.3
			c7-4.8,14.4-8.8,21.4-13.6c3.4-2.3,0.4-9.2-3.5-7.2c-14.2,7.3-27.5,17.9-39.5,28.3c-6.2,5.3-12.1,10.9-17.8,16.8
			c-4.9,5-11.7,10.9-13.8,17.8C-3942.6,1126.6-3942.4,1127.4-3941.7,1127.3L-3941.7,1127.3z"/>
	</g>
</g>
<g>
	<g>
		<path d="M-3872.3,1066.9c9.9-2,20.3,6.2,28.5,10.8c9,5.1,18,10.4,26.8,15.8c8.7,5.4,17.3,11,25.7,16.8c8.8,6,17.2,13.3,26.4,18.6
			c3.8,2.2,6.7-3,4-5.9c-7.3-7.8-17.9-13.7-26.7-19.6c-9.7-6.5-19.6-12.8-29.6-18.8c-9.6-5.8-19.5-11.3-29.4-16.6
			c-7.8-4.1-18.8-12-26.8-4.8C-3874.6,1064.5-3874.3,1067.3-3872.3,1066.9L-3872.3,1066.9z"/>
	</g>
</g>
<g>
	<g>
		<path d="M-3474.2,952.6c-0.9,17-0.5,34.1-0.6,51c-0.1,16.3-0.2,32.7-0.3,49c-0.2,33-1.4,66.2-0.2,99.2c0.1,3.9,5.2,5.3,5.4,0.8
			c1.1-34.2,0-68.4-0.2-102.6c-0.1-16-0.2-32.1-0.3-48.1c-0.2-16.8,0.4-33.7-0.6-50.4C-3471.3,949.4-3474.1,951.2-3474.2,952.6
			L-3474.2,952.6z"/>
	</g>
</g>
<g>
	<g>
		<path d="M-3553.6,1001.4c4.2,0.8,2.8,1.2,6.3,1.5c2.1,0.2,4.2,0.2,6.3,0.3c3.8,0.1,7.6,0.3,11.4,0.3c7.2,0.1,14.4,0.1,21.6,0.2
			c15.2,0.2,30.4,0.3,45.6,0.3c30.4,0.1,61.1,1.1,91.4-0.6c3-0.2,2.8-6.2-0.1-6.4c-30.5-1.9-61.4-0.7-91.9-0.6
			c-14.7,0-29.5,0.2-44.2,0.3c-7.4,0.1-14.9,0.2-22.3,0.2c-3.8,0-7.7,0.2-11.5,0.3c-2.1,0.1-4.2,0.1-6.2,0.3c-2.2,0.2-3.4,1-5.7,1.4
			C-3553.6,999.2-3554.9,1001.2-3553.6,1001.4L-3553.6,1001.4z"/>
	</g>
</g>
<g>
	<g>
		<path d="M-3551.7,1046.2c29.2,0.4,58.5,1.1,87.7,1.4c15.2,0.1,30.4,0.3,45.7,0.4c14.3,0.1,28.8,0.6,43.1-0.6
			c4-0.3,3.1-6.9-0.5-7.1c-29.6-1.8-59.6-0.4-89.3-0.1c-28.8,0.3-57.6,0.9-86.4,1.4C-3553.7,1041.6-3554.2,1046.2-3551.7,1046.2
			L-3551.7,1046.2z"/>
	</g>
</g>
<g>
	<g>
		<path d="M-3550.7,1092c30.4,2.4,60.9,2.2,91.4,2.4c30,0.3,60,0.5,89.9-0.4c4.1-0.1,2.9-7.2-0.8-7.3c-30.4-0.9-60.9-0.7-91.4-0.4
			c-29.5,0.3-58.9,0.3-88.3,2.4C-3551.3,1088.8-3552.4,1091.9-3550.7,1092L-3550.7,1092z"/>
	</g>
</g>
<g>
	<g>
		<path d="M-4001.4-235.3c-5.1,9.1-7.9,19.7-11.1,29.6c-3.5,10.9-7.1,21.7-10.6,32.6c-7,21.7-14.9,43.2-20.8,65.3
			c-1.3,4.9,7.9,9.2,9.9,4.1c8.3-21.3,14.2-43.7,21-65.5c3.2-10.3,6.4-20.6,9.6-30.8c3.1-9.9,5.2-20.8,9.9-30.1
			C-3991.3-234.6-3998.7-240-4001.4-235.3L-4001.4-235.3z"/>
	</g>
</g>
<g>
	<g>
		<path d="M-4122.4-196.6c64.7-2.8,129.6-4.8,194.2-9.5c6.3-0.5,3.6-9.2-1.7-9c-64.9,2.2-129.8,6.8-194.6,10.7
			C-4129-204.1-4126.5-196.4-4122.4-196.6L-4122.4-196.6z"/>
	</g>
</g>
<g>
	<g>
		<path d="M-3919.2-172.7c-36.1-7-73.5,21.2-83.1,55.2c-0.6,2.1,0.8,4.4,2.5,5.5c13.5,8.5,27.6-0.4,38.9-8.3
			c14.3-9.9,28.5-19.8,42.8-29.7c-2.5-2.3-5-4.6-7.4-6.9c-11,11-22.3,23-25.4,38.8c-0.7,3.5,3,8,6.8,6.4
			c30.7-12.5,61-26.2,90.5-41.3c-2.3-1.9-4.5-3.7-6.8-5.6c-1,6.8-2.9,13.2-5.9,19.3c-1.6,3.3,2,8.4,5.8,6.7
			c26.8-11.6,53.7-23.3,80.7-34.3c-1.6-2.5-3.2-5-4.8-7.5c-18.5,17.4-33.9,38.6-46.5,60.5c-1.5,2.6,1.3,5.8,3.6,6.6
			c12.4,4.2,25.2,3.4,37.1-2.2c3.6-1.7-0.1-9-3.6-7.6c-10.5,4.1-21.6,4.9-32.3,1.4c1.2,2.2,2.4,4.4,3.6,6.6
			c12.2-21.5,27.2-40.1,43.8-58.3c2.7-3-0.7-9.4-4.8-7.5c-26.8,11.9-54,23-81,34.3c1.9,2.2,3.8,4.5,5.8,6.7
			c3.5-6.9,5.9-14.1,7.2-21.7c0.6-3.4-3.4-7.2-6.8-5.6c-29.5,14.6-59.5,28.2-90,40.6c2.3,2.1,4.6,4.3,6.8,6.4
			c3-15.1,13.9-26.3,24.5-36.8c3.7-3.7-3.7-9.5-7.4-6.9c-11.9,8.3-23.8,16.5-35.8,24.8c-8.2,5.7-23.9,20.3-34.6,13.5
			c0.8,1.8,1.7,3.6,2.5,5.5c4.6-15.5,14.9-29,28.3-37.9c13.9-9.3,29.2-12.9,45.8-12.8C-3913.2-164.7-3915.3-171.9-3919.2-172.7
			L-3919.2-172.7z"/>
	</g>
</g>
<g>
	<g>
		<path d="M-3693.1-224.2c-7.6,6.2-13.4,15.7-18.9,23.8c-5.7,8.4-11.1,17-16.3,25.7c-5.3,8.8-10.4,17.7-15.6,26.6
			c-5.3,9.1-12.4,18.6-16.1,28.5c-1.4,3.9,4.6,9.8,7.7,5.8c6.7-8.7,11.4-19.4,16.8-28.9c4.9-8.7,9.8-17.5,14.8-26.2
			c4.8-8.3,9.7-16.5,14.9-24.5c2.7-4.2,5.5-8.4,8.4-12.5c3.1-4.3,6.8-8.5,9.1-13.3C-3687.2-221.7-3690.4-226.4-3693.1-224.2
			L-3693.1-224.2z"/>
	</g>
</g>
<g>
	<g>
		<path d="M-3775.8-178c21.6,2.5,43.4,3.3,65.1,4.3c3.8,0.2,3.4-6.5,0-6.8c-21.7-1.7-43.4-3.5-65.2-3.9
			C-3778.9-184.4-3778.6-178.3-3775.8-178L-3775.8-178z"/>
	</g>
</g>
<g>
	<g>
		<path d="M-3700.2-135.8c10.6-6.9,21.1-14,31.6-21c7.2-4.8,18.9-10.3,15.9-20.7c-0.6-2.1-2.6-3.4-4.7-3.3
			c-13.2,1-26.4,4.9-36.7,13.5c-4.6,3.8-8.5,8.6-11.2,14c-2.1,4-5.3,10.9-4.3,15.5c1.1,4.6,8,6.9,12,7.7c5.8,1.1,11.7,0.2,17.4-0.7
			c15.7-2.6,31.1-6.7,46.1-12.1c3.2-1.2,2.1-7.7-1.3-6.7c-12.6,3.9-25.3,7-38.2,9.6c-9.4,1.9-23.1,6.1-31.3-1
			c0.5,1.5,1.1,3.1,1.6,4.6c3.2-23.8,26.7-34.9,48.3-36.4c-1.6-1.1-3.1-2.2-4.7-3.3c1.1,3.9-7.2,8.2-9.6,9.9c-4.3,3-8.5,6-12.8,9
			c-7.2,5-14.4,10.1-21.5,15.3C-3706.3-140-3703.6-133.6-3700.2-135.8L-3700.2-135.8z"/>
	</g>
</g>
<g>
	<g>
		<path d="M-3534.3-195.3c-4.4-4.7-12.7-5.5-18.7-5.3c-6.8,0.3-13.7,1.8-20.1,3.9c-11.2,3.7-26.7,10.7-31.9,22.2
			c-5.6,12.2,4.9,19.7,13.4,26.1c2.4,1.9,6.2,5.1,5.4,8.6c-0.7,3.4-6,5.4-8.6,6.6c-7.1,3.3-14.8,4.7-22.6,4.9
			c1.8,1.9,3.6,3.8,5.4,5.7c0.7-3.5,2.9-5.7,5.9-7.3c3.8-2,0.4-8.8-3.5-7.2c-5.3,2.1-9,5.9-11.4,11c-1.5,3.2,2.1,6.7,5.1,6.8
			c7,0.1,14-1,20.7-3.2c5.4-1.8,12.1-4.4,15.9-8.9c9-10.5-3.5-21.3-11.4-27.1c-5.5-4-7.7-8.6-2.8-14.4c4.2-5.1,10.6-8.7,16.5-11.6
			c11.8-5.7,27.8-10.8,40.1-4.1c1.8,1,3.9,0.7,4.8-1.3C-3531.1-192-3532.9-193.8-3534.3-195.3L-3534.3-195.3z"/>
	</g>
</g>
<g>
	<g>
		<path d="M-3546.2-161.1c14.7-2.9,29.5-5.7,44.2-8.5c15.5-3,31.1-6.5,46.8-8.3c3.2-0.4,2.3-6.8-0.7-6.8c-14.7,0-29.1,3.9-42.2,10.3
			c-10.6,5.3-25.2,13-27.1,26c-0.3,1.8,1.2,3.8,2.7,4.7c6.4,3.5,13.2,5.9,20.4,6.8c3.7,0.5,8.2-0.1,11.6,1.2
			c5.6,2.2,0.4,6.2-2.5,7.9c-13.9,8.4-29.7,12-45.8,13.3c1.7,1.4,3.4,2.8,5.1,4.2c-0.2-2-0.7-3.8-1.2-5.7c-0.8-3.1-4.9-3.8-5.6-0.3
			c-0.4,1.9-0.5,3.6-0.5,5.5c0,1.9,2.2,4.3,4.1,4.3c10.4-0.1,20.8-2.2,30.5-5.6c7.8-2.7,19.5-6.7,24.5-13.7
			c4.8-6.7-0.3-14.9-7.1-17.5c-4.5-1.7-9.5-1.2-14.2-1.8c-6.1-0.8-11.7-2.8-17-5.8c0.9,1.6,1.8,3.1,2.7,4.7
			c0.8-5.6,6.2-9.4,10.4-12.5c4.7-3.5,9.8-6.5,15-9c11.5-5.6,24-8.7,36.7-10c-0.5-2.2-0.9-4.5-1.4-6.7c-15,5.1-30.8,8-46.2,11.7
			c-14.3,3.4-28.7,6.8-43.1,10.2C-3546.6-162.7-3547.5-160.9-3546.2-161.1L-3546.2-161.1z"/>
	</g>
</g>
<g>
	<g>
		<path d="M-3461.1-154.4c10.8-4.7,22.2-7.7,34-8.4c-0.7-1.7-1.3-3.5-2-5.2c-7.4,13.3-14.7,26.3-24,38.4c-2.9,3.8-7.2,8.1-3.1,12.8
			c3.3,3.7,6.9,0.9,6.8-3.3c0-1.2-1-2.7-2-3.2c-0.1-0.1-0.3-0.1-0.4-0.2c-4.3-2.2-5.2,4.2-2.2,6.3c0.2,0.1,0.4,0.3,0.5,0.4
			c-0.6-1.7-1.2-3.4-1.9-5c-0.1,0.2-0.1,0.5-0.2,0.7c1.1-0.7,2.1-1.3,3.2-2c-0.7-0.1-1.4-0.3-2.1-0.4c1.3,1.8,2.5,3.6,3.8,5.4
			c0.2-1.4,2.4-3.5,3.2-4.7c1.3-1.9,2.6-3.8,3.8-5.7c2.5-3.9,4.9-7.8,7.2-11.8c4.3-7.7,8.2-15.7,11.3-23.9c0.5-1.4,0-5-2.3-4.5
			c-11.9,2.4-23.3,5.9-34.1,11.3C-3463.1-156.9-3463.3-153.5-3461.1-154.4L-3461.1-154.4z"/>
	</g>
</g>
<g>
	<g>
		<path d="M-3386-203.4c0.4-0.2,0.3-0.2-0.1,0c0.1,0,0.2-0.1,0.3-0.1c-0.3,0-0.2,0,0.1,0c-0.2,0-0.3,0-0.5,0c0.8,0.1-0.7-0.3-0.1,0
			c1,0.4-0.4-0.3-0.1-0.1c0.8,0.6-0.5-0.6-0.2-0.3c0.1,0.1,0.3,0.3,0.4,0.4c0.2,0.2,0.1,0.1-0.2-0.3c-0.1-0.2-0.2-0.5-0.2-0.7
			c0-0.4,0-0.5,0-0.2c0.2-0.7,0.2-0.8,0.1-0.4c-0.6,1.9,0.2,4.1,1.8,5.3c1.3,1,3.7,1.5,4.8-0.2c2.2-3.5,0.8-7.7-2.3-10.1
			c-2.7-2.1-6.5-2.6-9,0c-1.4,1.4-0.6,4,0.5,5.3C-3389.7-203.3-3387.7-202.3-3386-203.4L-3386-203.4z"/>
	</g>
</g>
<g>
	<g>
		<path d="M-3362.2-168.6c2.8-4.8,3-9.9,1.2-15.1c-0.4-1.1-1.4-1.6-2.5-1.4c-27.5,6.3-51,28.2-63.4,53c-1.6,3.2,1.5,8.1,5.3,6.8
			c27.5-8.7,52.8-23.8,73.9-43.4c-2.3-2.2-4.6-4.5-6.9-6.7c-6.4,8.6-10.6,17.9-12.8,28.4c-0.7,3.2,3.6,6.4,6.6,5.5
			c24.2-7.5,47.6-17,70.3-28.1c-2.6-1.7-5.2-3.3-7.8-5c-1,8.2-2,16.5-3,24.7c-0.5,4,3.8,7.7,7.7,6c12.9-5.6,25.7-11.9,38.7-17.2
			c0.8-1.5,1.2-1.6,1.1-0.5c0,0.7,0.1,1.4,0.1,2.1c0.1,1.2,0.2,2.5,0.5,3.6c0.5,1.7,1.2,3.4,2.3,4.9c2.6,3.7,6.5,5.9,10.8,7.2
			c10.4,3.1,21.6,0.7,32-0.6c15-1.9,29.9-3.9,44.9-6c5.2-0.7,2.9-8.8-1.6-8.3c-15.6,1.6-31.2,3.4-46.8,5.3c-6.1,0.7-12.2,1.9-18.3,2
			c-3.7,0.1-9.4,0-12.3-2.8c-3-2.9-1-8.4-3.3-12c-2.9-4.6-8.3-5.5-13.1-4c-6.4,1.9-12.7,5.4-18.8,8.1c-7.2,3.2-14.4,6.3-21.5,9.6
			c2.6,2,5.1,4,7.7,6c0.8-8.7,1.7-17.3,2.5-25.9c0.4-4-4.5-6.6-7.8-5c-21.9,10.8-44.7,19.8-68,27.2c2.2,1.8,4.4,3.7,6.6,5.5
			c1.7-8.7,5.2-16.9,10.4-24.1c3-4.1-3-10.4-6.9-6.7c-20.3,19.1-44.4,33.2-70.8,42.1c1.9,2,3.8,4,5.7,6
			c5.7-12.4,14.1-23.6,24.4-32.6c9.8-8.6,21-14.3,32.9-19.5c-0.7-0.3-1.4-0.5-2.2-0.8c2,3.3,2.2,7.5,0.8,11.2
			C-3364.3-167.8-3362.8-167.7-3362.2-168.6L-3362.2-168.6z"/>
	</g>
</g>
<g>
	<g>
		<path d="M-2441.7-151.7c7-8.4,7-20.1,1.6-29.4c-5.5-9.3-15.4-14.8-25.9-16.5c-23.7-3.8-46.9,11.8-64.9,25.2
			c-18.7,13.9-35.4,31.2-47.1,51.5c-5.4,9.3-10.7,20.8-6.3,31.5c3.9,9.6,13.9,14.1,23.8,14.9c27.9,2.3,55.8-13.2,77.8-28.8
			c3.8-2.7-1-9.7-4.9-7.2c-17.3,11.1-35.8,21.6-56.2,25.5c-8.2,1.6-19.1,3.3-26.8-1.2c-9.6-5.5-4.4-18.6-0.4-26
			c9.1-16.9,22-31.7,36.5-44.1c14.7-12.5,32.4-25.6,51.2-30.8c9.9-2.8,21.5-2.6,30,3.7c7.9,5.9,10.7,17.4,6.1,26.1
			C-2448.9-154.2-2444.5-148.4-2441.7-151.7L-2441.7-151.7z"/>
	</g>
</g>
<g>
	<g>
		<path d="M-2519.8-122.5c25.1-0.8,50.2-3.4,75.3-5c-1.5-2.8-3-5.6-4.5-8.4c-15.1,11.6-28.8,25.3-40.8,40
			c-6.2,7.6-12,15.5-17.2,23.7c-2.6,4-5,8-7.4,12.2c-2,3.6-5.3,8-5.5,12.1c-0.1,3.6,4.7,8.2,8,4.7c3-3.1,4.7-7.3,6.8-11
			c2.3-4.1,4.7-8.1,7.2-12c4.8-7.7,10.1-15.1,15.8-22.2c11.8-14.8,25.3-27.8,39.9-39.8c3.8-3.1-0.3-8.8-4.5-8.4
			c-24.8,2.3-49.9,3.1-74.6,6.5C-2525.7-129.6-2523.7-122.4-2519.8-122.5L-2519.8-122.5z"/>
	</g>
</g>
<g>
	<g>
		<path d="M-2377-124c9.8-5.6,2.1-18.6-6.5-20.3c-7.1-1.4-13.9,2.1-20.1,5.1c-5.3,2.6-10.6,5.4-15.7,8.4
			c-19.6,11.4-39.1,27.4-42.1,51.3c-0.4,2.9,2.3,6.6,5.6,5.9c21.3-4.2,40.9-13.3,58.1-26.6c-2.7-1.6-5.3-3.2-8-4.7
			c-1.3,6.5-2.6,13-3.9,19.5c-0.5,2.4,1.8,5,4,5.6c7,2,13.5,0.2,20-2.5c7.1-3,14.1-6.3,21.1-9.7c14.2-6.9,28.1-14.4,41.6-22.4
			c26.9-15.9,52.5-33.9,76.5-53.8c4.1-3.4-0.6-9.4-5.1-8.3c-27.8,7-54.6,27.6-65.2,54.8c-4.9,12.6-2.5,29,13.1,31.7
			c7.1,1.2,14.2-0.9,21-3.1c8.8-2.8,17.6-6,26.2-9.5c18.8-7.6,36.9-16.9,54.3-27.5c-2-2.2-4.1-4.4-6.1-6.6
			c-5.4,10-10.1,20.4-14.2,31c-1.5,4,3.7,9.2,7.4,5.9c3.4-3,6.6-6.2,9.6-9.5c2.2-2.4-0.7-9-4-6.7c-4.3,2.9-8.4,6.1-12.3,9.5
			c2.5,2,4.9,3.9,7.4,5.9c3.9-10.6,8.5-20.9,13.8-30.8c1.7-3.2-2.6-8.8-6.1-6.6c-16.5,10.1-33.8,18.8-51.6,26.2
			c-9.2,3.8-18.5,7.2-28,10.1c-6.4,2-19.5,7.1-22.9-1.8c-2.6-6.8,1.9-15.6,5.2-21.3c4-7,8.9-13.4,14.6-19.1
			c11.5-11.6,26.2-19.8,42-23.8c-1.7-2.8-3.4-5.5-5.1-8.3c-22.6,18.8-46.6,35.9-71.7,51.1c-12.4,7.5-25.2,14.6-38.1,21.1
			c-6.3,3.2-12.8,6.3-19.2,9.3c-6.8,3.1-15.2,8.5-23,6.3c1.3,1.9,2.7,3.7,4,5.6c1.3-6.5,2.5-12.9,3.8-19.4c0.8-4.3-4.8-7.2-8-4.7
			c-15.7,12.3-34.2,20.7-53.8,24.6c1.9,2,3.7,3.9,5.6,5.9c2-16.8,13.2-29.4,26.5-39.1c7.3-5.3,15.1-9.8,23-13.9
			c3.9-2,7.7-4.2,11.8-5.8c3.3-1.3,7.7-2.4,10.9-0.3c2.2,1.4,2.8,5.3,1.4,7.3C-2380.5-126.4-2379.4-122.7-2377-124L-2377-124z"/>
	</g>
</g>
<g>
	<g>
		<path d="M-2166.6-182c-0.5,0.4-1.1,0.8-1.5,1.2c-0.7,0.6-1.1,1.5-1.7,2.2c-0.5,0.7-0.6,1.9-0.5,2.6c0.2,0.8,0.5,1.6,1.1,2.3
			c1,1.2,2.8,1.9,4.1,0.8c0.5-0.4,1-0.8,1.5-1.2c0.8-0.6,1.3-1.5,1.8-2.3c0.5-0.7,0.6-1.9,0.4-2.7c-0.2-0.9-0.5-1.6-1.1-2.3
			C-2163.4-182.5-2165.2-183.1-2166.6-182L-2166.6-182z"/>
	</g>
</g>
<g>
	<g>
		<path d="M-2092.1-156.2c-14.6-3.3-29,2.9-41,10.8c-11.9,7.8-22,18.3-29.4,30.5c-3.2,5.3-6.9,11.4-4.6,17.8
			c2.1,5.8,7.7,9.7,13.6,10.8c7.2,1.4,14.9-0.7,21.9-2.6c8.3-2.2,16.4-5,24.3-8.4c4.7-2.1,0.3-9.9-4.1-8
			c-11.6,4.9-24.5,9.5-37.2,10.5c-5.1,0.4-11.9-1-10-7.5c1.4-4.8,5.2-9.9,8.1-13.9c12.4-17.4,35.5-36.1,58.2-32.6
			C-2087.7-148.1-2088.3-155.4-2092.1-156.2L-2092.1-156.2z"/>
	</g>
</g>
<g>
	<g>
		<path d="M-2051.7-131c1,0.7,1.9,1.3,2.9,2c-0.4-1.5-2.2-2.5-3.6-1.8c-0.4,0.2-0.7,0.4-1.1,0.5c-1.8,0.9-1.5,4.3-0.3,5.5
			c6.4,6.8,18-4.5,21.9-9.5c2.6-3.3-3.2-9.3-6.5-6.3c-7.1,6.6-12.8,15.5-18.1,23.6c-5.3,8.1-10.3,16.5-14.5,25.2
			c-2.5,5.2,4.9,10.2,8.7,5.8c1.4-1.6,2.7-3.2,4-4.8c3.1-3.8-2.6-10.4-6.5-6.9c-1.8,1.7-3.7,3.3-5.5,5c2.7,2.2,5.3,4.4,8,6.7
			c4.5-8.7,9-17.3,14.3-25.5c5-7.8,11.4-14.8,16.1-22.8c-2.4-1.8-4.7-3.7-7.1-5.5c-2.2,4.6-7.5,9-12.7,9.5c1,0.6,1.9,1.2,2.9,1.7
			c-0.3-0.4-0.7-0.8-1-1.3c-0.4,1.9-0.8,3.7-1.2,5.6c0.4-0.1,0.7-0.3,1.1-0.4C-2046.9-125.7-2048.8-131.1-2051.7-131L-2051.7-131z"
			/>
	</g>
</g>
<g>
	<g>
		<path d="M-2005.6-188.6c-0.7,6.3-0.6,12.8-0.8,19.1c-0.1,4.9,8.5,7.2,8.4,1.4c-0.2-6.1-0.1-12.4-0.7-18.5
			c-0.2-1.8-1.3-3.8-3.2-4.3C-2003.6-191.3-2005.4-190.4-2005.6-188.6L-2005.6-188.6z"/>
	</g>
</g>
<g>
	<g>
		<path d="M-1964.4-125c1.2-4,2.3-7.9,3.5-11.9c0.6-1.9-0.5-5.8-3.2-5.5c-28.2,3.8-53.4,24.9-64.9,50.4c-1.6,3.5,1.6,7.9,5.5,6.8
			c21.6-6.1,41.3-17.3,57.8-32.4c-2.5-1.7-5-3.3-7.5-5c-1.6,6.5-3.3,13-4.9,19.5c-0.9,3.3,2.5,8,6.4,6.6c21.7-8,43.3-16.3,65-24.5
			c-2.4-1.7-4.8-3.5-7.3-5.2c-0.7,6.5-1.5,12.9-2.3,19.4c-0.5,4.3,4,7.3,7.9,5.9c18.8-6.6,37.6-13.3,56.4-20c4.3-1.5,8.6-3.1,13-4.6
			c1.1-0.4,2.2-0.8,3.3-1.1c1.6,0,1.9-0.3,0.7-1c0.7,1,0.3,3.9,0.4,5c0.6,6.2,3.9,11.1,9.6,13.7c5.8,2.7,12.5,2.7,18.7,1.9
			c8.8-1.2,17.7-3.6,26.4-5.6c20.2-4.6,40.2-10.1,60.1-16.1c5-1.5,0.3-9.3-4.3-8c-18.6,5.1-37.3,9.6-56,13.9
			c-9.1,2.1-18.3,4.4-27.6,6.1c-4,0.7-12.9,2-15.5-2.2c-1.4-2.3-0.7-5.9-1.2-8.4c-0.7-3.9-3-7-6.8-8.4c-3.3-1.3-6.5-0.8-9.8,0.3
			c-6,1.9-11.9,4.2-17.8,6.3c-18.4,6.5-36.9,13-55.3,19.6c2.6,2,5.3,3.9,7.9,5.9c0.6-7,1.3-14,2-21c0.4-3.4-4.2-6.3-7.3-5.2
			c-21.4,8.1-42.9,16.1-64.2,24.5c2.2,1.8,4.4,3.7,6.6,5.5c1.5-6.6,2.9-13.2,4.4-19.7c0.9-3.7-4.5-7.8-7.5-5
			c-15.8,14.6-34.6,25.1-55.3,31.2c2,2,4,3.9,5.9,5.9c10.7-25.1,33-41.5,59-47.9c-1.4-1.5-2.8-3-4.2-4.5c-0.8,4.2-1.5,8.4-2.3,12.6
			C-1969.5-124.3-1965.5-121.4-1964.4-125L-1964.4-125z"/>
	</g>
</g>
<g>
	<g>
		<path d="M-2546.9,46.2c-16.8,6.7-43.2,27.6-33.2,48.5c4.6,9.6,14.8,15.1,24.3,18.8c11.2,4.3,23.1,6.4,34.9,7.5
			c12.3,1.1,24.7,0.8,36.9,2.3c7.7,1,10.6,4.8,12.4,12.1c1.9,7.8,3.5,15.7,7.2,23c4.8,9.6,11.9,18.3,19.7,25.7
			c7.3,7,15.5,12.8,23.4,19.1c6.3,5,12.5,10.8,14,19.1c0.9,5.3,10.9,7.5,10.2,0.9c-1.6-16.9-15.4-25.7-27.7-35.2
			c-15-11.5-29-25.7-34-44.4c-1.7-6.5-2.6-13.5-6.2-19.3c-3.9-6.2-10.4-9.2-17.5-10.3c-23.9-3.6-48.3-0.3-71.5-9
			c-6.1-2.3-13-5.3-17-10.7c-4-5.4-2.7-11.7,0.4-17.2c6.1-10.7,16.2-18.9,27.5-23.7C-2539,51.7-2542.9,44.6-2546.9,46.2
			L-2546.9,46.2z"/>
	</g>
</g>
<g>
	<g>
		<path d="M-2619,251.6c0-17.3,14.8-29.1,28.1-37.9c14.9-9.9,31.3-17.7,45.6-28.6c17-13,32.4-27.9,49.2-41
			c8-6.3,16.5-11.9,25.4-16.8c10.2-5.6,21.4-9,31.5-14.6c10.4-5.8,16.5-14.9,18.4-26.6c1-5.9,1.2-11.8,1.8-17.7
			c0.6-5.8,2-11.4,3.4-17c1.2-4.8-6.4-9.1-9.3-4.6c-6,9.1-5.7,20.3-6.6,30.8c-1.1,12-4.8,21.5-16,27.4c-10.2,5.3-21.1,9-31.1,14.8
			c-8.8,5-17.2,10.9-25.2,17.2c-16.5,13.1-31.4,28.1-48.1,41.1c-13.9,10.9-29.8,18.7-44,29.2c-14.8,11-28.5,25.8-25.9,45.7
			C-2621.5,255.1-2619,253.1-2619,251.6L-2619,251.6z"/>
	</g>
</g>
<g>
	<g>
		<path d="M-2473.6,35.6c-2.4,9.1-3.4,18.7-5.1,28c-1.4,7.9-2.8,15.8-4.4,23.6c-3.3,16.6-7.2,33.2-11.3,49.6
			c-4.2,16.7-9,33.3-14.1,49.8c-2.4,7.6-4.8,15.1-7.4,22.6c-3,8.7-7.2,17.4-7.9,26.7c-0.3,3.5,5.4,7.2,7.7,3.6
			c5.1-8.4,7.7-17.9,10.7-27.3c2.6-7.9,5.1-15.9,7.4-23.9c4.8-16.4,9.1-33,12.9-49.6c3.7-16,6.8-32.1,9.5-48.2
			c1.4-7.9,2.6-15.9,3.7-23.8c1.3-9.7,3-20,3-29.8C-2468.9,34.1-2472.8,32.5-2473.6,35.6L-2473.6,35.6z"/>
	</g>
</g>
<g>
	<g>
		<path d="M-2317,222.8c-0.4,4.3-3.6,5.9-7.5,6.1c0.5,1.7,1,3.4,1.6,5.1c23.5-26.9,44.1-56.4,63.9-86.1
			c19.8-29.8,38.3-60.5,55.5-91.8c-3.1-0.8-6.1-1.6-9.2-2.4c5.9,29,10.7,58.2,13.9,87.6c1.5,14.3,2.7,28.5,3.5,42.9
			c0.8,14.8,0.5,29.8,1.6,44.6c0.4,5.1,9.3,8.3,9.6,1.9c0.8-15-0.3-30.3-1.1-45.3c-0.8-15-2.1-29.9-3.7-44.8
			c-3.2-29.5-7.7-59-14.1-87.9c-0.7-3.4-7.2-6.2-9.2-2.4c-16.5,31.4-34.3,62-53.4,91.9c-19.1,29.9-40.2,58.4-60.4,87.6
			c-1,1.5-0.6,6.1,2.2,5c4.4-1.9,7.3-7.4,7.4-12C-2316.5,222.5-2317,222.6-2317,222.8L-2317,222.8z"/>
	</g>
</g>
<g>
	<g>
		<path d="M-2265.1,167.5c2,4.9,7.1,3,8.7-1c1.1-2.5,1.3-4.8,4.2-5.8c1.6-0.6,4.8-0.2,4.3,2.2c-0.3,1.5-2.4,1.9-3.6,1.2
			c-1.6-1-1.3-4.4-4.1-3.9c-2.3,0.4-2.2,3.6-1.8,5.3c0.5,2.3,2.3,4.3,4.4,5.3c3.2,1.6,7.2,1.2,9.5-1.6c3-3.7,2.1-9.2-0.7-12.7
			c-2.7-3.3-7.1-4.6-11-2.9c-1.9,0.8-3.6,2.2-4.7,3.9c-0.7,1-1.2,2.1-1.5,3.3c-0.2,0.8-0.1,3.5-1.5,3.2c0.5,0.3,1,0.6,1.5,0.9
			c-0.1-0.1-0.2-0.3-0.3-0.4C-2263.3,161.8-2265.9,165.3-2265.1,167.5L-2265.1,167.5z"/>
	</g>
</g>
<g>
	<g>
		<path d="M-2071.4,59.6c-1.6,32.2-4.5,64.4-9.1,96.3c-2.3,16-4.9,31.9-7.9,47.7c-1.5,7.8-3,15.5-4.7,23.2c-1.7,7.8-4,15.5-4.6,23.5
			c-0.2,2.5,3.7,5.7,5.1,2.4c3.2-7.8,4.1-16.6,5.7-24.9c1.5-7.9,2.9-15.8,4.2-23.7c2.7-15.9,5-31.8,7-47.8c4-32.2,6.6-64.6,7.9-97.1
			C-2067.7,56.1-2071.3,56.9-2071.4,59.6L-2071.4,59.6z"/>
	</g>
</g>
<g>
	<g>
		<path d="M-2085.4,57.2c21.3,22.8,43.2,45,64.9,67.4c1.3,1.4,3.5,2,5,0.5c25.8-27.3,54-52,84.8-73.4c-2.3-1.5-4.5-3-6.8-4.5
			c-0.8,33.1-6.8,65.9-12.7,98.4c-6,32.9-11.9,65.8-17.9,98.7c-1.1,5.9,8.2,9.7,9.4,3c5.9-33,11.7-66,17.5-99
			c5.8-32.9,11.3-65.7,11.7-99.2c0-3.2-3.8-6.6-6.8-4.5c-30.9,21.6-59.6,46.4-84.9,74.4c1.7,0.2,3.3,0.3,5,0.5
			c-22.2-22.1-44.1-44.5-66.7-66.1C-2084.8,51.2-2087,55.4-2085.4,57.2L-2085.4,57.2z"/>
	</g>
</g>
<g>
	<g>
		<path d="M-1212.4-69.5c15.4-18.4,29-38.3,44.2-56.8c15.3-18.7,31.6-36.7,48.6-54c-2.3-1-4.6-2-6.9-3c1.2,19.5,2.4,39.1,3.5,58.6
			c0.8,12.9,0.2,30.2,13.4,37.3c1.1,0.6,2.6,1,3.7,0.1c7.6-6,12.6-13.9,17.1-22.3c5.5-10.5,10.5-21.3,15.5-32
			c10.3-21.8,21.8-43.8,29-66.8c0.8-2.5-2.8-8.2-4.9-4.5c-11.4,20.3-19.8,42.5-29.7,63.5c-4.8,10.2-9.6,20.3-14.5,30.4
			c-4.4,9-9.4,18.1-17.4,24.5c1.2,0,2.5,0.1,3.7,0.1c-5.5-3-6.8-9.2-7.5-14.9c-0.9-7.6-1.1-15.3-1.5-22.9c-1-16.9-2-33.9-3-50.8
			c-0.2-3.3-4.5-5.5-6.9-3c-16.9,17.1-32.8,35-47.8,53.8c-15.2,18.9-30.3,38.8-41.5,60.3C-1216.3-70.1-1214.3-67.3-1212.4-69.5
			L-1212.4-69.5z"/>
	</g>
</g>
<g>
	<g>
		<path d="M-979.5-147.1c-18.9-7.6-41.1-3.3-55.2,11.7c-9.3,10-23.1,37.4-6.4,47.1c15.1,8.8,34.9-6.1,44.3-16.9
			c6.3-7.2,11-15.7,13.8-24.9c1.6-5.5,1.7-10.9,8.1-12.9c5.7-1.8,12-2.6,17.9-3.8c3.8-0.8,7.6-1.6,11.4-2.4c3-0.6,6.4-1.9,9.5-2
			c6.2-0.1,4.5,5.6,4.3,9.8c-0.2,3.3-0.3,6.5-0.5,9.8c-0.9,14.8-1.8,29.7-2.7,44.5c-0.2,3.9,5,6.8,5.9,2c8.9-45,49.7-78.9,94.7-83.6
			c3.2-0.3,2.3-6.9-0.8-6.8c-48.8,1.2-91.2,41.3-99.8,88.5c2,0.7,4,1.3,5.9,2c0.6-12.6,1.2-25.3,1.8-37.9c0.3-5.9,0.6-11.7,0.9-17.6
			c0.2-4.3,1.2-9.4-0.8-13.4c-1.5-2.9-4-4.3-7.2-4.3c-6,0.1-12.4,2.3-18.2,3.5c-5.7,1.2-11.4,2.3-17.1,3.5
			c-4.2,0.9-9.1,1.4-12.4,4.3c-2.7,2.4-3.8,6-4.7,9.4c-1.2,4.8-2.6,9.4-4.8,13.9c-4.4,9-11,16.9-19.1,22.8c-6.7,4.9-15,9.3-23.5,8.2
			c-12.7-1.6-9.5-16-6-24.5c9.5-23.2,36.4-33.6,59.4-24.5C-978.1-140.6-976.9-146.1-979.5-147.1L-979.5-147.1z"/>
	</g>
</g>
<g>
	<g>
		<path d="M-790.7-153.4c-8.9,16.7-18.8,33.3-26.5,50.7c1.9,1,3.7,1.9,5.6,2.9c0.3-1.4,0.7-2.8,1-4.2c0.6-2.4-2.6-7.1-4.3-3.5
			c-0.8,1.6-1.5,3.2-2.3,4.7c-1.3,2.8,3,7.9,5,4.5c9.5-16.6,17-34.8,25.2-52.1C-785.8-153.1-789-156.8-790.7-153.4L-790.7-153.4z"/>
	</g>
</g>
<g>
	<g>
		<path d="M-768.3-206.4c0.5,4.7,2.4,8.9,5.9,12.2c1.4,1.3,3.7,2,5.1,0.3c1.3-1.6,0.7-4.4-0.7-5.7c-1.7-1.5-3-3.4-3.4-5.7
			c-0.3-2-1.4-4.1-3.6-4.4C-767-210-768.5-208.3-768.3-206.4L-768.3-206.4z"/>
	</g>
</g>
<g>
	<g>
		<path d="M-677.8-145.6c2.6-5.8,1.3-12-3.2-16.6c-5.1-5.1-12.3-5.9-19-4.1c-14.5,4-27.3,17.8-33.3,31.2
			c-6.8,15.1,5.3,26.6,20.3,26.3c18-0.3,36.6-6.5,52.7-14.1c3.3-1.6,1.5-8.4-2-7c-8.7,3.7-66.6,25.3-66.3,4.6
			c0.1-5.5,4.6-11.8,7.9-16c3.1-4,6.8-7.7,10.8-10.8c4.4-3.4,9.8-6.7,15.4-7.5c5.9-0.8,14.9,2.9,12.4,10.5
			C-682.9-146.5-679.3-142.1-677.8-145.6L-677.8-145.6z"/>
	</g>
</g>
<g>
	<g>
		<path d="M-1146.6,116.3c-3.7,13.5-4.2,28.3-5.9,42.2c-1.8,14.9-3.5,29.9-5.2,44.8c-3.3,29.2-6.3,58.4-9.2,87.6
			c-0.5,5.2,8.7,8.4,9.2,2.4c2.5-29.5,5.2-59,8.2-88.4c1.4-14,2.8-28.1,4.3-42.1c1.5-14.6,4.2-29.7,4.1-44.5
			C-1141.1,115.7-1145.6,112.6-1146.6,116.3L-1146.6,116.3z"/>
	</g>
</g>
<g>
	<g>
		<path d="M-910.4,131.9c-26.1-22.8-65.4-27.5-95.6-10c-28.6,16.6-47,51.1-40.5,84.1c3.4,17.4,14.5,31.7,29.8,40.4
			c16,9.1,34.4,11.5,52.5,10.3c32.8-2.3,80.9-15.4,83.6-55.5c1.3-19.4-11.8-35-25.3-47.2c-15.1-13.6-31.5-28.5-51.2-35
			c-2.2-0.7-4.2-0.3-5,2.1c-15.6,45.7-26.7,92.6-29,141c-0.2,4.8,8.2,8.8,8.5,3.2c3-47.7,11.4-95.7,28.5-140.6
			c-1.7,0.7-3.3,1.4-5,2.1c15.7,6.2,28.5,16.7,41.2,27.5c11.2,9.6,24.6,20.7,27.8,35.9c3.4,15.8-6,31.3-18.4,40.4
			c-13.4,9.9-30.6,13.9-46.8,16.3c-30.3,4.5-70.7-1.3-81.6-35.1c-9.3-29,6.1-61.3,29.8-78.4c27.9-20.2,67.4-17.7,93.8,4
			C-909.9,139.9-907.8,134.1-910.4,131.9L-910.4,131.9z"/>
	</g>
</g>
<g>
	<g>
		<path d="M-846.9,111.1c2.7,6.1,9.1,11.3,13.6,16.2c4.9,5.4,9.8,10.7,14.7,16.1c4.5,4.9,8.7,10.6,13.8,14.9
			c4.1,3.5,8.1,3.1,12.8,0.9c12.3-5.9,24.3-12.7,36-19.8c6-3.6,12-7.4,17.8-11.3c5.4-3.6,12.2-7.3,15.8-12.9
			c1.1-1.7-0.4-6.2-2.9-5.4c-6.1,2.1-11.3,6.3-16.7,9.8c-4.9,3.2-9.8,6.3-14.8,9.4c-10,6.1-20.1,11.8-30.5,17.2
			c-2.5,1.3-4.9,2.5-7.4,3.8c-1,0.5-2.2,1.4-3.3,1.6c-3,0.7-3.4-0.5-5.1-2.2c-4.9-5.1-9.8-10.2-14.7-15.3
			c-3.9-4.1-7.8-8.2-11.8-12.2c-4.4-4.6-9-11.3-14.7-14.3C-846.2,106.3-847.6,109.6-846.9,111.1L-846.9,111.1z"/>
	</g>
</g>
<g>
	<g>
		<path d="M-792.5,73.6c1.6,38.8-6.5,76.8-16.8,113.9c-5,18-10.4,35.9-15.4,54c-2.5,9-4.9,18-7.1,27.1c-2.1,8.9-5.4,18.8-2.4,27.8
			c1.1,3.2,6.2,5,7,0.6c0.9-5.1,0.9-10.2,1.8-15.3c0.9-4.9,2.1-9.7,3.2-14.5c2.1-8.9,4.4-17.8,6.8-26.7c4.8-17.8,9.9-35.5,14.5-53.3
			c9.6-37.2,17.1-76,12.4-114.5C-788.9,69.4-792.6,70.6-792.5,73.6L-792.5,73.6z"/>
	</g>
</g>
<g>
	<g>
		<path d="M-525.6,73c-12.4-4.6-14.2,19.3-15.6,26.3c-3,15.1-6.2,30.1-9.3,45.2c-7,33.5-14.2,67-20.7,100.6
			c-1.7,8.6-3.3,17.3-4.8,25.9c-1.3,7.6-3.5,15.7-3.5,23.5c0,3.3,5.9,8.3,7.3,3.3c1.9-7,2.4-14.8,3.5-22c1-6.5,2.1-13.1,3.2-19.6
			c2.5-14.5,5.1-28.9,7.8-43.3c5.5-29.4,11.4-58.8,16.8-88.3c1.5-8,2.9-15.9,4.3-23.9c1-5.9,1.6-25.8,9.8-24.6
			C-525.3,76.3-523.9,73.7-525.6,73L-525.6,73z"/>
	</g>
</g>
<g>
	<g>
		<path d="M-544,72.5c-12.4-1.9-24.8,6.4-34.1,13.6c-11,8.5-21.4,19.1-28.2,31.4c-2.1,3.8-4.8,8.9-4.3,13.4
			c0.4,3.7,2.7,7.2,4.7,10.1c6.8,9.5,15.9,17.9,25.2,25c5,3.8,10.2,7.5,15.8,10.3c4.2,2.1,10.4,4.9,15.1,3c4.4-1.7,1.5-9-2.8-7.9
			c-3,0.7-6.5-1.3-9.1-2.7c-4.2-2.3-8.2-4.9-12.1-7.8c-8.4-6.4-16.7-13.5-23.3-21.8c-1.6-2.1-4.2-4.8-4.6-7.5c0,0.2,0-0.1,0.2-0.9
			c0.2-1,0.6-2,1-3c0.9-2.3,2-4.5,3.2-6.6c6-10.4,14.6-19.7,23.8-27.4c8-6.7,18.8-14.7,29.7-14.7C-540.8,78.9-541.3,72.9-544,72.5
			L-544,72.5z"/>
	</g>
</g>
<g>
	<g>
		<path d="M-572.6,286.7c-1.8,0-3.6-1.6-5.4-2.1c-2.4-0.7-4.7-1.4-7.1-2.3c-6.2-2.3-12.1-5.3-17.8-8.6
			c-11.1-6.5-22.6-14.1-31.3-23.7c-1.4-1.5-2.8-3.2-3.8-5c-0.9-1.6-1.2-2.4-1-3.6c0.7-3.5,4.7-7.8,7.1-10.7
			c9-10.5,19.9-19.7,30.9-28c5.4-4.1,10.8-8.3,16.7-11.8c1.3-0.8,3-1.3,4.1-2.2c2.5-1.8,2.2-6.1-1-7.3c-2.5-1-5.9,1.2-8.2,2.3
			c-3.2,1.5-6.2,3.4-9.2,5.3c-5.9,3.8-11.5,8.2-17,12.6c-10.1,8.3-21,17.3-28.4,28.2c-2.3,3.4-4.7,7.3-4.3,11.5
			c0.4,4.2,2.9,7.9,5.5,11.1c9.5,11.6,23,20.3,36,27.4c6.4,3.5,13,6.9,20,9.2c2.6,0.9,5.9,2.1,8.7,2c2-0.1,3.3-1.4,5.1-2.1
			C-572.2,288.5-571.3,286.7-572.6,286.7L-572.6,286.7z"/>
	</g>
</g>
<g>
	<g>
		<path d="M-395.6,97.3c-9.5,23.1-17.4,46.9-24.2,70.9c-3.4,12-6.5,24-9.3,36.2c-1.4,6.2-2.8,12.5-4,18.7
			c-1.3,6.1-3.3,12.5-3.5,18.8c-0.1,3,4.5,7.1,5.9,2.7c2.1-6.8,2.5-14.3,3.8-21.3c1.1-5.9,2.3-11.7,3.6-17.6
			c2.6-12,5.5-23.9,8.7-35.8c6.4-23.9,14.2-47.4,22.7-70.7C-390.9,96.4-394.2,94.1-395.6,97.3L-395.6,97.3z"/>
	</g>
</g>
<g>
	<g>
		<path d="M-486.6,118.7c4.8,1.7,10.1,0.8,15.1,0.6c5.2-0.2,10.3-0.6,15.5-1c10.7-0.8,21.3-1.8,31.9-3c20.9-2.4,42.3-4.7,62.8-9.7
			c3.6-0.9,1.2-7.8-2.1-7.3c-20.9,2.6-41.6,6.7-62.6,9.3c-10.2,1.3-20.5,2.4-30.7,3.5c-5.3,0.6-10.6,1-15.9,1.6
			c-4.4,0.5-9.8,0.2-13.6,2.5C-487.1,115.7-488.2,118.2-486.6,118.7L-486.6,118.7z"/>
	</g>
</g>
<g>
	<g>
		<path d="M-492.1,188.5c12,1.3,24.9,0,36.9-0.9c12-0.9,24-2.2,35.9-4.4c4.1-0.7,2.7-7.9-1.1-7.4c-11.6,1.6-23.2,3.1-34.9,4.3
			c-6.2,0.6-12.4,1.2-18.7,1.6c-6,0.4-12.2,0.3-18.1,1.3C-494.4,183.5-494.6,188.2-492.1,188.5L-492.1,188.5z"/>
	</g>
</g>
<g>
	<g>
		<path d="M-512.1,243.4c7.6,2.1,16.7,1,24.4,0.4c7.6-0.5,15.1-1.5,22.6-2.7c7.4-1.2,14.8-2.6,22.2-4.2c6.8-1.5,13.8-2.9,20.1-5.9
			c3.3-1.6,1.2-8-2.4-7.4c-14.3,2.4-28.3,7.2-42.6,9.6c-6.7,1.2-13.5,2.1-20.3,2.9c-7.3,0.9-16.4,0.6-23.3,3.3
			C-512.6,239.9-514,242.9-512.1,243.4L-512.1,243.4z"/>
	</g>
</g>
<g>
	<g>
		<path d="M-280.9,92c-2.3,3.4-2.4,7.7-3,11.7c-0.9,6.1-1.7,12.2-2.6,18.3c-1.8,12.5-3.6,25.1-5.4,37.6c-1.8,12.5-3.7,25-5.6,37.4
			c-1,6.2-1.9,12.5-2.9,18.7c-1,6.4-2.6,13-2.9,19.5c-0.2,4.8,7.5,8.7,8.9,2.8c2.5-11,3.3-22.7,4.8-34c1.7-12.9,3.4-25.8,5-38.7
			c1.5-11.6,2.9-23.1,4.2-34.7c0.7-6.3,1.4-12.5,2.1-18.8c0.7-6,2-12.5,0.9-18.5C-277.6,91.7-279.7,90.1-280.9,92L-280.9,92z"/>
	</g>
</g>
<g>
	<g>
		<path d="M-287.8,144c0.3,5.4,6.6,4.8,9.8,2.1c3.2-2.8,5.9-6.3,8.8-9.4c12.5-13.1,26.5-24.1,40.3-35.8c2.2-1.9-0.2-7.4-3.2-5.7
			c-13.7,7.6-25.3,18.8-35.9,30.1c-3.6,3.8-7.3,7.7-10.6,11.7c-0.8,1-1.5,2.2-2.4,3.1c-1.7,1.6-3,1-5.1,1.7
			C-287,142.1-287.8,143.1-287.8,144L-287.8,144z"/>
	</g>
</g>
<g>
	<g>
		<path d="M-363.3,239.8c5.6,7.1,13-2.8,16.5-7.1c4.4-5.4,8.6-10.9,13.5-15.8c4.2-4.2,8.9-8,14.2-10.8c6.8-3.5,14.5-4.5,21.2-7.9
			c1.9-0.9,1.6-5.3-0.8-5.4c-12.4-0.2-25.8,6-34.8,14.4c-4.2,3.9-7.9,8.3-11.4,12.7c-2.2,2.8-4.4,5.7-6.6,8.6
			c-1.8,2.4-5.8,9.4-9.7,7.5C-362.9,235.2-364.2,238.6-363.3,239.8L-363.3,239.8z"/>
	</g>
</g>
<g>
	<g>
		<path d="M130.1-220.2c-13.4,19-26.3,38.3-40.3,56.8c-14.4,19-29.5,37.4-45.3,55.3c-3,3.4,2.2,7.7,5.4,7.6
			c51.2-2,103.3-5,152.9-18.6c24.6-6.8,48.9-16.2,70.7-29.6c7-4.3,16.4-12.9,12.1-22.1c-5.6-12-19.7-5.9-28.3-1.8
			c-24.2,11.5-44.1,31.2-56.2,55c-1.5,3,1.3,6.4,4.2,6.9c24.1,4.4,49.2,2.6,72-6.5c3.7-1.5,1-8.4-2.8-7.1c-22.6,7.3-46.5,9.4-69.9,5
			c1.4,2.3,2.8,4.6,4.2,6.9c9.2-17.8,22.9-33.1,39.6-44.1c3.9-2.6,7.9-4.9,12.1-7c3.1-1.6,10.6-6.2,14.3-5.2c3.7,1-1.8,6.9-3.4,8.4
			c-3.7,3.4-8.6,5.7-13,8.1c-37.6,20.6-79.9,30.4-122.2,35.7c-29.5,3.7-59.2,5.2-88.9,6.8c1.8,2.5,3.6,5.1,5.4,7.6
			c15-17.8,29.5-36.1,43.2-54.9c13.7-18.7,27.3-37.8,38.7-58C136.6-218,132.7-223.9,130.1-220.2L130.1-220.2z"/>
	</g>
</g>
<g>
	<g>
		<path d="M357.1-161.6c-29.1,36.6-52.2,77.7-69.4,121.2c-1.5,3.8,5.4,8.8,7.5,4.6c12-24.3,27.6-46.8,46.4-66.3
			c9.4-9.7,19.6-18.8,30.4-26.8c5.1-3.8,10.4-7.5,15.9-10.9c2.2-1.4,12.3-7.4,14.4-3.7c0.1-1.4,0.3-2.9,0.4-4.3
			c-13.1,15.1-27.6,28.8-43.5,40.9c2.3,2.4,4.6,4.7,6.8,7.1c5.2-7.3,12.6-11.1,20.7-14.5c10.6-4.4,21.2-8.5,31.9-12.7
			c21.7-8.6,43.4-17.5,65.2-25.9c4.7-1.8,0.7-9.6-3.6-8c-23.3,8.6-40.9,28.8-46.3,53.1c-0.6,2.6,1.7,5.7,4.4,5.9
			c24.6,2.6,40.8-18,56.1-33.7c7.8-8,17.7-17.1,29.4-18.4c6.4-0.7,9.6,3.9,9.5,9.9c-0.2,6.9-4.9,13-8.9,18.3
			c-2.5,3.4,1.9,10.1,5.9,7.4c24.5-16.5,50.4-30.7,77.5-42.5c-2.4-1.4-4.8-2.8-7.2-4.2c1.8,10.7,2.3,21.4,1.5,32.3
			c-0.2,3.4,3,6.2,6.3,5.6c19.7-3.5,38.6-10.3,56.1-20c3.7-2,0.3-9.1-3.5-7.2c-17.8,8.8-36.7,15-56.3,18.5c2.1,1.9,4.2,3.8,6.3,5.6
			c0.8-11.5,0.3-23-1.7-34.4c-0.6-3.3-4.1-5.6-7.2-4.2c-27,11.7-52.8,25.9-77.1,42.4c2,2.5,4,4.9,5.9,7.4
			c7.6-10.3,15.3-23.2,7.4-35.7c-7.7-12-23-8.3-33.3-2.1c-11.5,6.9-20,17.4-29.2,26.9c-10,10.4-23,21.1-38.3,19.5
			c1.5,2,2.9,4,4.4,5.9c4.8-21.9,20.7-40.4,41.6-48.4c-1.2-2.7-2.4-5.3-3.6-8c-22.8,9.2-45.8,18-68.6,27
			c-10.5,4.1-21.2,8.1-31.6,12.5c-8.1,3.4-16.4,7.9-21.6,15.3c-2.7,3.8,2.9,10.1,6.8,7.1c16.5-12.5,31.6-26.6,45.1-42.3
			c0.9-1.1,1.1-3,0.4-4.3c-7.9-13.2-22.9-5.9-32.7,0.6c-12.7,8.4-24.7,18-35.8,28.5c-22.6,21.5-41,47-54.2,75.2
			c2.5,1.5,5,3.1,7.5,4.6c16.1-42.9,38.2-83.2,65.1-120.2C362.3-159,359.3-164.3,357.1-161.6L357.1-161.6z"/>
	</g>
</g>
<g>
	<g>
		<path d="M784.6-231.1c-24.2,22.1-45.1,47.2-63.1,74.6c-3.3,5.1-7.8,11.6-3.2,17.5c4.2,5.3,12.2,3.7,17.9,2.4
			c14.2-3.4,26.1-12.1,33.2-24.9c2-3.6-3.3-8.7-6-4.8c-6.5,9.2-15.9,16.5-26.6,20.2c-2.5,0.8-5,1.5-7.6,1.8
			c-0.6,0.1-4.3,0.8-4.7,0.4c-0.6-0.6,1.2-3.1,1.5-3.7c3.9-7.3,8.5-14.2,13.1-21c14.1-20.7,30.3-39.8,48.3-57.2
			C789.6-227.9,787.3-233.6,784.6-231.1L784.6-231.1z"/>
	</g>
</g>
<g>
	<g>
		<path d="M708.7-186.7c-2.3,2-3.3,4-3.9,7c-0.2,0.9,0.3,2.4,1.2,2.8c30.7,12.7,64.4-0.4,95.9-1.3c-1.2-2.1-2.4-4.2-3.6-6.3
			c-2.4,6-4.9,12-7.6,17.9c-2.3,5.1-5.9,10.3-6.1,15.9c-0.1,1.7,2,5.2,4.1,3.5c4.5-3.7,6.3-10.3,8.5-15.6c2.5-5.8,4.8-11.7,7-17.6
			c0.9-2.4-1.5-5.5-4-5.4c-30.9,1.2-62.1,13.8-92.7,3.8c0.4,0.9,0.8,1.9,1.2,2.8c0.5-1.1,1.1-2.3,1.6-3.4
			C712.2-184.4,711.2-188.8,708.7-186.7L708.7-186.7z"/>
	</g>
</g>
<g>
	<g>
		<path d="M819-213.8c2.1,1.7,3.9,3.7,5.1,6.2c0.9,1.7,2.1,9.1,5.6,6.1c2.7-2.3-0.2-8.5-1.4-10.9c-1.4-2.7-3.5-5.1-5.9-6.9
			C818.5-222.3,815.7-216.4,819-213.8L819-213.8z"/>
	</g>
</g>
<g>
	<g>
		<path d="M868.9-179.4c0.1-2.2,0.2-4.4,0.2-6.6c-0.1-2.9-2.6-5.8-5.7-5c-11.5,2.9-22.1,9.2-30,18.2c-7.1,8.2-13.7,20.5-5,30.1
			c7.3,7.9,19.7,8,29.6,8.7c15.7,1.1,31.3,0.4,46.9-1.5c5.8-0.7,1.3-9.3-3.7-8.7c-11.2,1.3-22.6,1.7-33.9,1.5
			c-6.1-0.1-12.1-0.4-18.1-1c-4.2-0.4-9.6-0.7-13.2-3.2c-8.4-5.8,3.4-18.9,8.2-23.4c6.4-6.1,14.3-10.3,22.8-12.6
			c-1.9-1.3-3.7-2.6-5.6-4c0.4,2.6,1.1,5.1,1.7,7.6C863.8-176.2,868.7-175.7,868.9-179.4L868.9-179.4z"/>
	</g>
</g>
<g>
	<g>
		<path d="M63.3,223.1c-2,0.3-4.7-0.9-6.8-1c0.5,1.9,1,3.8,1.5,5.7c23.9-20.1,46.5-41.9,69.2-63.3c22.2-20.9,45.4-41.2,66.2-63.4
			c2.8-3-2.8-9.2-6.1-6.4c-23.3,20.1-45,42.3-67.2,63.6c-21.9,21.1-44.4,41.9-65,64.3c-1.4,1.6-0.7,7.4,2.2,5.6
			c1.1-0.7,6.1-4.3,5.8-4.2C63.8,223.8,64,223,63.3,223.1L63.3,223.1z"/>
	</g>
</g>
<g>
	<g>
		<path d="M109.5,240.7c7.8-5.5,14.9-12.4,22.2-18.6c6.4-5.5,12.8-11,19.2-16.4c13.6-11.5,27.2-23,41-34.2c13.5-11,27-22,40.6-32.8
			c12.8-10.2,26.9-19.7,38.7-31.1c3.7-3.6-1.9-9.5-6-7c-14.6,8.9-27.8,21-41.1,31.7c-13.7,11-27.2,22.2-40.7,33.5
			c-13.1,11.1-26.2,22.2-39.1,33.5c-6.4,5.6-12.8,11.2-19.1,16.9c-6.7,6-14.1,11.9-20,18.8C103.1,237.4,106.4,242.9,109.5,240.7
			L109.5,240.7z"/>
	</g>
</g>
<g>
	<g>
		<path d="M84.5,89.4c27.1,21.4,48.8,48.4,75.1,70.8c12.9,11,26.7,21.1,41.1,30c14.3,8.9,29.5,17.9,45.3,23.7
			c6.1,2.2,8.4-5.2,2.9-7.9c-15.6-7.6-31.2-14.9-46-24c-14.3-8.8-28-18.7-40.9-29.5c-13-10.9-24.8-23-36.7-35
			c-11.9-12-24.1-24.8-38.4-34C83.1,81,81.7,87.2,84.5,89.4L84.5,89.4z"/>
	</g>
</g>
<g>
	<g>
		<path d="M511,94.2C507,58.7,469.1,37,436.3,50.9c-16,6.8-26.8,21.2-34.9,36.1c-9.3,16.9-16,35.4-19.9,54.3
			c-3.6,17.9-6.1,38.3-1.8,56.2c3.7,15.3,15.2,29.9,31.8,31.7c17.6,1.9,35.7-11,49.1-21.1c13.7-10.4,25.6-23.1,35.2-37.3
			c11.4-16.7,19.9-36.2,19.6-56.7c-0.2-19.3-9.6-38.4-26.7-47.9c-4.7-2.6-6.5,4.3-3,6.9c25.9,20,21.8,54.8,7.7,80.6
			c-13.8,25.3-35.4,46.4-60.8,59.9c-7.1,3.7-15.4,7.7-23.6,5.8c-6.3-1.5-11.4-6.3-14.7-11.7c-8.3-13.4-6.8-31.8-5.1-46.8
			c1.8-16,5.6-31.9,11.4-46.9c5.4-13.8,12.2-27.9,21.7-39.4c11.4-13.7,28.2-21.5,46.1-18.1c18.6,3.6,33,19.1,36.5,37.6
			C505.8,98.3,511.5,99.2,511,94.2L511,94.2z"/>
	</g>
</g>
<g>
	<g>
		<path d="M448.3,138.7c-2-1.3-7.2-2.4-8.2-4.8c-0.9-2.1,2.2-3.7,3.6-2c1.2,1.5-0.6,4.3-1.6,5.4c-1.7,2-4.2,3.2-6.6,4.1
			c-0.5,0.2-1.1,0.4-1.6,0.6c-1.2,0-1.3,0.5-0.2,1.2c1.1,2.1,0.9-0.4,1.3-1.4c0.7-1.5,1.9-2.8,3.2-3.8c3.1-2.5,6.8-4,10.4-5.7
			c3.8-1.8,0.9-8.1-2.9-7.2c-8.1,1.9-18.4,6.8-19.2,16.3c-0.5,5.4,3.7,10.1,9.3,9c5.1-1,10.9-4.3,13.5-8.9
			c4.4-7.6-0.7-20.8-10.9-17.7c-4.9,1.5-5.9,6.9-4.2,11.2c1.9,5,7.8,8.9,13.1,7.4C448.6,142.3,449.6,139.6,448.3,138.7L448.3,138.7z
			"/>
	</g>
</g>
<g>
	<g>
		<path d="M710.7,39.8c0.6-0.2,1.1-0.3,1.7-0.5c1.1-0.6,1.6-1.9,1.4-3.1c-0.3-2.1-1.4-3-3.4-3.3c-1.1-0.2-2.4,0.3-2.9,1.4
			c-2.1,4.8-1.3,11.3-1.5,16.4c-0.3,7.1-0.4,14.2-0.5,21.4c-0.3,14.5-0.6,28.9-0.9,43.4c-0.2,13.8-0.4,27.6-0.6,41.3
			c-0.1,6.6-0.2,13.3-0.3,19.9c-0.1,7.2-2,16.6,1.7,22.9c1.6,2.6,6.1,3.7,7.7,0.5c2.9-5.9,1.5-13.8,1.4-20.2c0-7.3,0-14.5-0.1-21.8
			c0-13.4,0-26.7-0.1-40.1c0-14.4-0.2-28.7-0.3-43.1c0-6.5,0-13-0.2-19.4c-0.1-3.8-0.3-7.6-0.4-11.5c-0.1-2.7,0.4-5.5,0.1-8.1
			c-0.9,1.1-1.9,2.2-2.8,3.3c0.2,0.1,0.4,0.1,0.6,0.2c-0.4-0.9-0.8-1.9-1.2-2.8c-0.1,0.4-0.1,0.8-0.2,1.2c0.6-0.8,1.3-1.7,1.9-2.5
			c-0.1,0-0.3,0-0.4,0C709.7,35.5,708.5,39.4,710.7,39.8L710.7,39.8z"/>
	</g>
</g>
<g>
	<g>
		<path d="M658,94c4.1-0.8,7.1-3.9,10.2-6.6c3-2.6,5.9-5.1,8.9-7.6C684,73.9,691,68.1,698,62.4c6.7-5.5,13.4-10.9,20.3-16.1
			c3.3-2.5,6.7-5.1,10-7.6c3.6-2.7,7.7-5.2,10.3-8.8c2-2.8-1.6-8.4-5.1-6.9c-8.1,3.6-15.2,10.5-22,16.1
			c-6.6,5.4-13.2,10.8-19.7,16.4c-6.4,5.5-12.7,11.2-18.9,17c-5.8,5.5-14,11.3-16.7,19C655.8,92.7,656.4,94.3,658,94L658,94z"/>
	</g>
</g>
<g>
	<g>
		<path d="M661.2,156.1c6.8-2.5,12.6-9.3,17.8-14.3c6.2-5.9,12.3-12,18.4-18.1c5.5-5.6,11.1-11.1,16.6-16.6c2.9-2.9,5.8-5.8,8.7-8.7
			c2.9-3,6.4-5.8,8.1-9.6c1.3-2.9-2.3-7.9-5.5-5.9c-6.3,3.9-11.2,10.5-16.3,15.9c-6.2,6.6-12.4,13.2-18.6,19.8
			c-5.3,5.6-10.4,11.2-15.5,16.9c-5.4,6-11.1,12-14.7,19.2C659.7,155.6,660.2,156.4,661.2,156.1L661.2,156.1z"/>
	</g>
</g>
<g>
	<g>
		<path d="M658.2,215.1c-2.1-2.3,28-30.3,31.3-33.6c12.1-12,25.6-23.2,36.6-36.2c2.1-2.4-1.3-8-4.3-5.7
			c-15.8,11.9-29.6,27.4-43.2,41.8c-6.6,7-13.2,13.9-19.6,21.1c-3.3,3.7-9.9,12.4-3.3,16.2C657.6,219.8,659.5,216.5,658.2,215.1
			L658.2,215.1z"/>
	</g>
</g>
<g>
	<g>
		<path d="M813.6,223.4c-0.2,0-0.3,0-0.5,0c0.4,0.5,0.8,1,1.1,1.5c-0.1-1,7.6-4.8,8.5-5.3c3.5-2.2,6.9-4.4,10.4-6.7
			c6-3.9,11.9-7.9,17.8-11.9c12.5-8.6,24.7-17.6,36.8-26.8c23.9-18.4,46.9-37.9,69-58.5c4.6-4.3-3.9-11.1-8.2-7.1
			c-23,21.5-47,42-71.9,61.3c-12.4,9.6-25,18.8-37.7,27.9c-7.1,5-14.3,9.8-21.4,14.7c-5,3.4-11.5,6.1-9.1,13.2
			c0.6,1.6,2.6,3.1,4.4,2.4c1.2-0.5,1.6-0.8,2.4-1.9C816,225,815.5,222.4,813.6,223.4L813.6,223.4z"/>
	</g>
</g>
<g>
	<g>
		<path d="M950.1,114.3c3.5-4.4,1.2-7.8-2.4-11.4c-2.9-2.9-5.6-5.9-8.4-8.9c-7.8-8.5-15.4-17.1-23-25.7
			c-10.2-11.6-20.1-23.4-30.4-34.9c-2.3-2.5-6.4-3-8.8-0.5c-19.4,20-39.1,39.7-57.8,60.3c-4,4.4-8,8.7-11.9,13.1
			c-2,2.3-0.5,5.6,1.8,7c22.1,13.8,42.7,29.8,63.8,45.1c9.7,7.1,19.6,14,29.9,20.2c12.6,7.7,25.7,13.6,39.5,18.9
			c4,1.6,4.2-5.3,1.1-6.7c-47.4-22.5-86.3-57.9-130.9-84.9c0.6,2.3,1.2,4.7,1.8,7c9.2-10.7,19.7-20.3,29.6-30.4
			c11.6-11.9,23.2-23.7,34.8-35.5c2.5-2.6,5-5.1,7.6-7.7c-2.9-0.2-5.9-0.3-8.8-0.5c9.4,10.8,19.2,21.3,28.9,31.8
			c7.5,8.1,15.1,16.1,22.8,24c3.3,3.4,6.6,6.6,10,9.9c1.1,1.1,2.2,2.1,3.4,3.2c1,0.9,3.8,3.3,3.9,3.3
			C946.2,112.6,948.3,116.6,950.1,114.3L950.1,114.3z"/>
	</g>
</g>
<g>
	<g>
		<path d="M205.6,319.4c-1.2,35.2-0.8,70.6-0.9,105.9c-0.1,17.8-0.2,35.6-0.3,53.4c0,8.7-0.1,17.4-0.1,26.2c0,8-1.2,17,0.7,24.9
			c0.5,1.9,3,3.3,4,0.8c2.6-6.9,1.1-16,1-23.3c0-8.6-0.1-17.2-0.1-25.8c-0.1-17.9-0.2-35.7-0.3-53.6c-0.2-36.3,0.4-72.8-0.9-109.1
			C208.5,316.3,205.7,317.5,205.6,319.4L205.6,319.4z"/>
	</g>
</g>
<g>
	<g>
		<path d="M120.6,403.1c6.3-3.3,11.6-8.3,16.8-13c8.1-7.2,15.6-15.2,23.3-22.9c15.6-15.6,31.5-30.7,47.7-45.6
			c2.1-1.9,0.5-7.3-2.6-5.2c-7.5,5.2-14,11.9-20.4,18.3c-8.4,8.3-16.5,16.9-24.6,25.5c-7.2,7.5-14.3,15.1-21.6,22.5
			c-6,6.1-12,13.3-19.1,18.1C119,401.6,118.9,404,120.6,403.1L120.6,403.1z"/>
	</g>
</g>
<g>
	<g>
		<path d="M131.5,473.5c13.1-11.4,25.7-22.9,39.8-33.1c6.8-4.9,13.8-9.6,21-14.1c3.8-2.3,7.6-4.6,11.5-6.8c4.2-2.3,8.9-4.2,12.3-7.6
			c1.2-1.2,1.2-5.2-1.3-4.6c-8.3,1.9-16.4,8.3-23.5,12.9c-7.4,4.8-14.6,9.9-21.6,15.3c-14,10.8-28,22.9-39.4,36.5
			C129.7,472.9,130.4,474.5,131.5,473.5L131.5,473.5z"/>
	</g>
</g>
<g>
	<g>
		<path d="M484.6,293.8c-0.7,9.2-0.3,18.6-0.3,27.9c0,9.1-0.2,18.1-0.5,27.2c-0.5,18.6-1.2,37.1-2.3,55.7
			c-1.1,17.8-2.4,35.6-4.1,53.4c-1.8,18.7-5.2,37.5-5.8,56.3c-0.1,3,3.5,4.1,4.3,0.9c4.5-17.8,5.1-37.1,6.7-55.4
			c1.6-18.3,2.9-36.6,3.8-54.9c0.9-18.6,1.6-37.2,1.8-55.8c0.1-18.4,1.2-37.6-0.9-55.9C487.2,291,484.7,292.5,484.6,293.8
			L484.6,293.8z"/>
	</g>
</g>
<g>
	<g>
		<path d="M483.5,288.1c-25.3-2.6-51.6,10.5-72,24.2c-19.5,13.1-37,30.3-46.9,51.9c-9.8,21.4-12,46.8-2.9,68.7
			c9.4,22.8,30.4,38.3,51.4,49.7c12.2,6.7,25,12.1,38.3,16.2c14.1,4.3,29.6,8,44.5,7.6c3.3-0.1,2.2-6.3-0.6-6.7
			c-11.9-1.8-23.7-3.3-35.4-6.4c-11.2-2.9-22.1-6.8-32.6-11.7c-21-9.6-43.8-23.4-55.8-43.8c-11.7-19.8-11.1-44.8-2.8-65.8
			c8.3-21.1,24.6-38.6,42.8-51.8c10.4-7.5,21.6-14.1,33.4-19.1c12.4-5.2,24.9-7.4,38.2-9.2C484.8,291.8,485.5,288.3,483.5,288.1
			L483.5,288.1z"/>
	</g>
</g>
<g>
	<g>
		<path d="M629.2,347.6c-3.3-1.8-6.7-1.1-9.1,1.8c-1.5,1.8,0.4,6.9,2.9,4.7c29.9-26.8,58.7-54.9,92.8-76.5c-1.8-1.7-3.7-3.4-5.5-5
			c-2.9,35.1-5.3,70.2-7.9,105.3c-1.3,17.2-2.6,34.4-3.9,51.6c-0.6,8.6-1.3,17.2-1.9,25.8c-0.7,8.7-1.9,17.7-1.6,26.4
			c0.1,3.1,5.4,7.2,6.3,2.4c1.6-8.5,1.7-17.5,2.4-26.1c0.6-8.6,1.3-17.2,1.9-25.8c1.3-17.5,2.6-35.1,3.9-52.6
			c2.6-34.7,5.4-69.5,7.8-104.2c0.2-2.5-2.5-7-5.5-5c-33.6,22-63.4,49.7-91.1,78.6c1,1.6,1.9,3.1,2.9,4.7c1.5-0.7,3-1.5,4.5-2.2
			C629.8,351.8,630.8,348.4,629.2,347.6L629.2,347.6z"/>
	</g>
</g>
<g>
	<g>
		<path d="M894.6,269c-4.5-1-6.3,3.2-7,6.9c-1.3,7.6-0.6,16-0.9,23.7c-0.6,18-1.1,36-1.5,54c-0.9,36.2-1.8,72.5-2.7,108.7
			c-0.5,20.6-1,41.2-1.5,61.8c-0.1,4.5,6.8,6.4,6.9,1.1c1.2-66.9,2.8-133.9,3.5-200.8c0.1-9.6,0.2-19.3,0.3-28.9
			c0.1-4.7,0.1-9.5,0.2-14.2c0-3.2-0.3-7.2,2.7-9.2C895.6,271.4,896.1,269.3,894.6,269L894.6,269z"/>
	</g>
</g>
<g>
	<g>
		<path d="M791.1,459.2c-1.2-2-3.8-0.6-4.2,1.3c-0.9,3.9,7,9.1,9.4,11.2c9.5,8.1,20.4,14.4,31.4,20.3c11.5,6.3,23.3,12.2,34.2,19.6
			c6,4.1,11.7,8.6,17,13.5c2.7,2.5,5.4,5.2,7.9,7.9c2.1,2.3,4.1,5.1,6.8,6.8c2.1,1.3,3.9-1.3,3.3-3.3c-1.5-5.4-7.1-9.7-11-13.5
			c-3.9-3.8-7.9-7.3-12.2-10.6c-8.4-6.6-17.6-12.1-27-17.2c-9.3-5-18.8-9.7-28-14.9c-5.7-3.2-11.3-6.4-16.6-10.2
			c-2.1-1.5-4.2-2.9-6.2-4.5c-1.9-1.5-5.8-3.8-6.4-6.3c-0.2,0.6-0.3,1.3-0.5,1.9c-0.1,0-0.1,0.1-0.2,0.1
			C789.8,462.9,791.8,460.5,791.1,459.2L791.1,459.2z"/>
	</g>
</g>
<g>
	<g>
		<path d="M219.5,644.3c-2.1,9.2-1,20-1.1,29.5c-0.1,9-0.3,18.1-0.3,27.1c-0.1,18.8-0.2,37.6-0.4,56.4c-0.5,35.9-1.6,71.9-4.3,107.7
			c-0.8,10.2-1.7,20.4-2.7,30.5c-1.1,10.5-3.2,21.2-3.1,31.8c0,2.9,4.7,7.3,6,2.7c2.5-8.9,2.9-18.6,3.8-27.8
			c0.9-9.4,1.7-18.9,2.4-28.3c1.3-18.9,2.3-37.8,2.9-56.7c1.2-37.2,1.2-74.5,1.1-111.8c0-10.5-0.2-21-0.3-31.4
			c-0.1-9.9,0.9-20.5-1-30.3C222,641.6,219.8,643,219.5,644.3L219.5,644.3z"/>
	</g>
</g>
<g>
	<g>
		<path d="M145.1,714.1c1.7,18.6,9.1,35.6,16.9,52.4c8,17.3,15.5,34.8,21.8,52.8c6.1,17.5,11.3,35.2,15.5,53.2
			c2.2,9.3,4.1,18.6,5.7,28c1.7,9.9,2.5,20.1,4.5,29.9c0.7,3.7,5.7,3.5,5.6-0.5c-0.4-9.7-2.5-19.6-4.2-29.1
			c-1.6-8.7-3.3-17.4-5.3-26c-4.4-19-9.9-37.7-16.4-56c-6.2-17.3-13.3-34.3-21.3-50.8c-8.4-17.7-17.3-35.5-20.2-55
			C147.4,711.3,145,712.9,145.1,714.1L145.1,714.1z"/>
	</g>
</g>
<g>
	<g>
		<path d="M218.9,920.9c4.8-2.1,6.6-8.3,8.7-12.7c3.3-6.7,6.6-13.4,9.8-20.1c6.2-13,12.4-25.9,18.7-38.9c6.1-12.7,12.2-25.3,18.2-38
			c6.3-13.1,13.5-26.1,18-40c0.7-2.3-2.2-8.1-4.5-4.6c-7.7,12-13.2,25.4-19.2,38.3c-5.9,12.6-11.8,25.2-17.7,37.8
			c-5.8,12.3-11.5,24.6-17.3,36.9c-3.1,6.5-6.1,13.1-9.1,19.6c-3,6.4-7.1,13.1-7.3,20.3C217.2,920.2,217.9,921.3,218.9,920.9
			L218.9,920.9z"/>
	</g>
</g>
<g>
	<g>
		<path d="M533.1,769.2c7.2-6.1,13-13.9,19.2-21c5.8-6.6,11.7-13.1,17.7-19.6c11.9-12.8,24.8-24.2,37.2-36.3
			c5.2-5.1-3.2-11.8-8.3-7.8c-14.1,11.1-26.6,24.8-38.6,38c-5.6,6.2-11,12.5-16.4,18.8c-5.7,6.7-13.1,13.7-17.2,21.6
			C525,766.4,529.5,772.3,533.1,769.2L533.1,769.2z"/>
	</g>
</g>
<g>
	<g>
		<path d="M542.3,685.8c11.1,12.2,18,27.2,26.8,41c4.8,7.5,10.1,14.7,15.8,21.6c5.3,6.4,11,13.8,18,18.4c4.1,2.7,10-0.7,6.2-5.5
			c-5-6.3-11.7-11.3-17.1-17.3c-7-7.6-13.3-15.8-18.9-24.4c-8.6-13.2-15.8-27.6-27.2-38.8C542.5,677.5,539.6,682.9,542.3,685.8
			L542.3,685.8z"/>
	</g>
</g>
<g>
	<g>
		<path d="M530,735c-3.7-1-4.4-1-2.2-0.2C528.5,735,529.3,735.1,530,735c2.3-0.1,4.9-0.8,7.1-1.1c4.7-0.7,9.3-1.4,14-2
			c8.5-1.2,17.1-2.2,25.7-3c8.9-0.9,17.8-1.6,26.8-2.2c9.8-0.6,19.7-0.5,29.5-1.4c7-0.6,4-10.1-2-10.2c-17.4-0.5-35.3,1.7-52.6,3.5
			c-17.4,1.9-34.7,4.4-51.8,7.7C520.9,727.4,525.1,735.7,530,735L530,735z"/>
	</g>
</g>
<g>
	<g>
		<path d="M715.4,669.6c-6.8,8.9-12.6,18.7-19,27.9c-6.8,9.7-13.6,19.5-20.8,29c-1.4,1.8-1.3,4.6,0.6,6.1
			c19.1,15.7,40,29.4,61.3,41.9c2.5,1.5,6.6,1.1,7.3-2.3c4-18.4,18.1-31.9,31.2-44.3c2.6-2.4,0.1-6.8-2.6-7.7
			c-27.4-9.8-52.7-24.2-74.8-43.2c-5.2-4.5-14.1,2-8.1,6.9c23.5,19.5,50.3,34.9,79.1,45c-0.9-2.6-1.7-5.1-2.6-7.7
			c-14.1,13.4-28.5,28-32.4,47.8c2.4-0.8,4.9-1.5,7.3-2.3c-21.3-12.1-41.7-25.8-61.3-40.5c0.7,2,1.5,4.1,2.2,6.1
			c12.8-18.8,26.6-37.9,36.9-58.2C721.2,671.7,717.8,666.5,715.4,669.6L715.4,669.6z"/>
	</g>
</g>
<g>
	<g>
		<path d="M720.4,728.4c-1.3-0.2-2.9-0.2-3.8-1.2c0.4,0.6,0.7,1.1,1.1,1.7c0.2,0.4-0.8,0.6,0.6-0.1c0.5-0.2,1-0.5,1.5-0.6
			c0.3-0.1,0.9-0.1,1.1-0.2c-0.2,0,0,0,0.5,0.1c-1.2-0.2-1.8-0.8-1.8-1.7c-0.1-0.6-0.1-0.5-0.1,0.1c0,0,0-0.1,0-0.1
			c0.3-0.2-0.6,0.4-0.3,0.2c-0.1,0-0.9,0.4-0.9,0.3c0-0.1,1,0.4,1.1,0.5c0.5,0.7,0.9,1.4,1.4,2.1c-0.3,0.9-0.5,1.9-0.8,2.8
			c0.1-0.1,0.3-0.1,0.4-0.2c-0.6-0.4,1.4-0.5,2.2-0.8c1.3-0.4,2-0.8,3-1.8c2-2.1,0-7.1-3-7c-3.6,0.1-10.1,1.1-10.6,5.7
			c-0.4,3.6,2.7,6.5,6,7.3c3,0.7,6.4-0.1,8.5-2.3c2.2-2.3,2.5-5.8,1.3-8.6c-1.4-3.3-5-5.2-8.5-5.1c-2.7,0.1-6.2,1.4-7.8,3.7
			c-2.2,2.9-0.7,7.1,1.6,9.4c2,2.1,4.6,2.7,7.5,2.7C724.2,735.3,723.8,728.9,720.4,728.4L720.4,728.4z"/>
	</g>
</g>
<g>
	<g>
		<path d="M814.2,669.1c14.8,14.1,30.6,26.9,45.2,41.2c7.2,7.1,14.4,14.4,21.3,21.9c7.1,7.7,13.5,16.5,21.1,23.5
			c2,1.8,4.8,2.8,7.3,1.5c2.1-1.1,3.4-3.9,1.9-6.1c-5.7-8.3-13.6-15.5-20.5-22.6c-7.5-7.7-15-15.2-22.8-22.6
			c-7.5-7.1-15.2-14.1-23.1-20.8c-9-7.7-18-15.8-27.8-22.4C812.8,660.1,811.9,666.9,814.2,669.1L814.2,669.1z"/>
	</g>
</g>
<g>
	<g>
		<path d="M820.4,765.2c18.5-14.7,35.3-31.7,51.8-48.6c7.9-8.1,15.6-16.4,23.2-24.8c3.6-4,7.1-7.9,10.6-11.9
			c3.1-3.6,9.4-8.6,9.6-13.6c0.1-4-4.7-6.8-8-4.8c-4.7,2.7-7.9,8-11.4,12c-3.7,4.4-7.5,8.7-11.4,13c-7.1,8-14.3,15.9-21.5,23.7
			c-15.3,16.5-31.8,32-46.9,48.7C813.9,761.5,816.9,767.9,820.4,765.2L820.4,765.2z"/>
	</g>
</g>
<g>
	<g>
		<path d="M832.5,671.7c17.4-0.7,34.9-3.4,52.3-4.5c8.4-0.5,16.9-1,25.4-1.4c8.4-0.4,18.3,0.8,26.3-1.7c3.8-1.2,1.4-7.2-1.4-8
			c-4.1-1.2-8.2-0.7-12.4-0.5c-5.2,0.3-10.4,0.6-15.6,0.9c-8,0.5-15.9,1.1-23.8,1.8c-17.3,1.5-35.4,2.4-52.4,6.2
			C827.2,665.3,829.2,671.9,832.5,671.7L832.5,671.7z"/>
	</g>
</g>
<g>
	<g>
		<path d="M811.3,768.3c4.7,2.1,10.1,0.3,15-0.4c4.8-0.7,9.6-1.4,14.3-2.1c8.9-1.3,17.8-2.4,26.7-3.4c8.1-0.9,16.2-1.6,24.4-2.2
			c4.8-0.4,9.6-0.6,14.4-0.9c4.5-0.2,9.3,0.2,13.5-1.4c3.6-1.4,3-5.9,0.2-7.8c-3.8-2.6-8.2-1.6-12.5-1.3c-4.9,0.3-9.7,0.7-14.6,1.1
			c-9.8,0.8-19.5,1.9-29.3,3.1c-10.2,1.3-20.3,2.8-30.4,4.7c-4.4,0.8-8.8,1.7-13.1,2.7c-4.2,1-7.5,1.2-9.3,5.3
			C810.1,766.5,810.3,767.8,811.3,768.3L811.3,768.3z"/>
	</g>
</g>
<g>
	<g>
		<path d="M528.8,916c16.6-25.6,33.6-51,52.4-75c-3.2-0.6-6.4-1.2-9.6-1.8c3.4,11.4,8.9,22.5,14.3,33.1c5.4,10.7,11.4,21,17.8,31.1
			c2.6,4,9.2,3.4,10.9-1c5.3-14.4,10.6-28.8,15.9-43.2c2.5-6.7,5-13.5,7.5-20.2c2.5-6.6,5.8-13.6,6.7-20.7c0.6-4.9-7.1-9-9.9-4.1
			c-7.3,12.7-11.4,27.8-16.3,41.5c-5.3,14.6-10.5,29.2-15.6,43.8c3.6-0.3,7.2-0.7,10.9-1c-6.5-9.6-12.4-19.5-17.8-29.8
			c-5.4-10.2-9.2-21.1-14.5-31.2c-1.8-3.4-7-5.7-9.6-1.8c-16.6,24.9-33.2,49.8-47.4,76.2C522.9,914.8,526.5,919.6,528.8,916
			L528.8,916z"/>
	</g>
</g>
<g>
	<g>
		<path d="M589.3,867.6c5.3-1.9,8.8-9.3,12-13.7c3.2-4.4,8-8.7,8.5-14.3c0.2-2.3-2.8-5.6-5.2-4.2c-5.3,3.1-8.4,9.2-11.3,14.5
			c-2.9,5.1-5.8,10.4-5.8,16.3C587.4,867.1,588.3,868,589.3,867.6L589.3,867.6z"/>
	</g>
</g>
<g>
	<g>
		<path d="M707.7,885c16.6-25.3,28.8-53.4,44-79.6c-3.1,0.3-6.3,0.7-9.4,1c5.7,5.2,8,13.2,10.6,20.3c2.6,7.2,5,14.5,7.4,21.7
			c4.8,14.3,9.7,30,18.6,42.3c3.9,5.5,15.4,2.4,11.5-4.7c-8.4-15-14.5-30.3-20.1-46.5c-2.7-7.8-5.3-15.5-8.4-23.1
			c-2.6-6.5-5.7-13.3-11.6-17.4c-2.5-1.8-7.7-2.6-9.4,1c-12.3,26.9-27.7,52.5-37.7,80.4C702.3,882.7,705.4,888.4,707.7,885
			L707.7,885z"/>
	</g>
</g>
<g>
	<g>
		<path d="M739.6,894.6c7.9-4.8,14.7-12,21.4-18.4c3.5-3.3,6.9-6.7,10.3-10.1c3.4-3.4,9-6.9,9.4-11.9c0.2-2.5-2.7-6.3-5.5-5.1
			c-4.5,2-7.1,5.8-10.4,9.3c-3.1,3.4-6.2,6.7-9.2,10.1c-6.2,7-13.3,14-18.2,22.1C736.6,892,737.2,896,739.6,894.6L739.6,894.6z"/>
	</g>
</g>
<g>
	<g>
		<path d="M894,793.7c-7.6,14.9-12.3,31.6-17.9,47.3c-2.6,7.3-5.1,14.6-7.7,21.9c-2.7,7.6-7.3,16.2-7.6,24.3
			c-0.2,4.5,7.5,7.2,9.8,3.1c3.5-6.4,5.2-14,7.4-20.9c2.7-8.5,5.4-17.1,8.1-25.6c4.8-15.3,10.9-30.8,13.6-46.7
			C900.2,794.4,895.8,790.3,894,793.7L894,793.7z"/>
	</g>
</g>
<g>
	<g>
		<path d="M886.1,823.4c5.4-0.3,10.4,4.7,14.7,7.5c5,3.3,10,6.5,15,9.8c9.4,6.2,18.7,12.6,28.3,18.4c4.4,2.7,6.8-4.3,3.1-6.8
			c-11.1-7.7-23-14.3-34.6-21.1c-5-3-10-5.9-15-8.8c-3.5-2-7-4.8-11.2-3C885,819.9,883.8,823.5,886.1,823.4L886.1,823.4z"/>
	</g>
</g>
<g>
	<g>
		<path d="M870.7,861.7c9.4,6.1,19.1,11.5,29,16.6c4.9,2.5,9.8,4.9,14.9,7.1c5.4,2.4,11.1,5.5,16.9,6.5c5.2,0.9,4.7-5.4,1.5-7.6
			c-4.5-2.9-10.2-4.3-15.1-6.3c-5.5-2.2-11-4.5-16.3-7.1c-9.7-4.5-19.2-9.6-28.7-14.7C869.7,854.5,868.3,860.1,870.7,861.7
			L870.7,861.7z"/>
	</g>
</g>
<g>
	<g>
		<path d="M568.7,982.2c-1-1.7-4.5-5.1-4-7.2c0.5-2.1,3.8-2.9,5.4-3.9c0.4-0.2,0.8-0.3,1.2-0.5c-0.8-2.3-1.7-2.7-2.6-1.4
			c-1.1,0.3-2.2,1.1-3.3,1.5c-2.5,0.8-5.1,1.1-7.7,1c1.7,2.3,3.4,4.5,5.1,6.8c1.1-2.7,2.9-4.3,5.7-5.1c3.7-1.1,2.8-7.3-1-7.7
			c-5.9-0.6-11.3,2.6-13.4,8.2c-1.2,3.2,1.9,6.7,5.1,6.8c5.8,0.2,14.5-1,18-6.4c3.4-5.2-0.9-12.7-7.1-12.4
			c-4.9,0.2-10.8,4.8-11.8,9.6c-1.1,5.3,3.6,12.3,8.3,14.5C568.4,986.8,569.4,983.4,568.7,982.2L568.7,982.2z"/>
	</g>
</g>
<g>
	<g>
		<path d="M565.8,1017.1c-3.3,0.8,2.2-4.6,3.1-5.2c1-0.7,4.7-3.5,6-2c1,1.2-4.3,3.8-5.3,4.2c-2.6,1-6.1,2.4-8.8,1.1
			c0.4,2.6,0.9,5.2,1.3,7.8c4.9-2.6,10-3.9,15.5-4.4c4.4-0.4,1.9-7.7-1.6-7.9c-7-0.5-13.5,1.1-19.6,4.5c-3.2,1.8-1.3,6.5,1.3,7.8
			c7,3.3,17.5,1.4,23-4.3c5.7-5.8,2.1-14.9-5.4-16.9c-6.5-1.7-12.3,3-15.5,8.4c-1.9,3.2-2.4,7.4,0.2,10.4c1.5,1.8,4.1,2.7,6.2,1.4
			C567.5,1020.9,568.4,1016.5,565.8,1017.1L565.8,1017.1z"/>
	</g>
</g>
<g>
	<g>
		<path d="M568.2,1057.6c-0.6,0-5.5-1-5.4-1.1c0.3,0.4,0.5,0.8,0.8,1.2c0.2-0.5,0.5-0.9,1-1.2c0.5-0.4,1.2-0.7,1.9-0.9
			c0.7-0.2,2-0.3,2.5-0.6c0.9,0,0.7-0.3-0.9-1.1c0,0,0,0.1,0,0.1c-0.1,0.1-0.3,2-0.4,2.3c-0.3,0.7-0.9,1.5-1.5,2
			c-1.1,1.1-2.6,1.8-4,2.3c-0.6,0.2-1.5,0.2-2.1,0.6c-2,0.1-1.3,1.4,2.2,3.9c0.1-0.1,0.1-0.2,0.2-0.4c1.4-0.8,2.6-1.9,4.2-2.5
			c1.4-0.5,2.9-0.9,4.3-1.2c4.3-0.7,2.6-7.3-1.2-7.5c-4.7-0.3-10.3,1-13.5,4.8c-2.8,3.2-2.3,8.3,1.7,10.4c3.5,1.9,8.5,0,11.6-1.9
			c3.8-2.2,6.5-6.2,6.5-10.7c0.1-4.7-2.9-9.3-7.9-9.6c-3.6-0.2-8.1,1.6-10.3,4.5c-2.5,3.3-1.7,8.1,1.2,10.9c2.6,2.5,6.1,2.4,9.3,1.4
			C570.8,1062.4,570.9,1057.7,568.2,1057.6L568.2,1057.6z"/>
	</g>
</g>
<g>
	<g>
		<path d="M634.2,1008.1c0-0.6,2.7-2.3,3.5-2.6c0.8-0.4,1.7-0.8,2.5-1.1c0.3-0.1,2.9-0.6,3-0.8c-1-1.1-2.1-2.3-3.1-3.4
			c-0.1,0.4-0.3,0.8-0.5,1.2c-0.3,0.6-0.6,1.1-0.9,1.6c-0.8,1.2-1.7,2.3-2.9,3.1c-1,0.8-2.1,1.5-3.3,1.9c-0.4,0.1-0.8,0.3-1.1,0.4
			c0.6,0.5,1.1,1.1,1.7,1.6c0.1,0.5,0.3,0.6,0.5,0.1c0.3-0.4,0.6-0.6,1-0.9c2.6-1.9,5.9-2.6,9.1-2.3c-0.7-2.5-1.4-5-2.1-7.5
			c-3.3,2.4-6.9,3.3-11,3.3c-3.9-0.1-3.3,6.1,0,6.8c5.2,1.2,10.3,0.1,14.8-2.8c3-2,1.2-7-2.1-7.5c-6.2-1-17.4,1.3-17.8,9.4
			c-0.1,3.4,2.2,7.1,5.6,7.9c3.2,0.8,7-1.2,9.4-3c4.5-3.3,10.5-11.8,4.8-16.7c-3.4-2.9-8.5-0.5-11.8,1.4c-4.1,2.3-6,6-5,10.6
			C629.4,1012.7,634.3,1012,634.2,1008.1L634.2,1008.1z"/>
	</g>
</g>
<g>
	<g>
		<path d="M634,1054.2c1.4-2.6,2.8-4.7,5.2-6.4c1.7-1.2,4.5-3.2,6.6-3.5c1-0.6,1.3-0.4,0.9,0.4c-0.1,0.7-0.3,1.3-0.8,1.9
			c-0.6,1-1.5,1.9-2.4,2.5c-0.8,0.6-1.9,1.3-3,1.2c-0.5,0-1-0.1-1.4-0.4c1.3-1.1,1.1-2.6-0.5-4.4c1.8,1,3.5,2,5.3,3
			c-0.3-0.9-0.6-1.7-1.1-2.5c-0.9-1.6-3-2.9-4.5-1c-0.2,1.2-0.4,2.4-0.6,3.6c0.1,3,4,5.8,6.5,3.3c6.4-6.6-6.2-16.1-11.3-7.5
			c-4.8,8.1,5.1,16.4,12.9,13.3c7.8-3.2,12.4-15.8,3.5-20.6c-4.1-2.2-8.3-0.3-11.7,2.2c-4.7,3.3-7.8,7.2-7.9,13.1
			c0,1.5,1.1,2.9,2.6,3c0,0,0.1,0,0.1,0C633,1055.4,633.7,1054.8,634,1054.2L634,1054.2z"/>
	</g>
</g>
<g>
	<g>
		<path d="M760.4,967c-0.6,12.4-0.6,24.9-0.6,37.4c0,6.5,0,13.1,0,19.6c0,5.8-1,12.1,1.5,17.4c0.9,2,4.4,3.9,5.7,1.1
			c2.6-5.5,0.5-13.2,0.1-19.1c-0.4-6.4-0.9-12.8-1.2-19.2c-0.7-12.7-1.3-25.5-2.2-38.2C763.5,963.2,760.5,965,760.4,967L760.4,967z"
			/>
	</g>
</g>
<g>
	<g>
		<path d="M757.2,967.9c1.3,3,6.4,5.4,8.9,7.3c5,3.8,9.9,7.6,14.8,11.6c4,3.2,8,6.6,11.8,10c4.6,4.1,8.9,9.6,14.6,12
			c2,0.9,4.7-0.9,4.1-3.3c-1.5-6.2-9.5-11-14.1-14.7c-4.6-3.7-9.3-7.3-14.1-10.9c-4-3-8-5.9-12.1-8.6c-3.4-2.2-7.5-6.1-11.7-6
			c-0.7,0-1.3,0.6-1.6,1.2C758.1,966,757.1,967.6,757.2,967.9L757.2,967.9z"/>
	</g>
</g>
<g>
	<g>
		<path d="M759.4,1042.5c0.2-1.1,5.6-3.2,6.8-3.9c2.5-1.4,4.9-2.9,7.4-4.3c5.3-3.1,10.6-6.2,15.9-9.5c9.4-5.8,20-10.9,28.7-17.8
			c3.8-3-1.2-9.3-5.2-7.1c-5,2.6-9.6,6.4-14.3,9.6c-5.4,3.7-10.8,7.4-16.2,11.2c-5.6,3.9-11.1,7.9-16.5,11.9
			c-3.4,2.5-9.6,5.2-9.8,10C756,1045.4,759,1044.9,759.4,1042.5L759.4,1042.5z"/>
	</g>
</g>
<path d="M-2256.6,689.5l-106.1-166.9c-0.3-0.5-0.2-1.4,0.4-1.5c37.8-10.6,60.7-35.8,60.7-62c0-28.6-26.3-36.2-41.2-37.6
	c-11.5-1-20.4,3.3-23,6l0.9,29.5c3.2-1.9,6-2.4,8.2-2.1c3.6,0.5,5.9,3.2,6.4,6.1c0.3,1.6,0,3.2-0.8,4.5c-2.9,4.7-10.5,8-26.1,13.3
	c-0.8,0.3-2.3,1.2-3.5,1.8c-0.5,0.2-1-0.2-0.9-0.7l0,0c0.5-2.1,0.8-4.3,0.8-6.4v-49.9h-52v49.1c0,1.8,0.2,3.7,0.6,5.5l0.4,1.7
	c0.1,0.6-0.5,1.1-1.1,0.8c-1.3-0.7-2.9-1.6-3.8-2c-15.2-5.2-22.6-8.4-25.5-13.1c-0.8-1.3-1.1-3-0.8-4.5c0.5-2.9,2.8-5.6,6.4-6.1
	c2.3-0.3,5,0.2,8.2,2.1l0.9-29.5c-2.6-2.6-11.5-7-23-6c-14.9,1.4-41.2,10-41.2,37.6c0,32.4,25.5,53.4,60.7,62c0.6,0.1,0.7,1,0.4,1.5
	l-107.1,166.9h63.9l54.2-91.6c1.4-2.1,2.6-4.4,3.5-6.8l2.4-6.2c0.2-0.5,1-0.4,1,0.2v9.6v96.8h52v-98v-8.4c0-0.6,0.8-0.7,1-0.2
	l1.6,4.1c1.1,2.9,2.5,5.7,4.3,8.3l52.5,92.1H-2256.6z"/>
<path d="M-2026.2,691.5l-54.4-172.8l-2.7-12.4c-0.1-0.6-1-0.6-1.2,0l-2.6,12.4l-53.7,172.8h-70l94.5-264.1l64.5-0.1l94.7,264.2
	H-2026.2z"/>
<circle cx="-2099.8" cy="630.5" r="15.8"/>
<polygon points="-1664.8,689.5 -1719.8,689.5 -1719.8,493.1 -1779.7,552 -1837.8,493.9 -1837.8,689.5 -1892.8,689.5 -1892.8,427.5 
	-1838.9,427.5 -1779.4,490.9 -1719.6,427.4 -1664.8,427.5 "/>
<path d="M-2368.9,940.6c-0.3-0.5-0.2-1.4,0.4-1.5c35.2-8.6,60.7-29.6,60.7-62c0-27.6-26.3-36.2-41.2-37.6c-11.5-1-20.4,3.4-23,6
	l0.9,29.5c3.2-1.9,6-2.4,8.2-2.1c3.6,0.5,5.9,3.2,6.4,6.1c0.3,1.6,0,3.2-0.8,4.5c-2.9,4.6-10.3,7.9-25.5,13.1
	c-0.9,0.3-2.5,1.3-3.8,2c-0.5,0.3-1.2-0.2-1.1-0.8l0.3-1.7c0.4-1.8,0.6-3.6,0.6-5.5v-49.1h-26h-26v49.1c0,1.8,0.2,3.7,0.6,5.5
	l0.4,1.7c0.1,0.6-0.5,1.1-1.1,0.8c-1.3-0.7-2.9-1.6-3.8-2c-15.2-5.2-22.6-8.4-25.5-13.1c-0.8-1.3-1.1-3-0.8-4.5
	c0.5-2.9,2.8-5.6,6.4-6.1c2.3-0.3,5,0.2,8.2,2.1l0.9-29.5c-2.6-2.6-11.5-7-23-6c-14.9,1.4-41.2,10-41.2,37.6
	c0,32.4,25.5,53.4,60.7,62c0.6,0.1,0.7,1,0.4,1.5l-107.1,166.9h63.9l54.2-91.6c1.4-2.1,2.6-4.4,3.5-6.8l2.4-6.2c0.2-0.5,1-0.4,1,0.2
	v9.6v96.8h26h26v-96.8v-9.6c0-0.6,0.8-0.7,1-0.2l2.4,6.2c0.9,2.4,2.1,4.6,3.5,6.8l54.2,91.6h63.9L-2368.9,940.6z"/>
<path d="M-681.2,534.9l22,71.6l28.3-47.6c3.2-7.6,8-12.7,15.7-11.1c7.7,1.7,11.3,9.3,11.3,15.6l-0.1,23l-67.3,83.4l5.4,74.5
	l43.4-64.9l9.4-12.6c3-4,9.2-1.9,9.2,3.1v99.5h55l-2.2-248.3c0-26-15-44.4-41.2-48.6C-646.9,463.7-663.4,505.6-681.2,534.9z"/>
<text transform="matrix(1 0 0 1 -920.8008 1004.386)" font-family="'FuturaStd-ExtraBold'" font-size="144">F</text>
<text transform="matrix(1 0 0 1 -644.7734 971.3831)" font-family="'FuturaStd-ExtraBold'" font-size="144">f</text>
</svg>
